<svg width="12" height="13" viewBox="0 0 12 13" fill="none" xmlns="http://www.w3.org/2000/svg">
<path d="M10.8956 0.0012576L10.8945 0.00124617L4.74668 0.120312C4.28611 0.129238 3.91992 0.509798 3.92882 0.970451C3.93771 1.43105 4.3183 1.79721 4.7789 1.78831L8.90653 1.70833L0.237777 10.6924C-0.0824136 11.0236 -0.0734643 11.5516 0.257767 11.8718C0.588998 12.192 1.11705 12.1831 1.43724 11.8518L10.106 2.86784L10.1659 6.99574C10.1727 7.45638 10.5515 7.82434 11.0121 7.81762C11.4729 7.81094 11.8408 7.43197 11.8341 6.97142L11.7447 0.823056L11.7447 0.821966C11.7373 0.360461 11.3556 -0.00704024 10.8956 0.0012576Z" fill="white"/>
</svg>
