<svg width="15" height="10" viewBox="0 0 15 10" fill="none" xmlns="http://www.w3.org/2000/svg">
<path d="M0.226449 4.04802L0.227127 4.04732L4.16516 0.213215C4.46018 -0.0740113 4.9322 -0.0677604 5.2195 0.227298C5.50677 0.522319 5.50048 0.994341 5.20546 1.2816L2.56146 3.85577L13.7197 3.98816C14.1315 3.99267 14.4616 4.3301 14.4571 4.74186C14.4526 5.15362 14.1151 5.48374 13.7034 5.47923L2.54517 5.34683L5.13207 7.97829C5.42073 8.27194 5.41668 8.74399 5.12302 9.03265C4.82933 9.32138 4.35724 9.31722 4.06862 9.02364L0.215513 5.10419L0.214851 5.10348C-0.0739455 4.80885 -0.0678265 4.3353 0.226449 4.04802Z" fill="white"/>
</svg>
