<svg width="14" height="14" viewBox="0 0 14 14" fill="none" xmlns="http://www.w3.org/2000/svg">
<path d="M5.87998 7.17554C4.77417 6.43527 3.98405 4.92263 2.46266 4.84058C-0.820887 4.6622 -0.820887 9.6871 2.46266 9.50694C3.98405 9.42667 4.7813 7.91759 5.87463 7.17554" fill="#A6CE39"/>
<path d="M7.91406 7.17554C9.01631 6.43171 9.80821 4.92263 11.3296 4.84058C14.6096 4.6622 14.6096 9.6871 11.3296 9.50694C9.80821 9.42667 9.01096 7.91759 7.91406 7.17554Z" fill="#A6CE39"/>
<path d="M7.00509 8.12109C7.74527 9.22168 9.25417 10.0137 9.33621 11.5352C9.51457 14.821 4.49204 14.821 4.66861 11.5352C4.75244 10.0137 6.25955 9.21633 7.00509 8.12109Z" fill="#0089CF"/>
<path d="M7.00509 5.87576C7.74527 4.77517 9.25417 3.98317 9.33621 2.46161C9.51457 -0.820538 4.49204 -0.820538 4.66861 2.46161C4.75244 3.98317 6.25955 4.78052 7.00509 5.87576Z" fill="#0089CF"/>
</svg>
