<svg width="20" height="20" viewBox="0 0 20 20" fill="none" xmlns="http://www.w3.org/2000/svg">
<path d="M6.70382 12.6108C7.17019 12.6108 7.54826 12.2327 7.54826 11.7663C7.54826 11.2999 7.17019 10.9219 6.70382 10.9219C6.23745 10.9219 5.85938 11.2999 5.85938 11.7663C5.85938 12.2327 6.23745 12.6108 6.70382 12.6108Z" fill="#1A1A1A"/>
<path d="M6.70382 15.9858C7.17019 15.9858 7.54826 15.6077 7.54826 15.1413C7.54826 14.6749 7.17019 14.2969 6.70382 14.2969C6.23745 14.2969 5.85938 14.6749 5.85938 15.1413C5.85938 15.6077 6.23745 15.9858 6.70382 15.9858Z" fill="#1A1A1A"/>
<path d="M10.0788 12.6108C10.5452 12.6108 10.9233 12.2327 10.9233 11.7663C10.9233 11.2999 10.5452 10.9219 10.0788 10.9219C9.61245 10.9219 9.23438 11.2999 9.23438 11.7663C9.23438 12.2327 9.61245 12.6108 10.0788 12.6108Z" fill="#1A1A1A"/>
<path d="M10.0788 15.9858C10.5452 15.9858 10.9233 15.6077 10.9233 15.1413C10.9233 14.6749 10.5452 14.2969 10.0788 14.2969C9.61245 14.2969 9.23438 14.6749 9.23438 15.1413C9.23438 15.6077 9.61245 15.9858 10.0788 15.9858Z" fill="#1A1A1A"/>
<path d="M13.4538 12.6108C13.9202 12.6108 14.2983 12.2327 14.2983 11.7663C14.2983 11.2999 13.9202 10.9219 13.4538 10.9219C12.9874 10.9219 12.6094 11.2999 12.6094 11.7663C12.6094 12.2327 12.9874 12.6108 13.4538 12.6108Z" fill="#1A1A1A"/>
<path d="M13.4538 15.9858C13.9202 15.9858 14.2983 15.6077 14.2983 15.1413C14.2983 14.6749 13.9202 14.2969 13.4538 14.2969C12.9874 14.2969 12.6094 14.6749 12.6094 15.1413C12.6094 15.6077 12.9874 15.9858 13.4538 15.9858Z" fill="#1A1A1A"/>
<path fill-rule="evenodd" clip-rule="evenodd" d="M19.1556 5.85417V16.8319C19.1556 17.6722 18.822 18.4769 18.2284 19.0714C17.6339 19.6651 16.8291 19.9986 15.9889 19.9986H4.16667C3.32644 19.9986 2.52169 19.6651 1.9272 19.0714C1.33356 18.4769 1 17.6722 1 16.8319V5.85417C1 5.01394 1.33356 4.20919 1.9272 3.6147C2.52169 3.02106 3.32644 2.6875 4.16667 2.6875H15.9889C16.8291 2.6875 17.6339 3.02106 18.2284 3.6147C18.822 4.20919 19.1556 5.01394 19.1556 5.85417ZM17.8889 5.85417C17.8889 5.35003 17.6888 4.86701 17.3324 4.51066C16.976 4.1543 16.493 3.95417 15.9889 3.95417H4.16667C3.66253 3.95417 3.17951 4.1543 2.82316 4.51066C2.4668 4.86701 2.26667 5.35003 2.26667 5.85417V16.8319C2.26667 17.3361 2.4668 17.8191 2.82316 18.1755C3.17951 18.5318 3.66253 18.7319 4.16667 18.7319H15.9889C16.493 18.7319 16.976 18.5318 17.3324 18.1755C17.6888 17.8191 17.8889 17.3361 17.8889 16.8319V5.85417Z" fill="#1A1A1A"/>
<path fill-rule="evenodd" clip-rule="evenodd" d="M18.5222 7.33594C18.8718 7.33594 19.1556 7.61967 19.1556 7.96927C19.1556 8.31887 18.8718 8.6026 18.5222 8.6026H1.63333C1.28373 8.6026 1 8.31887 1 7.96927C1 7.61967 1.28373 7.33594 1.63333 7.33594H18.5222Z" fill="#1A1A1A"/>
<path fill-rule="evenodd" clip-rule="evenodd" d="M12.8203 1.63333C12.8203 1.28373 13.104 1 13.4536 1C13.8032 1 14.087 1.28373 14.087 1.63333V5.01111C14.087 5.36071 13.8032 5.64444 13.4536 5.64444C13.104 5.64444 12.8203 5.36071 12.8203 5.01111V1.63333Z" fill="#1A1A1A"/>
<path fill-rule="evenodd" clip-rule="evenodd" d="M6.07031 1.63333C6.07031 1.28373 6.35405 1 6.70365 1C7.05325 1 7.33698 1.28373 7.33698 1.63333V5.01111C7.33698 5.36071 7.05325 5.64444 6.70365 5.64444C6.35405 5.64444 6.07031 5.36071 6.07031 5.01111V1.63333Z" fill="#1A1A1A"/>
</svg>
