<svg width="20" height="20" viewBox="0 0 20 20" fill="none" xmlns="http://www.w3.org/2000/svg">
<path d="M17.2115 12.5693C16.1324 12.5693 15.0728 12.4005 14.0687 12.0687C13.5767 11.9009 12.9719 12.0548 12.6716 12.3632L10.6898 13.8593C8.39139 12.6325 6.97564 11.2172 5.76552 8.93604L7.21758 7.00584C7.59483 6.62909 7.73015 6.07874 7.56803 5.56236C7.23479 4.55301 7.06551 3.49395 7.06551 2.41438C7.06556 1.63448 6.43107 1 5.65123 1H2.41433C1.63448 1 1 1.63448 1 2.41433C1 11.3534 8.27237 18.6258 17.2115 18.6258C17.9913 18.6258 18.6258 17.9913 18.6258 17.2114V13.9836C18.6258 13.2038 17.9913 12.5693 17.2115 12.5693Z" fill="#0089CF"/>
</svg>
