<svg width="92" height="92" viewBox="0 0 92 92" fill="none" xmlns="http://www.w3.org/2000/svg">
<g clip-path="url(#clip0_6663_16388)">
<path d="M45.9819 91.9637C71.3769 91.9637 91.9637 71.3769 91.9637 45.9819C91.9637 20.5868 71.3769 0 45.9819 0C20.5868 0 0 20.5868 0 45.9819C0 71.3769 20.5868 91.9637 45.9819 91.9637Z" fill="#032BD6"/>
<path d="M14.763 66.965L15.9191 63.1821L12.8594 60.8115L16.7412 60.7223L18.0059 57.2734L19.3177 60.7223L23.1558 60.8099L20.122 63.1821L21.2132 66.9585L18.0092 64.6933L14.763 66.9634V66.965Z" fill="#FFDE17"/>
<path d="M14.763 34.6994L15.9191 30.9165L12.8594 28.5459L16.7412 28.4567L18.0059 25.0078L19.3177 28.4567L23.1558 28.5443L20.122 30.9165L21.2132 34.6929L18.0092 32.4277L14.763 34.6978V34.6994Z" fill="#FFDE17"/>
<path d="M10.4622 50.8322L11.6183 47.0493L8.55859 44.6787L12.4404 44.5895L13.7052 41.1406L15.0169 44.5895L18.855 44.6771L15.8212 47.0493L16.9124 50.8257L13.7084 48.5605L10.4622 50.8306V50.8322Z" fill="#FFDE17"/>
<path d="M75.013 50.8322L76.1691 47.0493L73.1094 44.6787L76.9912 44.5895L78.2559 41.1406L79.5677 44.5895L83.4058 44.6771L80.372 47.0493L81.4632 50.8257L78.2592 48.5605L75.013 50.8306V50.8322Z" fill="#FFDE17"/>
<path d="M70.6771 66.965L71.8332 63.1821L68.7734 60.8115L72.6552 60.7223L73.92 57.2734L75.2318 60.7223L79.0698 60.8099L76.036 63.1821L77.1273 66.9585L73.9232 64.6933L70.6771 66.9634V66.965Z" fill="#FFDE17"/>
<path d="M70.6771 34.6994L71.8332 30.9165L68.7734 28.5459L72.6552 28.4567L73.92 25.0078L75.2318 28.4567L79.0698 28.5443L76.036 30.9165L77.1273 34.6929L73.9232 32.4277L70.6771 34.6978V34.6994Z" fill="#FFDE17"/>
<path d="M42.7161 18.5549L43.8722 14.7719L40.8125 12.4013L44.6943 12.3122L45.9591 8.86328L47.2708 12.3122L51.1089 12.3997L48.0751 14.7719L49.1664 18.5484L45.9623 16.2832L42.7161 18.5532V18.5549Z" fill="#FFDE17"/>
<path d="M26.6067 78.7814L27.7629 74.9985L24.7031 72.6279L28.5849 72.5387L29.8497 69.0898L31.1615 72.5387L34.9995 72.6263L31.9657 74.9985L33.057 78.7749L29.8529 76.5097L26.6067 78.7798V78.7814Z" fill="#FFDE17"/>
<path d="M58.8646 78.7814L60.0207 74.9985L56.9609 72.6279L60.8428 72.5387L62.1075 69.0898L63.4193 72.5387L67.2573 72.6263L64.2235 74.9985L65.3148 78.7749L62.1108 76.5097L58.8646 78.7798V78.7814Z" fill="#FFDE17"/>
<path d="M26.6067 22.883L27.7629 19.1001L24.7031 16.7295L28.5849 16.6403L29.8497 13.1914L31.1615 16.6403L34.9995 16.7278L31.9657 19.1001L33.057 22.8765L29.8529 20.6113L26.6067 22.8814V22.883Z" fill="#FFDE17"/>
<path d="M58.8646 22.883L60.0207 19.1001L56.9609 16.7295L60.8428 16.6403L62.1075 13.1914L63.4193 16.6403L67.2573 16.7278L64.2235 19.1001L65.3148 22.8765L62.1108 20.6113L58.8646 22.8814V22.883Z" fill="#FFDE17"/>
<path d="M42.7161 83.1056L43.8722 79.3227L40.8125 76.9521L44.6943 76.8629L45.9591 73.4141L47.2708 76.8629L51.1089 76.9505L48.0751 79.3227L49.1664 83.0991L45.9623 80.8339L42.7161 83.104V83.1056Z" fill="#FFDE17"/>
<path d="M41.5794 57.4828H27.5391V34.0703H41.0411V38.364H32.8121V43.5722H40.4687V47.8496H32.8121V53.2054H41.5794V57.4828Z" fill="white"/>
<path d="M64.4167 47.3437C64.4167 54.3745 61.1397 57.8898 54.589 57.8898C48.0382 57.8898 45.0547 54.4555 45.0547 47.5886V34.0703H50.3439V47.6534C50.3439 51.4412 51.8244 53.3351 54.7852 53.3351C57.746 53.3351 59.1437 51.5061 59.1437 47.8496V34.0703H64.4167V47.3437Z" fill="white"/>
</g>
<defs>
<clipPath id="clip0_6663_16388">
<rect width="91.9621" height="91.9621" fill="white"/>
</clipPath>
</defs>
</svg>
