<svg width="118" height="92" viewBox="0 0 118 92" fill="none" xmlns="http://www.w3.org/2000/svg">
<path d="M103.246 66.8182C101.698 66.8182 99.8492 66.5411 97.6935 65.987C95.73 65.4686 94.1249 65.2095 92.8732 65.2095C92.7693 62.2607 92.5591 59.3108 92.2474 56.362C92.2474 56.0849 92.5114 55.9464 93.0392 55.9464C93.4095 55.9464 93.6388 56.0849 93.7272 56.362C94.6623 59.5843 95.8566 61.8535 97.3101 63.1696C98.7648 64.4845 100.812 65.1438 103.45 65.1438C104.263 65.1438 105.006 65.0518 105.677 64.8691C107.273 63.0084 108.725 61.0939 110.027 59.14C110.052 58.8402 110.065 58.5309 110.065 58.2108C110.065 56.8039 109.56 55.4949 108.552 54.2875C107.543 53.0788 105.396 51.5203 102.11 49.6082C98.3372 47.4357 95.8662 45.5929 94.7029 44.0797C93.5361 42.5689 92.9556 40.8909 92.9556 39.0469C92.9556 36.2139 94.0031 33.8193 96.1015 31.8643C98.1999 29.908 100.86 28.931 104.079 28.931C105.298 28.931 106.701 29.1006 108.285 29.4398C109.764 29.7432 111.045 29.8948 112.123 29.8948C112.333 32.9511 112.61 35.6431 112.96 37.9684C112.96 38.2467 112.735 38.3852 112.284 38.3852C111.8 38.3852 111.531 38.2467 111.481 37.9672C110.904 35.3564 110.031 33.4754 108.864 32.3265C107.695 31.1775 106.075 30.6031 104.005 30.6031C102.042 30.6031 100.479 31.1763 99.3213 32.3241C98.1628 33.4718 97.5872 35.0184 97.5872 36.964C97.5872 38.1977 98.0721 39.3753 99.0407 40.4956C100.009 41.617 102.108 43.1159 105.336 44.9921C109.159 47.2183 111.663 49.0779 112.852 50.5732C113.28 51.113 113.63 51.6731 113.904 52.2512C118.141 43.0956 119.061 33.4563 115.78 24.6279C107.453 2.21425 75.2273 -6.4899 43.8013 5.1857C29.0408 10.6712 17.0833 19.6763 9.41346 30.0083C9.81833 30.0202 10.2005 30.0262 10.554 30.0262C11.617 30.0262 12.9164 29.9725 14.4475 29.865C16.0455 29.7587 17.4237 29.7049 18.5882 29.7049C18.8664 29.7049 19.0062 29.9414 19.0062 30.412C19.0062 30.8825 18.8653 31.1202 18.5882 31.1202C17.1287 31.2946 16.0168 31.5251 15.2537 31.8129C14.4893 32.1007 13.9614 32.4877 13.6652 32.975C13.369 33.4634 13.2233 34.3257 13.2233 35.5619V60.1516C13.2233 61.353 13.369 62.2034 13.6652 62.7002C13.9614 63.1959 14.4857 63.5876 15.2405 63.8754C15.9965 64.1621 17.1036 64.395 18.5631 64.5681C18.8569 64.6028 19.0062 64.8345 19.0062 65.262C19.0062 65.7433 18.8653 65.9846 18.5882 65.9846C17.4237 65.9846 16.0455 65.9296 14.4475 65.8222C12.9164 65.7147 11.617 65.6621 10.554 65.6621C9.49109 65.6621 8.19287 65.7159 6.66177 65.8222C5.04467 65.9296 3.64613 65.9846 2.46614 65.9846C2.18787 65.9846 2.05052 65.7445 2.05052 65.262C2.05052 64.8345 2.18906 64.6028 2.46614 64.5681C4.56694 64.3245 5.99534 63.9327 6.75134 63.3917C7.50734 62.8543 7.88594 61.7722 7.88594 60.1527V35.563C7.88594 34.3437 7.73306 33.4849 7.42851 32.9893C7.41538 32.9678 7.39985 32.9475 7.38552 32.9272C0.280551 43.8647 -2.07463 56.0073 1.97886 66.9126C10.3068 89.3262 42.5341 98.0316 73.9613 86.3548C86.1493 81.8259 96.4239 74.8965 103.953 66.8027C103.72 66.8122 103.486 66.8182 103.246 66.8182ZM51.4772 38.1941C51.1786 38.1941 50.9935 38.0735 50.923 37.831C50.3163 35.8222 49.2772 34.2971 47.8035 33.2568C46.3309 32.2178 44.5286 31.6971 42.3968 31.6971H37.7175C35.6728 31.6971 34.6505 32.7397 34.6505 34.8262V46.4277H40.5874C42.3323 46.4277 43.5159 46.03 44.1333 45.2322C44.752 44.4332 45.1951 43.0203 45.4566 40.9912C45.4566 40.7141 45.6883 40.5744 46.1517 40.5744C46.6151 40.5744 46.8719 40.7141 46.8719 40.9924C46.8719 41.863 46.8181 42.9594 46.7107 44.2803C46.6032 45.5499 46.5506 46.5854 46.5506 47.3867C46.5506 48.1881 46.6044 49.2487 46.7107 50.5182C46.8181 51.8738 46.8719 52.9881 46.8719 53.8599C46.8719 54.137 46.6306 54.2767 46.1517 54.2767C45.6728 54.2767 45.4566 54.137 45.4566 53.8563C45.1772 51.7293 44.7102 50.2376 44.0557 49.3836C43.4012 48.5297 42.2451 48.1009 40.5874 48.1009H34.6505V60.1575C34.6505 61.3566 34.8022 62.2058 35.1055 62.7014C35.4089 63.1971 35.9475 63.5888 36.7202 63.8766C37.4929 64.1633 38.6001 64.3938 40.0416 64.5669C40.3378 64.6016 40.4847 64.8333 40.4847 65.2608C40.4847 65.7421 40.345 65.9834 40.0679 65.9834C38.9034 65.9834 37.5133 65.9284 35.8997 65.821C34.3507 65.7135 33.0441 65.6609 31.9812 65.6609C30.9183 65.6609 29.6188 65.7147 28.0877 65.821C26.4897 65.9284 25.1091 65.9834 23.9459 65.9834C23.6676 65.9834 23.529 65.7433 23.529 65.2608C23.529 64.8333 23.6676 64.6016 23.9459 64.5669C25.3874 64.3938 26.4897 64.1609 27.2541 63.8742C28.0185 63.5864 28.5523 63.1994 28.8569 62.7122C29.1602 62.2249 29.3131 61.3721 29.3131 60.1504V35.5607C29.3131 34.358 29.1686 33.5088 28.882 33.012C28.5953 32.5152 28.0698 32.1186 27.3067 31.8225C26.5423 31.5275 25.422 31.2922 23.9471 31.1178C23.6688 31.1178 23.5302 30.8825 23.5302 30.4096C23.5302 29.9366 23.6688 29.7026 23.9471 29.7026C28.323 29.9175 32.8053 30.0238 37.3926 30.0238C41.7363 30.0238 46.0884 29.9163 50.45 29.7026C51.0233 32.7063 51.6754 35.3624 52.4051 37.6734C52.4051 38.0197 52.097 38.1929 51.4795 38.1929L51.4772 38.1941ZM85.5175 61.5656C81.9775 65.0673 77.3543 66.8182 71.6431 66.8182C65.9319 66.8182 61.3183 65.0685 57.7855 61.5656C54.2551 58.0639 52.4911 53.5554 52.4911 48.0472C52.4911 42.539 54.2695 37.9505 57.8261 34.3448C61.3828 30.7368 65.9893 28.9322 71.6443 28.9322C77.2994 28.9322 81.9345 30.7368 85.4936 34.3448C89.0502 37.9505 90.8286 42.5175 90.8286 48.0472C90.8286 53.5769 89.0598 58.0639 85.5199 61.5656H85.5175Z" fill="#075DAA"/>
<path d="M77.3921 48.8747C77.6883 47.8488 79.979 48.2142 79.979 48.2142C80.36 48.2524 80.6358 48.3766 80.6358 48.3766C80.1139 46.8849 77.6059 45.0983 77.6059 45.0983C77.6548 37.8046 73.6455 33.3964 73.6455 33.3964C72.0129 31.5046 70.1546 28.2811 70.1546 28.2811C69.5837 27.2636 69.346 27.7186 69.346 27.7186C69.3544 28.5833 68.2735 29.7394 68.2735 29.7394C63.7208 36.0489 64.0851 42.1841 64.0851 42.1841C63.9453 47.1107 67.7874 52.288 67.7874 52.288C71.4217 57.6971 68.8181 61.7613 68.8181 61.7613C66.9777 65.1567 65.6448 66.5887 65.6448 66.5887C65.3713 66.8049 65.3976 67.0545 65.3976 67.0545C65.4442 67.3459 65.91 66.996 65.91 66.996C68.9853 65.3908 71.2641 65.6822 71.2641 65.6822C77.3443 66.6926 79.1895 69.3129 79.1895 69.3129C79.7903 69.6091 79.7771 69.1851 79.7771 69.1851C79.7091 68.8627 79.3376 68.3169 79.3376 68.3169C78.9196 67.8177 78.0776 66.9912 78.0776 66.9912C75.1229 64.6527 74.6965 62.9281 74.6965 62.9281C74.3753 62.1411 73.9393 60.0666 74.6762 56.8085C75.4442 53.4274 77.3921 48.8759 77.3921 48.8759V48.8747ZM69.8942 33.7224C69.9599 33.0942 70.391 32.6213 70.864 32.6678C71.3381 32.7156 71.6666 33.2638 71.6033 33.8932C71.5412 34.5226 71.1064 34.9956 70.6335 34.9478C70.1617 34.9012 69.8309 34.3506 69.893 33.7212L69.8942 33.7224ZM67.4279 39.5746C67.4279 39.5746 67.9355 41.8569 69.2182 42.6666C69.2182 42.6666 70.3648 43.2411 71.7275 42.9401C71.7275 42.9401 68.1278 45.6261 67.4279 39.5746Z" fill="#075DAA"/>
<path d="M108.693 5.20588H107.539V4.78906H110.346V5.20588H109.187V8.58101H108.693V5.20588Z" fill="#075DAA"/>
<path d="M113.967 6.91613C113.938 6.38705 113.905 5.75168 113.911 5.27873H113.894C113.765 5.72302 113.607 6.19596 113.416 6.71907L112.746 8.55831H112.375L111.762 6.75251C111.582 6.21746 111.43 5.72899 111.324 5.27873H111.313C111.302 5.75168 111.274 6.38705 111.24 6.95555L111.139 8.58101H110.672L110.936 4.78906H111.56L112.208 6.62353C112.365 7.0905 112.494 7.50732 112.59 7.90025H112.607C112.702 7.51807 112.837 7.10125 113.006 6.62353L113.68 4.78906H114.305L114.541 8.58101H114.064L113.968 6.91613H113.967Z" fill="#075DAA"/>
</svg>
