<svg width="33" height="33" viewBox="0 0 33 33" fill="none" xmlns="http://www.w3.org/2000/svg">
<path d="M13.8599 16.921C11.2533 15.1761 9.39091 11.6106 5.80481 11.4172C-1.93494 10.9967 -1.93494 22.8411 5.80481 22.4164C9.39091 22.2272 11.2701 18.6701 13.8473 16.921" fill="#A6CE39"/>
<path d="M18.6641 16.921C21.2622 15.1677 23.1288 11.6106 26.7149 11.4172C34.4463 10.9967 34.4463 22.8411 26.7149 22.4164C23.1288 22.2272 21.2496 18.6701 18.6641 16.921Z" fill="#A6CE39"/>
<path d="M16.5181 19.1445C18.2628 21.7388 21.8195 23.6056 22.0129 27.1921C22.4333 34.937 10.5945 34.937 11.0107 27.1921C11.2083 23.6056 14.7608 21.7262 16.5181 19.1445Z" fill="#0089CF"/>
<path d="M16.5181 13.8499C18.2628 11.2557 21.8195 9.38886 22.0129 5.80234C22.4333 -1.93411 10.5945 -1.93411 11.0107 5.80234C11.2083 9.38886 14.7608 11.2683 16.5181 13.8499Z" fill="#0089CF"/>
</svg>
