<svg width="192" height="28" viewBox="0 0 192 28" fill="none" xmlns="http://www.w3.org/2000/svg">
<path d="M33.1818 10.0208C33.7093 8.9952 34.423 8.20304 35.3268 7.65134C36.2304 7.09974 37.2396 6.82031 38.3543 6.82031C39.3283 6.82031 40.1828 7.01838 40.9106 7.4144C41.642 7.81054 42.2258 8.30565 42.6653 8.90679V7.03599H45.9882V20.1667H42.6653V18.2464C42.2398 18.8618 41.6561 19.371 40.9106 19.7742C40.1652 20.1774 39.3037 20.3788 38.3297 20.3788C37.2291 20.3788 36.2269 20.096 35.3268 19.5266C34.423 18.9572 33.7093 18.1545 33.1818 17.1219C32.6543 16.0857 32.3906 14.8975 32.3906 13.5536C32.3906 12.2097 32.6543 11.0499 33.1818 10.0208ZM42.1977 11.5272C41.8847 10.9509 41.4592 10.5088 40.9247 10.2011C40.3903 9.89349 39.8171 9.73781 39.2052 9.73781C38.5934 9.73781 38.0272 9.88634 37.5069 10.187C36.99 10.4876 36.568 10.9261 36.2445 11.5025C35.921 12.0789 35.7628 12.7614 35.7628 13.5536C35.7628 14.3458 35.9245 15.0354 36.2445 15.6295C36.568 16.2201 36.99 16.6762 37.5174 16.991C38.0449 17.3058 38.6039 17.4649 39.2017 17.4649C39.7995 17.4649 40.3867 17.3093 40.9212 17.0016C41.4557 16.6939 41.8777 16.2519 42.1941 15.6754C42.5071 15.0991 42.6653 14.4059 42.6653 13.5996C42.6653 12.7933 42.5071 12.1037 42.1941 11.5272H42.1977Z" fill="#1BC2FD"/>
<path d="M54.1803 7.43432C54.866 7.0383 55.6467 6.84375 56.5257 6.84375V10.3272H55.6536C54.6163 10.3272 53.8357 10.5711 53.3082 11.0627C52.7808 11.5543 52.5172 12.4066 52.5172 13.6231V20.1655H49.2188V7.03125H52.5172V9.06818C52.9426 8.37148 53.4947 7.82693 54.1768 7.43432H54.1803Z" fill="#1BC2FD"/>
<path d="M63.7873 7.4172C64.5328 7.02118 65.3837 6.82311 66.3437 6.82311C67.4583 6.82311 68.4676 7.09891 69.3712 7.65413C70.275 8.20584 70.9888 8.99447 71.5162 10.013C72.0437 11.0314 72.3038 12.2125 72.3038 13.5564C72.3038 14.9003 72.0402 16.0885 71.5162 17.1247C70.9888 18.1608 70.275 18.96 69.3712 19.5294C68.4676 20.0988 67.4583 20.3816 66.3437 20.3816C65.3696 20.3816 64.5152 20.1872 63.7873 19.8017C63.0559 19.4163 62.4722 18.914 62.0327 18.2952V20.166H58.7344V2.62891H62.0327V8.95913C62.4581 8.32606 63.0419 7.81334 63.7873 7.4172ZM68.4535 11.5053C68.13 10.9289 67.7081 10.4904 67.1806 10.1898C66.6531 9.88913 66.0835 9.74061 65.4716 9.74061C64.8598 9.74061 64.3148 9.89629 63.7873 10.2039C63.2599 10.5116 62.8344 10.9572 62.5144 11.5442C62.1909 12.1278 62.0292 12.8173 62.0292 13.606C62.0292 14.3946 62.1909 15.0841 62.5144 15.6677C62.8344 16.2512 63.2599 16.7003 63.7873 17.008C64.3148 17.3156 64.8739 17.4712 65.4716 17.4712C66.0694 17.4712 66.6531 17.3121 67.1806 16.9973C67.7081 16.6825 68.13 16.2299 68.4535 15.6464C68.777 15.0629 68.9388 14.3663 68.9388 13.5599C68.9388 12.7537 68.777 12.0853 68.4535 11.5088V11.5053Z" fill="#1BC2FD"/>
<path d="M86.7538 14.5969H77.2069C77.2843 15.5446 77.6148 16.2872 78.1985 16.8247C78.7788 17.3624 79.4961 17.6311 80.3435 17.6311C81.5706 17.6311 82.4427 17.1007 82.9597 16.0433H86.5181C86.1419 17.3093 85.4175 18.3454 84.3486 19.1588C83.2796 19.9722 81.968 20.3788 80.4138 20.3788C79.1584 20.3788 78.0297 20.0995 77.0311 19.5372C76.0324 18.9785 75.2554 18.1828 74.6962 17.1537C74.1372 16.1282 73.8594 14.9434 73.8594 13.5996C73.8594 12.2558 74.1336 11.0463 74.6857 10.0208C75.2377 8.9952 76.0043 8.20304 76.996 7.65134C77.9875 7.09974 79.1234 6.82031 80.4138 6.82031C81.7043 6.82031 82.7663 7.08906 83.7473 7.62656C84.7284 8.16418 85.4914 8.92804 86.0328 9.91463C86.5744 10.9013 86.8452 12.0366 86.8452 13.3167C86.8452 13.7905 86.8135 14.2185 86.7502 14.5969H86.7538ZM83.4308 12.3654C83.4167 11.5132 83.1073 10.8305 82.5131 10.3143C81.9152 9.80145 81.1839 9.54338 80.3224 9.54338C79.5065 9.54338 78.8174 9.79088 78.2583 10.2895C77.6991 10.7882 77.3581 11.4778 77.235 12.3619H83.4344L83.4308 12.3654Z" fill="#1BC2FD"/>
<path d="M101.301 14.5969H91.7538C91.8311 15.5446 92.1617 16.2872 92.7453 16.8247C93.3255 17.3624 94.0429 17.6311 94.8903 17.6311C96.1175 17.6311 96.9896 17.1007 97.5064 16.0433H101.065C100.689 17.3093 99.9639 18.3454 98.8954 19.1588C97.8264 19.9722 96.5149 20.3788 94.9607 20.3788C93.7053 20.3788 92.5766 20.0995 91.5779 19.5372C90.5793 18.9785 89.8022 18.1828 89.2431 17.1537C88.684 16.1282 88.4062 14.9434 88.4062 13.5996C88.4062 12.2558 88.6805 11.0463 89.2325 10.0208C89.7846 8.9952 90.5512 8.20304 91.5427 7.65134C92.5344 7.09974 93.6701 6.82031 94.9607 6.82031C96.2512 6.82031 97.313 7.08906 98.2941 7.62656C99.2751 8.16418 100.038 8.92804 100.58 9.91463C101.121 10.9013 101.392 12.0366 101.392 13.3167C101.392 13.7905 101.36 14.2185 101.297 14.5969H101.301ZM97.9776 12.3654C97.9636 11.5132 97.6542 10.8305 97.0599 10.3143C96.4621 9.80145 95.7307 9.54338 94.8693 9.54338C94.0534 9.54338 93.3642 9.79088 92.8052 10.2895C92.246 10.7882 91.905 11.4778 91.7819 12.3619H97.9811L97.9776 12.3654Z" fill="#1BC2FD"/>
<path d="M104.092 10.1794C104.619 9.17509 105.347 8.40065 106.282 7.856C107.217 7.31145 108.272 7.03906 109.45 7.03906C110.629 7.03906 111.733 7.32202 112.622 7.89134C113.508 8.46077 114.153 9.18929 114.543 10.0734V7.23009H116.191V20.1733H114.543V17.3053C114.135 18.1894 113.484 18.9215 112.598 19.4978C111.708 20.0743 110.654 20.3643 109.426 20.3643C108.199 20.3643 107.214 20.0884 106.279 19.5333C105.343 18.9816 104.612 18.1965 104.088 17.1851C103.561 16.1736 103.297 15.003 103.297 13.6769C103.297 12.3508 103.561 11.1837 104.088 10.1794H104.092ZM113.906 10.9468C113.48 10.1583 112.903 9.54997 112.173 9.12202C111.441 8.69418 110.636 8.48202 109.756 8.48202C108.877 8.48202 108.027 8.68713 107.305 9.09725C106.584 9.50747 106.012 10.1052 105.597 10.8867C105.181 11.6683 104.971 12.5984 104.971 13.6734C104.971 14.7485 105.178 15.6609 105.597 16.4601C106.012 17.2593 106.581 17.8676 107.305 18.2849C108.03 18.7021 108.846 18.9144 109.756 18.9144C110.667 18.9144 111.441 18.7021 112.173 18.2743C112.903 17.8463 113.48 17.238 113.906 16.4495C114.331 15.6609 114.543 14.7414 114.543 13.7017C114.543 12.662 114.331 11.7425 113.906 10.9504V10.9468Z" fill="#20CFCA"/>
<path d="M120.017 10.1794C120.552 9.17509 121.286 8.40065 122.222 7.856C123.157 7.31145 124.212 7.03906 125.394 7.03906C126.575 7.03906 127.655 7.32906 128.552 7.90554C129.448 8.48202 130.084 9.2069 130.461 10.0734V7.23009H132.111V26.2877H130.461V17.3265C130.084 18.1965 129.445 18.9179 128.541 19.4943C127.638 20.0708 126.572 20.3608 125.349 20.3608C124.124 20.3608 123.136 20.0849 122.202 19.5296C121.266 18.978 120.534 18.1929 120.01 17.1816C119.483 16.1701 119.219 14.9995 119.219 13.6734C119.219 12.3472 119.486 11.1802 120.022 10.1759L120.017 10.1794ZM129.825 10.9468C129.399 10.1583 128.822 9.54997 128.091 9.12202C127.359 8.69418 126.554 8.48202 125.675 8.48202C124.797 8.48202 123.946 8.68713 123.225 9.09725C122.503 9.50747 121.931 10.1052 121.516 10.8867C121.101 11.6683 120.89 12.5984 120.89 13.6734C120.89 14.7485 121.098 15.6609 121.516 16.4601C121.931 17.2593 122.5 17.8676 123.225 18.2849C123.949 18.7021 124.764 18.9144 125.675 18.9144C126.586 18.9144 127.359 18.7021 128.091 18.2743C128.822 17.8463 129.399 17.238 129.825 16.4495C130.25 15.6609 130.461 14.7414 130.461 13.7017C130.461 12.662 130.25 11.7425 129.825 10.9504V10.9468Z" fill="#20CFCA"/>
<path d="M147.025 7.22656V20.1699H145.376V17.8959C144.999 18.7022 144.419 19.3176 143.632 19.7454C142.847 20.1734 141.964 20.3855 140.991 20.3855C139.45 20.3855 138.195 19.9082 137.221 18.9497C136.247 17.995 135.758 16.6087 135.758 14.791V7.2302H137.382V14.6C137.382 16.0075 137.731 17.0826 138.43 17.8252C139.131 18.5678 140.083 18.9392 141.293 18.9392C142.503 18.9392 143.523 18.543 144.265 17.7545C145.002 16.9659 145.372 15.8024 145.372 14.2711V7.2302H147.02L147.025 7.22656Z" fill="#20CFCA"/>
<path d="M150.825 10.1794C151.353 9.17509 152.081 8.40065 153.016 7.856C153.952 7.31145 155.007 7.03906 156.185 7.03906C157.362 7.03906 158.466 7.32202 159.357 7.89134C160.243 8.46077 160.886 9.18929 161.276 10.0734V7.23009H162.925V20.1733H161.276V17.3053C160.868 18.1894 160.218 18.9215 159.332 19.4978C158.441 20.0743 157.387 20.3643 156.16 20.3643C154.932 20.3643 153.949 20.0884 153.013 19.5333C152.078 18.9816 151.346 18.1965 150.822 17.1851C150.294 16.1736 150.031 15.003 150.031 13.6769C150.031 12.3508 150.294 11.1837 150.822 10.1794H150.825ZM160.643 10.9468C160.218 10.1583 159.641 9.54997 158.909 9.12202C158.178 8.69418 157.373 8.48202 156.494 8.48202C155.615 8.48202 154.764 8.68713 154.043 9.09725C153.322 9.50747 152.749 10.1052 152.334 10.8867C151.919 11.6683 151.708 12.5984 151.708 13.6734C151.708 14.7485 151.916 15.6609 152.334 16.4601C152.749 17.2593 153.319 17.8676 154.043 18.2849C154.767 18.7021 155.583 18.9144 156.494 18.9144C157.405 18.9144 158.178 18.7021 158.909 18.2743C159.641 17.8463 160.218 17.238 160.643 16.4495C161.069 15.6609 161.279 14.7414 161.279 13.7017C161.279 12.662 161.069 11.7425 160.643 10.9504V10.9468Z" fill="#20CFCA"/>
<path d="M168.851 8.62338V16.658C168.851 17.4502 169.002 17.9949 169.301 18.2919C169.6 18.5925 170.128 18.741 170.88 18.741H172.389V20.1626H170.62C169.456 20.1626 168.594 19.8903 168.028 19.3457C167.462 18.8011 167.181 17.9028 167.181 16.6545V8.61975H165.391V7.22293H167.181V3.97656H168.855V7.22293H172.389V8.61975H168.855L168.851 8.62338Z" fill="#20CFCA"/>
<path d="M175.074 4.43023C174.839 4.1933 174.719 3.89977 174.719 3.55318C174.719 3.2067 174.839 2.9167 175.074 2.68682C175.31 2.45693 175.591 2.34375 175.922 2.34375C176.252 2.34375 176.533 2.46045 176.77 2.68682C177.005 2.9167 177.12 3.20318 177.12 3.55318C177.12 3.90329 177.005 4.1933 176.77 4.43023C176.533 4.66716 176.252 4.78386 175.922 4.78386C175.591 4.78386 175.31 4.66716 175.074 4.43023ZM176.745 7.22761V20.1708H175.095V7.22761H176.745Z" fill="#20CFCA"/>
<path d="M180.539 10.1794C181.073 9.17509 181.812 8.40065 182.754 7.856C183.697 7.31145 184.773 7.03906 185.982 7.03906C187.569 7.03906 188.876 7.4352 189.906 8.22384C190.937 9.016 191.599 10.0875 191.896 11.4491H190.128C189.906 10.5154 189.432 9.78691 188.704 9.25645C187.973 8.726 187.065 8.46077 185.982 8.46077C185.118 8.46077 184.341 8.65884 183.652 9.05486C182.958 9.451 182.414 10.0379 182.012 10.8195C181.612 11.6011 181.411 12.5629 181.411 13.6982C181.411 14.8334 181.612 15.7988 182.012 16.5909C182.414 17.383 182.958 17.9737 183.652 18.3697C184.341 18.7658 185.121 18.9638 185.982 18.9638C187.065 18.9638 187.973 18.6986 188.704 18.1682C189.435 17.6377 189.91 16.8986 190.128 15.9509H191.896C191.599 17.277 190.93 18.345 189.893 19.1513C188.855 19.9576 187.551 20.3608 185.979 20.3608C184.769 20.3608 183.693 20.0884 182.751 19.5438C181.809 18.9992 181.07 18.2247 180.536 17.2204C180.001 16.2161 179.734 15.042 179.734 13.7017C179.734 12.3614 180.001 11.1837 180.536 10.1829L180.539 10.1794Z" fill="#20CFCA"/>
<path d="M11.5174 13.8299L8.27879 17.087C6.38707 18.9896 3.31725 18.9859 1.42193 17.0834C-0.473395 15.1773 -0.473394 12.0936 1.41844 10.1874C3.31376 8.28128 6.37998 8.28128 8.27879 10.1874L11.5138 13.4409C11.6194 13.547 11.6228 13.7203 11.5174 13.8299Z" fill="#20CFCA"/>
<path d="M16.9962 25.8442C15.1044 27.7467 12.0346 27.7431 10.1393 25.8406C8.24761 23.938 8.24401 20.8508 10.1358 18.9446L13.3743 15.6876C13.4799 15.5816 13.6521 15.5851 13.7541 15.6876L16.9927 18.9446C18.8844 20.8472 18.8879 23.9345 16.9927 25.8442H16.9962Z" fill="#1BC2FD"/>
<path d="M25.7079 17.0808C23.8127 18.9869 20.7394 18.9833 18.8475 17.0808L15.609 13.8237C15.5071 13.7211 15.5036 13.548 15.609 13.4418L18.8475 10.1848C20.7394 8.28216 23.8161 8.28216 25.7079 10.1848C27.5997 12.0874 27.5997 15.1817 25.7079 17.0843V17.0808Z" fill="#20CFCA"/>
<path d="M17.0006 8.32773L13.7621 11.5848C13.6565 11.6909 13.4843 11.6874 13.3752 11.5812L10.1402 8.32773C8.24492 6.4217 8.24492 3.33795 10.1402 1.42829C12.0321 -0.474331 15.1018 -0.477865 17.0006 1.42829C18.8924 3.33079 18.8924 6.42523 17.0006 8.32773Z" fill="#1BC2FD"/>
</svg>
