<svg width="225" height="28" viewBox="0 0 225 28" fill="none" xmlns="http://www.w3.org/2000/svg">
<path d="M33.7583 10.0247C34.2952 8.99911 35.0217 8.20695 35.9415 7.65524C36.8612 7.10365 37.8884 6.82422 39.0229 6.82422C40.0142 6.82422 40.8838 7.02229 41.6246 7.41831C42.3691 7.81445 42.9632 8.30956 43.4106 8.9107V7.0399H46.7926V20.1706H43.4106V18.2504C42.9775 18.8657 42.3833 19.3749 41.6246 19.7781C40.8659 20.1813 39.9892 20.3827 38.9977 20.3827C37.8776 20.3827 36.8576 20.0999 35.9415 19.5305C35.0217 18.9612 34.2952 18.1584 33.7583 17.1258C33.2215 16.0896 32.9531 14.9014 32.9531 13.5575C32.9531 12.2137 33.2215 11.0538 33.7583 10.0247ZM42.9346 11.5311C42.616 10.9548 42.183 10.5127 41.639 10.205C41.095 9.8974 40.5116 9.74172 39.8889 9.74172C39.2662 9.74172 38.69 9.89024 38.1603 10.1909C37.6342 10.4915 37.2048 10.93 36.8755 11.5064C36.5463 12.0829 36.3852 12.7654 36.3852 13.5575C36.3852 14.3497 36.5499 15.0393 36.8755 15.6334C37.2048 16.224 37.6342 16.6801 38.1711 16.9949C38.7079 17.3097 39.2769 17.4688 39.8853 17.4688C40.4937 17.4688 41.0914 17.3132 41.6354 17.0055C42.1794 16.6979 42.6088 16.2558 42.9309 15.6793C43.2494 15.103 43.4106 14.4098 43.4106 13.6035C43.4106 12.7972 43.2494 12.1076 42.9309 11.5311H42.9346Z" fill="#1BC2FD"/>
<path d="M55.1357 7.43823C55.8336 7.04209 56.6281 6.84766 57.5228 6.84766V10.331H56.6352C55.5795 10.331 54.785 10.575 54.2481 11.0665C53.7114 11.5581 53.443 12.4104 53.443 13.6269V20.1692H50.0859V7.03504H53.443V9.07198C53.8759 8.37538 54.4378 7.83073 55.1321 7.43823H55.1357Z" fill="#1BC2FD"/>
<path d="M64.9241 7.4172C65.6828 7.02118 66.5489 6.82311 67.526 6.82311C68.6604 6.82311 69.6875 7.09891 70.6074 7.65413C71.5271 8.20584 72.2536 8.99447 72.7904 10.013C73.3273 11.0314 73.5921 12.2125 73.5921 13.5564C73.5921 14.9003 73.3236 16.0885 72.7904 17.1247C72.2536 18.1608 71.5271 18.96 70.6074 19.5294C69.6875 20.0988 68.6604 20.3816 67.526 20.3816C66.5345 20.3816 65.6649 20.1872 64.9241 19.8017C64.1797 19.4163 63.5856 18.914 63.1382 18.2952V20.166H59.7812V2.62891H63.1382V8.95913C63.5712 8.32606 64.1654 7.81334 64.9241 7.4172ZM69.6732 11.5053C69.344 10.9289 68.9145 10.4904 68.3777 10.1898C67.8408 9.88913 67.2611 9.74061 66.6384 9.74061C66.0157 9.74061 65.4609 9.89629 64.9241 10.2039C64.3873 10.5116 63.9542 10.9572 63.6285 11.5442C63.2993 12.1278 63.1346 12.8173 63.1346 13.606C63.1346 14.3946 63.2993 15.0841 63.6285 15.6677C63.9542 16.2512 64.3873 16.7003 64.9241 17.008C65.4609 17.3156 66.0299 17.4712 66.6384 17.4712C67.2468 17.4712 67.8408 17.3121 68.3777 16.9973C68.9145 16.6825 69.344 16.2299 69.6732 15.6464C70.0025 15.0629 70.1671 14.3663 70.1671 13.5599C70.1671 12.7537 70.0025 12.0853 69.6732 11.5088V11.5053Z" fill="#1BC2FD"/>
<path d="M88.2956 14.6008H78.5789C78.6576 15.5485 78.9941 16.2912 79.5881 16.8287C80.1787 17.3663 80.9087 17.635 81.7713 17.635C83.0203 17.635 83.9079 17.1046 84.434 16.0472H88.0557C87.6728 17.3132 86.9356 18.3493 85.8477 19.1627C84.7596 19.9762 83.4247 20.3827 81.8429 20.3827C80.5652 20.3827 79.4164 20.1034 78.4 19.5412C77.3836 18.9824 76.5927 18.1867 76.0236 17.1576C75.4546 16.1321 75.1719 14.9473 75.1719 13.6035C75.1719 12.2597 75.4511 11.0502 76.0129 10.0247C76.5748 8.99911 77.3549 8.20695 78.3642 7.65524C79.3734 7.10365 80.5294 6.82422 81.8429 6.82422C83.1563 6.82422 84.2371 7.09297 85.2356 7.63047C86.2341 8.16808 87.0107 8.93195 87.5619 9.91854C88.113 10.9052 88.3886 12.0405 88.3886 13.3206C88.3886 13.7944 88.3564 14.2224 88.292 14.6008H88.2956ZM84.9135 12.3693C84.8992 11.5171 84.5843 10.8344 83.9795 10.3182C83.3711 9.80535 82.6266 9.54729 81.7498 9.54729C80.9195 9.54729 80.2181 9.79479 79.6491 10.2934C79.08 10.7921 78.7328 11.4817 78.6076 12.3658H84.9171L84.9135 12.3693Z" fill="#1BC2FD"/>
<path d="M103.1 14.6008H93.3836C93.4623 15.5485 93.7988 16.2912 94.3929 16.8287C94.9834 17.3663 95.7134 17.635 96.576 17.635C97.825 17.635 98.7126 17.1046 99.2387 16.0472H102.86C102.478 17.3132 101.74 18.3493 100.652 19.1627C99.5643 19.9762 98.2295 20.3827 96.6476 20.3827C95.3699 20.3827 94.221 20.1034 93.2047 19.5412C92.1883 18.9824 91.3973 18.1867 90.8283 17.1576C90.2593 16.1321 89.9766 14.9473 89.9766 13.6035C89.9766 12.2597 90.2557 11.0502 90.8175 10.0247C91.3794 8.99911 92.1596 8.20695 93.1689 7.65524C94.1781 7.10365 95.3341 6.82422 96.6476 6.82422C97.961 6.82422 99.0418 7.09297 100.04 7.63047C101.039 8.16808 101.815 8.93195 102.367 9.91854C102.917 10.9052 103.193 12.0405 103.193 13.3206C103.193 13.7944 103.161 14.2224 103.096 14.6008H103.1ZM99.7182 12.3693C99.7039 11.5171 99.389 10.8344 98.7842 10.3182C98.1758 9.80535 97.4313 9.54729 96.5545 9.54729C95.7242 9.54729 95.0228 9.79479 94.4537 10.2934C93.8847 10.7921 93.5375 11.4817 93.4123 12.3658H99.7218L99.7182 12.3693Z" fill="#1BC2FD"/>
<path d="M109.56 7.89107C110.462 7.32175 111.532 7.03879 112.764 7.03879C113.995 7.03879 115.035 7.31118 115.978 7.85573C116.918 8.40038 117.66 9.17482 118.196 10.1791C118.733 11.1835 119.001 12.347 119.001 13.6766C119.001 15.0063 118.733 16.1733 118.196 17.1848C117.66 18.1962 116.918 18.9778 115.966 19.5329C115.015 20.0846 113.948 20.364 112.764 20.364C111.517 20.364 110.441 20.0846 109.539 19.5223C108.634 18.96 107.975 18.2315 107.56 17.3298V20.173H105.906V2.62891H107.56V10.0942C107.992 9.19254 108.658 8.4605 109.563 7.89107H109.56ZM116.66 10.8899C116.235 10.1085 115.659 9.51073 114.922 9.1005C114.184 8.69038 113.353 8.48527 112.427 8.48527C111.5 8.48527 110.713 8.69743 109.968 9.12527C109.224 9.55322 108.637 10.1615 108.203 10.95C107.771 11.7422 107.556 12.6582 107.556 13.7014C107.556 14.7447 107.771 15.6606 108.203 16.4492C108.637 17.2414 109.224 17.8496 109.968 18.274C110.713 18.7019 111.532 18.914 112.427 18.914C113.321 18.914 114.184 18.7054 114.922 18.2846C115.655 17.8673 116.235 17.259 116.66 16.4598C117.083 15.6606 117.297 14.734 117.297 13.6731C117.297 12.6122 117.086 11.6715 116.66 10.8864V10.8899Z" fill="#20CFCA"/>
<path d="M122.069 4.43023C121.829 4.1933 121.711 3.89977 121.711 3.55318C121.711 3.2067 121.829 2.9167 122.069 2.68682C122.309 2.45693 122.594 2.34375 122.931 2.34375C123.268 2.34375 123.554 2.46045 123.794 2.68682C124.033 2.9167 124.155 3.20318 124.155 3.55318C124.155 3.90329 124.033 4.1933 123.794 4.43023C123.554 4.66716 123.268 4.78386 122.931 4.78386C122.594 4.78386 122.309 4.66716 122.069 4.43023ZM123.772 7.22761V20.1708H122.094V7.22761H123.772Z" fill="#20CFCA"/>
<path d="M129.998 19.5403C129.013 18.9957 128.237 18.2212 127.672 17.2169C127.103 16.2126 126.82 15.0385 126.82 13.6982C126.82 12.3578 127.106 11.1802 127.682 10.1794C128.258 9.17509 129.042 8.40065 130.033 7.856C131.025 7.31145 132.138 7.03906 133.369 7.03906C134.6 7.03906 135.717 7.31145 136.715 7.856C137.714 8.40065 138.498 9.17509 139.067 10.1794C139.635 11.1837 139.919 12.3578 139.919 13.6982C139.919 15.0385 139.632 16.1949 139.056 17.2062C138.48 18.2177 137.689 18.9957 136.679 19.5403C135.674 20.0849 134.554 20.3572 133.323 20.3572C132.092 20.3572 130.982 20.0849 130.001 19.5403H129.998ZM135.72 18.3309C136.454 17.9454 137.052 17.3584 137.507 16.5768C137.961 15.7952 138.189 14.8334 138.189 13.6982C138.189 12.5629 137.968 11.6011 137.517 10.8195C137.069 10.0379 136.48 9.45452 135.742 9.06543C135.005 8.67997 134.207 8.48554 133.344 8.48554C132.482 8.48554 131.68 8.67997 130.947 9.06543C130.209 9.45452 129.622 10.0379 129.182 10.8195C128.741 11.6011 128.523 12.5629 128.523 13.6982C128.523 14.8334 128.746 15.7952 129.182 16.5768C129.619 17.3584 130.205 17.9454 130.932 18.3309C131.658 18.7199 132.457 18.9108 133.32 18.9108C134.181 18.9108 134.983 18.7163 135.717 18.3309H135.72Z" fill="#20CFCA"/>
<path d="M162.334 8.42408C163.3 9.37896 163.786 10.7652 163.786 12.5829V20.1685H162.133V12.7739C162.133 11.3664 161.79 10.2949 161.102 9.54874C160.415 8.80601 159.478 8.43476 158.296 8.43476C157.115 8.43476 156.081 8.83783 155.347 9.64419C154.61 10.4504 154.245 11.621 154.245 13.1523V20.1685H152.592V12.7739C152.592 11.3664 152.247 10.2949 151.561 9.54874C150.874 8.80601 149.928 8.43476 148.73 8.43476C147.531 8.43476 146.515 8.83783 145.781 9.64419C145.047 10.4504 144.679 11.621 144.679 13.1523V20.1685H143V7.22533H144.679V9.45317C145.094 8.64692 145.684 8.0351 146.454 7.61783C147.219 7.20055 148.079 6.98828 149.02 6.98828C150.154 6.98828 151.153 7.25715 152.008 7.79465C152.864 8.33215 153.482 9.12078 153.865 10.164C154.216 9.13851 154.821 8.34987 155.676 7.80521C156.532 7.26067 157.505 6.98828 158.589 6.98828C160.125 6.98828 161.378 7.46578 162.344 8.42408H162.334Z" fill="#20CFCA"/>
<path d="M167.543 10.1794C168.08 9.17509 168.822 8.40065 169.773 7.856C170.725 7.31145 171.799 7.03906 173.002 7.03906C174.203 7.03906 175.324 7.32202 176.226 7.89134C177.132 8.46077 177.782 9.18929 178.18 10.0734V7.23009H179.858V20.1733H178.18V17.3053C177.765 18.1894 177.103 18.9215 176.201 19.4978C175.296 20.0743 174.222 20.3643 172.973 20.3643C171.788 20.3643 170.722 20.0884 169.769 19.5333C168.818 18.9816 168.073 18.1965 167.54 17.1851C167.003 16.1736 166.734 15.003 166.734 13.6769C166.734 12.3508 167.003 11.1837 167.54 10.1794H167.543ZM177.535 10.9468C177.103 10.1583 176.515 9.54997 175.772 9.12202C175.027 8.69418 174.208 8.48202 173.313 8.48202C172.418 8.48202 171.551 8.68713 170.818 9.09725C170.08 9.50747 169.501 10.1052 169.079 10.8867C168.653 11.6683 168.442 12.5984 168.442 13.6734C168.442 14.7485 168.653 15.6609 169.079 16.4601C169.501 17.2593 170.08 17.8676 170.818 18.2849C171.551 18.7021 172.386 18.9144 173.313 18.9144C174.24 18.9144 175.027 18.7021 175.772 18.2743C176.515 17.8463 177.103 17.238 177.535 16.4495C177.969 15.6609 178.184 14.7414 178.184 13.7017C178.184 12.662 177.969 11.7425 177.535 10.9504V10.9468Z" fill="#20CFCA"/>
<path d="M187.071 7.65696C187.829 7.21492 188.76 6.99219 189.866 6.99219V8.72151H189.412C188.194 8.72151 187.221 9.04685 186.483 9.69401C185.747 10.3412 185.382 11.4233 185.382 12.9404V20.1688H183.703V7.22912H185.382V9.52776C185.75 8.72151 186.312 8.09912 187.074 7.65696H187.071Z" fill="#20CFCA"/>
<path d="M192.358 4.43023C192.118 4.1933 192 3.89977 192 3.55318C192 3.2067 192.118 2.9167 192.358 2.68682C192.598 2.45693 192.885 2.34375 193.221 2.34375C193.557 2.34375 193.844 2.46045 194.084 2.68682C194.322 2.9167 194.445 3.20318 194.445 3.55318C194.445 3.90329 194.322 4.1933 194.084 4.43023C193.844 4.66716 193.557 4.78386 193.221 4.78386C192.885 4.78386 192.598 4.66716 192.358 4.43023ZM194.062 7.22761V20.1708H192.383V7.22761H194.062Z" fill="#20CFCA"/>
<path d="M207.852 8.4276C208.844 9.38249 209.338 10.7687 209.338 12.5865V20.172H207.685V12.7774C207.685 11.3699 207.33 10.2984 206.618 9.55214C205.906 8.80953 204.936 8.43817 203.705 8.43817C202.474 8.43817 201.432 8.8343 200.681 9.62294C199.929 10.4116 199.554 11.575 199.554 13.1062V20.1685H197.875V7.22874H199.554V9.43192C199.968 8.64328 200.569 8.03862 201.353 7.61783C202.138 7.20044 203.025 6.98828 204.016 6.98828C205.584 6.98828 206.862 7.46567 207.852 8.42408V8.4276Z" fill="#20CFCA"/>
<path d="M224.862 14.3378H213.996C214.044 15.3174 214.283 16.1555 214.716 16.8487C215.149 17.5453 215.714 18.0687 216.42 18.4258C217.121 18.783 217.891 18.9598 218.721 18.9598C219.808 18.9598 220.725 18.6982 221.465 18.1783C222.207 17.6585 222.7 16.9547 222.94 16.0671H224.715C224.397 17.3331 223.713 18.3622 222.664 19.1614C221.616 19.9607 220.303 20.3567 218.717 20.3567C217.486 20.3567 216.38 20.0845 215.407 19.5398C214.43 18.9953 213.667 18.2207 213.116 17.2164C212.566 16.2121 212.289 15.038 212.289 13.6977C212.289 12.3574 212.561 11.1763 213.106 10.1648C213.65 9.15345 214.408 8.37891 215.385 7.84141C216.359 7.30391 217.472 7.03516 218.721 7.03516C219.97 7.03516 221.061 7.30391 221.995 7.84141C222.933 8.37891 223.649 9.10038 224.154 10.0092C224.658 10.9181 224.909 11.926 224.909 13.0329C224.909 13.6022 224.894 14.0372 224.862 14.3378ZM222.619 10.522C222.21 9.843 221.656 9.33027 220.95 8.98016C220.246 8.63356 219.479 8.46027 218.649 8.46027C217.403 8.46027 216.337 8.85641 215.461 9.64504C214.581 10.4371 214.093 11.5511 213.996 12.9869H223.208C223.223 12.0214 223.029 11.201 222.622 10.522H222.619Z" fill="#20CFCA"/>
<path d="M11.7222 13.8299L8.42598 17.087C6.50053 18.9896 3.37621 18.9859 1.44721 17.0834C-0.481809 15.1773 -0.481809 12.0936 1.44365 10.1874C3.37265 8.28128 6.49342 8.28128 8.42598 10.1874L11.7185 13.4409C11.8259 13.547 11.8295 13.7203 11.7222 13.8299Z" fill="#20CFCA"/>
<path d="M17.2918 25.8481C15.3664 27.7506 12.2421 27.7471 10.3131 25.8446C8.38761 23.9419 8.38405 20.8547 10.3095 18.9485L13.6056 15.6915C13.713 15.5855 13.8883 15.589 13.9921 15.6915L17.2883 18.9485C19.2137 20.8511 19.2173 23.9384 17.2883 25.8481H17.2918Z" fill="#1BC2FD"/>
<path d="M26.1624 17.0847C24.2334 18.9908 21.1055 18.9872 19.18 17.0847L15.8839 13.8277C15.7801 13.725 15.7765 13.5519 15.8839 13.4457L19.18 10.1887C21.1055 8.28607 24.237 8.28607 26.1624 10.1887C28.0878 12.0913 28.0878 15.1856 26.1624 17.0882V17.0847Z" fill="#20CFCA"/>
<path d="M17.2963 8.32773L14.0002 11.5848C13.8928 11.6909 13.7174 11.6874 13.6065 11.5812L10.3139 8.32773C8.38494 6.4217 8.38494 3.33795 10.3139 1.42829C12.2394 -0.474331 15.3637 -0.477865 17.2963 1.42829C19.2217 3.33079 19.2217 6.42523 17.2963 8.32773Z" fill="#1BC2FD"/>
</svg>
