<svg width="173" height="31" viewBox="0 0 173 31" fill="none" xmlns="http://www.w3.org/2000/svg">
<mask id="mask0_6534_17883" style="mask-type:luminance" maskUnits="userSpaceOnUse" x="0" y="0" width="173" height="31">
<path d="M172.101 0H0V30.5455H172.101V0Z" fill="white"/>
</mask>
<g mask="url(#mask0_6534_17883)">
<path d="M36.9277 11.229C37.515 10.0804 38.3097 9.19331 39.3159 8.5754C40.3219 7.95749 41.4455 7.64453 42.6865 7.64453C43.771 7.64453 44.7223 7.86637 45.5327 8.31004C46.3469 8.75359 46.9968 9.30811 47.4861 9.98139V7.88622H51.1857V22.5926H47.4861V20.4418C47.0124 21.131 46.3625 21.7014 45.5327 22.1529C44.7027 22.6044 43.7436 22.8302 42.6591 22.8302C41.4337 22.8302 40.318 22.5133 39.3159 21.8757C38.3097 21.2379 37.515 20.3388 36.9277 19.1823C36.3405 18.0218 36.0469 16.6909 36.0469 15.1859C36.0469 13.6808 36.3405 12.3816 36.9277 11.229ZM46.9655 12.9164C46.6171 12.2708 46.1434 11.7757 45.5482 11.4312C44.9532 11.0865 44.3151 10.9123 43.6339 10.9123C42.9527 10.9123 42.3225 11.0786 41.743 11.4152C41.1676 11.7519 40.6977 12.243 40.3376 12.8887C39.9774 13.5342 39.8012 14.2987 39.8012 15.1859C39.8012 16.0732 39.9813 16.8455 40.3376 17.5108C40.6977 18.1723 41.1676 18.6833 41.7548 19.0358C42.342 19.3882 42.9645 19.5665 43.63 19.5665C44.2956 19.5665 44.9494 19.3922 45.5444 19.0477C46.1395 18.703 46.6092 18.2079 46.9616 17.5624C47.3099 16.9167 47.4861 16.1405 47.4861 15.2374C47.4861 14.3344 47.3099 13.5619 46.9616 12.9164H46.9655Z" fill="#1BC2FD"/>
<path d="M60.3129 8.33331C61.0763 7.88964 61.9454 7.67188 62.9241 7.67188V11.5732H61.9533C60.7984 11.5732 59.9293 11.8465 59.3421 12.397C58.7548 12.9476 58.4612 13.9021 58.4612 15.2646V22.5921H54.7891V7.88175H58.4612V10.1631C58.9349 9.38293 59.5496 8.77291 60.309 8.33331H60.3129Z" fill="#1BC2FD"/>
<path d="M71.0162 8.3082C71.8462 7.86466 72.7936 7.64282 73.8624 7.64282C75.1034 7.64282 76.2269 7.95171 77.233 8.57357C78.2392 9.19148 79.0338 10.0747 79.6211 11.2155C80.2083 12.3561 80.498 13.679 80.498 15.1841C80.498 16.6892 80.2044 18.02 79.6211 19.1806C79.0338 20.3411 78.2392 21.2362 77.233 21.8738C76.2269 22.5116 75.1034 22.8284 73.8624 22.8284C72.7779 22.8284 71.8266 22.6106 71.0162 22.1789C70.2019 21.7472 69.5521 21.1846 69.0628 20.4915V22.5868H65.3906V2.94531H69.0628V10.0352C69.5365 9.32613 70.1862 8.75188 71.0162 8.3082ZM76.2112 12.8868C75.851 12.2413 75.3814 11.7502 74.7941 11.4135C74.2069 11.0768 73.5727 10.9104 72.8914 10.9104C72.2102 10.9104 71.6034 11.0848 71.0162 11.4293C70.429 11.774 69.9553 12.273 69.599 12.9305C69.2388 13.584 69.0588 14.3563 69.0588 15.2396C69.0588 16.1229 69.2388 16.8952 69.599 17.5487C69.9553 18.2023 70.429 18.7052 71.0162 19.0499C71.6034 19.3944 72.2259 19.5687 72.8914 19.5687C73.557 19.5687 74.2069 19.3905 74.7941 19.0379C75.3814 18.6854 75.851 18.1785 76.2112 17.5249C76.5715 16.8714 76.7516 16.0912 76.7516 15.1881C76.7516 14.2851 76.5715 13.5364 76.2112 12.8908V12.8868Z" fill="#1BC2FD"/>
<path d="M96.5903 16.3543H85.9614C86.0475 17.4158 86.4154 18.2476 87.0653 18.8496C87.7113 19.4516 88.51 19.7526 89.4535 19.7526C90.8197 19.7526 91.7906 19.1585 92.3661 17.9742H96.328C95.909 19.3922 95.1026 20.5528 93.9125 21.4637C92.7224 22.3747 91.262 22.8302 89.5317 22.8302C88.1341 22.8302 86.8775 22.5172 85.7657 21.8875C84.6539 21.2617 83.7887 20.3705 83.1661 19.218C82.5437 18.0693 82.2344 16.7425 82.2344 15.2374C82.2344 13.7322 82.5398 12.3777 83.1544 11.229C83.769 10.0804 84.6225 9.19331 85.7264 8.5754C86.8305 7.95749 88.0949 7.64453 89.5317 7.64453C90.9684 7.64453 92.1508 7.94566 93.243 8.54766C94.3353 9.14966 95.1848 10.0052 95.7877 11.1103C96.3906 12.2153 96.692 13.4867 96.692 14.9206C96.692 15.4513 96.6568 15.9305 96.5862 16.3543H96.5903ZM92.8907 13.8551C92.875 12.9005 92.5305 12.1361 91.8688 11.5578C91.2034 10.9835 90.3891 10.6944 89.4299 10.6944C88.5216 10.6944 87.7543 10.9717 87.1319 11.5302C86.5094 12.0885 86.1297 12.8609 85.9927 13.8511H92.8945L92.8907 13.8551Z" fill="#1BC2FD"/>
<path d="M112.778 16.3543H102.149C102.235 17.4158 102.603 18.2476 103.253 18.8496C103.899 19.4516 104.697 19.7526 105.641 19.7526C107.007 19.7526 107.978 19.1585 108.554 17.9742H112.515C112.097 19.3922 111.29 20.5528 110.1 21.4637C108.91 22.3747 107.45 22.8302 105.719 22.8302C104.322 22.8302 103.065 22.5172 101.953 21.8875C100.841 21.2617 99.9762 20.3705 99.3536 19.218C98.7312 18.0693 98.4219 16.7425 98.4219 15.2374C98.4219 13.7322 98.7273 12.3777 99.3419 11.229C99.9565 10.0804 100.81 9.19331 101.914 8.5754C103.018 7.95749 104.282 7.64453 105.719 7.64453C107.156 7.64453 108.338 7.94566 109.431 8.54766C110.523 9.14966 111.372 10.0052 111.975 11.1103C112.577 12.2153 112.88 13.4867 112.88 14.9206C112.88 15.4513 112.844 15.9305 112.774 16.3543H112.778ZM109.078 13.8551C109.062 12.9005 108.718 12.1361 108.056 11.5578C107.391 10.9835 106.577 10.6944 105.617 10.6944C104.709 10.6944 103.942 10.9717 103.319 11.5302C102.697 12.0885 102.317 12.8609 102.18 13.8511H109.082L109.078 13.8551Z" fill="#1BC2FD"/>
<path d="M115.9 11.4C116.495 10.2752 117.317 9.4078 118.366 8.79778C119.415 8.18789 120.613 7.88281 121.96 7.88281C123.726 7.88281 125.182 8.32649 126.329 9.20976C127.476 10.097 128.212 11.297 128.544 12.822H126.576C126.333 11.7763 125.8 10.9604 124.991 10.3663C124.18 9.77218 123.166 9.47512 121.96 9.47512C120.997 9.47512 120.132 9.69696 119.36 10.1405C118.589 10.5842 117.983 11.2415 117.537 12.1169C117.089 12.9923 116.866 14.0695 116.866 15.341C116.866 16.6124 117.089 17.6938 117.537 18.5809C117.983 19.4681 118.589 20.1296 119.36 20.5732C120.132 21.0167 120.997 21.2386 121.96 21.2386C123.166 21.2386 124.176 20.9415 124.991 20.3474C125.804 19.7533 126.333 18.9255 126.576 17.8641H128.544C128.212 19.3493 127.468 20.5454 126.314 21.4486C125.158 22.3516 123.706 22.8031 121.96 22.8031C120.613 22.8031 119.415 22.498 118.366 21.8882C117.317 21.2781 116.495 20.4108 115.9 19.2859C115.305 18.1611 115.008 16.8461 115.008 15.3449C115.008 13.8439 115.305 12.5248 115.9 11.4039V11.4Z" fill="#20CFCA"/>
<path d="M131.971 11.4C132.557 10.2752 133.368 9.4078 134.409 8.79778C135.451 8.18789 136.625 7.88281 137.941 7.88281C139.255 7.88281 140.481 8.19972 141.467 8.83736C142.458 9.47512 143.17 10.2911 143.605 11.2812V8.09676H145.441V22.5931H143.605V19.381C143.151 20.3712 142.427 21.1911 141.44 21.8366C140.45 22.4823 139.275 22.8071 137.909 22.8071C136.614 22.8071 135.447 22.4981 134.406 21.8763C133.364 21.2584 132.55 20.3791 131.966 19.2464C131.379 18.1135 131.086 16.8025 131.086 15.3172C131.086 13.8319 131.379 12.5248 131.966 11.4H131.971ZM142.897 12.2595C142.423 11.3763 141.78 10.695 140.966 10.2157C140.153 9.73654 139.255 9.49892 138.277 9.49892C137.298 9.49892 136.35 9.72865 135.548 10.188C134.741 10.6474 134.107 11.3169 133.646 12.1921C133.18 13.0675 132.949 14.1093 132.949 15.3133C132.949 16.5174 133.18 17.5392 133.646 18.4344C134.107 19.3295 134.741 20.0108 135.548 20.4781C136.35 20.9454 137.263 21.1832 138.277 21.1832C139.29 21.1832 140.153 20.9454 140.966 20.4663C141.78 19.987 142.423 19.3057 142.897 18.4225C143.371 17.5392 143.605 16.5095 143.605 15.3449C143.605 14.1805 143.371 13.1506 142.897 12.2635V12.2595Z" fill="#20CFCA"/>
<path d="M153.325 8.57267C154.155 8.07758 155.172 7.82812 156.383 7.82812V9.76496H155.885C154.554 9.76496 153.489 10.1293 152.683 10.8542C151.876 11.579 151.477 12.791 151.477 14.4901V22.5859H149.641V8.09349H151.477V10.668C151.88 9.76496 152.495 9.06789 153.329 8.57267H153.325Z" fill="#20CFCA"/>
<path d="M172.054 16.0619H160.168C160.22 17.159 160.481 18.0976 160.955 18.874C161.429 19.6543 162.048 20.2405 162.819 20.6405C163.587 21.0405 164.428 21.2386 165.336 21.2386C166.527 21.2386 167.528 20.9454 168.343 20.3632C169.157 19.781 169.693 18.9928 169.955 17.9986H171.898C171.549 19.4166 170.801 20.5692 169.655 21.4643C168.507 22.3594 167.071 22.803 165.336 22.803C163.989 22.803 162.783 22.498 161.715 21.8882C160.646 21.2781 159.812 20.4108 159.209 19.2859C158.607 18.161 158.305 16.846 158.305 15.3449C158.305 13.8438 158.603 12.5209 159.198 11.3882C159.792 10.2553 160.623 9.38794 161.692 8.78594C162.76 8.18381 163.974 7.88281 165.34 7.88281C166.706 7.88281 167.9 8.18381 168.923 8.78594C169.944 9.38794 170.731 10.1959 171.282 11.2138C171.835 12.2317 172.108 13.3606 172.108 14.6003C172.108 15.238 172.093 15.7251 172.058 16.0619H172.054ZM169.599 11.7882C169.153 11.0277 168.547 10.4533 167.775 10.0612C167.004 9.67316 166.166 9.47907 165.257 9.47907C163.891 9.47907 162.728 9.92261 161.766 10.8059C160.802 11.6931 160.271 12.9408 160.164 14.5488H170.241C170.257 13.4675 170.046 12.5486 169.599 11.7882Z" fill="#20CFCA"/>
<path d="M12.8227 15.4893L9.21706 19.1372C7.11087 21.2682 3.69324 21.2641 1.58303 19.1333C-0.527031 16.9984 -0.52703 13.5446 1.57915 11.4097C3.68923 9.27488 7.1031 9.27488 9.21706 11.4097L12.8188 15.0537C12.9362 15.1724 12.9401 15.3665 12.8227 15.4893Z" fill="#20CFCA"/>
<path d="M18.9187 28.9473C16.8125 31.0781 13.3949 31.0742 11.2847 28.9434C9.17852 26.8125 9.17464 23.3547 11.2808 21.2199L14.8864 17.572C15.0039 17.4532 15.1957 17.4572 15.3093 17.572L18.9149 21.2199C21.021 23.3508 21.0249 26.8085 18.9149 28.9473H18.9187Z" fill="#1BC2FD"/>
<path d="M28.6113 19.1342C26.5012 21.2691 23.0797 21.265 20.9735 19.1342L17.3679 15.4863C17.2543 15.3714 17.2504 15.1775 17.3679 15.0586L20.9735 11.4107C23.0797 9.27977 26.5051 9.27977 28.6113 11.4107C30.7175 13.5416 30.7175 17.0073 28.6113 19.1382V19.1342Z" fill="#20CFCA"/>
<path d="M18.9158 9.32705L15.3102 12.9749C15.1928 13.0938 15.0009 13.0899 14.8796 12.971L11.2779 9.32705C9.16779 7.19231 9.16779 3.73851 11.2779 1.59969C13.3841 -0.53125 16.8018 -0.535209 18.9158 1.59969C21.022 3.73049 21.022 7.19625 18.9158 9.32705Z" fill="#1BC2FD"/>
</g>
</svg>
