<svg width="171" height="106" viewBox="0 0 171 106" fill="none" xmlns="http://www.w3.org/2000/svg">
<g clip-path="url(#clip0_6534_17669)">
<mask id="mask0_6534_17669" style="mask-type:luminance" maskUnits="userSpaceOnUse" x="-7" y="-8" width="182" height="121">
<path d="M174.958 -7.53906H-6.09375V112.908H174.958V-7.53906Z" fill="white"/>
</mask>
<g mask="url(#mask0_6534_17669)">
<path d="M169.424 67.7649C169.844 68.0072 170.189 68.3633 170.418 68.7928C170.665 69.2452 170.791 69.7543 170.784 70.2703C170.792 70.7828 170.666 71.2883 170.418 71.7362C170.185 72.1615 169.842 72.5149 169.424 72.7582C168.983 73.0098 168.483 73.1388 167.976 73.132C167.468 73.1373 166.966 73.0084 166.523 72.7582C166.103 72.515 165.758 72.1617 165.523 71.7362C165.275 71.2883 165.149 70.7828 165.157 70.2703C165.149 69.7543 165.276 69.2452 165.523 68.7928C165.754 68.3631 166.101 68.007 166.523 67.7649C166.965 67.5113 167.467 67.3822 167.976 67.3911C168.484 67.3815 168.984 67.5107 169.424 67.7649ZM169.639 71.9873C170.048 71.5096 170.273 70.9004 170.273 70.2703C170.273 69.6403 170.048 69.0311 169.639 68.5533C169.189 68.1227 168.592 67.8825 167.97 67.8825C167.349 67.8825 166.752 68.1227 166.302 68.5533C165.893 69.0311 165.668 69.6403 165.668 70.2703C165.668 70.9004 165.893 71.5096 166.302 71.9873C166.752 72.4179 167.349 72.6581 167.97 72.6581C168.592 72.6581 169.189 72.4179 169.639 71.9873ZM169.017 70.2353C168.871 70.3953 168.677 70.5022 168.465 70.539L169.319 71.7712H168.592L167.808 70.5565H167.476V71.7712H166.866V68.6993H168.191C168.463 68.685 168.73 68.7724 168.941 68.9446C169.034 69.0312 169.108 69.1372 169.156 69.2553C169.204 69.3733 169.226 69.5005 169.22 69.6279C169.224 69.8408 169.152 70.0481 169.017 70.2119M167.476 70.0309H168.151C168.267 70.0347 168.381 69.9998 168.476 69.9316C168.52 69.8948 168.554 69.848 168.577 69.7952C168.599 69.7424 168.608 69.6851 168.604 69.6279C168.609 69.5724 168.6 69.5165 168.577 69.4655C168.555 69.4145 168.52 69.3699 168.476 69.3359C168.381 69.2698 168.266 69.2369 168.151 69.2425H167.476V70.0309Z" fill="#0089CF"/>
<path d="M33.9552 104.593H26.0139C25.2674 102.15 24.8318 99.6229 24.7175 97.0706C22.5122 102.591 18.3458 105.35 12.2183 105.346C8.53253 105.346 5.59088 104.26 3.35847 102.087C2.26101 101.036 1.39538 99.7652 0.817558 98.3568C0.239739 96.9484 -0.0374033 95.4338 0.00405016 93.9111C0.00405016 85.6803 6.95706 81.4229 20.8631 81.1386V85.8108C12.6776 86.3909 8.58486 88.9216 8.58486 93.403C8.56611 94.1414 8.69831 94.8759 8.97329 95.5609C9.24827 96.246 9.66019 96.8671 10.1836 97.386C11.2707 98.4722 12.9101 99.0212 15.1018 99.0212C18.2702 99.0212 20.6712 98.005 22.2932 95.9902C23.8789 94.0509 24.7369 91.6142 24.7175 89.1046V86.1845V81.1386V78.3704C24.7175 74.5198 22.1072 72.5964 16.8866 72.6003C11.8172 72.6003 8.94142 74.5237 8.2593 78.3704L1.17257 77.3075C1.55046 74.218 3.14337 71.6717 5.91062 69.6744C8.67787 67.6771 12.7183 66.6842 17.9854 66.6842C20.3318 66.632 22.6754 66.8753 24.9616 67.4084C26.6577 67.8296 28.226 68.6594 29.5311 69.8262C30.6857 70.8293 31.5729 72.106 32.1123 73.5406C32.6123 74.8663 32.8564 77.144 32.8564 80.3152V97.0706C32.8672 99.6175 33.2371 102.15 33.9552 104.593ZM47.6287 104.593H39.2979V67.461H46.809V76.3088C47.8825 72.8709 49.3553 70.3499 51.2273 68.7458C53.0992 67.1417 55.0371 66.3455 57.0408 66.3572C57.3199 66.3572 57.6745 66.3572 58.1396 66.3922V75.3919C53.8763 75.3919 51.0664 76.7546 49.7099 79.48C48.4065 81.9123 47.6953 84.6201 47.6345 87.3818L47.6287 104.593ZM64.3601 104.593H60.5987V54.4141H68.9005V72.5186C70.4895 69.7503 72.0766 67.9262 73.6618 67.0463C75.3731 66.1279 77.2915 65.6692 79.2312 65.7148C83.2774 65.7148 86.626 67.4435 89.277 70.9008C91.928 74.3582 93.2593 79.1471 93.2709 85.2676C93.2709 90.8041 91.9609 95.5327 89.3409 99.4534C86.719 103.36 82.946 105.334 78.0568 105.334C73.1676 105.334 69.3365 103.045 66.5751 98.4606L64.3601 104.593ZM68.9005 88.725C68.9005 92.0344 69.6175 94.4795 71.0515 96.0602C71.7471 96.8392 72.6041 97.4557 73.5623 97.8664C74.5204 98.277 75.5565 98.4719 76.5976 98.4372C77.6646 98.4409 78.7179 98.1972 79.6758 97.7252C80.6338 97.2532 81.4703 96.5655 82.1205 95.7157C83.5971 93.8994 84.3994 90.3486 84.4866 85.0515C84.4866 81.1931 83.8181 78.2127 82.4809 76.1103C81.9006 75.1262 81.0693 74.3155 80.0729 73.7622C79.0764 73.2088 77.9509 72.9327 76.8127 72.9624C75.7256 72.9439 74.6488 73.1771 73.6658 73.644C72.6829 74.1109 71.8201 74.7989 71.1445 75.6547C69.6562 77.4418 68.9005 79.9706 68.9005 83.2469V88.725ZM120.845 92.743L128.402 93.7767C127.446 97.0904 125.444 100.003 122.699 102.076C119.862 104.26 116.312 105.35 112.049 105.346C106.925 105.346 102.805 103.615 99.6891 100.154C96.573 96.6929 95.0111 92.0208 95.0033 86.1378C95.0033 80.5429 96.5769 75.9059 99.7239 72.2266C102.863 68.5473 107.142 66.7076 112.514 66.7076C117.785 66.7076 121.854 68.52 124.722 72.1448C127.59 75.7696 129.028 80.4222 129.036 86.1028L129.007 87.0722H107.578V81.6643H120.368C120.442 79.254 119.586 76.9082 117.979 75.1174C117.235 74.3325 116.343 73.7047 115.354 73.2707C114.366 72.8367 113.301 72.6053 112.222 72.5901C111.144 72.5748 110.073 72.7761 109.073 73.182C108.073 73.5879 107.163 74.1903 106.398 74.9539C105.294 76.1293 104.513 77.5721 104.131 79.1413C103.142 82.844 103.404 87.3175 103.945 91.026C104.044 91.7377 104.197 92.4406 104.404 93.1285C104.927 94.7075 105.914 96.0901 107.235 97.094C108.757 98.256 110.632 98.8543 112.543 98.7876C116.663 98.7876 119.442 96.7805 120.879 92.7664M156.621 92.7664L164.179 93.8001C163.225 97.1133 161.225 100.026 158.482 102.099C155.652 104.283 152.102 105.373 147.831 105.369C142.715 105.369 138.595 103.639 135.471 100.178C132.348 96.7163 130.797 92.0442 130.821 86.1612C130.821 80.5663 132.392 75.9292 135.535 72.2499C138.679 68.5706 142.942 66.731 148.325 66.731C153.592 66.731 157.662 68.5434 160.534 72.1681C163.406 75.7929 164.836 80.43 164.824 86.0794V87.0489H143.314V81.6409H156.104C156.171 79.2307 155.314 76.8868 153.709 75.0941C152.966 74.3088 152.075 73.6806 151.088 73.2463C150.1 72.812 149.036 72.5804 147.958 72.5651C146.881 72.5499 145.811 72.7513 144.811 73.1575C143.812 73.5638 142.904 74.1666 142.14 74.9305C141.033 76.1033 140.251 77.547 139.872 79.1179C138.872 82.8206 139.134 87.2942 139.675 91.0027C139.778 91.714 139.934 92.4167 140.14 93.1051C140.663 94.6841 141.65 96.0668 142.971 97.0706C144.493 98.2327 146.368 98.831 148.279 98.7642C152.402 98.7642 155.181 96.7572 156.615 92.743" fill="#0089CF"/>
<path d="M61.9236 23.4998C58.3192 21.0761 55.7438 16.1237 50.7849 15.855C40.0821 15.271 40.0821 31.7228 50.7849 31.1329C55.7438 30.8701 58.3425 25.9293 61.9062 23.4998" fill="#A6CE39"/>
<path d="M68.5703 23.4998C72.1631 21.0645 74.7443 16.1237 79.7033 15.855C90.3944 15.271 90.3944 31.7227 79.7033 31.1329C74.7443 30.8701 72.1456 25.9293 68.5703 23.4998Z" fill="#A6CE39"/>
<path d="M65.5993 26.5898C68.012 30.1932 72.9302 32.7863 73.1976 37.7679C73.779 48.5255 57.408 48.5255 57.9836 37.7679C58.2568 32.7863 63.1693 30.1757 65.5993 26.5898Z" fill="#0089CF"/>
<path d="M65.5993 19.2375C68.012 15.6341 72.9302 13.0411 73.1976 8.05942C73.779 -2.68647 57.408 -2.68647 57.9836 8.05942C58.2568 13.0411 63.1693 15.6516 65.5993 19.2375Z" fill="#0089CF"/>
</g>
</g>
<defs>
<clipPath id="clip0_6534_17669">
<rect width="170.779" height="105.351" fill="white"/>
</clipPath>
</defs>
</svg>
