<svg width="368" height="376" viewBox="0 0 368 376" fill="none" xmlns="http://www.w3.org/2000/svg">
<path d="M157.134 192.721C127.583 172.878 106.468 132.332 65.8112 130.132C-21.9371 125.351 -21.9371 260.043 65.8112 255.214C106.468 253.063 127.774 212.612 156.991 192.721" fill="white"/>
<path d="M210.453 192.721C239.931 172.782 261.11 132.332 301.798 130.132C389.517 125.351 389.517 260.043 301.798 255.214C261.11 253.063 239.788 212.612 210.453 192.721Z" fill="white"/>
<path d="M187.136 217.93C206.972 247.524 247.409 268.821 249.607 309.735C254.387 398.087 119.788 398.087 124.52 309.735C126.767 268.821 167.156 247.38 187.136 217.93Z" fill="white"/>
<path d="M187.136 158.069C206.972 128.461 247.409 107.155 249.607 66.2222C254.387 -22.0741 119.788 -22.0741 124.52 66.2222C126.767 107.155 167.156 128.605 187.136 158.069Z" fill="white"/>
</svg>
