<svg width="50" height="50" viewBox="0 0 50 50" fill="none" xmlns="http://www.w3.org/2000/svg">
<path d="M47.1545 19.987L43.3698 13.162C42.9573 12.4186 42.1735 11.9573 41.3242 11.9573H32.4292V10.1339C32.4292 9.30797 31.7579 8.63672 30.932 8.63672H6.60384C6.24197 8.63672 5.94759 8.93016 5.94759 9.29297C5.94759 9.65484 6.24197 9.94922 6.60384 9.94922H30.932C31.0342 9.94922 31.1167 10.0317 31.1167 10.1339V30.1964H6.60384C6.24197 30.1964 5.94759 30.4908 5.94759 30.8527V34.9402C5.94759 35.7652 6.61978 36.4373 7.44572 36.4373H8.71416C9.04041 39.2077 11.4038 41.3648 14.2604 41.3648C17.1179 41.3648 19.4813 39.2077 19.8067 36.4373H31.1551C31.4804 39.2077 33.8438 41.3648 36.7013 41.3648C39.5579 41.3648 41.9213 39.2077 42.2476 36.4373H47.3223C48.1482 36.4373 48.8195 35.7652 48.8195 34.9402V26.4239C48.8195 24.1777 48.2438 21.9511 47.1545 19.987ZM7.26009 34.9402V31.5089H10.6679C9.60853 32.4014 8.88384 33.6792 8.71416 35.1248H7.44572C7.34353 35.1248 7.26009 35.0414 7.26009 34.9402ZM14.2604 40.0523C11.9054 40.0523 9.98822 38.1361 9.98822 35.7811C9.98822 33.4252 11.9054 31.5089 14.2604 31.5089C16.6163 31.5089 18.5326 33.4252 18.5326 35.7811C18.5326 38.1361 16.6163 40.0523 14.2604 40.0523ZM31.1167 35.1248H19.8067C19.637 33.6792 18.9132 32.4014 17.8529 31.5089H31.1167V35.1248ZM36.7013 40.0523C34.3454 40.0523 32.4292 38.1361 32.4292 35.7811C32.4292 33.4252 34.3454 31.5089 36.7013 31.5089C39.0563 31.5089 40.9735 33.4252 40.9735 35.7811C40.9735 38.1361 39.0563 40.0523 36.7013 40.0523ZM47.507 32.0742C46.8001 31.808 46.2957 31.1245 46.2957 30.3258V28.3214C46.2957 28.2192 46.3792 28.1367 46.4804 28.1367H47.507V32.0742ZM47.507 26.8242H46.4804C45.6554 26.8242 44.9832 27.4955 44.9832 28.3214V30.3258C44.9832 31.8548 46.0679 33.1345 47.507 33.4373V34.9402C47.507 35.0414 47.4245 35.1248 47.3223 35.1248H42.2476C41.9213 32.3536 39.5579 30.1964 36.7013 30.1964C34.9885 30.1964 33.4538 30.9708 32.4292 32.1886V13.2698H41.3242C41.6973 13.2698 42.0413 13.4723 42.2213 13.7986L46.006 20.6236C46.9876 22.3936 47.507 24.3998 47.507 26.4239V26.8242ZM36.7013 37.9065C35.5292 37.9065 34.5757 36.953 34.5757 35.7809C34.5757 34.6088 35.5292 33.6553 36.7013 33.6553C37.8733 33.6553 38.8268 34.6088 38.8268 35.7809C38.8268 36.953 37.8733 37.9065 36.7013 37.9065ZM36.7013 34.9679C36.2529 34.9679 35.8882 35.3327 35.8882 35.781C35.8882 36.2293 36.2529 36.5941 36.7013 36.5941C37.1496 36.5941 37.5143 36.2293 37.5143 35.781C37.5143 35.3327 37.1496 34.9679 36.7013 34.9679ZM14.2605 37.9065C13.0884 37.9065 12.1349 36.953 12.1349 35.7809C12.1349 34.6088 13.0884 33.6553 14.2605 33.6553C15.4326 33.6553 16.3861 34.6088 16.3861 35.7809C16.3861 36.953 15.4326 37.9065 14.2605 37.9065ZM14.2605 34.9679C13.8122 34.9679 13.4474 35.3327 13.4474 35.781C13.4474 36.2293 13.8122 36.5941 14.2605 36.5941C14.7088 36.5941 15.0736 36.2293 15.0736 35.781C15.0736 35.3327 14.7088 34.9679 14.2605 34.9679ZM44.6031 24.526C44.4918 24.526 44.3797 24.5137 44.2684 24.4883L34.3837 22.2286C33.6983 22.0719 33.2198 21.4717 33.2198 20.7688V15.5579C33.2198 14.7322 33.8917 14.0603 34.7174 14.0603H40.5812C41.1251 14.0603 41.627 14.3558 41.8909 14.8316L45.315 21.0067C45.5817 21.4877 45.8149 21.9941 46.008 22.5119C46.1993 23.0248 46.0935 23.6001 45.7318 24.0132C45.4427 24.3433 45.03 24.526 44.6031 24.526ZM34.7174 15.3728C34.6154 15.3728 34.5323 15.4559 34.5323 15.5579V20.7688C34.5323 20.8556 34.5915 20.9298 34.6761 20.9491L44.5609 23.2087C44.6558 23.2302 44.7164 23.1802 44.7443 23.1485C44.7764 23.1118 44.8084 23.0513 44.7782 22.9706C44.6078 22.5138 44.4022 22.0672 44.167 21.6431L40.7429 15.4682C40.7103 15.4094 40.6483 15.3728 40.5811 15.3728H34.7174ZM20.3888 11.8186C15.8373 11.8186 12.1351 15.5217 12.1351 20.0723C12.1351 24.6239 15.8373 28.3261 20.3888 28.3261C24.9395 28.3261 28.6426 24.6239 28.6426 20.0723C28.6426 15.5217 24.9395 11.8186 20.3888 11.8186ZM20.3888 27.0136C16.561 27.0136 13.4476 23.9002 13.4476 20.0723C13.4476 16.2455 16.561 13.1311 20.3888 13.1311C24.2157 13.1311 27.3301 16.2455 27.3301 20.0723C27.3301 23.9002 24.2157 27.0136 20.3888 27.0136ZM24.0751 22.2014C23.9363 22.4423 23.6842 22.5764 23.4254 22.5764C23.2979 22.5764 23.1695 22.5445 23.0513 22.4761L20.0138 20.722C19.7898 20.5927 19.6388 20.3498 19.6388 20.0723V16.1667C19.6388 15.7533 19.9745 15.4167 20.3888 15.4167C20.8032 15.4167 21.1388 15.7533 21.1388 16.1667V19.6402L23.8013 21.1767C24.1595 21.3839 24.2823 21.8423 24.0751 22.2014ZM8.78109 13.1316H1.82812C1.46569 13.1316 1.17188 12.8377 1.17188 12.4753C1.17188 12.1129 1.46569 11.8191 1.82812 11.8191H8.78109C9.14353 11.8191 9.43734 12.1129 9.43734 12.4753C9.43734 12.8377 9.14353 13.1316 8.78109 13.1316ZM8.78109 18.1966H1.82812C1.46569 18.1966 1.17188 17.9028 1.17188 17.5403C1.17188 17.1779 1.46569 16.8841 1.82812 16.8841H8.78109C9.14353 16.8841 9.43734 17.1779 9.43734 17.5403C9.43734 17.9028 9.14353 18.1966 8.78109 18.1966ZM8.78109 23.2615H1.82812C1.46569 23.2615 1.17188 22.9677 1.17188 22.6053C1.17188 22.2428 1.46569 21.949 1.82812 21.949H8.78109C9.14353 21.949 9.43734 22.2428 9.43734 22.6053C9.43734 22.9677 9.14353 23.2615 8.78109 23.2615ZM8.78109 28.3266H1.82812C1.46569 28.3266 1.17188 28.0328 1.17188 27.6703C1.17188 27.3079 1.46569 27.0141 1.82812 27.0141H8.78109C9.14353 27.0141 9.43734 27.3079 9.43734 27.6703C9.43734 28.0328 9.14353 28.3266 8.78109 28.3266Z" fill="url(#paint0_linear_6599_16541)"/>
<defs>
<linearGradient id="paint0_linear_6599_16541" x1="1.17188" y1="25.0008" x2="48.8195" y2="25.0008" gradientUnits="userSpaceOnUse">
<stop stop-color="#0089CF"/>
<stop offset="1" stop-color="#A6CE39"/>
</linearGradient>
</defs>
</svg>
