<svg width="50" height="50" viewBox="0 0 50 50" fill="none" xmlns="http://www.w3.org/2000/svg">
<path d="M45.0316 9.06804L25.8033 0.827425C25.6107 0.745025 25.3926 0.745025 25.2001 0.827425L5.97188 9.06804C5.69041 9.18872 5.50781 9.46549 5.50781 9.77184V25.3198C5.50781 31.0399 7.46504 36.2747 11.1679 40.4586C14.7369 44.4913 19.7808 47.2487 25.3702 48.2231C25.4138 48.2305 25.4577 48.2344 25.5017 48.2344C25.5457 48.2344 25.5897 48.2305 25.6332 48.223C31.2227 47.2486 36.2665 44.4912 39.8356 40.4585C43.5383 36.2746 45.4956 31.0398 45.4956 25.3197V9.77174C45.4956 9.46549 45.3131 9.18862 45.0316 9.06804ZM43.9644 25.3197C43.9644 35.9651 36.379 44.7353 25.5017 46.6912C14.6245 44.7353 7.03906 35.9652 7.03906 25.3197V10.2767L25.5017 2.36423L43.9644 10.2767V25.3197ZM25.2002 5.19646L9.62936 11.8696C9.3479 11.9902 9.1653 12.267 9.1653 12.5734V25.1639C9.1653 29.8319 10.7628 34.1045 13.7852 37.5194C16.6972 40.8097 20.8115 43.0594 25.3701 43.8539C25.4137 43.8615 25.4576 43.8653 25.5016 43.8653C25.5457 43.8653 25.5896 43.8615 25.6331 43.8539C30.1918 43.0593 34.306 40.8096 37.2181 37.5194C40.2405 34.1045 41.838 29.832 41.838 25.1639V12.5734C41.838 12.2671 41.6555 11.9902 41.3739 11.8696L25.8033 5.19646C25.6108 5.11397 25.3926 5.11397 25.2002 5.19646ZM40.3068 13.0782V25.1638C40.3068 33.704 34.2256 40.7417 25.5017 42.322C16.7778 40.7417 10.6966 33.704 10.6966 25.1638V13.0782L25.5017 6.73317L40.3068 13.0782ZM23.7661 11.4333C23.5797 11.5729 23.4143 11.6982 23.2659 11.8106C22.6789 12.2552 22.3842 12.4785 22.1271 12.5721C21.8701 12.6657 21.5009 12.6841 20.7654 12.7207C20.5793 12.73 20.3722 12.7403 20.1397 12.7533C18.845 12.8252 17.7765 13.7218 17.4807 14.9844C17.4275 15.2111 17.3814 15.4133 17.34 15.5948C17.1762 16.3129 17.094 16.6733 16.9572 16.9102C16.8203 17.1472 16.5494 17.3986 16.0096 17.8994C15.873 18.026 15.721 18.1672 15.5511 18.3266C14.6055 19.2139 14.3633 20.5877 14.9483 21.745C15.0533 21.9528 15.148 22.1374 15.233 22.3031C15.5691 22.9585 15.7377 23.2873 15.7853 23.5569C15.8328 23.8263 15.7868 24.1932 15.6952 24.9239C15.6721 25.1087 15.6462 25.3145 15.6186 25.5457C15.4648 26.8332 16.1622 28.0413 17.3541 28.5517C17.5682 28.6433 17.7593 28.7239 17.9309 28.7963C17.9504 28.8045 17.9686 28.8122 17.9875 28.8201L15.2902 34.6135C15.1698 34.8721 15.2032 35.1761 15.3767 35.4025C15.5501 35.6287 15.835 35.74 16.1161 35.6909L19.0735 35.1741L20.5819 37.7699C20.7194 38.0065 20.9719 38.1508 21.2438 38.1508C21.2554 38.1508 21.267 38.1505 21.2785 38.15C21.5635 38.137 21.8176 37.9668 21.938 37.7083L24.6464 31.8909C25.05 31.7704 25.2981 31.7101 25.5017 31.7101C25.7753 31.7101 26.1287 31.8191 26.8324 32.0362C26.9017 32.0577 26.9751 32.0802 27.0508 32.1035L28.9877 36.6007C29.1005 36.8625 29.3496 37.0401 29.634 37.0612C29.6531 37.0627 29.6721 37.0633 29.6911 37.0633C29.9545 37.0633 30.2011 36.9274 30.3415 36.7015L31.9245 34.1506L34.8656 34.7528C35.1448 34.8106 35.433 34.7072 35.613 34.486C35.7931 34.2649 35.8352 33.9619 35.7224 33.6999L33.5275 28.6037C33.5676 28.5867 33.6078 28.5696 33.6495 28.5517C34.8415 28.0413 35.5389 26.8332 35.3851 25.5457C35.3574 25.3144 35.3316 25.1087 35.3084 24.9239C35.2168 24.1932 35.1708 23.8263 35.2184 23.5568C35.2658 23.2874 35.4346 22.9584 35.7706 22.303C35.8556 22.1374 35.9502 21.9528 36.0553 21.745C36.6403 20.5878 36.3981 19.2142 35.4526 18.3266C35.2828 18.1672 35.1307 18.0261 34.9942 17.8995C34.4543 17.3987 34.1832 17.1473 34.0465 16.9103C33.9096 16.6733 33.8275 16.313 33.6637 15.5951C33.6221 15.4134 33.5761 15.2111 33.5229 14.9844C33.2273 13.7219 32.1586 12.8252 30.864 12.7533C30.6314 12.7403 30.4243 12.73 30.2383 12.7207C29.5027 12.6841 29.1336 12.6657 28.8765 12.5721C28.6194 12.4785 28.3247 12.2552 27.7377 11.8106C27.5893 11.6981 27.424 11.5729 27.2375 11.4333C26.1991 10.6562 24.8043 10.6562 23.7661 11.4333ZM21.1689 35.7323L20.1294 33.9434C19.9683 33.6662 19.6515 33.5188 19.3357 33.5739L17.2976 33.9301L19.3269 29.5716C19.4885 29.7622 19.6747 30.0506 19.9694 30.5068C20.0705 30.6633 20.1829 30.8375 20.3104 31.0325C20.8633 31.8777 21.781 32.3517 22.7464 32.3436L21.1689 35.7323ZM31.7089 32.5434C31.3946 32.4788 31.0738 32.6174 30.9047 32.8898L29.8139 34.6477L28.802 32.2983C29.5592 32.1586 30.2456 31.7166 30.693 31.0324C30.8205 30.8374 30.9331 30.6632 31.034 30.5067C31.4336 29.888 31.6341 29.5775 31.8437 29.4016C31.9179 29.3394 32.0091 29.2811 32.1252 29.2192L33.7358 32.9584L31.7089 32.5434ZM26.8128 13.0311C28.2298 14.1047 28.3863 14.1616 30.162 14.25C30.3454 14.2592 30.5495 14.2693 30.7787 14.282C31.3985 14.3165 31.8903 14.7293 32.0318 15.3336C32.0843 15.5573 32.1296 15.7566 32.1706 15.9356C32.5661 17.6687 32.6493 17.813 33.9526 19.022C34.0872 19.1469 34.237 19.286 34.4045 19.443C34.8571 19.8678 34.9686 20.5002 34.6886 21.0541C34.585 21.259 34.4917 21.4409 34.4079 21.6043C33.5967 23.1863 33.5678 23.3503 33.789 25.1143C33.8118 25.2965 33.8373 25.4993 33.8646 25.7273C33.9382 26.3435 33.6172 26.8996 33.0466 27.144C32.8356 27.2344 32.6471 27.3137 32.478 27.3851C30.8397 28.0755 30.7121 28.1825 29.7477 29.6761C29.6481 29.8303 29.5372 30.002 29.4115 30.1942C29.0718 30.7137 28.4686 30.9335 27.8743 30.7537C27.6545 30.6874 27.4591 30.6271 27.2837 30.5729C26.4344 30.3108 25.968 30.1798 25.5016 30.1798C25.0353 30.1798 24.5689 30.3108 23.7195 30.5729C23.5441 30.627 23.3488 30.6873 23.1291 30.7537C22.535 30.9335 21.9315 30.7135 21.5919 30.1942C21.4662 30.002 21.3553 29.8303 21.2557 29.6761C20.2913 28.1825 20.1637 28.0754 18.5254 27.3851C18.3561 27.3138 18.1678 27.2345 17.9568 27.1441C17.3862 26.8996 17.0652 26.3436 17.1388 25.7273C17.1661 25.4993 17.1915 25.2965 17.2143 25.1144C17.4356 23.3503 17.4067 23.1863 16.5954 21.6043C16.5117 21.4409 16.4183 21.259 16.3147 21.054C16.0347 20.5002 16.1462 19.8678 16.5988 19.443C16.7663 19.2858 16.9162 19.1467 17.0509 19.0219C18.3541 17.8129 18.4374 17.6687 18.8328 15.9353C18.8737 15.7563 18.9191 15.5571 18.9714 15.3335C19.113 14.7293 19.6049 14.3165 20.2247 14.282C20.454 14.2693 20.658 14.2592 20.8414 14.25C22.617 14.1616 22.7735 14.1046 24.1906 13.0311C24.3369 12.9202 24.4998 12.7967 24.6837 12.6591C25.1804 12.2871 25.8227 12.2871 26.3196 12.6591C26.5035 12.7967 26.6664 12.9202 26.8128 13.0311ZM18.7731 21.598C18.7731 25.3082 21.7915 28.3266 25.5017 28.3266C29.2119 28.3266 32.2303 25.3082 32.2303 21.598C32.2303 17.8878 29.2119 14.8694 25.5017 14.8694C21.7915 14.8694 18.7731 17.8878 18.7731 21.598ZM30.6991 21.598C30.6991 24.4637 28.3676 26.7953 25.5017 26.7953C22.6359 26.7953 20.3044 24.4638 20.3044 21.598C20.3044 18.7321 22.636 16.4006 25.5017 16.4006C28.3675 16.4006 30.6991 18.7321 30.6991 21.598ZM24.6266 22.0566L27.4272 19.5151C27.7402 19.2309 28.2244 19.2543 28.5086 19.5675C28.7929 19.8806 28.7694 20.3648 28.4562 20.649L25.1156 23.6807C24.9693 23.8135 24.7851 23.8793 24.6012 23.8793C24.4048 23.8793 24.2088 23.8042 24.0597 23.655L22.5205 22.1157C22.2215 21.8167 22.2215 21.332 22.5206 21.033C22.8196 20.7341 23.3043 20.7342 23.6033 21.0331L24.6266 22.0566Z" fill="url(#paint0_linear_6599_16541)"/>
<defs>
<linearGradient id="paint0_linear_6599_16541" x1="5.50781" y1="24.5" x2="45.4956" y2="24.5" gradientUnits="userSpaceOnUse">
<stop stop-color="#0089CF"/>
<stop offset="1" stop-color="#A6CE39"/>
</linearGradient>
</defs>
</svg>
