<svg width="50" height="50" viewBox="0 0 50 50" fill="none" xmlns="http://www.w3.org/2000/svg">
<path d="M25.502 9.34928C17.1471 9.34928 10.3493 16.1471 10.3493 24.502C10.3493 32.8568 17.1471 39.6546 25.502 39.6546C33.8568 39.6546 40.6546 32.8578 40.6546 24.502C40.6546 16.1461 33.8568 9.34928 25.502 9.34928ZM25.502 38.5062C17.7797 38.5062 11.4977 32.2242 11.4977 24.502C11.4977 16.7797 17.7797 10.4977 25.502 10.4977C33.2233 10.4977 39.5062 16.7797 39.5062 24.502C39.5062 32.2233 33.2242 38.5062 25.502 38.5062ZM48.5664 20.5753C48.5664 20.2958 48.3654 20.0575 48.0908 20.0096L44.3411 19.355C43.9095 17.7721 43.2788 16.2495 42.4615 14.8206L44.6512 11.7045C44.812 11.4758 44.7852 11.1657 44.5871 10.9686L39.0344 5.41684C38.8372 5.21969 38.5262 5.19289 38.2984 5.35271L35.1823 7.5424C33.7535 6.7251 32.2318 6.09441 30.6479 5.66279L29.9933 1.91314C29.9454 1.63848 29.7062 1.4375 29.4277 1.4375H25.502H21.5753C21.2958 1.4375 21.0575 1.63848 21.0096 1.91314L20.355 5.66279C18.7712 6.09441 17.2485 6.72605 15.8206 7.5424L12.7055 5.35271C12.4768 5.19193 12.1667 5.21969 11.9695 5.41684L6.41684 10.9695C6.21969 11.1667 6.19289 11.4777 6.35271 11.7055L8.5424 14.8206C7.7251 16.2495 7.09441 17.7712 6.66184 19.355L2.91314 20.0096C2.63848 20.0575 2.4375 20.2968 2.4375 20.5753V24.502V28.4287C2.4375 28.7081 2.63848 28.9464 2.91314 28.9943L6.66279 29.6489C7.09441 31.2328 7.7251 32.7544 8.5424 34.1833L6.35271 37.2994C6.19193 37.5281 6.21873 37.8382 6.41684 38.0353L11.9695 43.588C12.1667 43.7852 12.4777 43.812 12.7055 43.6521L15.8216 41.4625C17.2504 42.2798 18.7721 42.9104 20.356 43.3421L21.0106 47.0917C21.0585 47.3664 21.2977 47.5674 21.5762 47.5674H25.5029H29.4296C29.7091 47.5674 29.9474 47.3664 29.9952 47.0917L30.6498 43.3421C32.2337 42.9104 33.7554 42.2798 35.1842 41.4625L38.2994 43.6521C38.5281 43.8129 38.8382 43.7852 39.0353 43.588L44.588 38.0353C44.7852 37.8382 44.812 37.5271 44.6521 37.2994L42.4625 34.1842C43.2798 32.7563 43.9104 31.2337 44.343 29.6498L48.0917 28.9952C48.3664 28.9474 48.5674 28.7081 48.5674 28.4296V24.5029L48.5664 20.5753ZM47.418 27.9454L43.7812 28.5799C43.5583 28.6191 43.3783 28.7856 43.3228 29.0048C42.8874 30.7313 42.2021 32.3831 41.2863 33.9153C41.1695 34.1096 41.1791 34.3546 41.3092 34.5403L43.4329 37.5626L38.5626 42.4329L35.5403 40.3092C35.3546 40.1791 35.1105 40.1695 34.9153 40.2863C33.3821 41.2021 31.7303 41.8874 30.0048 42.3219C29.7847 42.3774 29.6181 42.5563 29.5799 42.7803L28.9454 46.417L25.502 46.418H22.0586L21.424 42.7812C21.3848 42.5583 21.2183 42.3783 20.9991 42.3228C19.2736 41.8883 17.6218 41.2031 16.0886 40.2872C15.8943 40.1714 15.6493 40.18 15.4637 40.3102L12.4413 42.4338L7.57102 37.5635L9.69467 34.5412C9.82482 34.3555 9.83439 34.1105 9.71764 33.9163C8.80176 32.3841 8.11652 30.7313 7.68203 29.0057C7.62652 28.7856 7.44756 28.6191 7.22361 28.5808L3.58689 27.9463L3.58594 24.502V21.0586L7.22266 20.424C7.44564 20.3848 7.62557 20.2183 7.68107 19.9991C8.11652 18.2726 8.80176 16.6208 9.71764 15.0886C9.83439 14.8943 9.82482 14.6493 9.69467 14.4637L7.57102 11.4413L12.4413 6.57102L15.4637 8.69467C15.6493 8.82482 15.8943 8.83439 16.0886 8.71764C17.6208 7.80176 19.2726 7.11652 20.9991 6.68203C21.2192 6.62652 21.3858 6.44756 21.424 6.22361L22.0586 2.58689L25.502 2.58594H28.9454L29.5799 6.22266C29.6191 6.44564 29.7856 6.62557 30.0048 6.68107C31.7303 7.11557 33.3821 7.8008 34.9153 8.71668C35.1096 8.83248 35.3546 8.82387 35.5403 8.69371L38.5626 6.57006L43.4329 11.4404L41.3092 14.4627C41.1791 14.6484 41.1695 14.8934 41.2863 15.0876C42.2021 16.6208 42.8874 18.2726 43.3219 19.9982C43.3774 20.2183 43.5563 20.3848 43.7803 20.4231L47.417 21.0576V24.501L47.418 27.9454ZM33.7162 15.8437L32.2308 16.4715C31.7935 16.6562 31.5829 17.1558 31.7504 17.596C30.5733 17.9463 29.465 17.6831 28.3884 17.4285C27.2686 17.1634 26.2102 16.9127 25.2263 17.4123C25.2081 17.4218 25.19 17.4324 25.1718 17.4438C24.7315 17.7319 24.3602 18.0181 24.0396 18.2841C23.6147 18.1061 23.0902 18.154 22.5792 18.2018C21.8193 18.2726 20.9723 18.3502 20.1407 17.8764C20.3388 17.4706 20.1981 16.972 19.8038 16.7347L18.4228 15.9011C18.2218 15.7796 17.9845 15.7442 17.7548 15.8006C17.5261 15.8571 17.3327 15.9997 17.2112 16.2007L13.0644 23.0674C12.9428 23.2693 12.9065 23.5057 12.9639 23.7354C13.0204 23.9641 13.1629 24.1574 13.3639 24.279L14.7449 25.1125C14.8875 25.1987 15.0445 25.2389 15.1995 25.2389C15.4981 25.2389 15.791 25.0867 15.9565 24.813L16.1594 24.4761C16.7528 24.6312 17.1806 24.9001 17.4036 25.1039L16.9069 25.6695C16.5996 26.0188 16.4465 26.4687 16.4771 26.9357C16.5078 27.4027 16.7164 27.8286 17.0667 28.1358C17.3978 28.4267 17.8093 28.5703 18.2189 28.5703C18.2419 28.5703 18.2639 28.5674 18.2859 28.5665C18.3414 28.9866 18.5415 29.3675 18.8621 29.6479C19.1932 29.9388 19.6047 30.0824 20.0143 30.0824C20.0249 30.0824 20.0354 30.0814 20.045 30.0805C20.0938 30.514 20.2957 30.9083 20.6249 31.1973C20.9561 31.4883 21.3676 31.6318 21.7772 31.6318C21.7915 31.6318 21.8049 31.6299 21.8193 31.6299C21.8681 32.0434 22.0624 32.4405 22.3983 32.7363C22.7189 33.0186 23.1237 33.1698 23.5487 33.1698C23.5869 33.1698 23.6252 33.1688 23.6645 33.166C23.9764 33.1459 24.2693 33.0435 24.522 32.875C24.8454 33.1124 25.2215 33.2301 25.5929 33.2301C26.0781 33.2301 26.5537 33.032 26.8944 32.6444C27.0849 32.4271 27.2112 32.1754 27.2763 31.9113C27.4084 31.9429 27.5433 31.9601 27.6821 31.9601C27.7204 31.9601 27.7596 31.9591 27.7979 31.9563C28.2649 31.9266 28.6908 31.717 28.998 31.3667C29.1923 31.1457 29.3205 30.8873 29.3837 30.6174C29.5081 30.6451 29.6344 30.6595 29.7598 30.6595C30.245 30.6595 30.7293 30.4585 31.0738 30.0661C31.2872 29.823 31.4193 29.5369 31.4757 29.2402C31.558 29.2517 31.6404 29.2594 31.7227 29.2594C32.2079 29.2594 32.6921 29.0584 33.0367 28.666C33.5353 28.0985 33.5975 27.2974 33.2529 26.6706C33.897 26.2811 34.1353 25.903 34.3334 25.5844C34.4732 25.3604 34.5804 25.1901 34.8876 25.0245C35.0321 25.3556 35.3555 25.5547 35.6972 25.5547C35.8111 25.5547 35.9279 25.5327 36.0398 25.4848L37.5251 24.857C37.973 24.6675 38.1836 24.1488 37.9941 23.7009L34.8703 16.3117C34.6828 15.8647 34.164 15.6542 33.7162 15.8437ZM15.1105 23.9919L14.1851 23.4329L18.0562 17.0218L18.9817 17.5807L15.1105 23.9919ZM17.8246 27.2735C17.705 27.1682 17.6342 27.0228 17.6237 26.862C17.6131 26.7012 17.6658 26.5471 17.7701 26.4275L19.0171 25.0082C19.1358 24.8733 19.3013 24.8044 19.4679 24.8044C19.6086 24.8044 19.7492 24.8532 19.8631 24.9527C20.111 25.1709 20.1359 25.5509 19.9177 25.7987L18.7032 27.1816L18.6707 27.218C18.4525 27.4668 18.0725 27.4917 17.8246 27.2735ZM19.62 28.7856C19.5004 28.6813 19.4296 28.5349 19.4191 28.3741C19.4085 28.2133 19.4602 28.0602 19.5645 27.9406L20.78 26.5577C20.7905 26.5452 20.8001 26.5318 20.8106 26.5194L20.8125 26.5213C21.0307 26.2734 21.4106 26.2485 21.6585 26.4667C21.9064 26.6849 21.9313 27.0649 21.7131 27.3128L21.3264 27.753L20.4661 28.732C20.2479 28.9799 19.8689 29.0038 19.62 28.7856ZM21.3838 30.3351C21.2642 30.2298 21.1934 30.0843 21.1829 29.9235C21.1723 29.7628 21.225 29.6087 21.3293 29.489L22.1897 28.51C22.4079 28.2621 22.7869 28.2372 23.0357 28.4554C23.1553 28.5607 23.2261 28.7062 23.2367 28.867C23.2472 29.0278 23.1946 29.1818 23.0902 29.3015L22.3734 30.1169C22.3734 30.1169 22.3734 30.1169 22.3725 30.1178L22.2815 30.2221L22.2308 30.2805C22.0117 30.5293 21.6317 30.5533 21.3838 30.3351ZM23.5917 32.0194C23.4309 32.0309 23.2769 31.9783 23.1572 31.873C22.9094 31.6548 22.8845 31.2749 23.1027 31.027L23.1103 31.0184L23.2347 30.8767C23.3534 30.7428 23.519 30.6738 23.6846 30.6738C23.8252 30.6738 23.9659 30.7227 24.0798 30.8231C24.3277 31.0413 24.3526 31.4213 24.1344 31.6692L24.0023 31.8204C23.898 31.9381 23.7515 32.0099 23.5917 32.0194ZM26.0331 31.8864C25.8465 32.0989 25.5326 32.1391 25.2751 31.9974C25.5249 31.4481 25.4723 30.8021 25.1345 30.2987L25.9786 31.0404L25.9795 31.0413C26.2264 31.2595 26.2504 31.6385 26.0331 31.8864ZM32.1753 27.909C31.9571 28.1569 31.5772 28.1817 31.3293 27.9635L30.9168 27.6018L30.9159 27.6008C30.9159 27.6008 30.9149 27.6008 30.9149 27.5999L28.0381 25.0714C27.7998 24.8618 27.4371 24.8857 27.2275 25.124C27.0179 25.3623 27.0418 25.725 27.2801 25.9346L30.1589 28.4641C30.4067 28.6823 30.4307 29.0613 30.2125 29.3091C29.9943 29.557 29.6153 29.5819 29.3664 29.3637L26.3968 26.7538C26.1585 26.5443 25.7958 26.5682 25.5862 26.8065C25.3766 27.0448 25.4005 27.4075 25.6388 27.6171L28.0859 29.7675C28.33 29.9857 28.352 30.3638 28.1357 30.6097C28.0304 30.7294 27.885 30.8002 27.7242 30.8107C27.5634 30.8203 27.4093 30.7686 27.2897 30.6643L25.7393 29.3015C25.501 29.0919 25.1383 29.1158 24.9287 29.3541C24.7794 29.5245 24.7488 29.757 24.8301 29.9532C24.6512 29.7972 24.4492 29.6843 24.2368 29.6135C24.5373 28.934 24.3794 28.109 23.7927 27.5932C23.5554 27.3845 23.2759 27.2534 22.9859 27.195C23.0778 26.6218 22.8845 26.015 22.4165 25.6035C22.0672 25.2963 21.6288 25.1556 21.1972 25.1719C21.1436 24.768 20.9503 24.3804 20.6211 24.0904C19.8995 23.4559 18.7979 23.5258 18.1606 24.2426C17.8246 23.9363 17.349 23.6531 16.7729 23.4597L19.5502 18.8612C20.3024 19.2947 21.0604 19.401 21.7207 19.401C22.0758 19.401 22.4031 19.3704 22.6864 19.3445C22.7208 19.3416 22.7591 19.3378 22.7974 19.334C21.5293 20.3494 21.6978 21.471 21.8346 22.3764C21.9332 23.03 22.0184 23.5937 21.648 24.1708C21.5523 24.3192 21.5303 24.5039 21.5887 24.6713C21.647 24.8388 21.7791 24.969 21.9466 25.0254C22.651 25.2638 23.4443 25.0991 24.1248 24.5756C24.8866 23.989 25.3431 23.0827 25.2876 22.2654C25.2723 22.0338 25.412 21.6557 25.5977 21.5466C25.6283 21.5285 25.7058 21.4825 25.902 21.5993L32.1198 27.063C32.3696 27.2812 32.3935 27.6611 32.1753 27.909ZM33.3611 24.9776C33.1831 25.2628 33.0242 25.5155 32.4385 25.8131L26.6255 20.7054C26.6035 20.6863 26.5805 20.669 26.5566 20.6537C25.8465 20.1982 25.2857 20.3982 25.0148 20.559C24.3947 20.9255 24.1028 21.7514 24.143 22.3438C24.1717 22.7755 23.8769 23.3191 23.4252 23.6674C23.3391 23.7344 23.1831 23.8397 22.9907 23.9115C23.1352 23.2913 23.0462 22.7075 22.9706 22.207C22.8433 21.3629 22.7591 20.8049 23.5754 20.1848C23.787 20.025 24.0032 19.8345 24.232 19.6345C24.6521 19.266 25.1278 18.8497 25.7718 18.4258C26.3776 18.1348 27.1882 18.3262 28.1233 18.5483C29.2746 18.821 30.6766 19.1531 32.1973 18.6612L34.4406 23.967C33.8521 24.257 33.6023 24.59 33.3611 24.9776ZM35.8388 24.3249L32.9228 17.4266L33.9181 17.0055L36.8342 23.9038L35.8388 24.3249Z" fill="url(#paint0_linear_6599_16541)"/>
<defs>
<linearGradient id="paint0_linear_6599_16541" x1="2.4375" y1="24.5024" x2="48.5674" y2="24.5024" gradientUnits="userSpaceOnUse">
<stop stop-color="#0089CF"/>
<stop offset="1" stop-color="#A6CE39"/>
</linearGradient>
</defs>
</svg>
