<svg width="50" height="50" viewBox="0 0 50 50" fill="none" xmlns="http://www.w3.org/2000/svg">
<g clip-path="url(#clip0_6599_16541)">
<path d="M44.3797 18.2507C46.2196 17.1885 46.8489 14.84 45.7866 13C44.7245 11.1602 42.376 10.5307 40.536 11.5931C40.152 11.8148 39.8154 12.0956 39.5354 12.4227L28.6257 6.124C28.7677 5.72322 28.8457 5.29253 28.8457 4.84375C28.8457 2.72434 27.1214 1 25.002 1C22.8826 1 21.1582 2.72434 21.1582 4.84375C21.1582 5.29253 21.2363 5.72322 21.3783 6.124L10.4686 12.4227C10.1884 12.0956 9.85197 11.8148 9.46797 11.5932C7.63253 10.5333 5.27716 11.1645 4.21731 13C3.15756 14.8355 3.78887 17.191 5.62431 18.2506C6.00831 18.4723 6.41978 18.6225 6.84306 18.7015V31.2976C6.41969 31.3766 6.00831 31.5276 5.62431 31.7493C3.78887 32.809 3.15766 35.1644 4.21731 37C5.27734 38.836 7.63309 39.4664 9.46806 38.4069C9.85206 38.1852 10.1885 37.9044 10.4687 37.5774L21.3783 43.8761C21.2363 44.2768 21.1583 44.7076 21.1583 45.1563C21.1583 47.2758 22.8827 49.0001 25.0021 49.0001C27.1215 49.0001 28.8458 47.2758 28.8458 45.1563C28.8458 44.7076 28.7677 44.2768 28.6258 43.8761L39.5343 37.5779C39.7905 37.8745 40.0962 38.138 40.4501 38.3547C40.7809 38.5573 41.214 38.4534 41.4168 38.1222C41.6196 37.791 41.5156 37.3581 41.1843 37.1553C40.0681 36.4719 39.6718 35.0287 40.3469 33.8594C41.025 32.685 42.5181 32.2983 43.6766 32.9672C44.2405 33.2928 44.6437 33.8183 44.8123 34.4472C45.1033 35.5336 44.6132 36.618 43.7318 37.1567C43.4005 37.3593 43.2961 37.7921 43.4986 38.1234C43.7012 38.4548 44.1339 38.5591 44.4652 38.3567C45.8648 37.5012 46.6276 35.7882 46.1706 34.0833C45.9049 33.0916 45.2689 32.2627 44.3797 31.7493C43.9957 31.5276 43.5843 31.3766 43.161 31.2976V18.7015C43.5842 18.6225 43.9957 18.4723 44.3797 18.2507ZM41.2391 12.8109C42.4076 12.1364 43.8957 12.5373 44.5688 13.7031C45.2424 14.8698 44.8435 16.3592 43.6766 17.0328C42.5179 17.7017 41.0251 17.3151 40.3469 16.1406C39.6692 14.9668 40.0801 13.48 41.2391 12.8109ZM25.002 2.40625C26.3461 2.40625 27.4395 3.49975 27.4395 4.84375C27.4395 6.18775 26.3461 7.28125 25.002 7.28125C23.6579 7.28125 22.5645 6.18775 22.5645 4.84375C22.5645 3.49975 23.6579 2.40625 25.002 2.40625ZM5.43512 13.7031C6.10731 12.5388 7.60122 12.1391 8.76494 12.8109C9.92341 13.4797 10.3351 14.9663 9.65716 16.1406C8.97812 17.3167 7.48431 17.7007 6.32744 17.0328C5.16344 16.3608 4.76312 14.8671 5.43512 13.7031ZM8.76494 37.1891C7.60094 37.861 6.10722 37.4609 5.43512 36.297C4.76312 35.1329 5.16344 33.6393 6.32744 32.9673C7.483 32.3002 8.97756 32.6825 9.65716 33.8595C10.3348 35.0331 9.92378 36.5201 8.76494 37.1891ZM25.002 47.5938C23.6579 47.5938 22.5645 46.5003 22.5645 45.1562C22.5645 43.8122 23.6579 42.7188 25.002 42.7188C26.3461 42.7188 27.4395 43.8122 27.4395 45.1562C27.4395 46.5003 26.3461 47.5938 25.002 47.5938ZM39.1291 33.1562C38.5403 34.176 38.4644 35.3418 38.8267 36.3626L27.9206 42.6592C27.2151 41.8358 26.1689 41.3125 25.002 41.3125C23.8351 41.3125 22.7888 41.8358 22.0833 42.6593L11.1695 36.3583C11.5527 35.2672 11.4303 34.1184 10.8749 33.1563C10.3615 32.2672 9.53266 31.6311 8.54087 31.3654C8.44403 31.3395 8.34672 31.3186 8.24922 31.3003V18.6998C9.38116 18.4874 10.3175 17.809 10.8749 16.8438C11.4306 15.8812 11.5524 14.7324 11.1695 13.6418L22.0833 7.34078C22.7888 8.16419 23.8352 8.6875 25.002 8.6875C26.1688 8.6875 27.215 8.16419 27.9206 7.34078L38.8344 13.6418C38.4525 14.7278 38.5715 15.8781 39.1291 16.8438C39.6879 17.8117 40.6257 18.4879 41.7547 18.6998V31.3001C40.6228 31.5125 39.6864 32.1909 39.1291 33.1562Z" fill="url(#paint0_linear_6599_16541)"/>
<path d="M35.7583 17.6484L25.9934 12.0106C25.3826 11.6579 24.624 11.6579 24.013 12.0106L14.248 17.6485C13.6412 17.999 13.2578 18.6505 13.2578 19.3635V30.639C13.2578 31.3469 13.6418 32.0039 14.248 32.3541C14.5985 32.5565 23.6148 37.762 24.0129 37.9918C24.6342 38.3506 25.3954 38.3371 25.9933 37.9918L35.7582 32.3541C36.3691 32.0014 36.7484 31.3443 36.7484 30.639V27.5654C36.7484 27.1771 36.4337 26.8623 36.0452 26.8623C35.6568 26.8623 35.3421 27.1771 35.3421 27.5654V30.639C35.3421 30.8435 35.2321 31.034 35.0551 31.1363L25.7062 36.5338V25.376C25.8055 25.3385 25.9026 25.2938 25.9961 25.2399L28.4447 23.8262V27.3196C28.4447 28.1216 29.3158 28.6125 29.9998 28.2175L32.2437 26.922C32.6557 26.6841 32.9117 26.2407 32.9117 25.765V21.2472L35.3422 19.844V24.2843C35.3422 24.6726 35.6569 24.9874 36.0453 24.9874C36.4338 24.9874 36.7485 24.6726 36.7485 24.2843V19.3635C36.7486 18.6485 36.361 17.9961 35.7583 17.6484ZM29.1494 21.7956L19.5259 16.225L21.1792 15.2705L30.8028 20.8409C30.1113 21.2402 30.5209 21.0038 29.1494 21.7956ZM24.0102 25.2399C24.1039 25.294 24.2308 25.351 24.3002 25.3772V36.5338L14.9512 31.1362C14.7738 31.0337 14.6642 30.843 14.6642 30.6389V19.8439L24.0102 25.2399ZM25.2931 24.022C25.1142 24.1254 24.8914 24.1249 24.7132 24.022L15.3673 18.6261L18.1206 17.0365L27.7441 22.607L25.2931 24.022ZM31.5055 22.0591V25.7244L29.8511 26.6795V23.0142L31.4757 22.0763L31.5055 22.0591ZM32.2082 20.0296L22.5846 14.4591L24.716 13.2285C24.8933 13.1263 25.1132 13.1263 25.2902 13.2285L34.6392 18.6262L32.2082 20.0296Z" fill="url(#paint1_linear_6599_16541)"/>
</g>
<defs>
<linearGradient id="paint0_linear_6599_16541" x1="3.70312" y1="25" x2="46.3031" y2="25" gradientUnits="userSpaceOnUse">
<stop stop-color="#0089CF"/>
<stop offset="1" stop-color="#A6CE39"/>
</linearGradient>
<linearGradient id="paint1_linear_6599_16541" x1="13.2578" y1="25.001" x2="36.7485" y2="25.001" gradientUnits="userSpaceOnUse">
<stop stop-color="#0089CF"/>
<stop offset="1" stop-color="#A6CE39"/>
</linearGradient>
<clipPath id="clip0_6599_16541">
<rect width="48" height="48" fill="white" transform="translate(1 1)"/>
</clipPath>
</defs>
</svg>
