<svg width="66" height="66" viewBox="0 0 66 66" fill="none" xmlns="http://www.w3.org/2000/svg">
<g clip-path="url(#clip0_6592_16512)">
<path fill-rule="evenodd" clip-rule="evenodd" d="M33.042 59.4304C31.9464 59.4304 30.8509 59.3616 29.751 59.2242C26.2109 58.7859 22.8598 57.6646 19.7966 55.8989C16.8365 54.1889 14.2673 51.9506 12.1536 49.244C10.0441 46.5373 8.49745 43.4956 7.56516 40.2089C6.5985 36.8063 6.32784 33.2833 6.76606 29.7432C7.20427 26.2031 8.3256 22.852 10.0914 19.7888C11.8013 16.8287 14.0396 14.2595 16.7463 12.1458C19.4529 10.0363 22.4947 8.48964 25.7813 7.55735C29.1839 6.59069 32.7069 6.32003 36.247 6.75824C39.7871 7.19646 43.1382 8.31779 46.2014 10.0835C49.1615 11.7935 51.7307 14.0318 53.8445 16.7385C55.9539 19.4451 57.5006 22.4868 58.4329 25.7735C59.3995 29.1761 59.6702 32.6991 59.232 36.2392C58.7937 39.7793 57.6724 43.1304 55.9067 46.1936C54.1968 49.1537 51.9584 51.7229 49.2518 53.8367C46.5451 55.9461 43.5034 57.4928 40.2167 58.4251C37.871 59.0953 35.4694 59.4304 33.042 59.4304ZM32.9518 8.62282C27.5557 8.62282 22.3443 10.4058 18.018 13.7783C12.8839 17.7824 9.61877 23.5437 8.81537 30.001C8.01627 36.4626 9.77773 42.8468 13.7818 47.9809C17.786 53.1149 23.5472 56.38 30.0045 57.1834C31.0227 57.308 32.0409 57.3725 33.0506 57.3725C38.4467 57.3725 43.658 55.5895 47.9844 52.217C53.1184 48.2128 56.3836 42.4516 57.187 35.9943C57.9861 29.5327 56.2246 23.1485 52.2205 18.0144C48.2164 12.8804 42.4551 9.61526 35.9978 8.81186C34.9753 8.68315 33.9614 8.62282 32.9518 8.62282Z" fill="#20CFCA"/>
<path fill-rule="evenodd" clip-rule="evenodd" d="M58.2113 37.1525C57.9105 37.1525 57.6141 37.0236 57.4079 36.7701C57.0513 36.3276 57.12 35.6789 57.5625 35.318L64.3205 29.8532C64.7631 29.4966 65.4118 29.5653 65.7727 30.0078C66.1293 30.4503 66.0605 31.0991 65.618 31.46L58.86 36.9248C58.6667 37.0752 58.439 37.1525 58.2113 37.1525Z" fill="#20CFCA"/>
<path fill-rule="evenodd" clip-rule="evenodd" d="M58.2129 37.1508C57.8992 37.1508 57.5899 37.009 57.388 36.7383L52.168 29.7913C51.8243 29.3359 51.9189 28.6914 52.3743 28.3477C52.8297 28.004 53.4741 28.0985 53.8178 28.5539L59.0378 35.501C59.3815 35.9564 59.2869 36.6008 58.8315 36.9445C58.6425 37.082 58.4277 37.1508 58.2129 37.1508Z" fill="#20CFCA"/>
<path fill-rule="evenodd" clip-rule="evenodd" d="M35.3323 65.9926C35.0316 65.9926 34.7352 65.8637 34.5289 65.6102L29.0641 58.8522C28.7075 58.4097 28.7763 57.7609 29.2188 57.4C29.6613 57.0435 30.31 57.1122 30.6709 57.5547L36.1358 64.3127C36.4923 64.7552 36.4236 65.404 35.9811 65.7649C35.792 65.9195 35.5601 65.9926 35.3323 65.9926Z" fill="#20CFCA"/>
<path fill-rule="evenodd" clip-rule="evenodd" d="M29.8757 59.2323C29.5621 59.2323 29.2528 59.0905 29.0509 58.8198C28.7072 58.3644 28.8017 57.72 29.2571 57.3763L36.2041 52.1563C36.6595 51.8126 37.304 51.9071 37.6477 52.3625C37.9914 52.8179 37.8969 53.4624 37.4414 53.8061L30.4944 59.026C30.3055 59.1678 30.0905 59.2323 29.8757 59.2323Z" fill="#20CFCA"/>
<path fill-rule="evenodd" clip-rule="evenodd" d="M1.03157 36.3674C0.730832 36.3674 0.43439 36.2385 0.228169 35.985C-0.12842 35.5425 -0.0596798 34.8937 0.382835 34.5329L7.14085 29.068C7.58336 28.7114 8.2321 28.7802 8.59298 29.2227C8.94957 29.6652 8.88083 30.3139 8.43832 30.6748L1.6803 36.1397C1.49145 36.2943 1.25945 36.3674 1.03157 36.3674Z" fill="#20CFCA"/>
<path fill-rule="evenodd" clip-rule="evenodd" d="M13.0097 37.8496C12.6961 37.8496 12.3868 37.7078 12.1849 37.4372L6.96491 30.4944C6.62121 30.039 6.71573 29.3946 7.17113 29.0509C7.62654 28.7072 8.27098 28.8017 8.61468 29.2571L13.8346 36.2041C14.1783 36.6595 14.0838 37.304 13.6284 37.6477C13.4394 37.7851 13.2244 37.8496 13.0097 37.8496Z" fill="#20CFCA"/>
<path fill-rule="evenodd" clip-rule="evenodd" d="M36.1214 8.82069C35.8207 8.82069 35.5242 8.6918 35.318 8.43832L29.8532 1.6803C29.4966 1.23779 29.5653 0.589055 30.0078 0.228169C30.4504 -0.12842 31.0991 -0.0596802 31.46 0.382834L36.9248 7.14085C37.2814 7.58336 37.2127 8.2321 36.7701 8.59298C36.5768 8.74335 36.3491 8.82069 36.1214 8.82069Z" fill="#20CFCA"/>
<path fill-rule="evenodd" clip-rule="evenodd" d="M29.1726 14.0369C28.859 14.0369 28.5497 13.8952 28.3477 13.6245C28.004 13.1691 28.0985 12.5247 28.5539 12.181L35.501 6.96101C35.9564 6.61731 36.6008 6.71182 36.9445 7.16723C37.2882 7.62263 37.1937 8.26707 36.7383 8.61077L29.7913 13.8307C29.6064 13.9725 29.3874 14.0369 29.1726 14.0369Z" fill="#20CFCA"/>
<path fill-rule="evenodd" clip-rule="evenodd" d="M28.4052 44.1449C25.7286 44.1449 23.2153 43.1052 21.325 41.2105C19.4346 39.3202 18.3906 36.8026 18.3906 34.1303C18.3906 32.429 19.237 30.1305 20.977 27.0973C22.4076 24.6055 24.2206 21.9934 25.6771 19.8968C26.416 18.8313 27.0562 17.9119 27.5417 17.1601C27.7307 16.8679 28.0572 16.6875 28.4095 16.6875C28.7618 16.6875 29.084 16.8636 29.2773 17.1601C29.7628 17.9119 30.403 18.8313 31.1419 19.8968C32.5984 21.9934 34.4114 24.6012 35.842 27.0973C37.582 30.1305 38.4284 32.4333 38.4284 34.1303C38.4284 36.8069 37.3887 39.3202 35.494 41.2105C33.5994 43.1009 31.0775 44.1449 28.4052 44.1449ZM28.4052 19.5748C28.0873 20.0388 27.7393 20.5371 27.3698 21.0742C25.9349 23.1364 24.1519 25.7055 22.7642 28.1243C21.2305 30.8009 20.4528 32.8201 20.4528 34.1305C20.4528 38.517 24.0187 42.0829 28.4052 42.0829C32.7917 42.0829 36.3576 38.517 36.3576 34.1305C36.3576 32.8201 35.58 30.7966 34.0462 28.1243C32.6585 25.7098 30.8756 23.1407 29.4406 21.0742C29.0668 20.5369 28.7233 20.0388 28.4052 19.5748Z" fill="#20CFCA"/>
<path fill-rule="evenodd" clip-rule="evenodd" d="M38.501 49.2976C34.5871 49.2976 31.12 46.8101 29.8741 43.1024C29.6937 42.5611 29.9815 41.9768 30.5228 41.7963C31.0642 41.6159 31.6485 41.9037 31.8289 42.4451C32.7956 45.3107 35.4764 47.2354 38.5053 47.2354C42.3891 47.2354 45.5469 44.0776 45.5469 40.1938C45.5469 39.0338 44.8509 37.2337 43.4804 34.845C42.2387 32.6797 40.6362 30.3726 39.3474 28.5209C39.0466 28.087 38.7631 27.6788 38.501 27.3008C38.2389 27.6831 37.9554 28.0913 37.6546 28.5252C37.3496 28.9634 37.0317 29.4188 36.7095 29.8914C36.3872 30.3597 35.7428 30.48 35.2745 30.1578C34.8062 29.8356 34.6859 29.1911 35.0081 28.7228C35.3347 28.2459 35.6526 27.7905 35.9619 27.348C36.6278 26.39 37.1992 25.5651 37.6374 24.8906C37.8265 24.5984 38.153 24.418 38.5053 24.418C38.8533 24.418 39.1798 24.5941 39.3731 24.8906C39.8071 25.5651 40.3828 26.39 41.0444 27.3437C42.3547 29.2298 43.983 31.5755 45.2719 33.8182C46.8443 36.5592 47.6091 38.6472 47.6091 40.1895C47.6048 45.2119 43.5233 49.2976 38.501 49.2976Z" fill="#20CFCA"/>
</g>
<defs>
<clipPath id="clip0_6592_16512">
<rect width="66" height="66" fill="white"/>
</clipPath>
</defs>
</svg>
