<svg width="66" height="66" viewBox="0 0 66 66" fill="none" xmlns="http://www.w3.org/2000/svg">
<path d="M8.98588 12.2016C7.41805 13.8841 7.50274 16.0679 9.07113 17.529C10.5481 18.9048 12.6398 18.9336 14.2144 17.2439C15.8596 15.4773 15.7399 13.3319 14.1867 11.8855C12.6793 10.4808 10.6028 10.4661 8.98588 12.2016ZM13.1739 16.1322C12.4507 16.9091 11.3418 16.786 10.4589 15.9628C9.57586 15.1408 9.35963 14.0292 10.0761 13.2602C10.792 12.4912 11.916 12.6284 12.799 13.451C13.6826 14.2736 13.9045 15.348 13.1739 16.1322Z" fill="#20CFCA"/>
<path d="M18.3026 7.38184L17.0815 6.01895L14.5781 7.29487L17.4129 13.7237L19.0631 12.8819L17.969 10.5079C17.5997 9.71464 17.1215 8.70857 16.6716 7.73468L16.6902 7.72508C17.3299 8.56741 18.0305 9.43687 18.6081 10.1121L20.3136 12.0813L21.7132 11.3666L21.2367 8.75939C21.0758 7.84872 20.8709 6.71449 20.6394 5.71068L20.6676 5.69713C21.2209 6.78169 21.6698 7.63927 22.0853 8.40822L23.3369 10.7026L25.0803 9.81343L21.606 3.71094L19.1676 4.9547L19.4707 6.76303C19.5927 7.48343 19.8338 8.52903 20.0314 9.42106L19.9947 9.43968C19.4532 8.72267 18.8192 7.95996 18.3026 7.38184Z" fill="#20CFCA"/>
<path d="M31.4142 8.90281L31.1656 7.3413L28.0206 7.84022L27.8333 6.65795L30.6488 6.21106L30.4014 4.64897L27.5853 5.09644L27.4165 4.03731L30.4077 3.56267L30.1597 2L25.2266 2.78394L26.3267 9.71045L31.4142 8.90281Z" fill="#20CFCA"/>
<path d="M37.3204 3.8245C37.9874 3.88158 38.6349 4.07856 39.2207 4.40263L39.8203 2.92402C39.1235 2.55489 38.3595 2.32986 37.5739 2.26234C35.0948 1.95913 33.0285 2.99628 32.7343 5.4036C32.6718 5.85217 32.7034 6.30884 32.8272 6.74452C32.9509 7.18019 33.1641 7.58531 33.453 7.93405C34.0554 8.668 35.053 9.16709 36.5819 9.35396C37.4995 9.45019 38.4262 9.41139 39.3325 9.23878L39.7966 5.4375L36.8111 5.07279L36.6282 6.57059L37.7026 6.70213L37.5654 7.8279C37.3217 7.8558 37.0754 7.85049 36.8332 7.81209C35.4906 7.6478 34.6601 6.71795 34.812 5.4787C34.9746 4.14574 36.1015 3.67601 37.3204 3.8245Z" fill="#20CFCA"/>
<path d="M46.6401 12.8153L47.4248 5.45441L44.9847 4.33203L40.0391 9.77962L41.9214 10.6451L43.0409 9.28109L44.8944 10.1336L44.6539 11.9018L46.6401 12.8153ZM43.8968 8.09379L44.7126 7.11708C44.9859 6.79584 45.2936 6.37579 45.5674 6.05512L45.586 6.06415C45.5301 6.48475 45.4494 7.00925 45.3974 7.42026L45.2207 8.70239L43.8968 8.09379Z" fill="#20CFCA"/>
<path d="M48.3438 11.8125L49.1092 10.826L51.5257 12.7011L50.7602 13.6876L48.3438 11.8125Z" fill="#20CFCA"/>
<path d="M52.8969 16.6865C52.5152 16.191 52.2389 15.6227 52.085 15.0165L50.7188 15.6392C50.8939 16.4418 51.2769 17.1844 51.8293 17.7924C52.9974 19.1751 54.3907 19.6324 55.4002 18.7799C55.7029 18.5041 55.8919 18.1254 55.9303 17.7177C55.9687 17.31 55.8538 16.9027 55.608 16.5752L55.6243 16.5622C55.9155 16.8004 56.2806 16.9297 56.6567 16.9276C57.0329 16.9255 57.3965 16.7923 57.685 16.5509C58.4557 15.8994 58.3879 14.6907 57.3807 13.4983C56.8403 12.8256 56.1416 12.2974 55.3471 11.9609L54.5505 13.1787C55.0779 13.3959 55.5515 13.7256 55.9382 14.1447C56.3481 14.6291 56.3961 15.0249 56.1494 15.2332C55.8157 15.5149 55.3217 15.1559 55.0265 14.8064L54.4828 14.1622L53.4253 15.0548L53.9893 15.7227C54.3857 16.1919 54.5483 16.8033 54.1666 17.1257C53.7929 17.4413 53.3333 17.2031 52.8969 16.6865Z" fill="#20CFCA"/>
<path d="M36.5902 28.3561L32.4185 22.5375C32.3121 22.3894 32.1617 22.2785 31.9887 22.2207C31.8157 22.1628 31.6289 22.1608 31.4548 22.2151C28.004 23.2964 26.8572 25.5457 26.4878 26.6927C25.2269 26.8285 23.9826 27.0885 22.7728 27.4687L22.7665 27.4707C19.2212 28.5806 16.0716 30.6904 13.6961 33.5467C12.9535 34.4376 12.5469 35.5607 12.5469 36.7204C12.5469 37.8802 12.9535 39.0033 13.6961 39.8942C16.069 42.7478 19.2146 44.8565 22.7557 45.9675C22.7759 45.9732 22.7953 45.9817 22.8156 45.9861C24.0124 46.3592 25.2427 46.6147 26.4891 46.7488C26.8596 47.8969 28.0072 50.1426 31.4548 51.2229C31.6289 51.2774 31.8158 51.2755 31.9888 51.2177C32.1618 51.1598 32.3122 51.0488 32.4185 50.9006L36.5868 45.0867C39.6492 43.6814 42.2929 41.5027 44.2575 38.7652C45.605 42.7193 48.1999 46.1289 51.6519 48.4814C51.8007 48.5832 51.9776 48.6361 52.1579 48.6327C52.3383 48.6292 52.513 48.5697 52.6579 48.4622C52.8027 48.3548 52.9105 48.2049 52.9662 48.0334C53.0219 47.8619 53.0227 47.6772 52.9685 47.5052L52.1244 44.8258C50.4556 39.5551 50.4572 33.8973 52.1289 28.6275L52.9685 25.9667C53.0226 25.7947 53.0218 25.6101 52.9661 25.4385C52.9104 25.267 52.8027 25.1171 52.6579 25.0097C52.513 24.9022 52.3383 24.8426 52.158 24.8391C51.9777 24.8355 51.8008 24.8883 51.6519 24.99C48.2059 27.3379 45.6135 30.7393 44.2633 34.6844C42.2989 31.9441 39.6543 29.7629 36.5902 28.3561ZM31.3882 24.0771L33.6895 27.2867C32.0153 26.8199 30.2854 26.5827 28.5472 26.5815C28.4998 26.5815 28.4528 26.585 28.4054 26.5855C29.0585 25.4119 30.1201 24.5193 31.3882 24.0771ZM15.0285 38.7842C14.5384 38.2083 14.2693 37.4767 14.2693 36.7204C14.2693 35.9642 14.5384 35.2326 15.0285 34.6566C17.0161 32.2676 19.6015 30.4482 22.5212 29.3838C23.5302 31.6986 24.0518 34.1964 24.0538 36.7216C24.0557 39.2468 23.5378 41.7453 22.5324 44.0617C19.608 42.9979 17.0185 41.1767 15.0285 38.7842ZM31.3882 49.361C30.1213 48.9192 29.0606 48.0279 28.4071 46.8561C28.4539 46.8564 28.5004 46.8599 28.5472 46.8599C30.2843 46.8587 32.0132 46.6218 33.6865 46.1556L31.3882 49.361ZM28.5472 45.1255C27.0818 45.124 25.6223 44.9394 24.2025 44.5762C25.251 42.0902 25.7902 39.4191 25.7881 36.721C25.7861 34.0229 25.2429 31.3526 24.1907 28.8682C27.8327 27.9326 31.6788 28.1906 35.1633 29.6041C38.6477 31.0177 41.5865 33.5122 43.5474 36.7207C41.9707 39.284 39.765 41.4016 37.1397 42.8726C34.5143 44.3436 31.5566 45.1191 28.5472 45.1255ZM50.4527 28.1764C48.7008 33.7488 48.7014 39.7246 50.4544 45.2966C48.0031 42.9819 46.2713 40.0094 45.4664 36.7354C46.271 33.4623 48.0023 30.4907 50.4527 28.1764Z" fill="#20CFCA"/>
<path d="M38.978 36.1669C37.7085 37.7035 36.1152 38.9406 34.3119 39.7897C32.5087 40.6388 30.54 41.079 28.5469 41.0787C28.3169 41.0787 28.0963 41.17 27.9337 41.3327C27.7711 41.4953 27.6797 41.7159 27.6797 41.9459C27.6797 42.1759 27.7711 42.3964 27.9337 42.5591C28.0963 42.7217 28.3169 42.8131 28.5469 42.8131C30.7949 42.8137 33.0154 42.3176 35.0494 41.3601C37.0833 40.4027 38.8806 39.0075 40.3126 37.2746C40.3857 37.187 40.4409 37.0858 40.4748 36.9769C40.5088 36.868 40.5209 36.7534 40.5105 36.6398C40.5001 36.5262 40.4674 36.4157 40.4143 36.3148C40.3611 36.2138 40.2885 36.1243 40.2007 36.0515C40.1129 35.9786 40.0116 35.9238 39.9026 35.8901C39.7936 35.8565 39.679 35.8447 39.5654 35.8554C39.4518 35.8661 39.3414 35.8992 39.2406 35.9526C39.1398 36.0061 39.0506 36.0789 38.978 36.1669Z" fill="#20CFCA"/>
<path d="M19.8201 32.5898C19.3272 32.5899 18.8454 32.7361 18.4355 33.01C18.0257 33.2839 17.7063 33.6732 17.5177 34.1287C17.3291 34.5841 17.2798 35.0852 17.3761 35.5686C17.4723 36.0521 17.7097 36.4962 18.0583 36.8447C18.4069 37.1932 18.851 37.4305 19.3345 37.5266C19.8179 37.6227 20.3191 37.5733 20.7744 37.3846C21.2298 37.1959 21.619 36.8764 21.8928 36.4666C22.1667 36.0567 22.3128 35.5748 22.3127 35.0819C22.312 34.4211 22.0491 33.7875 21.5818 33.3203C21.1145 32.8531 20.4809 32.5904 19.8201 32.5898ZM19.8201 35.8401C19.6702 35.84 19.5238 35.7955 19.3992 35.7122C19.2746 35.6289 19.1775 35.5106 19.1201 35.3721C19.0628 35.2336 19.0478 35.0812 19.0771 34.9343C19.1063 34.7873 19.1785 34.6522 19.2845 34.5463C19.3905 34.4403 19.5255 34.3681 19.6725 34.3388C19.8195 34.3096 19.9718 34.3246 20.1103 34.3819C20.2488 34.4392 20.3672 34.5363 20.4505 34.6609C20.5338 34.7855 20.5783 34.932 20.5783 35.0819C20.5782 35.2829 20.4983 35.4757 20.3562 35.6179C20.214 35.7601 20.0212 35.84 19.8201 35.8401Z" fill="#20CFCA"/>
<path d="M58.4922 21.1908C58.3894 21.2398 58.2973 21.3087 58.2211 21.3933C58.1449 21.478 58.0862 21.5768 58.0482 21.6842C58.0103 21.7916 57.9938 21.9054 57.9999 22.0191C58.0059 22.1329 58.0343 22.2443 58.0834 22.347C59.8885 26.11 60.8213 30.2317 60.8126 34.4052C60.8126 41.8417 57.8585 48.9735 52.6001 54.2318C47.3418 59.4902 40.2099 62.4443 32.7735 62.4443C25.3371 62.4443 18.2052 59.4902 12.9469 54.2318C7.68855 48.9735 4.73444 41.8417 4.73444 34.4052C4.72567 30.2317 5.65854 26.11 7.46359 22.347C7.51346 22.2442 7.54249 22.1325 7.54903 22.0184C7.55557 21.9043 7.53949 21.79 7.50171 21.6821C7.46392 21.5742 7.40518 21.4749 7.32887 21.3898C7.25256 21.3047 7.16017 21.2355 7.05703 21.1862C6.95389 21.137 6.84203 21.1086 6.72787 21.1027C6.61372 21.0968 6.49953 21.1136 6.39188 21.152C6.28422 21.1904 6.18522 21.2497 6.10056 21.3265C6.01591 21.4033 5.94728 21.4961 5.89861 21.5995C3.98158 25.5958 2.9908 29.973 3.00006 34.4052C3.00006 42.3016 6.1369 49.8746 11.7205 55.4582C17.3041 61.0418 24.8771 64.1787 32.7735 64.1787C40.6699 64.1787 48.2429 61.0418 53.8265 55.4582C59.4101 49.8746 62.5469 42.3016 62.5469 34.4052C62.5562 29.973 61.5654 25.5958 59.6484 21.5995C59.5492 21.3921 59.3717 21.2326 59.1549 21.1559C58.9381 21.0793 58.6997 21.0918 58.4922 21.1908Z" fill="#20CFCA"/>
</svg>
