<svg width="66" height="66" viewBox="0 0 66 66" fill="none" xmlns="http://www.w3.org/2000/svg">
<g clip-path="url(#clip0_6592_16467)">
<path d="M54.2133 11.7867C48.5469 6.12059 41.0133 3 33 3C26.5309 3 20.3701 5.02676 15.1833 8.86125C14.7929 9.14988 14.7104 9.7002 14.9991 10.0905C15.2876 10.4808 15.8379 10.5633 16.2282 10.2748C21.1104 6.66551 26.9099 4.75781 33 4.75781C48.5728 4.75781 61.2422 17.4272 61.2422 33C61.2422 48.5728 48.5728 61.2422 33 61.2422C17.4272 61.2422 4.75781 48.5728 4.75781 33C4.75781 25.3843 7.74375 18.2442 13.1655 12.895C13.511 12.5541 13.5148 11.9975 13.1739 11.6521C12.833 11.3065 12.2764 11.3029 11.931 11.6438C6.17168 17.3258 3 24.9104 3 33C3 41.0133 6.12059 48.547 11.7867 54.2133C17.4531 59.8794 24.9867 63 33 63C41.0133 63 48.5469 59.8794 54.2133 54.2133C59.8794 48.547 63 41.0133 63 33C63 24.9867 59.8794 17.453 54.2133 11.7867Z" fill="#20CFCA"/>
<path d="M13.3468 23.1671C11.3859 27.0469 10.6278 31.3735 11.1552 35.7016C11.4863 38.4198 12.3064 41.0099 13.5907 43.4048C13.8235 46.9403 15.3882 50.3477 18.1255 52.8549C18.4836 53.183 19.0393 53.1585 19.3673 52.8004C19.6952 52.4425 19.6707 51.8866 19.3128 51.5587C15.6623 48.2177 14.3996 43.0418 15.9981 38.4501L17.565 39.3088C16.0104 43.9505 18.2063 49.4467 22.5556 51.7325C26.8388 54.1707 32.5991 53.0459 35.7078 49.2522L37.2758 50.1115C36.2176 51.4445 34.8993 52.5331 33.4201 53.3236C30.1405 55.1118 25.9761 55.2711 22.5595 53.6975C22.1169 53.4973 21.5965 53.6943 21.3968 54.1367C21.197 54.5789 21.3936 55.0996 21.836 55.2994C25.6607 57.0597 30.3153 56.928 34.0232 54.991C34.5569 54.9648 35.0943 54.9202 35.624 54.8556C38.7984 54.4687 41.8738 53.3793 44.5753 51.6954C45.4495 52.7875 46.5976 54.1002 48.1341 53.9859C49.2908 53.9388 50.3563 53.1147 50.7013 52.0039L51.7387 48.7738C51.8679 48.3719 52.164 48.0453 52.5513 47.8776C53.3472 47.462 56.0065 46.5975 56.5496 45.8628C57.0582 45.2963 57.3159 44.5656 57.2749 43.8053C57.2339 43.045 56.8994 42.3463 56.3329 41.8376L55.8814 41.4324C55.2436 40.8597 54.5324 40.4081 53.777 40.0823C54.8279 36.9829 55.1755 33.6507 54.7779 30.3869C54.2755 26.2635 52.6245 22.3873 50.0036 19.1773C47.4545 16.0552 44.1045 13.6908 40.3159 12.3392C39.859 12.1763 39.3557 12.4146 39.1927 12.8718C39.0296 13.3289 39.2681 13.8318 39.7252 13.9949C47.0022 16.5905 52.1014 22.9531 53.0331 30.5995C53.4015 33.6231 53.0751 36.7102 52.0927 39.5773C50.8862 39.3638 49.6278 39.4425 48.4166 39.8315C47.0073 38.4382 46.0074 36.6845 45.5124 34.7288C45.3932 34.2582 44.9155 33.9734 44.4447 34.0923C43.9742 34.2114 43.6892 34.6894 43.8083 35.1599C44.4323 37.6256 45.7503 39.8161 47.6197 41.4952C47.8693 41.7194 48.2245 41.7817 48.5356 41.6564C50.6539 40.801 53.0253 41.2292 54.7071 42.7403C55.5505 43.2752 55.9298 44.4361 54.8628 44.9609L51.8526 46.2645C51.0006 46.6335 50.3489 47.3521 50.065 48.2363L49.0276 51.4663C48.9802 51.6138 48.9038 51.7469 48.7937 51.8693C48.3911 52.3176 47.699 52.3547 47.2509 51.9523L46.7994 51.547C45.0972 50.0186 44.4265 47.6147 45.0907 45.4227C45.1912 45.091 45.0873 44.7311 44.8255 44.5039C42.8993 42.8331 40.528 41.7964 37.968 41.5057C33.4419 40.9918 27.1275 39.5538 22.7485 35.6219C21.0072 34.0584 19.4947 32.2814 18.2626 30.376C24.1599 27.8137 28.6944 22.787 30.6399 16.6616C32.6506 17.6791 34.5643 18.9847 36.2931 20.537C38.1652 22.218 39.7638 24.4166 41.072 27.0987C41.0748 27.1048 41.0781 27.1108 41.081 27.1168C41.7009 28.39 42.2563 29.7709 42.7431 31.2592C42.894 31.7206 43.39 31.9728 43.8516 31.8213C44.313 31.6704 44.5646 31.1741 44.4137 30.7127C43.9933 29.4276 43.5232 28.2156 43.0054 27.0773C44.26 26.3383 45.9976 25.5014 46.3548 23.9409C46.9476 21.9902 46.1339 19.9064 44.3757 18.8739L38.4623 15.4007C36.6629 14.3437 34.4006 14.554 32.8262 15.8508C31.1673 14.8868 29.4291 14.1085 27.6576 13.5378C28.5942 13.2836 29.5509 13.096 30.5216 12.9777C32.3166 12.7588 34.1263 12.7803 35.9004 13.0409C36.3814 13.1122 36.8272 12.7795 36.8977 12.2992C36.9683 11.8189 36.6363 11.3724 36.1559 11.3018C34.2268 11.0182 32.2596 10.9952 30.3089 11.2327C28.3127 11.476 26.3695 11.9882 24.528 12.7546C24.339 12.7209 24.1499 12.6886 23.9607 12.6598C19.706 12.0115 16.0562 12.73 14.4355 14.5349C12.9516 16.1881 12.557 19.4359 13.3468 23.1671ZM19.1403 40.1723L25.375 43.5892L20.0607 46.9652C19.6911 46.3389 19.3967 45.6627 19.1875 44.9465C18.7248 43.3613 18.7109 41.7292 19.1403 40.1723ZM21.1064 48.3835L26.1989 45.1485L26.3499 51.1805C25.3223 51.0293 24.3226 50.6963 23.4004 50.1909C22.527 49.7121 21.7562 49.1002 21.1064 48.3835ZM28.1102 51.2577L27.9535 45.0024L34.1301 48.3875C32.5849 50.0794 30.4057 51.1268 28.1102 51.2577ZM21.5743 36.93C26.2986 41.1719 32.9892 42.7095 37.7699 43.2524C39.7945 43.4823 41.6809 44.2526 43.2583 45.4892C42.9109 47.0727 43.0817 48.7111 43.7045 50.1681C41.6786 51.4454 39.4804 52.3354 37.143 52.8241C37.9534 52.0814 38.6811 51.2403 39.3052 50.312C39.4431 50.1071 39.4883 49.8537 39.4298 49.6138C39.3715 49.3738 39.2148 49.1696 38.9982 49.0509L35.8985 47.352L31.3238 44.8449L15.9678 36.4289C15.5335 36.1786 14.9315 36.3832 14.7404 36.8468C14.3422 37.7553 14.0489 38.689 13.8529 39.633C13.3927 38.2975 13.0735 36.9123 12.9001 35.4888C12.498 32.1883 12.9083 28.889 14.0878 25.8239C15.5069 29.9363 18.1222 33.8304 21.5743 36.93ZM37.5723 16.9164L43.4857 20.3896C44.5405 21.0092 45.0288 22.2593 44.6731 23.4298C44.4738 24.4205 42.9664 24.9974 42.2291 25.4936C40.9009 22.9793 39.309 20.8824 37.4675 19.229C36.5101 18.3694 35.4985 17.5806 34.4464 16.8684C35.4035 16.3495 36.5941 16.3418 37.5723 16.9164ZM15.7438 15.7094C16.7359 14.6044 19.5794 13.7706 23.6962 14.3977C25.4925 14.6714 27.2886 15.1873 29.0316 15.9183C27.2554 21.7297 22.9572 26.4952 17.3541 28.8554C16.4517 27.2138 15.754 25.498 15.2931 23.7566C14.2276 19.731 14.7518 16.8143 15.7438 15.7094Z" fill="#20CFCA"/>
<path d="M20.1276 20.9112C21.254 21.9233 22.9996 21.8345 24.0166 20.702C25.0284 19.6209 24.9292 17.7791 23.8073 16.8128C22.6773 15.7985 20.9328 15.8922 19.9183 17.0221C18.9067 18.1033 19.0058 19.9452 20.1276 20.9112ZM21.2264 18.1966C21.5942 17.7869 22.2257 17.7548 22.633 18.1209C23.0388 18.4703 23.0747 19.1366 22.7087 19.5275C22.3418 19.9361 21.7107 19.9701 21.3021 19.6032C20.8963 19.2537 20.8604 18.5875 21.2264 18.1966Z" fill="#20CFCA"/>
</g>
<defs>
<clipPath id="clip0_6592_16467">
<rect width="60" height="60" fill="white" transform="translate(3 3)"/>
</clipPath>
</defs>
</svg>
