<svg width="66" height="66" viewBox="0 0 66 66" fill="none" xmlns="http://www.w3.org/2000/svg">
<path fill-rule="evenodd" clip-rule="evenodd" d="M7.99219 28.0821V12.3374H7.99449C7.99454 12.1757 8.04539 12.0182 8.13987 11.8869C8.23435 11.7557 8.36768 11.6576 8.521 11.6062C10.4283 10.981 12.1947 9.98853 13.7208 8.68474C15.1004 7.48143 16.1511 6.05519 16.7666 4.49029C16.8142 4.33058 16.9121 4.1905 17.0457 4.0909C17.1794 3.9913 17.3416 3.9375 17.5082 3.9375H48.4879V3.93992C48.6435 3.93993 48.7955 3.98704 48.9238 4.07505C49.0522 4.16306 49.1509 4.28785 49.2069 4.43302C49.8193 6.0208 50.879 7.46666 52.2753 8.68474C53.7859 9.97586 55.5328 10.9616 57.4189 11.5872C57.586 11.6294 57.7343 11.7262 57.8402 11.8622C57.9461 11.9982 58.0035 12.1656 58.0034 12.338V28.0821C58.0034 50.1447 50.3132 53.8328 35.9722 60.7107L33.3334 61.9822C33.2288 62.0328 33.1141 62.0591 32.998 62.0591C32.8818 62.0591 32.7672 62.0328 32.6626 61.9822C31.4931 61.415 30.7472 61.0573 30.0239 60.7107C15.6829 53.833 7.99219 50.1454 7.99219 28.0821ZM9.53964 12.8814V28.0821C9.53964 49.1779 16.9218 52.7184 30.6887 59.3209C31.5194 59.7193 32.3685 60.1265 32.998 60.4305C33.6258 60.1278 34.4772 59.7191 35.3074 59.3208C49.0742 52.7184 56.4565 49.1779 56.4565 28.0821V12.8814C52.7947 11.5233 49.5241 8.98214 47.9741 5.48447H18.022C16.472 8.98178 13.2013 11.5233 9.53964 12.8814ZM12.5774 28.0821C12.5774 34.6013 13.1005 42.69 17.7929 47.8364C18.7429 48.8614 19.7977 49.784 20.9399 50.5891C24.0452 52.816 28.7153 55.0182 32.1326 56.6462C32.5707 56.855 32.91 57.1003 33.3304 56.9005C36.0836 55.5902 38.8753 54.2728 41.5662 52.7686C43.9759 51.4215 46.3306 49.8905 48.2032 47.8368C52.8957 42.6903 53.4186 34.6012 53.4186 28.0825V15.3552C53.4186 15.2086 53.377 15.0651 53.2986 14.9413C53.2202 14.8175 53.1083 14.7184 52.9759 14.6558C51.6256 13.9558 50.3633 13.0977 49.2156 12.0997C48.1289 11.1542 47.173 10.0681 46.3732 8.87001C46.3029 8.76364 46.2073 8.67637 46.095 8.61601C45.9827 8.55565 45.8572 8.5241 45.7297 8.52417V8.52247H20.2664C20.13 8.5224 19.996 8.55842 19.878 8.62689C19.76 8.69535 19.6623 8.79381 19.5947 8.91227C18.8005 10.0936 17.8543 11.1653 16.7804 12.0997C15.6254 13.1041 14.3544 13.9667 12.9944 14.6693C12.8689 14.7345 12.7636 14.833 12.6901 14.9539C12.6166 15.0749 12.5778 15.2137 12.5778 15.3552V28.0821H12.5774ZM14.1244 15.8178V28.0821C14.1244 34.2054 14.5595 41.9982 18.9351 46.7971C20.6688 48.6982 22.9524 50.1756 25.1793 51.4207C27.6738 52.8147 30.349 54.0839 32.998 55.3459C36.4606 53.6963 41.0733 51.5427 44.1557 49.3322C45.2099 48.5907 46.1836 47.7411 47.061 46.7971C51.4366 41.9982 51.8716 34.2054 51.8716 28.0821V15.8179C49.3071 14.4108 47.0051 12.473 45.3228 10.0693H20.6732C18.991 12.473 16.6893 14.4107 14.1244 15.8178ZM40.5267 23.311C39.0377 21.822 37.1405 20.808 35.0752 20.3972C33.0099 19.9864 30.8691 20.1973 28.9237 21.0031C26.9782 21.809 25.3153 23.1736 24.1454 24.9245C22.9755 26.6754 22.3511 28.7339 22.3511 30.8397C22.3511 32.9455 22.9755 35.004 24.1454 36.7549C25.3153 38.5058 26.9782 39.8704 28.9237 40.6763C30.8691 41.4821 33.0099 41.693 35.0752 41.2822C37.1405 40.8714 39.0377 39.8573 40.5267 38.3683C42.5234 36.3716 43.6451 33.6635 43.6451 30.8397C43.6451 28.0159 42.5234 25.3078 40.5267 23.311ZM32.998 18.6454C30.5863 18.6454 28.2287 19.3606 26.2233 20.7005C24.218 22.0404 22.6551 23.9449 21.7321 26.1731C20.8092 28.4013 20.5677 30.8531 21.0382 33.2185C21.5087 35.584 22.6701 37.7567 24.3755 39.4621C26.0809 41.1675 28.2537 42.3289 30.6191 42.7994C32.9845 43.2699 35.4364 43.0284 37.6645 42.1055C39.8927 41.1825 41.7972 39.6196 43.1371 37.6143C44.477 35.609 45.1922 33.2513 45.1922 30.8396C45.1922 27.6055 43.9075 24.5039 41.6206 22.217C39.3338 19.9302 36.2321 18.6454 32.998 18.6454ZM27.824 31.2892L31.2059 34.4411C31.3557 34.5806 31.5548 34.6548 31.7594 34.6474C31.964 34.6401 32.1572 34.5517 32.2967 34.4019L38.1989 28.3408C38.271 28.2685 38.328 28.1826 38.3666 28.0881C38.4052 27.9936 38.4247 27.8924 38.4239 27.7903C38.4231 27.6882 38.4021 27.5873 38.362 27.4934C38.3219 27.3995 38.2636 27.3145 38.1904 27.2433C38.1172 27.1721 38.0306 27.1162 37.9356 27.0787C37.8407 27.0412 37.7392 27.023 37.6371 27.025C37.5351 27.0271 37.4344 27.0494 37.341 27.0906C37.2476 27.1318 37.1634 27.1912 37.0931 27.2652L31.7057 32.797L28.8749 30.1591C28.7251 30.0197 28.526 29.9455 28.3214 29.9529C28.1169 29.9603 27.9236 30.0486 27.7842 30.1984C27.6447 30.3483 27.5705 30.5474 27.5779 30.7519C27.5853 30.9565 27.6736 31.1498 27.8235 31.2892H27.824Z" fill="#1BC2FD"/>
</svg>
