<svg width="84" height="84" viewBox="0 0 84 84" fill="none" xmlns="http://www.w3.org/2000/svg">
<path d="M60.3174 11.25H71.5889C71.7648 11.2503 71.9387 11.2909 72.0967 11.3682C72.2546 11.4454 72.3928 11.5577 72.501 11.6963C72.6092 11.835 72.6842 11.9969 72.7207 12.1689C72.748 12.298 72.7535 12.4304 72.7363 12.5605L72.7119 12.6895L69.8936 23.9619C69.831 24.2123 69.6867 24.4347 69.4834 24.5938C69.2799 24.7529 69.0288 24.8385 68.7705 24.8389C68.6755 24.8385 68.5805 24.8275 68.4883 24.8047H68.4873C68.1903 24.7296 67.935 24.5401 67.7773 24.2773C67.6194 24.014 67.5721 23.6984 67.6465 23.4004L69.3633 16.5332L69.5547 15.7656L68.957 16.2832C61.2466 22.9604 52.6332 28.515 43.373 32.7832L42.4746 33.1924C32.9668 37.4588 22.8949 40.3361 12.5684 41.7373C12.5159 41.7441 12.4631 41.748 12.4102 41.748C12.1162 41.7483 11.8331 41.6371 11.6182 41.4365C11.4033 41.236 11.2729 40.9612 11.2529 40.668C11.233 40.3747 11.3249 40.0842 11.5107 39.8564C11.6733 39.6572 11.897 39.5179 12.1455 39.46L12.2539 39.4404C22.0451 38.1127 31.6023 35.4285 40.6504 31.4658L41.5244 31.0781C51.1656 26.7392 60.1052 20.985 68.0469 14.0059L68.5449 13.5684H60.3174C60.01 13.5684 59.7144 13.4459 59.4971 13.2285C59.2799 13.0112 59.1582 12.7164 59.1582 12.4092C59.1582 12.102 59.2799 11.8072 59.4971 11.5898C59.7144 11.3725 60.01 11.25 60.3174 11.25Z" fill="#0089CF" stroke="white" stroke-width="0.5"/>
<path d="M54.6797 30.9766H68.7695C69.0769 30.9766 69.3715 31.0991 69.5889 31.3164C69.8061 31.5337 69.9287 31.8284 69.9287 32.1357V70.4287H71.5869C71.8943 70.4287 72.1899 70.5512 72.4072 70.7686C72.6244 70.9859 72.7461 71.2806 72.7461 71.5879C72.7461 71.8952 72.6244 72.1899 72.4072 72.4072C72.1899 72.6246 71.8943 72.7471 71.5869 72.7471H12.4092C12.1018 72.7471 11.8072 72.6245 11.5898 72.4072C11.3725 72.1899 11.25 71.8953 11.25 71.5879C11.25 71.2805 11.3725 70.9859 11.5898 70.7686C11.8072 70.5512 12.1018 70.4287 12.4092 70.4287H14.0684V49.0439C14.0684 48.7367 14.1901 48.4419 14.4072 48.2246C14.6245 48.0074 14.9193 47.8849 15.2266 47.8848H29.3174C29.6247 47.8848 29.9194 48.0073 30.1367 48.2246C30.3539 48.4419 30.4766 48.7367 30.4766 49.0439V70.4287H33.7939V40.5898C33.7939 40.2825 33.9165 39.9879 34.1338 39.7705C34.3511 39.5532 34.6457 39.4307 34.9531 39.4307H49.043C49.3503 39.4307 49.645 39.5532 49.8623 39.7705C50.0797 39.9879 50.2021 40.2825 50.2021 40.5898V70.4287H53.5205V32.1357C53.5205 31.8285 53.6423 31.5337 53.8594 31.3164C54.0767 31.0991 54.3723 30.9766 54.6797 30.9766ZM16.3857 70.4287H28.1582V50.2031H16.3857V70.4287ZM36.1123 70.4287H47.8838V41.749H36.1123V70.4287ZM55.8379 70.4287H67.6104V33.2949H55.8379V70.4287Z" fill="#0089CF" stroke="white" stroke-width="0.5"/>
</svg>
