<svg width="84" height="84" viewBox="0 0 84 84" fill="none" xmlns="http://www.w3.org/2000/svg">
<path d="M52.3691 21.6416C52.6984 21.3148 53.1737 21.1863 53.626 21.3018V21.3027C54.0735 21.4187 54.4278 21.7639 54.5586 22.209C54.6587 22.5541 55.8953 26.901 56.2441 32.3438C56.5827 37.628 56.0799 43.8821 52.9561 48.5254L52.6455 48.9697C49.8071 52.8765 45.4269 54.9678 39.5713 55.1523H39.5293C38.821 55.1523 38.2365 54.5894 38.2139 53.876C38.1905 53.1502 38.7607 52.5432 39.4873 52.5205C44.4277 52.3641 48.1566 50.6637 50.5107 47.4268C52.8561 44.2019 53.6228 39.8751 53.6885 35.7891C53.7542 31.6959 53.1172 27.7996 52.6152 25.3975L52.5234 24.96L52.1533 25.21C49.1003 27.2719 45.6986 27.8667 42.5654 28.4092C38.3228 29.1459 34.4995 29.7962 32.0586 33.9453C28.1932 40.5116 30.1762 45.8075 31.6201 48.2842L31.8652 48.7041L32.1309 48.2969C37.3852 40.2406 44.4313 34.7298 44.8662 34.3945C45.4405 33.9506 46.2666 34.0574 46.7119 34.6328C47.1281 35.1718 47.0611 35.933 46.5771 36.3926L46.4746 36.4805C46.389 36.5468 42.5256 39.5709 38.4619 44.3115C34.404 49.0453 30.1121 55.5294 29.2275 62.5156C29.1433 63.1799 28.5765 63.6668 27.9238 63.667C27.8672 63.667 27.8128 63.6636 27.7598 63.6562H27.7559C27.035 63.5649 26.5242 62.9061 26.6152 62.1855C27.1018 58.3451 28.496 54.6817 30.3125 51.3398L30.4023 51.1729L30.291 51.0195C28.8224 49.0053 24.4237 41.7246 29.79 32.6094C32.8341 27.4359 37.4803 26.6188 42.1152 25.8154C45.8198 25.1736 49.4242 24.5561 52.3691 21.6426V21.6416Z" fill="#0089CF" stroke="white" stroke-width="0.6"/>
<path d="M38.3936 0.59082C38.9614 0.135001 39.7898 0.225048 40.2451 0.791016L46.165 8.13965C46.3835 8.41119 46.4857 8.75826 46.4482 9.10645C46.4107 9.45472 46.2379 9.77208 45.9658 9.99121L38.6162 15.9102C38.3727 16.1061 38.0814 16.2011 37.791 16.2012C37.4055 16.2012 37.0242 16.0335 36.7646 15.7109C36.3088 15.1443 36.3973 14.3149 36.9639 13.8584L40.9561 10.6436L41.6445 10.0898L40.7617 10.1104C25.1631 10.4683 11.8343 22.3628 10.1201 38.2803C8.6219 52.1956 16.2576 65.2276 29.1201 70.708C29.7896 70.9928 30.101 71.7661 29.8164 72.4346C29.6027 72.9353 29.1159 73.2362 28.6035 73.2363C28.4318 73.2363 28.2562 73.2025 28.0889 73.1309L27.4395 72.8467C13.8949 66.7514 5.90317 52.8402 7.50195 37.998C9.39194 20.4458 24.32 7.3925 41.6074 7.45898L42.2373 7.46094L41.8418 6.9707L38.1943 2.44238C37.7666 1.91117 37.8181 1.1498 38.293 0.680664L38.3936 0.59082Z" fill="#0089CF" stroke="white" stroke-width="0.6"/>
<path d="M52.8701 10.7695C53.1466 10.099 53.9183 9.77889 54.5898 10.0547V10.0557C68.5199 15.8165 77.1222 30.3224 75.5078 45.3281C73.6207 62.8364 58.7548 75.8651 41.5264 75.8672C41.5126 75.8672 41.4973 75.8662 41.4746 75.8652C41.4542 75.8643 41.4258 75.8633 41.3965 75.8633H40.7695L41.1631 76.3516L44.8135 80.8828C45.2694 81.4479 45.1812 82.2756 44.6152 82.7334C44.3698 82.9294 44.078 83.0254 43.7881 83.0254C43.452 83.0254 43.119 82.8969 42.8662 82.6484L42.7627 82.5342L36.8418 75.1855C36.6225 74.913 36.5202 74.5648 36.5576 74.2178C36.5951 73.871 36.7686 73.5534 37.041 73.334L44.3916 67.415C44.9594 66.9589 45.7868 67.0477 46.2432 67.6143C46.6707 68.1464 46.6198 68.907 46.1445 69.377L46.0439 69.4668L42.0527 72.6797L41.3643 73.2344L42.248 73.2139C57.8396 72.8491 71.1735 60.9625 72.8896 45.0469C74.3803 31.1938 66.4431 17.8071 53.584 12.4893C52.9538 12.228 52.6337 11.5356 52.8252 10.8965L52.8701 10.7695Z" fill="#0089CF" stroke="white" stroke-width="0.6"/>
</svg>
