<svg width="84" height="84" viewBox="0 0 84 84" fill="none" xmlns="http://www.w3.org/2000/svg">
<g clip-path="url(#clip0_6745_17931)">
<path d="M63.749 54.5469C63.9511 54.547 64.1682 54.6218 64.4043 54.7988C67.1417 56.8519 70.8243 57.9385 74.7627 57.9385C77.2 57.9384 79.6508 57.5328 81.7051 56.5771C82.2595 56.3554 82.9034 56.5773 83.1211 57.2305L83.123 57.2373L83.126 57.2441C83.3476 57.7984 83.1266 58.4424 82.4736 58.6602L82.4648 58.6631L82.457 58.666C80.2064 59.5927 77.4187 60.1249 74.7627 60.125C70.7759 60.125 66.9286 59.0613 63.8848 57.0762L63.749 56.9873L63.6123 57.0762C60.5671 59.0622 56.8542 60.125 52.8691 60.125C48.8824 60.125 45.036 59.0612 41.9922 57.0762L41.8555 56.9873L41.7188 57.0762C38.6749 59.0612 34.8285 60.125 30.8418 60.125C26.8551 60.125 23.0087 59.0612 19.9648 57.0762L19.8281 56.9873L19.6914 57.0762C16.6476 59.0612 12.8012 60.125 8.81445 60.125C6.15917 60.125 3.36917 59.593 0.980469 58.6641C0.421938 58.4391 0.10594 57.7706 0.316406 57.2441C0.540424 56.6841 1.21004 56.3663 1.7373 56.5771L1.74219 56.5791C3.91127 57.3925 6.22556 57.9385 8.68066 57.9385C12.4869 57.9384 16.1654 56.8511 19.0332 54.8027L19.0381 54.7988C19.2743 54.6217 19.4921 54.5469 19.6943 54.5469C19.8964 54.547 20.1135 54.6218 20.3496 54.7988C23.087 56.8519 26.7696 57.9385 30.708 57.9385C34.5142 57.9384 38.1928 56.8511 41.0605 54.8027L41.0654 54.7988C41.3017 54.6217 41.5195 54.5469 41.7217 54.5469C41.9237 54.547 42.1409 54.6218 42.377 54.7988C45.1144 56.8519 48.797 57.9385 52.7354 57.9385C56.6769 57.9384 60.2209 56.8506 63.0879 54.8027L63.0928 54.7988C63.329 54.6217 63.5468 54.5469 63.749 54.5469Z" fill="#0089CF" stroke="white" stroke-width="0.5"/>
<path d="M63.749 62.6094C63.9511 62.6095 64.1682 62.6843 64.4043 62.8613C67.1417 64.9144 70.8243 66.001 74.7627 66.001C77.2 66.0009 79.6508 65.5953 81.7051 64.6396C82.2595 64.4179 82.9034 64.6398 83.1211 65.293C83.2413 65.6539 83.2323 65.9562 83.1299 66.1865C83.0293 66.4129 82.8229 66.6062 82.4736 66.7227L82.4648 66.7256L82.457 66.7285C80.2064 67.6552 77.4187 68.1874 74.7627 68.1875C70.7759 68.1875 66.9286 67.1238 63.8848 65.1387L63.749 65.0498L63.6123 65.1387C60.5671 67.1247 56.8542 68.1875 52.8691 68.1875C48.8824 68.1875 45.036 67.1237 41.9922 65.1387L41.8555 65.0498L41.7188 65.1387C38.6749 67.1237 34.8285 68.1875 30.8418 68.1875C26.8551 68.1875 23.0087 67.1237 19.9648 65.1387L19.8281 65.0498L19.6914 65.1387C16.6476 67.1237 12.8012 68.1875 8.81445 68.1875C6.15917 68.1875 3.36917 67.6555 0.980469 66.7266C0.421938 66.5016 0.10594 65.8331 0.316406 65.3066C0.540424 64.7466 1.21004 64.4288 1.7373 64.6396L1.74219 64.6416C3.91127 65.455 6.22556 66.001 8.68066 66.001C12.4869 66.0009 16.1654 64.9136 19.0332 62.8652L19.0381 62.8613C19.2743 62.6842 19.4921 62.6094 19.6943 62.6094C19.8964 62.6095 20.1135 62.6843 20.3496 62.8613C23.087 64.9144 26.7696 66.001 30.708 66.001C34.5142 66.0009 38.1928 64.9136 41.0605 62.8652L41.0654 62.8613C41.3017 62.6842 41.5195 62.6094 41.7217 62.6094C41.9237 62.6095 42.1409 62.6843 42.377 62.8613C45.1144 64.9144 48.797 66.001 52.7354 66.001C56.6769 66.0009 60.2209 64.9131 63.0879 62.8652L63.0928 62.8613C63.329 62.6842 63.5468 62.6094 63.749 62.6094Z" fill="#0089CF" stroke="white" stroke-width="0.5"/>
<path d="M23.6289 21.8779C30.9317 14.9736 39.0091 15.3801 44.2979 18.0244C49.4649 20.675 52.3405 25.4224 51.8174 30.1309L51.8154 30.1445V30.1582C51.8153 30.4511 51.6135 30.7853 51.2549 31.0244C50.9718 31.213 50.6944 31.137 50.2822 31C47.5075 29.4244 44.6766 29.3478 42.8223 30.6367L42.6455 30.7656L42.6416 30.7686C41.1985 31.9231 40.7934 33.7845 41.3477 35.8633L41.3506 35.873C41.9024 37.6661 42.8896 38.9648 44.6143 39.3975V39.3984C46.7085 39.9568 49.3903 39.4289 52.0107 38.3301C54.4756 37.2964 56.9246 35.7421 58.8438 34.041L59.2197 33.6992C62.8184 30.3671 66.6479 28.6686 70.0439 28.9297V28.9287C72.5201 29.191 74.7342 30.3621 76.4355 32.5801H76.4365C76.6839 32.9511 76.7556 33.3687 76.5713 33.6455L76.5527 33.6738L76.542 33.7051C76.496 33.843 76.3683 34.0067 76.1924 34.1387C76.0154 34.2713 75.8326 34.3397 75.7051 34.3398H75.6953L75.6855 34.3408C73.8508 34.482 72.0125 35.8817 71.5723 37.7344C71.2688 38.6447 71.4412 40.1013 73.0059 41.2393L73.0244 41.2529L73.0459 41.2637C74.3597 41.886 75.6135 42.13 77.0713 41.9912C78.5186 41.8534 80.1565 41.3377 82.2432 40.4629L82.2441 40.4639C82.8108 40.2372 83.4575 40.4748 83.666 40.9961C83.8924 41.5625 83.6547 42.2084 83.1338 42.417H83.1328L83.127 42.4199C80.0439 43.7604 77.9339 44.4141 75.8389 44.4141C74.4039 44.4141 72.9798 44.1548 71.5566 43.3857L71.4326 43.2617L71.4141 43.249L71.2236 43.1133C69.2892 41.6889 68.4759 39.5754 69.0957 37.3438L69.0967 37.3408C69.6126 35.4064 71.0344 33.8471 72.8613 32.9336L73.2334 32.748L72.8955 32.5068C71.9417 31.8255 70.8214 31.2565 69.5449 31.251C66.7564 30.9749 63.4672 32.5074 60.4902 35.3486C58.2967 37.4091 55.3684 39.3065 52.3584 40.5205C49.3429 41.7367 46.2794 42.2536 43.8018 41.6016C41.3465 40.9554 39.6624 39.1505 39.0107 36.5439V36.542L38.9414 36.2607C38.2755 33.3626 39.0791 30.7655 41.0752 29.1436C43.1369 27.4684 46.1282 27.189 49.2998 28.2461L49.6787 28.3721L49.627 27.9766C49.2105 24.7841 46.858 21.9033 43.3145 20.1309H43.3154C38.9361 17.8748 32.0105 17.5606 25.7686 22.9854L25.166 23.5283L25.1572 23.5371C21.6476 27.1817 19.7558 30.1541 18.1396 32.8477C16.5236 35.4737 15.2383 37.5779 12.9854 39.2061C10.7343 40.8328 7.49109 41.9997 1.93652 42.6689L1.92578 42.6709C1.59089 42.7267 1.33119 42.6426 1.13965 42.4766C0.942636 42.3056 0.796494 42.0287 0.736328 41.668C0.680518 41.3331 0.763711 41.0734 0.929688 40.8818C1.10049 40.6848 1.3776 40.5378 1.73828 40.4775C6.64898 39.8713 9.54974 38.9254 11.5967 37.4805C13.6445 36.0349 14.8098 34.1068 16.2832 31.6289L16.2842 31.6299C17.8907 28.9523 19.8922 25.7496 23.6289 21.8779Z" fill="#0089CF" stroke="white" stroke-width="0.5"/>
<path d="M64.0176 46.4922C64.2196 46.4923 64.4368 46.5671 64.6729 46.7441C67.4103 48.7972 71.0929 49.8838 75.0312 49.8838C77.4685 49.8837 79.9193 49.4781 81.9736 48.5225C82.528 48.3007 83.1719 48.5226 83.3896 49.1758L83.3916 49.1826L83.3945 49.1895C83.6162 49.7438 83.3952 50.3877 82.7422 50.6055L82.7344 50.6074C80.2081 51.5381 77.4171 52.0702 74.7627 52.0703C70.7759 52.0703 66.9286 51.0066 63.8848 49.0215L63.749 48.9326L63.6123 49.0215C60.5671 51.0075 56.8542 52.0703 52.8691 52.0703C48.8824 52.0703 45.036 51.0065 41.9922 49.0215L41.8555 48.9326L41.7188 49.0215C38.6749 51.0065 34.8285 52.0703 30.8418 52.0703C26.8551 52.0703 23.0087 51.0065 19.9648 49.0215L19.8281 48.9326L19.6914 49.0215C16.6476 51.0065 12.8012 52.0703 8.81445 52.0703C6.15917 52.0703 3.36917 51.5383 0.980469 50.6094C0.429458 50.3875 0.114902 49.734 0.308594 49.2109C0.794728 48.5 1.47411 48.3099 2.00586 48.5225L2.01074 48.5244C4.17983 49.3378 6.49411 49.8838 8.94922 49.8838C12.7555 49.8837 16.434 48.7964 19.3018 46.748L19.3066 46.7441C19.5429 46.567 19.7607 46.4922 19.9629 46.4922C20.165 46.4923 20.3821 46.5671 20.6182 46.7441C23.3556 48.7972 27.0382 49.8838 30.9766 49.8838C34.7828 49.8837 38.4613 48.7964 41.3291 46.748L41.334 46.7441C41.5703 46.567 41.788 46.4922 41.9902 46.4922C42.1923 46.4923 42.4094 46.5671 42.6455 46.7441C45.3829 48.7972 49.0655 49.8838 53.0039 49.8838C56.9454 49.8837 60.4894 48.7959 63.3564 46.748L63.3613 46.7441C63.5976 46.567 63.8154 46.4922 64.0176 46.4922Z" fill="#0089CF" stroke="white" stroke-width="0.5"/>
</g>
<defs>
<clipPath id="clip0_6745_17931">
<rect width="84" height="84" fill="white"/>
</clipPath>
</defs>
</svg>
