<svg width="84" height="84" viewBox="0 0 84 84" fill="none" xmlns="http://www.w3.org/2000/svg">
<path d="M4 39.875V43.1943C4 56.026 14.4021 66.428 27.2338 66.428H28.8934V73.066H55.4464V66.4275H57.1061C69.9378 66.4275 80.3398 56.0255 80.3398 43.1937V39.875H12.2956" stroke="#0089CF" stroke-width="2" stroke-linecap="round" stroke-linejoin="round"/>
<path d="M42.163 33.2343C42.163 33.2343 45.4823 31.5747 45.4823 28.2554C45.4823 24.9361 38.8438 18.2981 38.8438 14.9789C38.8438 11.6596 42.163 10 42.163 10" stroke="#0089CF" stroke-width="2" stroke-linecap="round" stroke-linejoin="round"/>
<path d="M28.8974 33.2343C28.8974 33.2343 32.2156 31.5747 32.2156 28.2554C32.2156 24.9361 25.5781 18.2981 25.5781 14.9789C25.5781 11.6596 28.8974 10 28.8974 10" stroke="#0089CF" stroke-width="2" stroke-linecap="round" stroke-linejoin="round"/>
<path d="M55.4438 33.2343C55.4438 33.2343 58.763 31.5747 58.763 28.2554C58.763 24.9361 52.125 18.2981 52.125 14.9789C52.125 11.6596 55.4443 10 55.4443 10" stroke="#0089CF" stroke-width="2" stroke-linecap="round" stroke-linejoin="round"/>
<path d="M28.8906 66.4219H47.146" stroke="#0089CF" stroke-width="2" stroke-linecap="round" stroke-linejoin="round"/>
</svg>
