<svg width="17" height="11" viewBox="0 0 17 11" fill="none" xmlns="http://www.w3.org/2000/svg">
<path d="M15.9263 4.55501L15.9255 4.55422L11.5429 0.241046C11.2146 -0.0820689 10.6865 -0.0779223 10.3633 0.250443C10.0401 0.578766 10.0443 1.10688 10.3726 1.43004L13.3151 4.32584L0.830963 4.40667C0.37028 4.40923 -0.00107849 4.78474 0.00148385 5.24543C0.00404619 5.70611 0.379558 6.07747 0.840242 6.0749L13.3243 5.99408L10.4144 8.92243C10.0896 9.24922 10.0913 9.77735 10.4181 10.1021C10.745 10.4268 11.2731 10.425 11.5978 10.0983L15.9321 5.73667L15.9329 5.73587C16.2577 5.408 16.2537 4.87817 15.9263 4.55501Z" fill="url(#paint0_linear_6688_17117)"/>
<defs>
<linearGradient id="paint0_linear_6688_17117" x1="0.0014205" y1="5.23404" x2="16.1742" y2="5.14408" gradientUnits="userSpaceOnUse">
<stop stop-color="#0089CF"/>
<stop offset="1" stop-color="#A6CE39"/>
</linearGradient>
</defs>
</svg>
