<svg width="106" height="20" viewBox="0 0 106 20" fill="none" xmlns="http://www.w3.org/2000/svg">
<path d="M2.20098 14.7539L1.47958 15.3197L1.17188 14.4565L1.89327 13.8906L2.20098 14.7539Z" fill="#F7D909"/>
<mask id="mask0_6600_16130" style="mask-type:luminance" maskUnits="userSpaceOnUse" x="6" y="8" width="4" height="5">
<path d="M9.13541 8.21094L6.90625 9.95802L7.7627 12.3923L9.99186 10.6435L9.13541 8.21094Z" fill="white"/>
</mask>
<g mask="url(#mask0_6600_16130)">
<path d="M6.90625 12.082L9.99186 12.2872V12.3932H6.90625V12.082Z" fill="#E7C012"/>
<path d="M6.90625 11.9922L9.99186 12.1973V12.2879L6.90625 12.0828V11.9922Z" fill="#E7C012"/>
<path d="M6.90625 11.8984L9.99186 12.1036V12.1942L6.90625 11.989V11.8984Z" fill="#E7C112"/>
<path d="M6.90625 11.8125L9.99186 12.0176V12.1082L6.90625 11.9031V11.8125Z" fill="#E8C211"/>
<path d="M6.90625 11.7188L9.99186 11.9256V12.0162L6.90625 11.8111V11.7188Z" fill="#E8C311"/>
<path d="M6.90625 11.625L9.99186 11.8301V11.9224L6.90625 11.7156V11.625Z" fill="#E9C411"/>
<path d="M6.90625 11.5391L9.99186 11.7442V11.8348L6.90625 11.6297V11.5391Z" fill="#E9C510"/>
<path d="M6.90625 11.4453L9.99186 11.6504V11.7411L6.90625 11.5359V11.4453Z" fill="#EAC610"/>
<path d="M6.90625 11.3516L9.99186 11.5567V11.6473L6.90625 11.4422V11.3516Z" fill="#EAC710"/>
<path d="M6.90625 11.2617L9.99186 11.4686V11.5592L6.90625 11.354V11.2617Z" fill="#EBC810"/>
<path d="M6.90625 11.1719L9.99186 11.377V11.4693L6.90625 11.2625V11.1719Z" fill="#EBC90F"/>
<path d="M6.90625 11.0781L9.99186 11.2833V11.3739L6.90625 11.1687V11.0781Z" fill="#ECCA0F"/>
<path d="M6.90625 10.9922L9.99186 11.1973V11.2879L6.90625 11.0828V10.9922Z" fill="#ECCB0F"/>
<path d="M6.90625 10.8984L9.99186 11.1036V11.1942L6.90625 10.989V10.8984Z" fill="#ECCC0E"/>
<path d="M6.90625 10.8047L9.99186 11.0098V11.1021L6.90625 10.897V10.8047Z" fill="#EDCD0E"/>
<path d="M6.90625 10.7188L9.99186 10.9239V11.0145L6.90625 10.8094V10.7188Z" fill="#EDCE0E"/>
<path d="M6.90625 10.625L9.99186 10.8301V10.9207L6.90625 10.7156V10.625Z" fill="#EECF0D"/>
<path d="M6.90625 10.5391L9.99186 10.7442V10.8348L6.90625 10.6297V10.5391Z" fill="#EED00D"/>
<path d="M6.90625 10.4453L9.99186 10.6522V10.7428L6.90625 10.5376V10.4453Z" fill="#EFD20D"/>
<path d="M6.90625 10.3516L9.99186 10.5567V10.649L6.90625 10.4422V10.3516Z" fill="#EFD30D"/>
<path d="M6.90625 10.2617L9.99186 10.4669V10.5575L6.90625 10.3523V10.2617Z" fill="#F0D40C"/>
<path d="M6.90625 10.1719L9.99186 10.377V10.4676L6.90625 10.2625V10.1719Z" fill="#F0D50C"/>
<path d="M6.90625 10.082L9.99186 10.2872V10.3778L6.90625 10.1726V10.082Z" fill="#F1D60C"/>
<path d="M6.90625 9.99219L9.99186 10.199V10.2896L6.90625 10.0845V9.99219Z" fill="#F1D70B"/>
<path d="M6.90625 9.89844L9.99186 10.1036V10.1959L6.90625 9.98904V9.89844Z" fill="#F1D80B"/>
<path d="M6.90625 9.80469L9.99186 10.0098V10.1004L6.90625 9.89529V9.80469Z" fill="#F2D90B"/>
<path d="M6.90625 9.71875L9.99186 9.92389V10.0145L6.90625 9.80935V9.71875Z" fill="#F2DA0A"/>
<path d="M6.90625 9.625L9.99186 9.83014V9.92074L6.90625 9.7156V9.625Z" fill="#F3DB0A"/>
<path d="M6.90625 9.53125L9.99186 9.73639V9.82872L6.90625 9.62358V9.53125Z" fill="#F3DC0A"/>
<path d="M6.90625 9.44531L9.99186 9.65045V9.74105L6.90625 9.53592V9.44531Z" fill="#F4DD0A"/>
<path d="M6.90625 9.35156L9.99186 9.5567V9.6473L6.90625 9.44217V9.35156Z" fill="#F4DE09"/>
<path d="M6.90625 9.26172L9.99186 9.46686V9.55746L6.90625 9.35232V9.26172Z" fill="#F5DF09"/>
<path d="M6.90625 9.17188L9.99186 9.37872V9.46932L6.90625 9.26419V9.17188Z" fill="#F5E009"/>
<path d="M6.90625 9.07812L9.99186 9.28326V9.37557L6.90625 9.16873V9.07812Z" fill="#F6E108"/>
<path d="M6.90625 8.99219L9.99186 9.19732V9.28793L6.90625 9.08279V8.99219Z" fill="#F6E208"/>
<path d="M9.99186 9.19389L6.90625 8.98875V8.21094H9.99186V9.19389Z" fill="#F6E208"/>
</g>
<path d="M6.54104 10.2422L2.21094 13.6389L2.51522 14.5039L6.84875 11.1055L6.54104 10.2422Z" fill="#C1C1C1"/>
<mask id="mask1_6600_16130" style="mask-type:luminance" maskUnits="userSpaceOnUse" x="1" y="8" width="4" height="6">
<path d="M3.2526 8.53906L1.02344 10.2879L2.02519 13.1307L4.25435 11.3819L3.2526 8.53906Z" fill="white"/>
</mask>
<g mask="url(#mask1_6600_16130)">
<path d="M4.25326 8.65018L3.96094 8.53906H4.25326V8.65018Z" fill="#8E8E90"/>
<path d="M4.25386 8.80574L3.55469 8.53906H3.96154L4.25386 8.65018V8.80574Z" fill="#8F8F91"/>
<path d="M4.25447 8.95959L3.14844 8.53906H3.55529L4.25447 8.80574V8.95959Z" fill="#909092"/>
<path d="M4.25508 9.11516L2.74219 8.53906H3.14904L4.25508 8.95959V9.11516Z" fill="#919193"/>
<path d="M4.25568 9.27072L2.33594 8.53906H2.74279L4.25568 9.11516V9.27072Z" fill="#919193"/>
<path d="M4.25629 9.42457L1.92969 8.53906H2.33654L4.25629 9.27072V9.42457Z" fill="#929294"/>
<path d="M4.25518 9.58013L1.52344 8.53906H1.92858L4.25518 9.42457V9.58013Z" fill="#939395"/>
<path d="M4.25427 9.73399L1.29688 8.60915L1.32423 8.53906H1.52253L4.25427 9.58013V9.73399Z" fill="#949496"/>
<path d="M4.25868 9.88977L1.25 8.74442L1.30128 8.60938L4.25868 9.73421V9.88977Z" fill="#959597"/>
<path d="M4.25528 10.0414L1.19531 8.87724L1.2466 8.74219L4.25528 9.88754V10.0414Z" fill="#969698"/>
<path d="M4.25187 10.1986L1.14062 9.01395L1.19191 8.87891L4.25187 10.0431V10.1986Z" fill="#979799"/>
<path d="M4.25628 10.3541L1.09375 9.15067L1.14503 9.01562L4.25628 10.2003V10.3541Z" fill="#98989A"/>
<path d="M4.25288 10.5075L1.03906 9.28349L1.09035 9.14844L4.25288 10.3519V10.5075Z" fill="#99999B"/>
<path d="M4.25435 10.6647L1.02344 9.43388V9.32789L1.04053 9.28516L4.25435 10.5091V10.6647Z" fill="#9A9A9C"/>
<path d="M4.25435 10.8183L1.02344 9.58916V9.43359L4.25435 10.6644V10.8183Z" fill="#9B9B9D"/>
<path d="M4.25435 10.9706L1.02344 9.7415V9.58594L4.25435 10.8151V10.9706Z" fill="#9C9C9E"/>
<path d="M4.25435 11.1252L1.02344 9.89604V9.74219L4.25435 10.9713V11.1252Z" fill="#9D9D9F"/>
<path d="M4.25435 11.2831L1.02344 10.054V9.89844L4.25435 11.1276V11.2831Z" fill="#9E9EA0"/>
<path d="M4.25435 11.4377L1.02344 10.2085V10.0547L4.25435 11.2838V11.4377Z" fill="#9F9FA1"/>
<path d="M4.25435 11.5917L1.02344 10.3626V10.207L4.25435 11.4361V11.5917Z" fill="#A0A0A2"/>
<path d="M4.25435 11.748L1.02344 10.5171V10.3633L4.25435 11.5924V11.748Z" fill="#A1A1A3"/>
<path d="M4.25435 11.9003L1.02344 10.6712V10.5156L4.25435 11.7464V11.9003Z" fill="#A2A3A5"/>
<path d="M4.25435 12.0566L1.02344 10.8257V10.6719L4.25435 11.901V12.0566Z" fill="#A3A4A6"/>
<path d="M4.25435 12.2089L1.02344 10.9798V10.8242L4.25435 12.055V12.2089Z" fill="#A4A5A7"/>
<path d="M4.25435 12.3451L4.24751 12.3656L1.02344 11.1399V10.9844L4.25435 12.2135V12.3451Z" fill="#A5A6A8"/>
<path d="M4.24751 12.3663L4.19623 12.5014L1.02344 11.2945V11.1406L4.24751 12.3663Z" fill="#A6A7A9"/>
<path d="M4.19623 12.4999L4.14323 12.6349L1.02344 11.4485V11.293L4.19623 12.4999Z" fill="#A8A8AA"/>
<path d="M4.14323 12.6317L4.09195 12.7667L1.02344 11.5992V11.4453L4.14323 12.6317Z" fill="#A9AAAC"/>
<path d="M4.09195 12.7691L4.04067 12.9059L1.02344 11.7571V11.6016L4.09195 12.7691Z" fill="#AAABAD"/>
<path d="M4.04067 12.9066L3.98938 13.0416L1.02344 11.9117V11.7578L4.04067 12.9066Z" fill="#ABACAE"/>
<path d="M3.98938 13.0401L3.95519 13.1307H3.82185L1.02344 12.0657V11.9102L3.98938 13.0401Z" fill="#ACADAF"/>
<path d="M3.415 13.1275L1.02344 12.2181V12.0625L3.82185 13.1275H3.415Z" fill="#ADAEB0"/>
<path d="M3.00814 13.1282L1.02344 12.3726V12.2188L3.415 13.1282H3.00814Z" fill="#AFB0B2"/>
<path d="M2.60128 13.1306L1.02344 12.5306V12.375L3.00814 13.1306H2.60128Z" fill="#B0B1B3"/>
<path d="M2.19443 13.1313L1.02344 12.6851V12.5312L2.60129 13.1313H2.19443Z" fill="#B1B2B4"/>
<path d="M1.02344 12.6875L2.19443 13.1337H1.02344V12.6875Z" fill="#B1B2B4"/>
</g>
<mask id="mask2_6600_16130" style="mask-type:luminance" maskUnits="userSpaceOnUse" x="0" y="10" width="12" height="8">
<path d="M9.99049 10.6406L0.632812 17.9811H5.38003L11.0196 13.557L9.99049 10.6406Z" fill="white"/>
</mask>
<g mask="url(#mask2_6600_16130)">
<path d="M1.10463 10.6406H0.632812V17.9794H1.10463V10.6406Z" fill="#F6CC08"/>
<path d="M1.58119 10.6406H1.10938V17.9794H1.58119V10.6406Z" fill="#F6CD08"/>
<path d="M2.04994 10.6406H1.57812V17.9794H2.04994V10.6406Z" fill="#F6CE08"/>
<path d="M2.51869 10.6406H2.04688V17.9794H2.51869V10.6406Z" fill="#F6CF08"/>
<path d="M2.99525 10.6406H2.52344V17.9794H2.99525V10.6406Z" fill="#F6D008"/>
<path d="M3.464 10.6406H2.99219V17.9794H3.464V10.6406Z" fill="#F6D108"/>
<path d="M3.94057 10.6406H3.46875V17.9794H3.94057V10.6406Z" fill="#F6D208"/>
<path d="M4.40932 10.6406H3.9375V17.9794H4.40932V10.6406Z" fill="#F6D308"/>
<path d="M4.88588 10.6406H4.41406V17.9794H4.88588V10.6406Z" fill="#F6D408"/>
<path d="M5.35463 10.6406H4.88281V17.9794H5.35463V10.6406Z" fill="#F6D508"/>
<path d="M5.82338 10.6406H5.35156V17.9794H5.82338V10.6406Z" fill="#F6D608"/>
<path d="M6.29994 10.6406H5.82812V17.9794H6.29994V10.6406Z" fill="#F6D808"/>
<path d="M6.76869 10.6406H6.29688V17.9794H6.76869V10.6406Z" fill="#F6D908"/>
<path d="M7.24525 10.6406H6.77344V17.9794H7.24525V10.6406Z" fill="#F6DA08"/>
<path d="M7.714 10.6406H7.24219V17.9794H7.714V10.6406Z" fill="#F6DB08"/>
<path d="M8.19057 10.6406H7.71875V17.9794H8.19057V10.6406Z" fill="#F6DC08"/>
<path d="M8.65932 10.6406H8.1875V17.9794H8.65932V10.6406Z" fill="#F6DD08"/>
<path d="M9.12807 10.6406H8.65625V17.9794H9.12807V10.6406Z" fill="#F6DE08"/>
<path d="M9.60463 10.6406H9.13281V17.9794H9.60463V10.6406Z" fill="#F6DF08"/>
<path d="M10.0734 10.6406H9.60156V17.9794H10.0734V10.6406Z" fill="#F6E008"/>
<path d="M10.5421 10.6406H10.0703V17.9794H10.5421V10.6406Z" fill="#F6E108"/>
<path d="M11.0187 10.6406H10.5469V17.9794H11.0187V10.6406Z" fill="#F6E208"/>
</g>
<mask id="mask3_6600_16130" style="mask-type:luminance" maskUnits="userSpaceOnUse" x="0" y="3" width="11" height="8">
<path d="M5.57461 3L0 7.37284L1.02569 10.2858L10.315 3H5.57461Z" fill="white"/>
</mask>
<g mask="url(#mask3_6600_16130)">
<path d="M10.3165 3.45643L9.28056 4.26672L8.28906 3H10.3165V3.45643Z" fill="#8E8E90"/>
<path d="M9.27578 4.26672L9.05013 4.4428L7.92188 3H8.28428L9.27578 4.26672Z" fill="#8E8E90"/>
<path d="M9.05487 4.4428L8.82922 4.61888L7.5625 3H7.92662L9.05487 4.4428Z" fill="#8E8E90"/>
<path d="M8.82615 4.61888L8.6005 4.79666L7.19531 3H7.55943L8.82615 4.61888Z" fill="#8F8F91"/>
<path d="M8.59743 4.79666L8.37178 4.97274L6.82812 3H7.19224L8.59743 4.79666Z" fill="#909092"/>
<path d="M8.37653 4.97274L8.15088 5.14881L6.46875 3H6.83287L8.37653 4.97274Z" fill="#919193"/>
<path d="M8.15391 5.14881L7.92655 5.32489L6.10938 3H6.47178L8.15391 5.14881Z" fill="#919193"/>
<path d="M7.92348 5.32489L7.69783 5.50268L5.74219 3H6.10631L7.92348 5.32489Z" fill="#929294"/>
<path d="M7.69476 5.50268L7.46911 5.67875L5.375 3H5.73912L7.69476 5.50268Z" fill="#939395"/>
<path d="M7.47214 5.67875L7.24649 5.85483L5.01562 3.00171L5.01904 3H5.37803L7.47214 5.67875Z" fill="#949496"/>
<path d="M5.01528 3L4.78906 3.17693L7.01966 6.0289L7.24589 5.85197L5.01528 3Z" fill="#959597"/>
<path d="M4.78872 3.17969L4.5625 3.35662L6.79309 6.20857L7.01931 6.03164L4.78872 3.17969Z" fill="#969698"/>
<path d="M4.56997 3.35547L4.34375 3.5324L6.57434 6.38437L6.80056 6.20744L4.56997 3.35547Z" fill="#979799"/>
<path d="M4.33559 3.53125L4.10938 3.70818L6.33997 6.56014L6.56618 6.38321L4.33559 3.53125Z" fill="#98989A"/>
<path d="M4.11684 3.70703L3.89062 3.88396L6.12122 6.73593L6.34745 6.559L4.11684 3.70703Z" fill="#99999B"/>
<path d="M3.89028 3.88281L3.66406 4.05974L5.89466 6.9117L6.12087 6.73477L3.89028 3.88281Z" fill="#9A9A9C"/>
<path d="M3.66372 4.0625L3.4375 4.23943L5.66809 7.09139L5.89431 6.91446L3.66372 4.0625Z" fill="#9B9B9D"/>
<path d="M3.43715 4.23438L3.21094 4.41131L5.44153 7.26327L5.66775 7.08634L3.43715 4.23438Z" fill="#9C9C9E"/>
<path d="M3.21059 4.41406L2.98438 4.59099L5.21497 7.44296L5.44118 7.26603L3.21059 4.41406Z" fill="#9D9D9F"/>
<path d="M2.98403 4.59375L2.75781 4.77068L4.98841 7.62265L5.21462 7.4457L2.98403 4.59375Z" fill="#9E9EA0"/>
<path d="M2.75747 4.76562L2.53125 4.94256L4.76184 7.79453L4.98806 7.6176L2.75747 4.76562Z" fill="#9F9FA1"/>
<path d="M2.5309 4.94531L2.30469 5.12224L4.53528 7.9742L4.7615 7.79727L2.5309 4.94531Z" fill="#A0A0A2"/>
<path d="M2.30434 5.11719L2.07812 5.29412L4.30872 8.14607L4.53493 7.96914L2.30434 5.11719Z" fill="#A1A1A3"/>
<path d="M2.08561 5.29688L1.85938 5.47381L4.08999 8.32576L4.3162 8.14883L2.08561 5.29688Z" fill="#A2A3A5"/>
<path d="M1.85904 5.47266L1.63281 5.64959L3.86342 8.50154L4.08963 8.32461L1.85904 5.47266Z" fill="#A3A4A6"/>
<path d="M1.63247 5.64844L1.40625 5.82537L3.63685 8.67732L3.86307 8.50039L1.63247 5.64844Z" fill="#A4A5A7"/>
<path d="M1.40591 5.82812L1.17969 6.00506L3.41028 8.85701L3.63652 8.68008L1.40591 5.82812Z" fill="#A5A6A8"/>
<path d="M1.17934 6.00391L0.953125 6.18084L3.18373 9.03281L3.40994 8.85586L1.17934 6.00391Z" fill="#A6A7A9"/>
<path d="M0.952781 6.17969L0.726562 6.35662L2.95716 9.20857L3.18338 9.03164L0.952781 6.17969Z" fill="#A8A8AA"/>
<path d="M0.726219 6.35547L0.5 6.5324L2.7306 9.38435L2.95681 9.20742L0.726219 6.35547Z" fill="#A9AAAC"/>
<path d="M0.499656 6.53125L0.273438 6.70818L2.50403 9.56014L2.73025 9.38321L0.499656 6.53125Z" fill="#AAABAD"/>
<path d="M0.273093 6.70703L0.046875 6.88396L2.27748 9.73592L2.50369 9.55899L0.273093 6.70703Z" fill="#ABACAE"/>
<path d="M2.28215 9.73593L2.0565 9.91201L0 7.28283V6.92213L0.0512843 6.88281L2.28215 9.73593Z" fill="#ACADAF"/>
<path d="M2.0565 9.91433L1.82914 10.0904L0 7.75013V7.28516L2.0565 9.91433Z" fill="#ADAEB0"/>
<path d="M1.82914 10.0903L1.60349 10.2681L0 8.21669V7.75L1.82914 10.0903Z" fill="#AFB0B2"/>
<path d="M1.60349 10.2701L1.58127 10.2872H1.25476L0 8.68373V8.21875L1.60349 10.2701Z" fill="#B0B1B3"/>
<path d="M0.890638 10.2871L0 9.14857V8.68359L1.25476 10.2871H0.890638Z" fill="#B1B2B4"/>
<path d="M0 9.14844L0.890638 10.2869H0V9.14844Z" fill="#B1B2B4"/>
</g>
<path d="M16.3466 6.446C16.188 6.446 16.0573 6.39933 15.9546 6.306C15.8613 6.20333 15.8146 6.07733 15.8146 5.928C15.8146 5.77867 15.8613 5.65267 15.9546 5.55C16.0573 5.44733 16.188 5.396 16.3466 5.396C16.496 5.396 16.622 5.44733 16.7246 5.55C16.8273 5.65267 16.8786 5.77867 16.8786 5.928C16.8786 6.07733 16.8273 6.20333 16.7246 6.306C16.622 6.39933 16.496 6.446 16.3466 6.446ZM16.0526 8.084H16.6406V15H16.0526V8.084ZM26.3151 5.2H26.9171V15H26.2731L19.8191 6.138V15H19.2031V5.2H19.8751L26.3151 14.034V5.2ZM36.3661 5.2V5.802H32.7541V15H32.1521V5.802H28.5401V5.2H36.3661ZM38.6042 14.412H44.8902V15H37.9882V5.2H44.7082V5.788H38.6042V9.75H44.4142V10.338H38.6042V14.412ZM50.5927 11.234H47.7507V15H47.1347V5.2H51.3767C52.0114 5.2 52.5667 5.326 53.0427 5.578C53.528 5.83 53.9014 6.18467 54.1627 6.642C54.424 7.09933 54.5547 7.62667 54.5547 8.224C54.5547 8.82133 54.424 9.34867 54.1627 9.806C53.9014 10.254 53.5327 10.604 53.0567 10.856C52.5807 11.108 52.0254 11.234 51.3907 11.234L54.8627 15H54.0647L50.5927 11.234ZM53.9387 8.224C53.9387 7.48667 53.7054 6.89867 53.2387 6.46C52.7814 6.02133 52.1607 5.802 51.3767 5.802H47.7507V10.646H51.3767C52.1607 10.646 52.7814 10.4267 53.2387 9.988C53.7054 9.54933 53.9387 8.96133 53.9387 8.224ZM60.1444 15.154C59.3418 15.154 58.5811 14.9907 57.8624 14.664C57.1438 14.328 56.5838 13.8847 56.1824 13.334L56.6024 12.914C56.9198 13.3993 57.4098 13.796 58.0724 14.104C58.7351 14.412 59.4258 14.566 60.1444 14.566C61.1338 14.566 61.9131 14.384 62.4824 14.02C63.0611 13.6467 63.3504 13.1427 63.3504 12.508C63.3504 12.1067 63.2478 11.7753 63.0424 11.514C62.8464 11.2527 62.5104 11.0287 62.0344 10.842C61.5678 10.6553 60.8958 10.478 60.0184 10.31C59.1224 10.1327 58.4131 9.92733 57.8904 9.694C57.3771 9.46067 57.0038 9.176 56.7704 8.84C56.5371 8.504 56.4204 8.084 56.4204 7.58C56.4204 7.076 56.5698 6.63267 56.8684 6.25C57.1764 5.858 57.6058 5.55933 58.1564 5.354C58.7164 5.13933 59.3604 5.032 60.0884 5.032C60.7978 5.032 61.4511 5.15333 62.0484 5.396C62.6458 5.62933 63.1498 5.97467 63.5604 6.432L63.1684 6.866C62.8138 6.46467 62.3658 6.15667 61.8244 5.942C61.2924 5.718 60.7091 5.606 60.0744 5.606C59.1504 5.606 58.4084 5.788 57.8484 6.152C57.2978 6.50667 57.0224 6.98267 57.0224 7.58C57.0224 7.972 57.1204 8.29867 57.3164 8.56C57.5124 8.812 57.8344 9.03133 58.2824 9.218C58.7304 9.39533 59.3511 9.56333 60.1444 9.722C61.1244 9.918 61.8851 10.1327 62.4264 10.366C62.9771 10.5993 63.3691 10.884 63.6024 11.22C63.8451 11.556 63.9664 11.9807 63.9664 12.494C63.9664 13.3153 63.6211 13.964 62.9304 14.44C62.2491 14.916 61.3204 15.154 60.1444 15.154ZM75.2543 5.2H75.9263V15H75.3243V6.138L71.0823 12.004H70.9283L66.6863 6.152V15H66.0703V5.2H66.7423L70.9983 11.094L75.2543 5.2ZM86.5838 15L85.4778 12.536H79.5138L78.4078 15H77.7358L82.1318 5.2H82.8598L87.2558 15H86.5838ZM82.4958 5.858L79.7658 11.934H85.2258L82.4958 5.858ZM92.5243 11.234H89.6823V15H89.0663V5.2H93.3083C93.943 5.2 94.4983 5.326 94.9743 5.578C95.4597 5.83 95.833 6.18467 96.0943 6.642C96.3557 7.09933 96.4863 7.62667 96.4863 8.224C96.4863 8.82133 96.3557 9.34867 96.0943 9.806C95.833 10.254 95.4643 10.604 94.9883 10.856C94.5123 11.108 93.957 11.234 93.3223 11.234L96.7943 15H95.9963L92.5243 11.234ZM95.8703 8.224C95.8703 7.48667 95.637 6.89867 95.1703 6.46C94.713 6.02133 94.0923 5.802 93.3083 5.802H89.6823V10.646H93.3083C94.0923 10.646 94.713 10.4267 95.1703 9.988C95.637 9.54933 95.8703 8.96133 95.8703 8.224ZM105.204 5.2V5.802H101.592V15H100.99V5.802H97.378V5.2H105.204Z" fill="white"/>
</svg>
