<svg width="200" height="204" viewBox="0 0 200 204" fill="none" xmlns="http://www.w3.org/2000/svg">
<path d="M101.601 85.5586C112.331 69.5326 134.205 58.0001 135.394 35.8442C137.98 -11.9481 65.1703 -11.9481 67.73 35.8442C68.9452 58.0001 90.7933 69.6105 101.601 85.5586Z" fill="#0089CF"/>
<path d="M101.601 118.273C112.331 134.299 134.205 145.832 135.394 167.988C137.98 215.832 65.1703 215.832 67.73 167.988C68.9452 145.832 90.7933 134.222 101.601 118.273Z" fill="#0089CF"/>
<path d="M114.828 104.525C130.807 93.6935 142.287 71.7194 164.342 70.5246C211.891 67.9272 211.891 141.096 164.342 138.473C142.287 137.304 130.729 115.33 114.828 104.525Z" fill="#A6CE39"/>
<path d="M85.2399 104.525C69.2094 93.7454 57.7553 71.7194 35.7003 70.5246C-11.9001 67.9272 -11.9001 141.096 35.7003 138.473C57.7553 137.304 69.3128 115.33 85.1624 104.525" fill="#A6CE39"/>
</svg>
