<svg width="15" height="20" viewBox="0 0 15 20" fill="none" xmlns="http://www.w3.org/2000/svg">
<mask id="path-1-inside-1_6710_16680" fill="white">
<path d="M7.02908 0C3.15316 0 0 3.17012 0 7.06687C0 8.34972 0.57225 9.72942 0.596231 9.78762C0.781055 10.2287 1.14574 10.9137 1.40871 11.3153L6.22818 18.657C6.42541 18.9579 6.71732 19.1304 7.02908 19.1304C7.34084 19.1304 7.63275 18.9579 7.82998 18.6574L12.6499 11.3153C12.9132 10.9137 13.2775 10.2287 13.4623 9.78762C13.4863 9.72983 14.0582 8.35013 14.0582 7.06687C14.0582 3.17012 10.905 0 7.02908 0ZM12.6999 9.46503C12.5349 9.86036 12.1955 10.4976 11.9594 10.8576L7.13948 18.1997C7.04438 18.3448 7.01419 18.3448 6.9191 18.1997L2.09921 10.8576C1.86312 10.4976 1.52366 9.85995 1.35868 9.46462C1.35165 9.44757 0.826951 8.17762 0.826951 7.06687C0.826951 3.62863 3.60923 0.831397 7.02908 0.831397C10.4489 0.831397 13.2312 3.62863 13.2312 7.06687C13.2312 8.17928 12.7053 9.45256 12.6999 9.46503Z"/>
</mask>
<path d="M0.596231 9.78762L-0.328364 10.1686L-0.326064 10.1741L0.596231 9.78762ZM1.40871 11.3153L0.57213 11.8632L0.572741 11.8641L1.40871 11.3153ZM6.22818 18.657L7.06458 18.1088L7.06415 18.1082L6.22818 18.657ZM7.82998 18.6574L6.99402 18.1086L6.99392 18.1087L7.82998 18.6574ZM12.6499 11.3153L13.4858 11.8641L13.486 11.8638L12.6499 11.3153ZM13.4623 9.78762L14.3846 10.1741L14.386 10.1709L13.4623 9.78762ZM14.0582 7.06687H15.0582H14.0582ZM12.6999 9.46503L11.7815 9.06919L11.777 9.07991L12.6999 9.46503ZM11.9594 10.8576L12.7953 11.4064L12.7956 11.406L11.9594 10.8576ZM7.13948 18.1997L6.30352 17.6509L6.30314 17.6515L7.13948 18.1997ZM6.9191 18.1997L7.75543 17.6515L7.75506 17.6509L6.9191 18.1997ZM2.09921 10.8576L1.263 11.406L1.26325 11.4064L2.09921 10.8576ZM1.35868 9.46462L0.434206 9.84589L0.435815 9.84974L1.35868 9.46462ZM7.02908 0V-1C2.59583 -1 -1 2.62289 -1 7.06687H0H1C1 3.71734 3.7105 1 7.02908 1V0ZM0 7.06687H-1C-1 8.56882 -0.350795 10.1141 -0.328347 10.1686L0.596231 9.78762L1.52081 9.40662C1.49529 9.3447 1 8.13061 1 7.06687H0ZM0.596231 9.78762L-0.326064 10.1741C-0.117339 10.6722 0.276171 11.4112 0.572131 11.8632L1.40871 11.3153L2.24529 10.7675C2.01531 10.4163 1.67945 9.78515 1.51853 9.40113L0.596231 9.78762ZM1.40871 11.3153L0.572741 11.8641L5.39221 19.2057L6.22818 18.657L7.06415 18.1082L2.24468 10.7665L1.40871 11.3153ZM6.22818 18.657L5.39177 19.2051C5.74066 19.7375 6.32388 20.1304 7.02908 20.1304V19.1304V18.1304C7.04395 18.1304 7.05823 18.1326 7.07068 18.1361C7.08295 18.1395 7.09092 18.1436 7.09455 18.1457C7.10187 18.15 7.08755 18.1439 7.06458 18.1088L6.22818 18.657ZM7.02908 19.1304V20.1304C7.7341 20.1304 8.31715 19.7377 8.66604 19.206L7.82998 18.6574L6.99392 18.1087C6.971 18.1437 6.95666 18.1499 6.96385 18.1456C6.96743 18.1435 6.97534 18.1395 6.98756 18.136C6.99995 18.1326 7.01421 18.1304 7.02908 18.1304V19.1304ZM7.82998 18.6574L8.66594 19.2062L13.4858 11.8641L12.6499 11.3153L11.8139 10.7665L6.99402 18.1086L7.82998 18.6574ZM12.6499 11.3153L13.486 11.8638C13.783 11.4111 14.1761 10.6718 14.3846 10.1741L13.4623 9.78762L12.54 9.40113C12.379 9.78555 12.0435 10.4164 11.8137 10.7669L12.6499 11.3153ZM13.4623 9.78762L14.386 10.1709C14.4098 10.1134 15.0582 8.5691 15.0582 7.06687H14.0582H13.0582C13.0582 8.13116 12.5628 9.34624 12.5387 9.40428L13.4623 9.78762ZM14.0582 7.06687H15.0582C15.0582 2.62289 11.4623 -1 7.02908 -1V0V1C10.3477 1 13.0582 3.71734 13.0582 7.06687H14.0582ZM12.6999 9.46503L11.777 9.07991C11.6364 9.41695 11.3262 9.99966 11.1231 10.3092L11.9594 10.8576L12.7956 11.406C13.0647 10.9956 13.4335 10.3038 13.6228 9.85016L12.6999 9.46503ZM11.9594 10.8576L11.1234 10.3088L6.30352 17.6509L7.13948 18.1997L7.97544 18.7485L12.7953 11.4064L11.9594 10.8576ZM7.13948 18.1997L6.30314 17.6515C6.28198 17.6838 6.30711 17.6398 6.36245 17.583C6.40476 17.5397 6.63499 17.3085 7.02929 17.3085C7.42359 17.3085 7.65382 17.5397 7.69613 17.583C7.75146 17.6398 7.7766 17.6838 7.75543 17.6515L6.9191 18.1997L6.08276 18.7479C6.10914 18.7882 6.17372 18.8865 6.26443 18.9795C6.34211 19.0592 6.60367 19.3085 7.02929 19.3085C7.45491 19.3085 7.71646 19.0592 7.79415 18.9795C7.88486 18.8865 7.94943 18.7882 7.97581 18.7479L7.13948 18.1997ZM6.9191 18.1997L7.75506 17.6509L2.93518 10.3088L2.09921 10.8576L1.26325 11.4064L6.08313 18.7485L6.9191 18.1997ZM2.09921 10.8576L2.93542 10.3092C2.73254 9.99985 2.42228 9.41674 2.28154 9.07949L1.35868 9.46462L0.435815 9.84974C0.625031 10.3032 0.993703 10.9954 1.263 11.406L2.09921 10.8576ZM1.35868 9.46462L2.28315 9.08335C2.27265 9.0579 1.82695 7.95629 1.82695 7.06687H0.826951H-0.173049C-0.173049 7.759 -0.0132057 8.4581 0.129247 8.95267C0.202566 9.20721 0.276062 9.42367 0.332192 9.57894C0.360345 9.65682 0.38436 9.71995 0.402117 9.76549C0.411002 9.78828 0.418336 9.80671 0.423854 9.82042C0.426614 9.82728 0.428915 9.83295 0.430722 9.83737C0.431626 9.83959 0.432396 9.84147 0.433027 9.843C0.433343 9.84377 0.433614 9.84443 0.433837 9.84497C0.434033 9.84544 0.434251 9.84597 0.434214 9.84588L1.35868 9.46462ZM0.826951 7.06687H1.82695C1.82695 4.17585 4.16656 1.8314 7.02908 1.8314V0.831397V-0.168603C3.05189 -0.168603 -0.173049 3.08141 -0.173049 7.06687H0.826951ZM7.02908 0.831397V1.8314C9.8916 1.8314 12.2312 4.17585 12.2312 7.06687H13.2312H14.2312C14.2312 3.08141 11.0063 -0.168603 7.02908 -0.168603V0.831397ZM13.2312 7.06687H12.2312C12.2312 7.48629 12.1284 7.97877 12.0066 8.40171C11.8873 8.81611 11.7693 9.09775 11.7816 9.06922L12.6999 9.46503L13.6182 9.86085C13.6359 9.81984 13.7835 9.45861 13.9285 8.95515C14.071 8.46022 14.2312 7.75986 14.2312 7.06687H13.2312Z" fill="#0089CF" mask="url(#path-1-inside-1_6710_16680)"/>
<mask id="path-3-inside-2_6710_16680" fill="white">
<path d="M7.03378 3.32812C4.9817 3.32812 3.3125 5.00671 3.3125 7.06941C3.3125 9.13211 4.9817 10.8107 7.03378 10.8107C9.08586 10.8107 10.7551 9.13211 10.7551 7.06941C10.7551 5.00671 9.08586 3.32812 7.03378 3.32812ZM7.03378 9.9793C5.43818 9.9793 4.13945 8.67401 4.13945 7.06941C4.13945 5.46481 5.43818 4.15952 7.03378 4.15952C8.62938 4.15952 9.92811 5.46481 9.92811 7.06941C9.92811 8.67401 8.62938 9.9793 7.03378 9.9793Z"/>
</mask>
<path d="M10.7551 7.06941H11.7551H10.7551ZM7.03378 3.32812V2.32812C4.42429 2.32812 2.3125 4.45956 2.3125 7.06941H3.3125H4.3125C4.3125 5.55386 5.53911 4.32812 7.03378 4.32812V3.32812ZM3.3125 7.06941H2.3125C2.3125 9.67926 4.42429 11.8107 7.03378 11.8107V10.8107V9.8107C5.53911 9.8107 4.3125 8.58496 4.3125 7.06941H3.3125ZM7.03378 10.8107V11.8107C9.64326 11.8107 11.7551 9.67926 11.7551 7.06941H10.7551H9.75506C9.75506 8.58496 8.52845 9.8107 7.03378 9.8107V10.8107ZM10.7551 7.06941H11.7551C11.7551 4.45956 9.64326 2.32812 7.03378 2.32812V3.32812V4.32812C8.52845 4.32812 9.75506 5.55386 9.75506 7.06941H10.7551ZM7.03378 9.9793V8.9793C5.99542 8.9793 5.13945 8.12669 5.13945 7.06941H4.13945H3.13945C3.13945 9.22132 4.88094 10.9793 7.03378 10.9793V9.9793ZM4.13945 7.06941H5.13945C5.13945 6.01213 5.99542 5.15952 7.03378 5.15952V4.15952V3.15952C4.88094 3.15952 3.13945 4.9175 3.13945 7.06941H4.13945ZM7.03378 4.15952V5.15952C8.07214 5.15952 8.92811 6.01213 8.92811 7.06941H9.92811H10.9281C10.9281 4.9175 9.18662 3.15952 7.03378 3.15952V4.15952ZM9.92811 7.06941H8.92811C8.92811 8.12669 8.07214 8.9793 7.03378 8.9793V9.9793V10.9793C9.18662 10.9793 10.9281 9.22132 10.9281 7.06941H9.92811Z" fill="#0089CF" mask="url(#path-3-inside-2_6710_16680)"/>
</svg>
