<svg width="154" height="95" viewBox="0 0 154 95" fill="none" xmlns="http://www.w3.org/2000/svg">
<g clip-path="url(#clip0_6532_16651)">
<mask id="mask0_6532_16651" style="mask-type:luminance" maskUnits="userSpaceOnUse" x="-6" y="-7" width="164" height="109">
<path d="M157.763 -6.79688H-5.5V101.817H157.763V-6.79688Z" fill="white"/>
</mask>
<g mask="url(#mask0_6532_16651)">
<path d="M152.77 61.1109C153.149 61.3294 153.46 61.6506 153.667 62.0378C153.889 62.4458 154.003 62.9049 153.997 63.3702C154.004 63.8323 153.89 64.2882 153.667 64.6921C153.457 65.0756 153.147 65.3943 152.77 65.6137C152.373 65.8405 151.922 65.9568 151.465 65.9507C151.006 65.9555 150.554 65.8393 150.154 65.6137C149.776 65.3944 149.464 65.0758 149.252 64.6921C149.029 64.2882 148.915 63.8323 148.922 63.3702C148.916 62.9049 149.03 62.4458 149.252 62.0378C149.461 61.6504 149.773 61.3293 150.154 61.1109C150.553 60.8822 151.006 60.7658 151.465 60.7739C151.922 60.7652 152.373 60.8817 152.77 61.1109ZM152.964 64.9185C153.333 64.4877 153.535 63.9384 153.535 63.3702C153.535 62.8021 153.333 62.2527 152.964 61.8219C152.559 61.4336 152.02 61.217 151.46 61.217C150.899 61.217 150.361 61.4336 149.955 61.8219C149.586 62.2527 149.384 62.8021 149.384 63.3702C149.384 63.9384 149.586 64.4877 149.955 64.9185C150.361 65.3068 150.899 65.5234 151.46 65.5234C152.02 65.5234 152.559 65.3068 152.964 64.9185ZM152.403 63.3386C152.272 63.4829 152.097 63.5793 151.905 63.6125L152.676 64.7237H152.02L151.313 63.6283H151.014V64.7237H150.463V61.9536H151.659C151.904 61.9407 152.145 62.0195 152.335 62.1747C152.419 62.2529 152.485 62.3485 152.529 62.4549C152.572 62.5613 152.592 62.676 152.587 62.7909C152.59 62.9829 152.525 63.1698 152.403 63.3175M151.014 63.1543H151.622C151.727 63.1577 151.83 63.1263 151.916 63.0648C151.955 63.0315 151.986 62.9894 152.006 62.9418C152.026 62.8942 152.035 62.8425 152.031 62.7909C152.035 62.7408 152.027 62.6905 152.007 62.6445C151.987 62.5985 151.955 62.5583 151.916 62.5276C151.83 62.468 151.726 62.4384 151.622 62.4433H151.014V63.1543Z" fill="#0089CF"/>
<path d="M30.6113 94.3189H23.4502C22.777 92.1166 22.3842 89.8374 22.2812 87.5359C20.2926 92.5143 16.5355 95.0018 11.0101 94.9983C7.6864 94.9983 5.03376 94.0188 3.02069 92.0597C2.03105 91.1117 1.25047 89.9657 0.729421 88.6957C0.208373 87.4257 -0.0415409 86.0599 -0.00416026 84.6868C-0.00416026 77.2647 6.26572 73.4255 18.8055 73.1692V77.3823C11.4242 77.9054 7.73359 80.1875 7.73359 84.2286C7.71668 84.8945 7.8359 85.5568 8.08386 86.1745C8.33182 86.7923 8.70327 87.3524 9.17524 87.8202C10.1556 88.7998 11.6339 89.2948 13.6103 89.2948C16.4674 89.2948 18.6325 88.3785 20.0951 86.5616C21.525 84.8129 22.2987 82.6155 22.2812 80.3525V77.7194V73.1692V70.673C22.2812 67.2007 19.9273 65.4663 15.2197 65.4698C10.6483 65.4698 8.05512 67.2042 7.44001 70.673L1.04956 69.7145C1.39031 66.9286 2.82672 64.6324 5.32209 62.8313C7.81746 61.0302 11.4609 60.1349 16.2105 60.1349C18.3264 60.0878 20.4398 60.3072 22.5014 60.788C24.0307 61.1677 25.445 61.9161 26.6219 62.9683C27.663 63.8728 28.4631 65.024 28.9495 66.3177C29.4003 67.5131 29.6205 69.567 29.6205 72.4266V87.5359C29.6302 89.8325 29.9638 92.1163 30.6113 94.3189ZM42.9414 94.3189H35.4291V60.8354H42.2022V68.8139C43.1703 65.7138 44.4984 63.4405 46.1864 61.994C47.8745 60.5475 49.6219 59.8295 51.4288 59.84C51.6804 59.84 52.0002 59.84 52.4196 59.8716V67.9871C48.5752 67.9871 46.0414 69.2159 44.8181 71.6736C43.6428 73.8668 43.0014 76.3087 42.9466 78.799L42.9414 94.3189ZM58.0289 94.3189H54.6371V49.0703H62.1232V65.3961C63.5561 62.8998 64.9873 61.2549 66.4167 60.4615C67.9599 59.6333 69.6899 59.2197 71.4389 59.2607C75.0876 59.2607 78.1072 60.8196 80.4978 63.9373C82.8883 67.055 84.0888 71.3734 84.0993 76.8925C84.0993 81.8851 82.918 86.1491 80.5554 89.6845C78.1911 93.2077 74.7888 94.9878 70.38 94.9878C65.9711 94.9878 62.5164 92.9234 60.0263 88.7893L58.0289 94.3189ZM62.1232 80.0102C62.1232 82.9945 62.7698 85.1993 64.0629 86.6248C64.6902 87.3272 65.463 87.8831 66.327 88.2534C67.191 88.6237 68.1253 88.7994 69.0641 88.7682C70.0262 88.7715 70.9761 88.5518 71.8399 88.1261C72.7037 87.7005 73.4581 87.0804 74.0444 86.3141C75.376 84.6762 76.0994 81.4743 76.178 76.6977C76.178 73.2184 75.5752 70.5308 74.3694 68.6349C73.8461 67.7475 73.0965 67.0165 72.1979 66.5175C71.2994 66.0185 70.2845 65.7695 69.2581 65.7963C68.2778 65.7796 67.3068 65.9899 66.4204 66.4109C65.534 66.8319 64.756 67.4524 64.1468 68.2241C62.8047 69.8356 62.1232 72.1159 62.1232 75.0704V80.0102ZM108.964 83.6335L115.779 84.5656C114.917 87.5537 113.112 90.1798 110.636 92.0491C108.078 94.0188 104.877 95.0018 101.032 94.9983C96.4119 94.9983 92.6968 93.4377 89.8869 90.3165C87.0769 87.1953 85.6685 82.9822 85.6615 77.6772C85.6615 72.632 87.0804 68.4505 89.9183 65.1327C92.7492 61.8149 96.6076 60.156 101.452 60.156C106.205 60.156 109.874 61.7903 112.461 65.059C115.047 68.3277 116.343 72.5232 116.35 77.6456L116.324 78.5198H97.0007V73.6432H108.534C108.601 71.4698 107.829 69.3545 106.379 67.7396C105.709 67.0318 104.904 66.4656 104.013 66.0743C103.122 65.6829 102.161 65.4743 101.189 65.4605C100.216 65.4468 99.2506 65.6283 98.3487 65.9943C97.4468 66.3603 96.6267 66.9036 95.9365 67.5921C94.9415 68.6521 94.2371 69.9531 93.892 71.3681C93.0008 74.707 93.2367 78.741 93.7243 82.0852C93.8136 82.7269 93.952 83.3607 94.1384 83.9811C94.6099 85.4049 95.5001 86.6517 96.6915 87.5569C98.064 88.6048 99.7548 89.1443 101.478 89.0842C105.193 89.0842 107.699 87.2743 108.995 83.6545M141.225 83.6545L148.041 84.5867C147.18 87.5744 145.377 90.2006 142.903 92.0702C140.352 94.0398 137.15 95.0229 133.299 95.0194C128.686 95.0194 124.971 93.4588 122.154 90.3376C119.337 87.2164 117.939 83.0033 117.96 77.6983C117.96 72.6531 119.377 68.4716 122.211 65.1538C125.046 61.836 128.89 60.1771 133.745 60.1771C138.494 60.1771 142.164 61.8114 144.754 65.0801C147.343 68.3487 148.633 72.5302 148.622 77.6246V78.4988H129.226V73.6221H140.759C140.82 71.4488 140.046 69.3351 138.599 67.7185C137.93 67.0104 137.126 66.4439 136.236 66.0523C135.345 65.6606 134.386 65.4518 133.414 65.4381C132.442 65.4243 131.477 65.606 130.576 65.9723C129.675 66.3386 128.856 66.8821 128.167 67.5711C127.168 68.6286 126.463 69.9305 126.122 71.347C125.22 74.6859 125.456 78.72 125.944 82.0641C126.037 82.7055 126.177 83.3392 126.363 83.96C126.835 85.3839 127.725 86.6307 128.916 87.5359C130.289 88.5838 131.98 89.1233 133.703 89.0631C137.421 89.0631 139.927 87.2532 141.22 83.6335" fill="#0089CF"/>
<path d="M55.8297 21.1964C52.5794 19.0109 50.257 14.545 45.7853 14.3028C36.1341 13.7761 36.1341 28.6115 45.7853 28.0796C50.257 27.8426 52.6004 23.3872 55.8139 21.1964" fill="#A6CE39"/>
<path d="M61.8281 21.1964C65.0679 19.0004 67.3955 14.545 71.8673 14.3028C81.508 13.7761 81.508 28.6115 71.8673 28.0796C67.3955 27.8426 65.0522 23.3872 61.8281 21.1964Z" fill="#A6CE39"/>
<path d="M59.1465 23.9844C61.3221 27.2337 65.7571 29.572 65.9983 34.0642C66.5225 43.7649 51.76 43.7649 52.279 34.0642C52.5254 29.572 56.9552 27.2179 59.1465 23.9844Z" fill="#0089CF"/>
<path d="M59.1465 17.3513C61.3221 14.102 65.7571 11.7637 65.9983 7.27149C66.5225 -2.41862 51.76 -2.41862 52.279 7.27149C52.5254 11.7637 56.9552 14.1178 59.1465 17.3513Z" fill="#0089CF"/>
</g>
</g>
<defs>
<clipPath id="clip0_6532_16651">
<rect width="154" height="95" fill="white"/>
</clipPath>
</defs>
</svg>
