<svg width="20" height="20" viewBox="0 0 20 20" fill="none" xmlns="http://www.w3.org/2000/svg">
<path d="M11.6714 12.7379C11.1739 13.0696 10.5959 13.245 10 13.245C9.40414 13.245 8.82617 13.0696 8.32859 12.7379L0.133164 7.27414C0.0876953 7.24383 0.0433984 7.21223 0 7.17973V16.1327C0 17.1592 0.833008 17.9739 1.84113 17.9739H18.1588C19.1853 17.9739 20 17.1409 20 16.1327V7.17969C19.9565 7.21227 19.9121 7.24395 19.8665 7.2743L11.6714 12.7379Z" fill="#0089CF"/>
<path d="M0.783203 6.30437L8.97863 11.7682C9.28887 11.975 9.64441 12.0784 9.99996 12.0784C10.3555 12.0784 10.7111 11.975 11.0214 11.7682L19.2168 6.30437C19.7072 5.97762 20 5.43074 20 4.84051C20 3.82562 19.1743 3 18.1595 3H1.84051C0.825664 3.00004 0 3.82566 0 4.84148C0 5.43074 0.292812 5.97762 0.783203 6.30437Z" fill="#0089CF"/>
</svg>
