<svg width="19" height="15" viewBox="0 0 19 15" fill="none" xmlns="http://www.w3.org/2000/svg">
<path d="M17.2595 0.148438H1.70401C0.846068 0.148438 0.148438 0.846068 0.148438 1.70401V12.5929C0.148438 13.4508 0.846068 14.1484 1.70401 14.1484H17.2596C18.1175 14.1484 18.8151 13.4508 18.8151 12.5929V1.70401C18.8151 0.846068 18.1175 0.148438 17.2595 0.148438ZM1.70401 0.926203H17.2596C17.3169 0.926203 17.3674 0.947094 17.4212 0.958906C16.0744 2.19145 11.6089 6.27668 10.0461 7.68467C9.92386 7.79481 9.72677 7.9262 9.48181 7.9262C9.23684 7.9262 9.03975 7.79481 8.91707 7.6843C7.3545 6.27654 2.88868 2.19109 1.54217 0.958979C1.59605 0.947167 1.64666 0.926203 1.70401 0.926203ZM0.926203 12.5929V1.70401C0.926203 1.62781 0.949172 1.55868 0.969734 1.48905C2.00048 2.43244 5.11636 5.2829 7.13673 7.12015C5.12292 8.84998 2.00624 11.8049 0.967292 12.7956C0.948953 12.7294 0.926203 12.6648 0.926203 12.5929ZM17.2595 13.3707H1.70401C1.64188 13.3707 1.58665 13.349 1.52864 13.3352C2.60223 12.3117 5.73874 9.33984 7.71715 7.64733C7.97506 7.88129 8.21065 8.0946 8.39637 8.26195C8.71691 8.55135 9.0921 8.704 9.48177 8.704C9.87144 8.704 10.2466 8.55132 10.5668 8.26231C10.7526 8.0949 10.9883 7.8814 11.2464 7.64733C13.2249 9.33966 16.361 12.3113 17.4349 13.3352C17.3769 13.349 17.3217 13.3707 17.2595 13.3707ZM18.0373 12.5929C18.0373 12.6647 18.0146 12.7294 17.9963 12.7956C16.9569 11.8043 13.8406 8.8498 11.8268 7.12018C13.8473 5.28294 16.9627 2.43273 17.9938 1.48897C18.0144 1.55861 18.0373 1.62777 18.0373 1.70397V12.5929Z" fill="#1A1A1A" stroke="black" stroke-width="0.3"/>
</svg>
