<svg width="20" height="20" viewBox="0 0 20 20" fill="none" xmlns="http://www.w3.org/2000/svg">
<path d="M10.3486 0.508789C14.117 0.508815 17.1883 3.59241 17.1885 7.3877C17.1885 8.43245 16.7834 9.56954 16.6465 9.92578L15.8076 9.69922C15.6876 9.9869 15.4667 10.4182 15.2666 10.7637L15.0771 11.0723L10.3672 18.2471L5.69629 10.2598C6.12186 10.054 6.40433 9.72219 6.50977 9.29395C6.63942 8.7671 6.46832 8.21895 6.21191 7.7959C5.95207 7.3672 5.55227 6.97651 5.08789 6.77832C4.64673 6.59013 4.11617 6.57185 3.65723 6.90332C3.60031 6.93164 3.55388 6.96389 3.51953 6.99805C3.72133 3.38357 6.71004 0.508789 10.3486 0.508789ZM3.68945 8.38379C3.82316 8.8906 4.00385 9.58538 4.23926 10.3584L4.09277 10.0361C4.06524 9.9692 3.75418 9.20631 3.59766 8.31836L3.65723 8.26367C3.66744 8.30218 3.67847 8.34214 3.68945 8.38379ZM4.55078 7.6709C4.59354 7.67963 4.63928 7.69385 4.68848 7.71484C4.91875 7.81312 5.16852 8.03738 5.3418 8.32324C5.51841 8.61464 5.56418 8.88091 5.52246 9.05078C5.49428 9.16522 5.40423 9.33036 5.02539 9.42285C4.88509 8.92922 4.76894 8.4855 4.67383 8.125C4.62998 7.95881 4.58814 7.80481 4.55078 7.6709Z" fill="#0089CF" stroke="#0089CF" stroke-width="1.01748"/>
<path d="M10.3436 3.48438C8.1982 3.48438 6.45312 5.23926 6.45312 7.39572C6.45312 9.55217 8.1982 11.3071 10.3436 11.3071C12.4889 11.3071 14.234 9.55217 14.234 7.39572C14.234 5.23926 12.4889 3.48438 10.3436 3.48438ZM10.3436 10.4379C10.3164 7.32315 7.18004 8.36861 7.31766 7.39572C6.65732 7.39572 8.67542 11.3071 10.3436 11.3071C12.0117 11.3071 12.6273 7.25059 11.8846 6.2777C11.8846 7.95523 12.0117 10.4379 10.3436 10.4379Z" fill="white"/>
</svg>
