<svg width="32" height="32" viewBox="0 0 32 32" fill="none" xmlns="http://www.w3.org/2000/svg">
<path d="M16.5 0C7.95329 0 1 6.95329 1 15.5C1 24.0467 7.95329 31 16.5 31C25.0467 31 32 24.0468 32 15.5C32 6.95323 25.0467 0 16.5 0ZM16.5 29.0625C9.02164 29.0625 2.93751 22.9784 2.93751 15.5C2.93751 8.02164 9.02164 1.93751 16.5 1.93751C23.9784 1.93751 30.0625 8.02158 30.0625 15.5C30.0625 22.9784 23.9784 29.0625 16.5 29.0625ZM25.0977 15.5C25.0977 16.0351 24.6639 16.4688 24.1289 16.4688H17.4688L14.5625 16.4687C14.8854 16.4687 16.1771 15.5 16.1771 16.1458C20.0521 15.1771 19.0833 16.4688 18.7604 16.4688H15.5312H8.87106C8.33607 16.4688 7.90231 16.0351 7.90231 15.5C7.90231 14.9649 8.33607 14.5312 8.87106 14.5312H15.5312H15.8542C15.5312 14.8542 13.0588 15.5 13.5937 15.5C14.1287 15.5 11.6562 15.8229 13.2708 14.5312H17.4688H24.1289C24.6639 14.5312 25.0977 14.965 25.0977 15.5Z" fill="white"/>
</svg>
