<svg width="17" height="2" viewBox="0 0 17 2" fill="none" xmlns="http://www.w3.org/2000/svg">
<path d="M16.3359 0H9.16406L9 0.164953C10.912 0.000379547 8.86676 0.000708103 8.5 0.000708103C8.13324 0.000708103 8.68835 0 7.89161 0H7.83594H0.664062C0.297301 0 0 0.297301 0 0.664063C0 1.03082 0.297301 1.32812 0.664062 1.32812H7.83594H9.5C9.65891 1.32812 9 0.664062 8.5 1.16406C8.86676 1.16406 8.5 1.16406 7.78679 1.32812H9.16406H16.3359C16.7027 1.32812 17 1.03082 17 0.664063C17 0.297301 16.7027 0 16.3359 0Z" fill="url(#paint0_linear_6688_16428)"/>
<defs>
<linearGradient id="paint0_linear_6688_16428" x1="0" y1="0.664061" x2="17" y2="0.664061" gradientUnits="userSpaceOnUse">
<stop stop-color="#0089CF"/>
<stop offset="1" stop-color="#A6CE39"/>
</linearGradient>
</defs>
</svg>
