<svg width="18" height="20" viewBox="0 0 18 20" fill="none" xmlns="http://www.w3.org/2000/svg">
<path d="M8.69258 10.6977C5.74375 10.6977 3.34375 8.29766 3.34375 5.34883C3.34375 2.4 5.74375 0 8.69258 0C11.6414 0 14.0414 2.4 14.0414 5.34883C14.0414 8.29766 11.6414 10.6977 8.69258 10.6977ZM8.69258 1.39535C6.51584 1.39535 4.7391 3.17209 4.7391 5.34883C4.7391 7.52557 6.51584 9.30231 8.69258 9.30231C10.8693 9.30231 12.6461 7.52557 12.6461 5.34883C12.6461 3.17209 10.8693 1.39535 8.69258 1.39535Z" fill="#1A1A1A"/>
<path d="M16.679 20.0007C16.2976 20.0007 15.9813 19.6844 15.9813 19.303C15.9813 16.0937 12.707 13.4891 8.68839 13.4891C4.66975 13.4891 1.39535 16.0937 1.39535 19.303C1.39535 19.6844 1.07907 20.0007 0.697673 20.0007C0.316278 20.0007 0 19.6844 0 19.303C0 15.331 3.89766 12.0938 8.68839 12.0938C13.4791 12.0938 17.3767 15.331 17.3767 19.303C17.3767 19.6844 17.0604 20.0007 16.679 20.0007Z" fill="#1A1A1A"/>
</svg>
