<svg width="46" height="46" viewBox="0 0 46 46" fill="none" xmlns="http://www.w3.org/2000/svg">
<path d="M43.7856 36.5589C44.9732 33.2302 45.7699 25.9094 38.8749 13.0325L39.52 6.78562C39.52 6.77789 39.52 6.77075 39.52 6.76361C39.52 6.75647 39.52 6.73862 39.52 6.72553C39.5187 6.68509 39.5116 6.64504 39.499 6.60655C39.496 6.59486 39.4924 6.58334 39.4882 6.57204C39.4688 6.52456 39.4413 6.48069 39.407 6.44234C39.4022 6.43699 39.3956 6.43342 39.3908 6.42866C39.3699 6.40652 39.3467 6.38658 39.3216 6.36917C39.3132 6.36381 39.3024 6.365 39.294 6.36024C39.2855 6.35548 39.2723 6.3412 39.2585 6.33525C36.1636 4.95558 32.4903 4.4481 29.6029 4.16372L24.5267 0.534575C24.0437 0.189205 23.4635 0.00226137 22.8677 2.03857e-05C22.2718 -0.0022206 21.6901 0.180354 21.2045 0.522081L15.0713 4.83719C11.4329 5.44344 8.52137 5.94557 6.93636 6.39534H6.93094C6.90559 6.40416 6.88105 6.41511 6.85759 6.42806C6.84315 6.4358 6.82632 6.44056 6.81249 6.44948H6.80948C6.79078 6.46372 6.77329 6.47944 6.75717 6.49648C6.74265 6.508 6.7288 6.52031 6.71568 6.53337C6.68357 6.57545 6.65784 6.62195 6.63932 6.6714C6.62761 6.70136 6.61914 6.73247 6.61406 6.76421V6.76837C6.61316 6.78422 6.61316 6.80011 6.61406 6.81597C6.61196 6.83972 6.61196 6.86361 6.61406 6.88736L7.53825 12.9445C6.61346 14.5103 -0.679674 27.2724 2.82529 35.9229L0.278794 39.3373C0.158183 39.4979 0.0738247 39.6823 0.031417 39.878C-0.0109907 40.0737 -0.01046 40.2761 0.0329731 40.4716C0.0764062 40.6671 0.16173 40.851 0.283182 41.0111C0.404634 41.1711 0.559385 41.3035 0.736982 41.3993C3.39772 42.8313 10.5159 46.0006 21.323 46C27.9282 46 35.9129 44.8161 45.0953 41.3273C45.2977 41.2511 45.4795 41.1293 45.6262 40.9717C45.7729 40.814 45.8806 40.6248 45.9407 40.4189C46.0033 40.2119 46.0166 39.9934 45.9794 39.7806C45.9423 39.5677 45.8558 39.3663 45.7266 39.1921L43.7856 36.5589ZM8.41014 12.6803L7.64108 7.63639C8.25259 7.94041 9.19783 8.3765 10.4149 8.84115C10.4751 8.88311 10.5449 8.90949 10.6181 8.91789C15.6179 10.792 24.9891 13.0307 35.2112 9.04164C35.2435 9.03308 35.2748 9.0209 35.3044 9.00535C36.4076 8.57306 37.4866 8.08273 38.5369 7.53644L37.9958 12.7814C25.4299 16.5688 10.6133 13.2181 8.41014 12.6803ZM8.32114 6.97422C9.68007 6.66961 11.5134 6.34299 13.3762 6.02767L10.6199 7.96599C9.65482 7.59296 8.88095 7.24492 8.32114 6.97422ZM38.0036 6.79574C37.0391 7.2943 36.0796 7.73376 35.1252 8.11413L31.0911 5.23045C33.4498 5.4776 35.7703 6.00207 38.0036 6.79276V6.79574ZM21.7271 1.25088C22.0589 1.01707 22.4566 0.892113 22.864 0.893607C23.2714 0.895101 23.6681 1.02297 23.9982 1.25921L34.124 8.49727C24.9206 11.8224 16.506 10.0507 11.6421 8.3414L15.4646 5.65345C15.4796 5.64512 15.4946 5.6356 15.509 5.62608L21.7271 1.25088ZM45.076 40.166C45.0544 40.2403 45.0157 40.3086 44.9629 40.3656C44.9101 40.4226 44.8447 40.4667 44.7718 40.4944C20.9249 49.5518 5.36817 42.8742 1.16751 40.6134C1.10354 40.5796 1.0478 40.5323 1.00418 40.475C0.960563 40.4177 0.930116 40.3516 0.914966 40.2814C0.898357 40.2097 0.897769 40.1353 0.913244 40.0634C0.928719 39.9915 0.959884 39.9237 1.00456 39.865L3.70258 36.2483C3.74905 36.1857 3.77825 36.1121 3.78732 36.035C3.79638 35.9578 3.785 35.8796 3.75429 35.8081C0.326898 27.8775 7.07886 15.5521 8.22854 13.5537C8.91102 13.7197 10.5934 14.1034 12.9469 14.4842C11.79 15.9578 9.76005 19.5334 9.67827 26.5692C9.67756 26.6278 9.68851 26.686 9.71052 26.7404C9.73252 26.7948 9.76515 26.8444 9.80652 26.8863C9.8479 26.9282 9.89721 26.9617 9.95166 26.9848C10.0061 27.0078 10.0646 27.0201 10.1238 27.0208H10.1323C10.251 27.0206 10.3649 26.9742 10.4493 26.8916C10.5337 26.809 10.5818 26.6968 10.5832 26.5793C10.6656 19.5626 12.7058 16.1857 13.7539 14.9107C14.6901 19.9987 14.4321 23.0829 14.0359 24.7868C13.6899 26.2357 13.5599 27.7269 13.6498 29.2131C13.8904 32.8149 14.0365 35.056 14.0401 35.2048C14.0401 35.3231 14.0876 35.4366 14.1722 35.5203C14.2567 35.604 14.3714 35.651 14.4911 35.651C14.6107 35.651 14.7254 35.604 14.8099 35.5203C14.8945 35.4366 14.942 35.3231 14.942 35.2048C14.942 35.0793 14.8103 33.044 14.55 29.1536C14.4659 27.7553 14.5889 26.3522 14.915 24.989C15.3305 23.2042 15.6047 19.9862 14.639 14.7406C17.9329 15.2051 21.2554 15.4436 24.5826 15.4545C29.1801 15.5078 33.7612 14.9012 38.1828 13.6536C44.957 26.3961 44.028 33.414 42.8578 36.4726C42.8318 36.5422 42.8237 36.6172 42.8342 36.6907C42.8447 36.7643 42.8735 36.834 42.918 36.8938L45.0009 39.7168C45.0476 39.7809 45.0787 39.8548 45.0917 39.9327C45.1048 40.0106 45.0994 40.0905 45.076 40.166Z" fill="#1A1A1A"/>
</svg>
