<svg width="47" height="46" viewBox="0 0 47 46" fill="none" xmlns="http://www.w3.org/2000/svg">
<mask id="path-1-inside-1_6688_16570" fill="white">
<path d="M46.9741 39.6999C46.8508 38.8261 46.281 37.3812 43.9315 36.8603C44.1532 35.6488 44.5576 33.295 44.817 30.9118C44.8371 30.6985 44.7752 30.4855 44.6447 30.319C44.5142 30.1525 44.3255 30.0457 44.1196 30.0219C43.9136 29.998 43.7069 30.059 43.544 30.1915C43.3811 30.324 43.2752 30.5176 43.2491 30.7302C42.888 34.0597 42.2349 37.3358 42.228 37.3684C42.2064 37.48 42.2074 37.595 42.2311 37.7062C42.2548 37.8173 42.3006 37.9221 42.3655 38.014C42.4305 38.1058 42.5133 38.1827 42.6085 38.2397C42.7037 38.2966 42.8094 38.3325 42.9188 38.345C43.9699 38.4589 45.2568 38.8269 45.4162 39.9515C45.42 39.9746 45.43 40.036 45.3376 40.0734C44.2461 40.3659 43.1039 40.3924 42.0008 40.1507C41.8211 40.1138 41.6345 40.1431 41.4733 40.2335C27.6883 47.1807 13.1716 43.8195 7.40103 41.6945C5.54541 41.7119 3.69855 41.4294 1.92723 40.8572C1.83816 40.8232 1.76007 40.764 1.70182 40.6864C1.64357 40.6089 1.60747 40.516 1.59761 40.4183C1.58459 40.3232 1.5976 40.2262 1.63516 40.1384C1.67273 40.0505 1.73335 39.9753 1.81015 39.9213C2.50461 39.4783 3.26883 39.1647 4.06804 38.9949C4.22404 38.9636 4.3673 38.8844 4.47912 38.7676C4.59093 38.6508 4.66613 38.5018 4.69489 38.3402C5.82956 31.8738 8.0023 29.3811 9.0044 28.544C10.2066 30.1797 11.7291 32.0845 13.7425 32.8555C13.9148 32.852 14.0813 32.7906 14.2169 32.6805C14.3524 32.5705 14.4496 32.4177 14.4937 32.2454C14.5379 32.0731 14.5265 31.8906 14.4614 31.7256C14.3963 31.5606 14.2811 31.422 14.133 31.3307C9.95589 28.877 7.95083 23.3829 7.22806 20.8834C10.9756 21.714 16.639 21.612 21.6129 20.921C21.8183 20.8907 22.0039 20.778 22.1295 20.6073C22.2551 20.4366 22.3106 20.2215 22.2841 20.0087C22.2576 19.7959 22.1511 19.6025 21.9877 19.4703C21.8243 19.3382 21.6171 19.2779 21.411 19.3025C11.9794 20.4983 7.78768 19.4198 6.0741 18.894C5.34959 18.2768 4.84248 17.4294 4.63157 16.4834C4.42066 15.5374 4.51777 14.5459 4.90781 13.6628C6.17079 14.1074 9.11096 14.8874 14.2139 14.8874C19.7384 14.5541 32.7815 15.2546 37.6634 4.95571C38.1922 5.25962 38.6132 5.73039 38.865 6.29931C39.5243 8.09462 39.7718 10.0237 39.5882 11.9347C37.3472 15.014 28.0954 17.9134 24.5792 18.8063C24.4749 18.8246 24.3752 18.8643 24.2861 18.9232C24.1969 18.9821 24.1201 19.0589 24.0602 19.1491C24.0003 19.2393 23.9585 19.3411 23.9374 19.4483C23.9162 19.5555 23.9161 19.6661 23.9371 19.7733C23.9581 19.8806 23.9996 19.9824 24.0594 20.0727C24.1191 20.163 24.1958 20.24 24.2849 20.299C24.3739 20.3581 24.4736 20.3981 24.5779 20.4165C24.6821 20.435 24.789 20.4316 24.8919 20.4065C25.3205 20.2354 34.8689 17.9485 39.28 14.4442C41.0723 17.744 42.4329 21.2755 43.3261 24.9459C43.473 25.8017 43.525 26.6721 43.4809 27.5402C43.4762 27.7565 43.5548 27.9659 43.6993 28.1223C43.8439 28.2787 44.0426 28.3693 44.2517 28.3741C46.5688 28.1873 43.9102 19.7574 40.4754 13.3052C40.731 13.0117 40.9515 12.6875 41.1322 12.3395C41.3857 10.0684 41.1018 7.76754 40.305 5.63504C39.3601 3.43261 37.3301 2.91308 35.1447 2.63306C34.9395 2.60484 34.7319 2.66113 34.5665 2.78979C34.4011 2.91845 34.2912 3.10918 34.2605 3.32086C34.2298 3.53254 34.2808 3.74823 34.4024 3.92141C34.524 4.0946 34.7065 4.21143 34.9107 4.24671C35.3652 4.317 35.7748 4.39301 36.1423 4.46525C33.1362 11.2051 23.9085 12.4627 23.7961 12.478C13.4177 14.0254 7.83156 12.8621 5.78424 12.2328C6.34957 11.5026 6.97784 10.8269 7.66131 10.2142C7.8153 10.0712 7.90875 9.87121 7.92151 9.65751C7.93426 9.44381 7.8653 9.23349 7.72949 9.07191C7.59368 8.91032 7.40191 8.81042 7.19554 8.79376C6.98917 8.77709 6.78473 8.84499 6.62632 8.98282C5.56609 9.92669 4.63084 11.0111 3.84478 12.2079C2.84082 13.7324 2.01176 18.0757 5.45848 20.399C6.04009 22.7765 6.94241 25.0574 8.13888 27.1746C6.89851 28.1565 4.5076 30.8405 3.23873 37.5246C2.06507 37.8201 -0.30317 38.7751 0.0321992 40.6183C0.0778985 41.0103 0.226395 41.3819 0.461612 41.6928C0.696829 42.0038 1.0098 42.2423 1.36666 42.3825C3.256 42.9992 5.22503 43.315 7.2062 43.3192C13.7194 45.9787 29.5893 48.2964 41.9801 41.8034C43.0535 42.0373 47.3731 42.3526 46.9741 39.6999Z"/>
<path d="M16.7021 1.90809C17.397 2.1037 18.0264 2.49375 18.5209 3.03534C19.0155 3.57692 19.356 4.24907 19.5052 4.97788C19.5498 5.1619 19.6548 5.3242 19.8022 5.43702C19.9497 5.54984 20.1304 5.60617 20.3136 5.59638C20.4968 5.58659 20.671 5.51129 20.8064 5.38336C20.9419 5.25542 21.0301 5.08279 21.0561 4.89499C21.1355 4.37322 21.2737 3.86289 21.4681 3.37448C21.6912 2.78161 22.1064 2.28725 22.6428 1.97582C23.1791 1.66438 23.8034 1.55519 24.4089 1.66689C25.0144 1.77859 25.5637 2.10425 25.9629 2.58826C26.3621 3.07227 26.5864 3.68461 26.5977 4.3207C26.5815 4.48241 26.6118 4.64546 26.6846 4.7895C26.7575 4.93355 26.8697 5.05221 27.0074 5.1307C27.145 5.20919 27.302 5.24403 27.4586 5.23086C27.6153 5.2177 27.7647 5.15712 27.8883 5.05668C28.8529 4.25246 30.5757 3.6785 31.3767 5.55063C31.4747 5.73866 31.6401 5.87944 31.8373 5.94275C32.0346 6.00606 32.248 5.98684 32.4317 5.88922C32.6154 5.7916 32.7547 5.62337 32.8198 5.42064C32.8849 5.21792 32.8706 4.99688 32.7798 4.80499C32.596 4.35123 32.322 3.94249 31.9757 3.60526C31.6294 3.26803 31.2184 3.00984 30.7694 2.84742C30.3204 2.685 29.8434 2.62197 29.3694 2.66243C28.8953 2.70289 28.4348 2.84592 28.0176 3.08226C27.8025 2.32755 27.3892 1.6493 26.8239 1.12284C26.2585 0.596382 25.5631 0.24232 24.8149 0.0999794C23.8883 -0.109348 22.9204 0.0121318 22.069 0.44462C21.2177 0.877107 20.533 1.5951 20.1267 2.48158C19.6816 1.70706 16.8298 -0.733773 16.1962 0.879672C16.1641 0.981557 16.1518 1.08898 16.1598 1.1958C16.1679 1.30263 16.1962 1.40676 16.2432 1.50226C16.2902 1.59776 16.3549 1.68275 16.4336 1.75238C16.5124 1.82201 16.6036 1.87492 16.7021 1.90809Z"/>
<path d="M11.2638 10.8769C11.4548 10.958 11.6691 10.9583 11.8604 10.8778C12.0517 10.7973 12.2048 10.6423 12.2868 10.4463C12.3688 10.2502 12.3732 10.0286 12.2989 9.82929C12.2247 9.62993 12.0778 9.46867 11.8898 9.38017C10.3433 8.60023 10.0505 7.55314 11.6358 6.26344C11.7306 6.18219 11.8059 6.07922 11.8556 5.96267C11.9053 5.84613 11.9281 5.71921 11.9222 5.59197C11.8454 5.00573 12.1655 2.14985 14.0184 1.74243C14.2187 1.68016 14.3869 1.53823 14.4861 1.34781C14.5852 1.15739 14.6073 0.934048 14.5474 0.726819C13.9615 -0.746101 11.8686 1.00391 11.3793 1.77335C10.729 2.81421 10.3715 4.02164 10.3466 5.26063C7.70901 7.6406 9.41407 10.0956 11.2638 10.8769Z"/>
</mask>
<path d="M46.9741 39.6999C46.8508 38.8261 46.281 37.3812 43.9315 36.8603C44.1532 35.6488 44.5576 33.295 44.817 30.9118C44.8371 30.6985 44.7752 30.4855 44.6447 30.319C44.5142 30.1525 44.3255 30.0457 44.1196 30.0219C43.9136 29.998 43.7069 30.059 43.544 30.1915C43.3811 30.324 43.2752 30.5176 43.2491 30.7302C42.888 34.0597 42.2349 37.3358 42.228 37.3684C42.2064 37.48 42.2074 37.595 42.2311 37.7062C42.2548 37.8173 42.3006 37.9221 42.3655 38.014C42.4305 38.1058 42.5133 38.1827 42.6085 38.2397C42.7037 38.2966 42.8094 38.3325 42.9188 38.345C43.9699 38.4589 45.2568 38.8269 45.4162 39.9515C45.42 39.9746 45.43 40.036 45.3376 40.0734C44.2461 40.3659 43.1039 40.3924 42.0008 40.1507C41.8211 40.1138 41.6345 40.1431 41.4733 40.2335C27.6883 47.1807 13.1716 43.8195 7.40103 41.6945C5.54541 41.7119 3.69855 41.4294 1.92723 40.8572C1.83816 40.8232 1.76007 40.764 1.70182 40.6864C1.64357 40.6089 1.60747 40.516 1.59761 40.4183C1.58459 40.3232 1.5976 40.2262 1.63516 40.1384C1.67273 40.0505 1.73335 39.9753 1.81015 39.9213C2.50461 39.4783 3.26883 39.1647 4.06804 38.9949C4.22404 38.9636 4.3673 38.8844 4.47912 38.7676C4.59093 38.6508 4.66613 38.5018 4.69489 38.3402C5.82956 31.8738 8.0023 29.3811 9.0044 28.544C10.2066 30.1797 11.7291 32.0845 13.7425 32.8555C13.9148 32.852 14.0813 32.7906 14.2169 32.6805C14.3524 32.5705 14.4496 32.4177 14.4937 32.2454C14.5379 32.0731 14.5265 31.8906 14.4614 31.7256C14.3963 31.5606 14.2811 31.422 14.133 31.3307C9.95589 28.877 7.95083 23.3829 7.22806 20.8834C10.9756 21.714 16.639 21.612 21.6129 20.921C21.8183 20.8907 22.0039 20.778 22.1295 20.6073C22.2551 20.4366 22.3106 20.2215 22.2841 20.0087C22.2576 19.7959 22.1511 19.6025 21.9877 19.4703C21.8243 19.3382 21.6171 19.2779 21.411 19.3025C11.9794 20.4983 7.78768 19.4198 6.0741 18.894C5.34959 18.2768 4.84248 17.4294 4.63157 16.4834C4.42066 15.5374 4.51777 14.5459 4.90781 13.6628C6.17079 14.1074 9.11096 14.8874 14.2139 14.8874C19.7384 14.5541 32.7815 15.2546 37.6634 4.95571C38.1922 5.25962 38.6132 5.73039 38.865 6.29931C39.5243 8.09462 39.7718 10.0237 39.5882 11.9347C37.3472 15.014 28.0954 17.9134 24.5792 18.8063C24.4749 18.8246 24.3752 18.8643 24.2861 18.9232C24.1969 18.9821 24.1201 19.0589 24.0602 19.1491C24.0003 19.2393 23.9585 19.3411 23.9374 19.4483C23.9162 19.5555 23.9161 19.6661 23.9371 19.7733C23.9581 19.8806 23.9996 19.9824 24.0594 20.0727C24.1191 20.163 24.1958 20.24 24.2849 20.299C24.3739 20.3581 24.4736 20.3981 24.5779 20.4165C24.6821 20.435 24.789 20.4316 24.8919 20.4065C25.3205 20.2354 34.8689 17.9485 39.28 14.4442C41.0723 17.744 42.4329 21.2755 43.3261 24.9459C43.473 25.8017 43.525 26.6721 43.4809 27.5402C43.4762 27.7565 43.5548 27.9659 43.6993 28.1223C43.8439 28.2787 44.0426 28.3693 44.2517 28.3741C46.5688 28.1873 43.9102 19.7574 40.4754 13.3052C40.731 13.0117 40.9515 12.6875 41.1322 12.3395C41.3857 10.0684 41.1018 7.76754 40.305 5.63504C39.3601 3.43261 37.3301 2.91308 35.1447 2.63306C34.9395 2.60484 34.7319 2.66113 34.5665 2.78979C34.4011 2.91845 34.2912 3.10918 34.2605 3.32086C34.2298 3.53254 34.2808 3.74823 34.4024 3.92141C34.524 4.0946 34.7065 4.21143 34.9107 4.24671C35.3652 4.317 35.7748 4.39301 36.1423 4.46525C33.1362 11.2051 23.9085 12.4627 23.7961 12.478C13.4177 14.0254 7.83156 12.8621 5.78424 12.2328C6.34957 11.5026 6.97784 10.8269 7.66131 10.2142C7.8153 10.0712 7.90875 9.87121 7.92151 9.65751C7.93426 9.44381 7.8653 9.23349 7.72949 9.07191C7.59368 8.91032 7.40191 8.81042 7.19554 8.79376C6.98917 8.77709 6.78473 8.84499 6.62632 8.98282C5.56609 9.92669 4.63084 11.0111 3.84478 12.2079C2.84082 13.7324 2.01176 18.0757 5.45848 20.399C6.04009 22.7765 6.94241 25.0574 8.13888 27.1746C6.89851 28.1565 4.5076 30.8405 3.23873 37.5246C2.06507 37.8201 -0.30317 38.7751 0.0321992 40.6183C0.0778985 41.0103 0.226395 41.3819 0.461612 41.6928C0.696829 42.0038 1.0098 42.2423 1.36666 42.3825C3.256 42.9992 5.22503 43.315 7.2062 43.3192C13.7194 45.9787 29.5893 48.2964 41.9801 41.8034C43.0535 42.0373 47.3731 42.3526 46.9741 39.6999Z" fill="black"/>
<path d="M16.7021 1.90809C17.397 2.1037 18.0264 2.49375 18.5209 3.03534C19.0155 3.57692 19.356 4.24907 19.5052 4.97788C19.5498 5.1619 19.6548 5.3242 19.8022 5.43702C19.9497 5.54984 20.1304 5.60617 20.3136 5.59638C20.4968 5.58659 20.671 5.51129 20.8064 5.38336C20.9419 5.25542 21.0301 5.08279 21.0561 4.89499C21.1355 4.37322 21.2737 3.86289 21.4681 3.37448C21.6912 2.78161 22.1064 2.28725 22.6428 1.97582C23.1791 1.66438 23.8034 1.55519 24.4089 1.66689C25.0144 1.77859 25.5637 2.10425 25.9629 2.58826C26.3621 3.07227 26.5864 3.68461 26.5977 4.3207C26.5815 4.48241 26.6118 4.64546 26.6846 4.7895C26.7575 4.93355 26.8697 5.05221 27.0074 5.1307C27.145 5.20919 27.302 5.24403 27.4586 5.23086C27.6153 5.2177 27.7647 5.15712 27.8883 5.05668C28.8529 4.25246 30.5757 3.6785 31.3767 5.55063C31.4747 5.73866 31.6401 5.87944 31.8373 5.94275C32.0346 6.00606 32.248 5.98684 32.4317 5.88922C32.6154 5.7916 32.7547 5.62337 32.8198 5.42064C32.8849 5.21792 32.8706 4.99688 32.7798 4.80499C32.596 4.35123 32.322 3.94249 31.9757 3.60526C31.6294 3.26803 31.2184 3.00984 30.7694 2.84742C30.3204 2.685 29.8434 2.62197 29.3694 2.66243C28.8953 2.70289 28.4348 2.84592 28.0176 3.08226C27.8025 2.32755 27.3892 1.6493 26.8239 1.12284C26.2585 0.596382 25.5631 0.24232 24.8149 0.0999794C23.8883 -0.109348 22.9204 0.0121318 22.069 0.44462C21.2177 0.877107 20.533 1.5951 20.1267 2.48158C19.6816 1.70706 16.8298 -0.733773 16.1962 0.879672C16.1641 0.981557 16.1518 1.08898 16.1598 1.1958C16.1679 1.30263 16.1962 1.40676 16.2432 1.50226C16.2902 1.59776 16.3549 1.68275 16.4336 1.75238C16.5124 1.82201 16.6036 1.87492 16.7021 1.90809Z" fill="black"/>
<path d="M11.2638 10.8769C11.4548 10.958 11.6691 10.9583 11.8604 10.8778C12.0517 10.7973 12.2048 10.6423 12.2868 10.4463C12.3688 10.2502 12.3732 10.0286 12.2989 9.82929C12.2247 9.62993 12.0778 9.46867 11.8898 9.38017C10.3433 8.60023 10.0505 7.55314 11.6358 6.26344C11.7306 6.18219 11.8059 6.07922 11.8556 5.96267C11.9053 5.84613 11.9281 5.71921 11.9222 5.59197C11.8454 5.00573 12.1655 2.14985 14.0184 1.74243C14.2187 1.68016 14.3869 1.53823 14.4861 1.34781C14.5852 1.15739 14.6073 0.934048 14.5474 0.726819C13.9615 -0.746101 11.8686 1.00391 11.3793 1.77335C10.729 2.81421 10.3715 4.02164 10.3466 5.26063C7.70901 7.6406 9.41407 10.0956 11.2638 10.8769Z" fill="black"/>
<path d="M46.9741 39.6999C46.8508 38.8261 46.281 37.3812 43.9315 36.8603C44.1532 35.6488 44.5576 33.295 44.817 30.9118C44.8371 30.6985 44.7752 30.4855 44.6447 30.319C44.5142 30.1525 44.3255 30.0457 44.1196 30.0219C43.9136 29.998 43.7069 30.059 43.544 30.1915C43.3811 30.324 43.2752 30.5176 43.2491 30.7302C42.888 34.0597 42.2349 37.3358 42.228 37.3684C42.2064 37.48 42.2074 37.595 42.2311 37.7062C42.2548 37.8173 42.3006 37.9221 42.3655 38.014C42.4305 38.1058 42.5133 38.1827 42.6085 38.2397C42.7037 38.2966 42.8094 38.3325 42.9188 38.345C43.9699 38.4589 45.2568 38.8269 45.4162 39.9515C45.42 39.9746 45.43 40.036 45.3376 40.0734C44.2461 40.3659 43.1039 40.3924 42.0008 40.1507C41.8211 40.1138 41.6345 40.1431 41.4733 40.2335C27.6883 47.1807 13.1716 43.8195 7.40103 41.6945C5.54541 41.7119 3.69855 41.4294 1.92723 40.8572C1.83816 40.8232 1.76007 40.764 1.70182 40.6864C1.64357 40.6089 1.60747 40.516 1.59761 40.4183C1.58459 40.3232 1.5976 40.2262 1.63516 40.1384C1.67273 40.0505 1.73335 39.9753 1.81015 39.9213C2.50461 39.4783 3.26883 39.1647 4.06804 38.9949C4.22404 38.9636 4.3673 38.8844 4.47912 38.7676C4.59093 38.6508 4.66613 38.5018 4.69489 38.3402C5.82956 31.8738 8.0023 29.3811 9.0044 28.544C10.2066 30.1797 11.7291 32.0845 13.7425 32.8555C13.9148 32.852 14.0813 32.7906 14.2169 32.6805C14.3524 32.5705 14.4496 32.4177 14.4937 32.2454C14.5379 32.0731 14.5265 31.8906 14.4614 31.7256C14.3963 31.5606 14.2811 31.422 14.133 31.3307C9.95589 28.877 7.95083 23.3829 7.22806 20.8834C10.9756 21.714 16.639 21.612 21.6129 20.921C21.8183 20.8907 22.0039 20.778 22.1295 20.6073C22.2551 20.4366 22.3106 20.2215 22.2841 20.0087C22.2576 19.7959 22.1511 19.6025 21.9877 19.4703C21.8243 19.3382 21.6171 19.2779 21.411 19.3025C11.9794 20.4983 7.78768 19.4198 6.0741 18.894C5.34959 18.2768 4.84248 17.4294 4.63157 16.4834C4.42066 15.5374 4.51777 14.5459 4.90781 13.6628C6.17079 14.1074 9.11096 14.8874 14.2139 14.8874C19.7384 14.5541 32.7815 15.2546 37.6634 4.95571C38.1922 5.25962 38.6132 5.73039 38.865 6.29931C39.5243 8.09462 39.7718 10.0237 39.5882 11.9347C37.3472 15.014 28.0954 17.9134 24.5792 18.8063C24.4749 18.8246 24.3752 18.8643 24.2861 18.9232C24.1969 18.9821 24.1201 19.0589 24.0602 19.1491C24.0003 19.2393 23.9585 19.3411 23.9374 19.4483C23.9162 19.5555 23.9161 19.6661 23.9371 19.7733C23.9581 19.8806 23.9996 19.9824 24.0594 20.0727C24.1191 20.163 24.1958 20.24 24.2849 20.299C24.3739 20.3581 24.4736 20.3981 24.5779 20.4165C24.6821 20.435 24.789 20.4316 24.8919 20.4065C25.3205 20.2354 34.8689 17.9485 39.28 14.4442C41.0723 17.744 42.4329 21.2755 43.3261 24.9459C43.473 25.8017 43.525 26.6721 43.4809 27.5402C43.4762 27.7565 43.5548 27.9659 43.6993 28.1223C43.8439 28.2787 44.0426 28.3693 44.2517 28.3741C46.5688 28.1873 43.9102 19.7574 40.4754 13.3052C40.731 13.0117 40.9515 12.6875 41.1322 12.3395C41.3857 10.0684 41.1018 7.76754 40.305 5.63504C39.3601 3.43261 37.3301 2.91308 35.1447 2.63306C34.9395 2.60484 34.7319 2.66113 34.5665 2.78979C34.4011 2.91845 34.2912 3.10918 34.2605 3.32086C34.2298 3.53254 34.2808 3.74823 34.4024 3.92141C34.524 4.0946 34.7065 4.21143 34.9107 4.24671C35.3652 4.317 35.7748 4.39301 36.1423 4.46525C33.1362 11.2051 23.9085 12.4627 23.7961 12.478C13.4177 14.0254 7.83156 12.8621 5.78424 12.2328C6.34957 11.5026 6.97784 10.8269 7.66131 10.2142C7.8153 10.0712 7.90875 9.87121 7.92151 9.65751C7.93426 9.44381 7.8653 9.23349 7.72949 9.07191C7.59368 8.91032 7.40191 8.81042 7.19554 8.79376C6.98917 8.77709 6.78473 8.84499 6.62632 8.98282C5.56609 9.92669 4.63084 11.0111 3.84478 12.2079C2.84082 13.7324 2.01176 18.0757 5.45848 20.399C6.04009 22.7765 6.94241 25.0574 8.13888 27.1746C6.89851 28.1565 4.5076 30.8405 3.23873 37.5246C2.06507 37.8201 -0.30317 38.7751 0.0321992 40.6183C0.0778985 41.0103 0.226395 41.3819 0.461612 41.6928C0.696829 42.0038 1.0098 42.2423 1.36666 42.3825C3.256 42.9992 5.22503 43.315 7.2062 43.3192C13.7194 45.9787 29.5893 48.2964 41.9801 41.8034C43.0535 42.0373 47.3731 42.3526 46.9741 39.6999Z" stroke="white" stroke-width="0.8" mask="url(#path-1-inside-1_6688_16570)"/>
<path d="M16.7021 1.90809C17.397 2.1037 18.0264 2.49375 18.5209 3.03534C19.0155 3.57692 19.356 4.24907 19.5052 4.97788C19.5498 5.1619 19.6548 5.3242 19.8022 5.43702C19.9497 5.54984 20.1304 5.60617 20.3136 5.59638C20.4968 5.58659 20.671 5.51129 20.8064 5.38336C20.9419 5.25542 21.0301 5.08279 21.0561 4.89499C21.1355 4.37322 21.2737 3.86289 21.4681 3.37448C21.6912 2.78161 22.1064 2.28725 22.6428 1.97582C23.1791 1.66438 23.8034 1.55519 24.4089 1.66689C25.0144 1.77859 25.5637 2.10425 25.9629 2.58826C26.3621 3.07227 26.5864 3.68461 26.5977 4.3207C26.5815 4.48241 26.6118 4.64546 26.6846 4.7895C26.7575 4.93355 26.8697 5.05221 27.0074 5.1307C27.145 5.20919 27.302 5.24403 27.4586 5.23086C27.6153 5.2177 27.7647 5.15712 27.8883 5.05668C28.8529 4.25246 30.5757 3.6785 31.3767 5.55063C31.4747 5.73866 31.6401 5.87944 31.8373 5.94275C32.0346 6.00606 32.248 5.98684 32.4317 5.88922C32.6154 5.7916 32.7547 5.62337 32.8198 5.42064C32.8849 5.21792 32.8706 4.99688 32.7798 4.80499C32.596 4.35123 32.322 3.94249 31.9757 3.60526C31.6294 3.26803 31.2184 3.00984 30.7694 2.84742C30.3204 2.685 29.8434 2.62197 29.3694 2.66243C28.8953 2.70289 28.4348 2.84592 28.0176 3.08226C27.8025 2.32755 27.3892 1.6493 26.8239 1.12284C26.2585 0.596382 25.5631 0.24232 24.8149 0.0999794C23.8883 -0.109348 22.9204 0.0121318 22.069 0.44462C21.2177 0.877107 20.533 1.5951 20.1267 2.48158C19.6816 1.70706 16.8298 -0.733773 16.1962 0.879672C16.1641 0.981557 16.1518 1.08898 16.1598 1.1958C16.1679 1.30263 16.1962 1.40676 16.2432 1.50226C16.2902 1.59776 16.3549 1.68275 16.4336 1.75238C16.5124 1.82201 16.6036 1.87492 16.7021 1.90809Z" stroke="white" stroke-width="0.8" mask="url(#path-1-inside-1_6688_16570)"/>
<path d="M11.2638 10.8769C11.4548 10.958 11.6691 10.9583 11.8604 10.8778C12.0517 10.7973 12.2048 10.6423 12.2868 10.4463C12.3688 10.2502 12.3732 10.0286 12.2989 9.82929C12.2247 9.62993 12.0778 9.46867 11.8898 9.38017C10.3433 8.60023 10.0505 7.55314 11.6358 6.26344C11.7306 6.18219 11.8059 6.07922 11.8556 5.96267C11.9053 5.84613 11.9281 5.71921 11.9222 5.59197C11.8454 5.00573 12.1655 2.14985 14.0184 1.74243C14.2187 1.68016 14.3869 1.53823 14.4861 1.34781C14.5852 1.15739 14.6073 0.934048 14.5474 0.726819C13.9615 -0.746101 11.8686 1.00391 11.3793 1.77335C10.729 2.81421 10.3715 4.02164 10.3466 5.26063C7.70901 7.6406 9.41407 10.0956 11.2638 10.8769Z" stroke="white" stroke-width="0.8" mask="url(#path-1-inside-1_6688_16570)"/>
</svg>
