<svg width="62" height="49" viewBox="0 0 62 49" fill="none" xmlns="http://www.w3.org/2000/svg">
<mask id="path-1-inside-1_6688_16577" fill="white">
<path d="M61.6649 41.5701C61.651 41.5633 60.3805 40.7634 60.1111 39.3262C59.8695 38.0314 58.7439 37.0687 57.0659 36.5942C58.8889 35.3062 60.2562 33.0826 60.7188 31.4488C61.0848 31.4353 61.2851 31.4353 61.292 31.442C61.582 31.4624 61.8582 31.2658 61.9618 30.9878C62.0585 30.7099 61.9687 30.4048 61.727 30.2218C61.7132 30.215 60.5669 29.3405 60.0904 27.8627C59.172 25.0086 55.7538 24.2155 53.261 23.863C49.8152 23.3817 43.842 23.002 38.4903 23.28C38.2003 21.6394 37.8412 20.1141 37.489 18.982C37.9241 18.3719 38.3177 17.6533 38.6975 16.8195C39.3397 15.3823 38.9184 12.0876 38.3039 10.6911C38.0967 10.2301 37.4752 8.85398 31.799 7.64729C31.7368 7.24732 31.5987 6.83379 31.2603 6.43383C30.6251 5.68134 29.9414 5.63389 29.5271 5.59999C29.4857 5.59999 29.4304 5.59321 29.3821 5.58643C29.313 5.41696 29.2647 5.09156 29.2233 4.84751C29.1404 4.31874 29.0575 3.7764 28.7537 3.37644C28.0701 2.48837 27.0619 2.55616 26.4542 2.59684C26.2815 2.61039 26.0261 2.62395 25.9708 2.61039C25.8465 2.52905 25.7498 2.31211 25.6463 2.06129C25.4253 1.55285 25.0938 0.780029 24.0511 0.447851C23.0153 0.115674 22.159 0.502085 21.4754 0.807146C21.0611 0.996961 20.702 1.15966 20.4396 1.09865C20.2048 1.04441 20.0943 0.942728 19.8802 0.732575C19.5281 0.386839 19.0447 -0.0877 17.8984 0.013987C16.904 0.102116 16.4275 0.658005 16.0132 1.15288C15.7922 1.41049 15.592 1.64776 15.2951 1.86469C14.9222 2.13586 14.5976 2.15619 14.1211 2.17653C13.5756 2.20365 12.8989 2.23076 12.1255 2.71208C11.1449 3.31542 11.0966 4.08825 11.0689 4.60346C11.0413 5.05766 11.0275 5.24748 10.5096 5.51864C9.41855 6.08809 9.04566 6.78634 8.95589 7.44392C5.20625 8.42011 2.12644 9.84373 0.662495 11.3012C-0.449276 12.4062 0.0410083 15.1586 0.662495 16.4195C0.662495 16.433 0.648684 16.4466 0.648684 16.4602C0.351752 18.7108 0.268887 20.9615 1.60163 22.1682C1.90547 22.4461 2.27145 22.6563 2.7134 22.8122C0.945616 30.0116 1.89166 35.1638 3.32108 38.5398C2.15406 40.4854 1.44281 42.7496 1.16659 45.4545C1.09754 46.1256 1.37375 46.79 1.90547 47.2239C2.43028 47.651 3.13463 47.7933 3.78374 47.6035C4.78502 47.312 6.38708 47.0137 8.36893 47.2171C9.90193 47.3798 11.3521 47.6916 12.892 48.017C15.3227 48.539 17.8431 49.0813 20.7365 48.9864C22.8841 48.9187 23.3606 48.9797 23.7887 48.9864C25.0731 49 25.9915 49 27.2759 48.9458C27.4693 48.9797 27.6626 49 27.8629 49H54.1311C57.3352 49 60.0214 45.2579 60.7119 42.8242C61.0779 42.8106 61.2782 42.8174 61.2851 42.8174C61.6096 42.8242 61.8789 42.6276 61.9618 42.3293C62.0585 42.0446 61.9342 41.726 61.6649 41.5701ZM54.2208 37.6246C56.2165 37.5772 58.4815 38.1602 58.7508 39.5702C58.9027 40.3769 59.2687 41.0345 59.6554 41.5294C58.371 41.6243 56.3615 41.8548 53.7305 42.3971C51.0167 42.9598 48.7587 42.648 46.3625 42.3158C44.6499 42.0785 42.8821 41.8412 40.7898 41.8616C38.1105 41.8955 36.2322 42.2887 34.5818 42.6412C33.1455 42.9462 31.9095 43.2038 30.5215 43.1157C28.6432 42.9937 25.3493 42.648 23.0982 42.4039C23.6161 41.9497 24.0097 41.4006 24.4033 40.865C25.301 39.6312 26.2401 38.3568 28.7468 37.6246H54.1311H54.1725C54.1932 37.6178 54.207 37.6246 54.2208 37.6246ZM54.1311 36.2688H27.8629C26.5301 36.2688 24.8521 34.8723 23.1741 32.3911C25.4322 32.6352 28.5949 32.9674 30.4317 33.0826C30.6527 33.0962 30.8736 33.1029 31.0877 33.1029C32.3859 33.1029 33.5529 32.8589 34.865 32.5809C36.4532 32.2488 38.2624 31.8691 40.8036 31.8352C42.7855 31.8081 44.5049 32.0454 46.1622 32.2759C48.6827 32.6284 51.0582 32.9538 54.0068 32.3437C56.2303 31.8827 57.9912 31.659 59.2272 31.5437C58.4746 33.5232 56.327 36.2688 54.1311 36.2688ZM53.0607 25.2052C56.4375 25.6798 58.2536 26.6492 58.7715 28.2694C59.0132 29.0287 59.393 29.6591 59.759 30.1405C58.4746 30.2286 56.4375 30.4591 53.7236 31.0217C51.0098 31.5844 48.7517 31.2726 46.3556 30.9404C44.643 30.7031 42.8683 30.4591 40.7829 30.4862C38.1036 30.5201 36.2253 30.9133 34.5749 31.2658C33.1386 31.5641 31.9026 31.8285 30.5146 31.7403C28.7468 31.6251 25.7291 31.3132 23.5056 31.0692C24.6588 30.3913 25.7084 29.4761 26.7373 28.5813C27.856 27.6051 28.9125 26.6899 29.9967 26.1747C34.7959 23.9104 47.5916 24.4392 53.0607 25.2052ZM11.1587 6.70499C12.3672 6.07453 12.4155 5.22714 12.45 4.67125C12.4776 4.24416 12.4845 4.08147 12.8574 3.85776C13.3339 3.56625 13.7068 3.55269 14.1902 3.52558C14.7357 3.49846 15.4124 3.47134 16.1237 2.94935C16.5449 2.63751 16.8419 2.29855 17.0766 2.02061C17.4564 1.57997 17.6222 1.39693 18.0296 1.36303C18.5268 1.31558 18.6373 1.43083 18.9135 1.69521C19.1621 1.93926 19.5073 2.27144 20.1288 2.42058C20.847 2.59006 21.4892 2.29855 22.0554 2.04095C22.6148 1.79012 23.1051 1.56641 23.6299 1.73589C24.0511 1.87147 24.1685 2.10874 24.3757 2.59006C24.5345 2.96291 24.7347 3.43067 25.2112 3.74251C25.6255 4.01368 26.1158 3.97978 26.5509 3.95266C27.1516 3.91199 27.4417 3.91877 27.6488 4.19671C27.7455 4.32552 27.8146 4.75938 27.856 5.05766C27.925 5.52542 28.001 6.01352 28.2427 6.37959C28.5741 6.89481 29.1059 6.93548 29.4235 6.95582C29.7412 6.97616 29.9345 6.98971 30.19 7.30155C30.4593 7.62017 30.4662 7.95913 30.4524 8.53536C30.4386 9.38275 30.4179 10.542 31.9164 11.4911C32.3652 11.7758 32.4412 13.2943 32.2547 14.6095C31.5297 15.084 30.556 15.2399 29.3268 15.0569C26.3023 14.5959 22.7115 14.9823 17.7396 15.5246C16.7521 15.6331 15.7094 15.7484 14.6045 15.8568C12.0219 16.1212 10.0193 15.6602 8.81087 14.5146C8.47941 14.2027 8.23773 13.8638 8.05128 13.5316C8.08581 12.3588 8.48632 12.0469 9.04566 11.6334C9.43926 11.3419 9.88812 11.0097 10.2058 10.3996C10.5579 9.71493 10.4544 9.02345 10.3646 8.46756C10.2472 7.62695 10.185 7.21343 11.1587 6.70499ZM1.89856 17.7685C2.60291 18.2837 3.56277 18.7515 4.71597 18.9278C4.75049 18.9345 4.79193 18.9345 4.82645 18.9345C5.15791 18.9345 5.45485 18.6973 5.51009 18.3651C5.57224 17.9922 5.31674 17.6465 4.93694 17.5855C3.59039 17.3753 2.49933 16.6432 2.01595 16.006C1.49805 15.3213 1.08372 12.7994 1.64997 12.2368C2.89294 10.9962 5.68273 9.70815 9.03875 8.80652C9.094 9.17937 9.12852 9.51155 8.99041 9.76916C8.81778 10.0946 8.56228 10.2844 8.23773 10.5284C8.00985 10.6911 7.77506 10.8538 7.54718 11.0504C7.52647 10.7182 7.27097 10.4335 6.91879 10.4132C6.53209 10.3793 6.20754 10.664 6.17991 11.0369C6.06252 12.5893 6.62186 14.1417 7.66458 15.2535C6.47685 14.8806 5.57224 14.3315 5.46866 13.5587C5.42032 13.1858 5.06814 12.9282 4.69525 12.9757C4.31545 13.0231 4.05305 13.3621 4.10139 13.735C4.55024 17.0906 11.1932 17.2398 12.3464 17.2398C12.4293 17.2398 14.2178 17.233 14.7564 17.1787C15.8613 17.0635 16.904 16.9483 17.8984 16.8466C22.7667 16.3178 26.2885 15.9382 29.1266 16.372C30.8806 16.6432 32.31 16.3449 33.3734 15.4975C34.4299 14.6501 35.0307 13.3079 35.1136 11.6063C35.1343 11.2335 34.8373 10.9148 34.4576 10.8945C34.0916 10.8945 33.7532 11.1657 33.7325 11.5385C33.7256 11.7283 33.7049 11.9317 33.6703 12.1419C33.546 11.3894 33.2629 10.6911 32.6829 10.325C32.0268 9.91152 31.8818 9.51833 31.8542 9.01668C36.177 9.97253 36.9228 10.9284 37.0471 11.2063C37.6133 12.4876 37.8412 15.3619 37.4476 16.2432C35.6867 20.1683 33.8637 20.9141 28.1667 20.0531C25.8258 19.7006 23.7542 19.8158 21.3511 19.9514C20.0805 20.026 18.6994 20.1006 17.1181 20.1141C19.5419 19.321 22.1383 18.6769 25.957 18.5685C26.3368 18.5549 26.6406 18.2431 26.6268 17.8702C26.613 17.4974 26.3092 17.1991 25.9156 17.2126C20.8746 17.3482 17.7741 18.4329 14.7702 19.4769C13.0646 20.0667 11.3037 20.6836 9.19067 21.1242C5.3996 21.9174 3.41085 21.9174 2.55458 21.1378C1.95381 20.6429 1.75355 19.5921 1.89856 17.7685ZM20.6882 47.6374C17.9674 47.7255 15.5367 47.2035 13.182 46.6951C11.6766 46.3697 10.1229 46.0375 8.51394 45.868C6.30421 45.6376 4.50881 45.9765 3.39013 46.3019C3.17606 46.3629 2.95509 46.3155 2.78245 46.1799C2.60291 46.0307 2.51314 45.8206 2.53386 45.5901C2.67887 44.1597 3.00343 42.1327 4.03924 40.0583C5.03362 41.8955 6.06943 42.9801 6.51137 43.4004C6.64258 43.5292 6.81521 43.5903 6.98785 43.5903C7.16739 43.5903 7.34693 43.5225 7.48504 43.3801C7.74744 43.1089 7.74054 42.6818 7.46432 42.4242C2.5822 37.7941 2.56839 29.2253 4.06686 23.0698C4.28093 23.0834 4.495 23.0969 4.73668 23.0969C5.94513 23.0969 7.47813 22.8868 9.45998 22.4733C10.8825 22.175 12.1255 21.8089 13.3063 21.4225C16.683 21.592 19.1966 21.4496 21.4063 21.3276C23.8232 21.192 25.736 21.0835 27.9319 21.4157C29.2854 21.6191 30.4593 21.7275 31.4951 21.7275C33.6427 21.7275 35.1757 21.253 36.3911 20.1887C36.6397 21.1106 36.8813 22.2021 37.0885 23.3613C33.988 23.5986 31.1982 24.0867 29.389 24.9341C28.1322 25.5239 27.0066 26.5068 25.812 27.544C24.1754 28.9677 22.4767 30.4455 20.5155 30.7302C20.1703 30.7777 19.9217 31.0692 19.9286 31.4082C19.9355 31.7471 20.191 32.0318 20.5363 32.0725C20.5501 32.0725 20.8815 32.1132 21.4063 32.1742C22.6286 34.1537 24.3135 36.3366 26.1987 37.2111C24.7278 38.0653 23.9406 39.1431 23.2708 40.0583C22.4836 41.1362 21.9173 41.9158 20.5155 42.1192C20.1703 42.1666 19.9217 42.4581 19.9286 42.7971C19.9355 43.136 20.191 43.4208 20.5363 43.4614C20.5501 43.4614 20.8815 43.5021 21.4063 43.5631C22.2902 45.0003 23.4227 46.546 24.7071 47.6238C23.4711 47.6238 22.1452 47.5899 20.6882 47.6374ZM54.1311 47.651H27.8629C26.5301 47.651 24.859 46.2545 23.1741 43.7733C25.4322 44.0173 28.5949 44.3495 30.4317 44.4648C30.6527 44.4783 30.8736 44.4851 31.0877 44.4851C32.3859 44.4851 33.5529 44.241 34.865 43.9631C36.4532 43.6309 38.2624 43.2513 40.8036 43.2174C42.7855 43.1903 44.5049 43.4276 46.1622 43.658C48.6827 44.0106 51.0582 44.336 54.0068 43.7258C56.2303 43.2649 57.9912 43.0411 59.2272 42.9259C58.4746 44.9122 56.327 47.651 54.1311 47.651Z"/>
</mask>
<path d="M61.6649 41.5701C61.651 41.5633 60.3805 40.7634 60.1111 39.3262C59.8695 38.0314 58.7439 37.0687 57.0659 36.5942C58.8889 35.3062 60.2562 33.0826 60.7188 31.4488C61.0848 31.4353 61.2851 31.4353 61.292 31.442C61.582 31.4624 61.8582 31.2658 61.9618 30.9878C62.0585 30.7099 61.9687 30.4048 61.727 30.2218C61.7132 30.215 60.5669 29.3405 60.0904 27.8627C59.172 25.0086 55.7538 24.2155 53.261 23.863C49.8152 23.3817 43.842 23.002 38.4903 23.28C38.2003 21.6394 37.8412 20.1141 37.489 18.982C37.9241 18.3719 38.3177 17.6533 38.6975 16.8195C39.3397 15.3823 38.9184 12.0876 38.3039 10.6911C38.0967 10.2301 37.4752 8.85398 31.799 7.64729C31.7368 7.24732 31.5987 6.83379 31.2603 6.43383C30.6251 5.68134 29.9414 5.63389 29.5271 5.59999C29.4857 5.59999 29.4304 5.59321 29.3821 5.58643C29.313 5.41696 29.2647 5.09156 29.2233 4.84751C29.1404 4.31874 29.0575 3.7764 28.7537 3.37644C28.0701 2.48837 27.0619 2.55616 26.4542 2.59684C26.2815 2.61039 26.0261 2.62395 25.9708 2.61039C25.8465 2.52905 25.7498 2.31211 25.6463 2.06129C25.4253 1.55285 25.0938 0.780029 24.0511 0.447851C23.0153 0.115674 22.159 0.502085 21.4754 0.807146C21.0611 0.996961 20.702 1.15966 20.4396 1.09865C20.2048 1.04441 20.0943 0.942728 19.8802 0.732575C19.5281 0.386839 19.0447 -0.0877 17.8984 0.013987C16.904 0.102116 16.4275 0.658005 16.0132 1.15288C15.7922 1.41049 15.592 1.64776 15.2951 1.86469C14.9222 2.13586 14.5976 2.15619 14.1211 2.17653C13.5756 2.20365 12.8989 2.23076 12.1255 2.71208C11.1449 3.31542 11.0966 4.08825 11.0689 4.60346C11.0413 5.05766 11.0275 5.24748 10.5096 5.51864C9.41855 6.08809 9.04566 6.78634 8.95589 7.44392C5.20625 8.42011 2.12644 9.84373 0.662495 11.3012C-0.449276 12.4062 0.0410083 15.1586 0.662495 16.4195C0.662495 16.433 0.648684 16.4466 0.648684 16.4602C0.351752 18.7108 0.268887 20.9615 1.60163 22.1682C1.90547 22.4461 2.27145 22.6563 2.7134 22.8122C0.945616 30.0116 1.89166 35.1638 3.32108 38.5398C2.15406 40.4854 1.44281 42.7496 1.16659 45.4545C1.09754 46.1256 1.37375 46.79 1.90547 47.2239C2.43028 47.651 3.13463 47.7933 3.78374 47.6035C4.78502 47.312 6.38708 47.0137 8.36893 47.2171C9.90193 47.3798 11.3521 47.6916 12.892 48.017C15.3227 48.539 17.8431 49.0813 20.7365 48.9864C22.8841 48.9187 23.3606 48.9797 23.7887 48.9864C25.0731 49 25.9915 49 27.2759 48.9458C27.4693 48.9797 27.6626 49 27.8629 49H54.1311C57.3352 49 60.0214 45.2579 60.7119 42.8242C61.0779 42.8106 61.2782 42.8174 61.2851 42.8174C61.6096 42.8242 61.8789 42.6276 61.9618 42.3293C62.0585 42.0446 61.9342 41.726 61.6649 41.5701ZM54.2208 37.6246C56.2165 37.5772 58.4815 38.1602 58.7508 39.5702C58.9027 40.3769 59.2687 41.0345 59.6554 41.5294C58.371 41.6243 56.3615 41.8548 53.7305 42.3971C51.0167 42.9598 48.7587 42.648 46.3625 42.3158C44.6499 42.0785 42.8821 41.8412 40.7898 41.8616C38.1105 41.8955 36.2322 42.2887 34.5818 42.6412C33.1455 42.9462 31.9095 43.2038 30.5215 43.1157C28.6432 42.9937 25.3493 42.648 23.0982 42.4039C23.6161 41.9497 24.0097 41.4006 24.4033 40.865C25.301 39.6312 26.2401 38.3568 28.7468 37.6246H54.1311H54.1725C54.1932 37.6178 54.207 37.6246 54.2208 37.6246ZM54.1311 36.2688H27.8629C26.5301 36.2688 24.8521 34.8723 23.1741 32.3911C25.4322 32.6352 28.5949 32.9674 30.4317 33.0826C30.6527 33.0962 30.8736 33.1029 31.0877 33.1029C32.3859 33.1029 33.5529 32.8589 34.865 32.5809C36.4532 32.2488 38.2624 31.8691 40.8036 31.8352C42.7855 31.8081 44.5049 32.0454 46.1622 32.2759C48.6827 32.6284 51.0582 32.9538 54.0068 32.3437C56.2303 31.8827 57.9912 31.659 59.2272 31.5437C58.4746 33.5232 56.327 36.2688 54.1311 36.2688ZM53.0607 25.2052C56.4375 25.6798 58.2536 26.6492 58.7715 28.2694C59.0132 29.0287 59.393 29.6591 59.759 30.1405C58.4746 30.2286 56.4375 30.4591 53.7236 31.0217C51.0098 31.5844 48.7517 31.2726 46.3556 30.9404C44.643 30.7031 42.8683 30.4591 40.7829 30.4862C38.1036 30.5201 36.2253 30.9133 34.5749 31.2658C33.1386 31.5641 31.9026 31.8285 30.5146 31.7403C28.7468 31.6251 25.7291 31.3132 23.5056 31.0692C24.6588 30.3913 25.7084 29.4761 26.7373 28.5813C27.856 27.6051 28.9125 26.6899 29.9967 26.1747C34.7959 23.9104 47.5916 24.4392 53.0607 25.2052ZM11.1587 6.70499C12.3672 6.07453 12.4155 5.22714 12.45 4.67125C12.4776 4.24416 12.4845 4.08147 12.8574 3.85776C13.3339 3.56625 13.7068 3.55269 14.1902 3.52558C14.7357 3.49846 15.4124 3.47134 16.1237 2.94935C16.5449 2.63751 16.8419 2.29855 17.0766 2.02061C17.4564 1.57997 17.6222 1.39693 18.0296 1.36303C18.5268 1.31558 18.6373 1.43083 18.9135 1.69521C19.1621 1.93926 19.5073 2.27144 20.1288 2.42058C20.847 2.59006 21.4892 2.29855 22.0554 2.04095C22.6148 1.79012 23.1051 1.56641 23.6299 1.73589C24.0511 1.87147 24.1685 2.10874 24.3757 2.59006C24.5345 2.96291 24.7347 3.43067 25.2112 3.74251C25.6255 4.01368 26.1158 3.97978 26.5509 3.95266C27.1516 3.91199 27.4417 3.91877 27.6488 4.19671C27.7455 4.32552 27.8146 4.75938 27.856 5.05766C27.925 5.52542 28.001 6.01352 28.2427 6.37959C28.5741 6.89481 29.1059 6.93548 29.4235 6.95582C29.7412 6.97616 29.9345 6.98971 30.19 7.30155C30.4593 7.62017 30.4662 7.95913 30.4524 8.53536C30.4386 9.38275 30.4179 10.542 31.9164 11.4911C32.3652 11.7758 32.4412 13.2943 32.2547 14.6095C31.5297 15.084 30.556 15.2399 29.3268 15.0569C26.3023 14.5959 22.7115 14.9823 17.7396 15.5246C16.7521 15.6331 15.7094 15.7484 14.6045 15.8568C12.0219 16.1212 10.0193 15.6602 8.81087 14.5146C8.47941 14.2027 8.23773 13.8638 8.05128 13.5316C8.08581 12.3588 8.48632 12.0469 9.04566 11.6334C9.43926 11.3419 9.88812 11.0097 10.2058 10.3996C10.5579 9.71493 10.4544 9.02345 10.3646 8.46756C10.2472 7.62695 10.185 7.21343 11.1587 6.70499ZM1.89856 17.7685C2.60291 18.2837 3.56277 18.7515 4.71597 18.9278C4.75049 18.9345 4.79193 18.9345 4.82645 18.9345C5.15791 18.9345 5.45485 18.6973 5.51009 18.3651C5.57224 17.9922 5.31674 17.6465 4.93694 17.5855C3.59039 17.3753 2.49933 16.6432 2.01595 16.006C1.49805 15.3213 1.08372 12.7994 1.64997 12.2368C2.89294 10.9962 5.68273 9.70815 9.03875 8.80652C9.094 9.17937 9.12852 9.51155 8.99041 9.76916C8.81778 10.0946 8.56228 10.2844 8.23773 10.5284C8.00985 10.6911 7.77506 10.8538 7.54718 11.0504C7.52647 10.7182 7.27097 10.4335 6.91879 10.4132C6.53209 10.3793 6.20754 10.664 6.17991 11.0369C6.06252 12.5893 6.62186 14.1417 7.66458 15.2535C6.47685 14.8806 5.57224 14.3315 5.46866 13.5587C5.42032 13.1858 5.06814 12.9282 4.69525 12.9757C4.31545 13.0231 4.05305 13.3621 4.10139 13.735C4.55024 17.0906 11.1932 17.2398 12.3464 17.2398C12.4293 17.2398 14.2178 17.233 14.7564 17.1787C15.8613 17.0635 16.904 16.9483 17.8984 16.8466C22.7667 16.3178 26.2885 15.9382 29.1266 16.372C30.8806 16.6432 32.31 16.3449 33.3734 15.4975C34.4299 14.6501 35.0307 13.3079 35.1136 11.6063C35.1343 11.2335 34.8373 10.9148 34.4576 10.8945C34.0916 10.8945 33.7532 11.1657 33.7325 11.5385C33.7256 11.7283 33.7049 11.9317 33.6703 12.1419C33.546 11.3894 33.2629 10.6911 32.6829 10.325C32.0268 9.91152 31.8818 9.51833 31.8542 9.01668C36.177 9.97253 36.9228 10.9284 37.0471 11.2063C37.6133 12.4876 37.8412 15.3619 37.4476 16.2432C35.6867 20.1683 33.8637 20.9141 28.1667 20.0531C25.8258 19.7006 23.7542 19.8158 21.3511 19.9514C20.0805 20.026 18.6994 20.1006 17.1181 20.1141C19.5419 19.321 22.1383 18.6769 25.957 18.5685C26.3368 18.5549 26.6406 18.2431 26.6268 17.8702C26.613 17.4974 26.3092 17.1991 25.9156 17.2126C20.8746 17.3482 17.7741 18.4329 14.7702 19.4769C13.0646 20.0667 11.3037 20.6836 9.19067 21.1242C5.3996 21.9174 3.41085 21.9174 2.55458 21.1378C1.95381 20.6429 1.75355 19.5921 1.89856 17.7685ZM20.6882 47.6374C17.9674 47.7255 15.5367 47.2035 13.182 46.6951C11.6766 46.3697 10.1229 46.0375 8.51394 45.868C6.30421 45.6376 4.50881 45.9765 3.39013 46.3019C3.17606 46.3629 2.95509 46.3155 2.78245 46.1799C2.60291 46.0307 2.51314 45.8206 2.53386 45.5901C2.67887 44.1597 3.00343 42.1327 4.03924 40.0583C5.03362 41.8955 6.06943 42.9801 6.51137 43.4004C6.64258 43.5292 6.81521 43.5903 6.98785 43.5903C7.16739 43.5903 7.34693 43.5225 7.48504 43.3801C7.74744 43.1089 7.74054 42.6818 7.46432 42.4242C2.5822 37.7941 2.56839 29.2253 4.06686 23.0698C4.28093 23.0834 4.495 23.0969 4.73668 23.0969C5.94513 23.0969 7.47813 22.8868 9.45998 22.4733C10.8825 22.175 12.1255 21.8089 13.3063 21.4225C16.683 21.592 19.1966 21.4496 21.4063 21.3276C23.8232 21.192 25.736 21.0835 27.9319 21.4157C29.2854 21.6191 30.4593 21.7275 31.4951 21.7275C33.6427 21.7275 35.1757 21.253 36.3911 20.1887C36.6397 21.1106 36.8813 22.2021 37.0885 23.3613C33.988 23.5986 31.1982 24.0867 29.389 24.9341C28.1322 25.5239 27.0066 26.5068 25.812 27.544C24.1754 28.9677 22.4767 30.4455 20.5155 30.7302C20.1703 30.7777 19.9217 31.0692 19.9286 31.4082C19.9355 31.7471 20.191 32.0318 20.5363 32.0725C20.5501 32.0725 20.8815 32.1132 21.4063 32.1742C22.6286 34.1537 24.3135 36.3366 26.1987 37.2111C24.7278 38.0653 23.9406 39.1431 23.2708 40.0583C22.4836 41.1362 21.9173 41.9158 20.5155 42.1192C20.1703 42.1666 19.9217 42.4581 19.9286 42.7971C19.9355 43.136 20.191 43.4208 20.5363 43.4614C20.5501 43.4614 20.8815 43.5021 21.4063 43.5631C22.2902 45.0003 23.4227 46.546 24.7071 47.6238C23.4711 47.6238 22.1452 47.5899 20.6882 47.6374ZM54.1311 47.651H27.8629C26.5301 47.651 24.859 46.2545 23.1741 43.7733C25.4322 44.0173 28.5949 44.3495 30.4317 44.4648C30.6527 44.4783 30.8736 44.4851 31.0877 44.4851C32.3859 44.4851 33.5529 44.241 34.865 43.9631C36.4532 43.6309 38.2624 43.2513 40.8036 43.2174C42.7855 43.1903 44.5049 43.4276 46.1622 43.658C48.6827 44.0106 51.0582 44.336 54.0068 43.7258C56.2303 43.2649 57.9912 43.0411 59.2272 42.9259C58.4746 44.9122 56.327 47.651 54.1311 47.651Z" fill="#1A1A1A" stroke="white" stroke-width="0.4" mask="url(#path-1-inside-1_6688_16577)"/>
</svg>
