<svg width="363" height="368" viewBox="0 0 363 368" fill="none" xmlns="http://www.w3.org/2000/svg">
<path d="M154.56 188.662C125.493 169.204 104.724 129.443 64.7329 127.286C-21.5776 122.597 -21.5776 254.681 64.7329 249.945C104.724 247.835 125.68 208.168 154.419 188.662" fill="#A6CE39"/>
<path d="M208.141 188.662C237.114 169.11 257.93 129.443 297.921 127.286C384.137 122.597 384.137 254.681 297.921 249.945C257.93 247.835 236.973 208.168 208.141 188.662Z" fill="#A6CE39"/>
<path d="M184.153 213.48C203.609 242.41 243.272 263.229 245.428 303.224C250.116 389.592 118.095 389.592 122.737 303.224C124.94 263.229 164.556 242.27 184.153 213.48Z" fill="#0089CF"/>
<path d="M184.153 154.449C203.609 125.519 243.272 104.701 245.428 64.7054C250.116 -21.5685 118.095 -21.5685 122.737 64.7054C124.94 104.701 164.556 125.66 184.153 154.449Z" fill="#0089CF"/>
</svg>
