<svg width="204" height="212" viewBox="0 0 204 212" fill="none" xmlns="http://www.w3.org/2000/svg">
<path d="M87.2973 107.519C70.8798 96.5855 59.1493 74.2452 36.562 73.0334C-12.1873 70.3989 -12.1873 144.612 36.562 141.951C59.1493 140.766 70.9857 118.478 87.2179 107.519" fill="black"/>
<path d="M115.961 107.519C132.338 96.5328 144.104 74.2452 166.708 73.0334C215.442 70.3989 215.442 144.612 166.708 141.951C144.104 140.766 132.258 118.478 115.961 107.519Z" fill="black"/>
<path d="M103.622 119.871C114.551 136.947 136.831 149.235 138.042 172.843C140.676 223.822 66.5146 223.822 69.1219 172.843C70.3596 149.235 92.6133 136.864 103.622 119.871Z" fill="black"/>
<path d="M103.622 87.2973C114.551 70.9456 136.831 59.1788 138.042 36.5726C140.676 -12.1909 66.5146 -12.1909 69.1219 36.5726C70.3596 59.1788 92.6133 71.0251 103.622 87.2973Z" fill="black"/>
</svg>
