<svg width="14" height="15" viewBox="0 0 14 15" fill="none" xmlns="http://www.w3.org/2000/svg">
<path d="M12.7952 -0.00150586L12.7939 -0.00151928L5.57224 0.138343C5.03123 0.148829 4.60108 0.595858 4.61153 1.13697C4.62198 1.67801 5.06905 2.10813 5.61009 2.09768L10.4587 2.00372L0.275799 12.557C-0.100318 12.946 -0.089805 13.5663 0.29928 13.9424C0.688366 14.3186 1.30865 14.308 1.68476 13.919L11.8676 3.36576L11.9381 8.21467C11.946 8.75575 12.391 9.18799 12.9321 9.1801C13.4733 9.17224 13.9054 8.72708 13.8976 8.1861L13.7926 0.963831L13.7926 0.962551C13.7839 0.420438 13.3356 -0.011253 12.7952 -0.00150586Z" fill="#0089CF"/>
</svg>
