<svg width="230" height="235" viewBox="0 0 230 235" fill="none" xmlns="http://www.w3.org/2000/svg">
<path d="M116.832 98.3923C129.171 79.9624 154.326 66.7001 155.693 41.2208C158.667 -13.7403 74.9369 -13.7403 77.8805 41.2208C79.278 66.7001 104.403 80.052 116.832 98.3923Z" fill="white"/>
<path d="M116.832 136.016C129.171 154.446 154.326 167.708 155.693 193.187C158.667 248.208 74.9369 248.208 77.8805 193.187C79.278 167.708 104.403 154.356 116.832 136.016Z" fill="white"/>
<path d="M132.047 120.197C150.422 107.741 163.624 82.4713 188.987 81.0972C243.667 78.1102 243.667 162.254 188.987 159.238C163.624 157.893 150.333 132.623 132.047 120.197Z" fill="white"/>
<path d="M98.0242 120.197C79.5894 107.801 66.4174 82.4713 41.0547 81.0972C-13.6849 78.1102 -13.6849 162.254 41.0547 159.238C66.4174 157.893 79.7083 132.623 97.935 120.197" fill="white"/>
</svg>
