<svg width="6" height="10" viewBox="0 0 6 10" fill="none" xmlns="http://www.w3.org/2000/svg">
<mask id="path-1-inside-1_6688_16415" fill="white">
<path d="M4.86178 0.00152943C4.9354 0.00152943 5.00902 0.0288565 5.06791 0.0835111C5.1857 0.19282 5.1857 0.356784 5.06791 0.466093L0.709823 4.51053L5.06791 8.55497C5.1857 8.66428 5.1857 8.82824 5.06791 8.93755C4.95012 9.04686 4.77344 9.04686 4.65566 8.93755L0.091446 4.70182C-0.0263401 4.59251 -0.0263401 4.42855 0.091446 4.31924L4.65566 0.0835111C4.71455 0.0288565 4.78817 0.00152943 4.86178 0.00152943Z"/>
</mask>
<path d="M4.86178 0.00152943C4.9354 0.00152943 5.00902 0.0288565 5.06791 0.0835111C5.1857 0.19282 5.1857 0.356784 5.06791 0.466093L0.709823 4.51053L5.06791 8.55497C5.1857 8.66428 5.1857 8.82824 5.06791 8.93755C4.95012 9.04686 4.77344 9.04686 4.65566 8.93755L0.091446 4.70182C-0.0263401 4.59251 -0.0263401 4.42855 0.091446 4.31924L4.65566 0.0835111C4.71455 0.0288565 4.78817 0.00152943 4.86178 0.00152943Z" fill="#0B3969"/>
<path d="M5.06791 0.466093L7.64983 3.24824L7.64983 3.24824L5.06791 0.466093ZM0.709823 4.51053L-1.87209 1.72838L-4.87 4.51053L-1.87209 7.29268L0.709823 4.51053ZM5.06791 8.55497L7.64983 5.77282H7.64983L5.06791 8.55497ZM4.65566 8.93755L7.23757 6.1554L4.65566 8.93755ZM0.0914459 4.70182L-2.49047 7.48397L0.0914459 4.70182ZM0.0914459 4.31924L2.67336 7.10139L2.67336 7.10139L0.0914459 4.31924ZM4.65566 0.0835114L2.07374 -2.69864V-2.69864L4.65566 0.0835114ZM4.86178 0.00152969L4.86178 3.79714C3.98611 3.79714 3.13519 3.46813 2.48599 2.86566L5.06791 0.0835114L7.64983 -2.69864C6.88285 -3.41042 5.88469 -3.79408 4.86178 -3.79408L4.86178 0.00152969ZM5.06791 0.0835114L2.48599 2.86566C1.83095 2.25776 1.36064 1.34144 1.36064 0.274802C1.36064 -0.791838 1.83095 -1.70816 2.48599 -2.31605L5.06791 0.466093L7.64983 3.24824C8.42265 2.53103 8.95186 1.47808 8.95186 0.274802C8.95186 -0.928474 8.42265 -1.98143 7.64983 -2.69864L5.06791 0.0835114ZM5.06791 0.466093L2.48599 -2.31605L-1.87209 1.72838L0.709823 4.51053L3.29174 7.29268L7.64983 3.24824L5.06791 0.466093ZM0.709823 4.51053L-1.87209 7.29268L2.48599 11.3371L5.06791 8.55497L7.64983 5.77282L3.29174 1.72838L0.709823 4.51053ZM5.06791 8.55497L2.48599 11.3371C1.83096 10.7292 1.36064 9.8129 1.36064 8.74626C1.36064 7.67962 1.83096 6.7633 2.48599 6.1554L5.06791 8.93755L7.64983 11.7197C8.42265 11.0025 8.95186 9.94954 8.95186 8.74626C8.95186 7.54298 8.42265 6.49003 7.64983 5.77282L5.06791 8.55497ZM5.06791 8.93755L2.48599 6.1554C3.82428 4.91343 5.89929 4.91343 7.23757 6.1554L4.65566 8.93755L2.07374 11.7197C3.6476 13.1803 6.07597 13.1803 7.64983 11.7197L5.06791 8.93755ZM4.65566 8.93755L7.23757 6.1554L2.67336 1.91968L0.0914459 4.70182L-2.49047 7.48397L2.07374 11.7197L4.65566 8.93755ZM0.0914459 4.70182L2.67336 1.91968C3.3284 2.52757 3.79871 3.44389 3.79871 4.51053C3.79871 5.57717 3.3284 6.49349 2.67336 7.10139L0.0914459 4.31924L-2.49047 1.53709C-3.2633 2.2543 -3.7925 3.30725 -3.7925 4.51053C-3.7925 5.71381 -3.2633 6.76676 -2.49047 7.48397L0.0914459 4.70182ZM0.0914459 4.31924L2.67336 7.10139L7.23757 2.86566L4.65566 0.0835114L2.07374 -2.69864L-2.49047 1.53709L0.0914459 4.31924ZM4.65566 0.0835114L7.23757 2.86566C6.58838 3.46813 5.73746 3.79714 4.86178 3.79714L4.86178 0.00152969L4.86178 -3.79408C3.83888 -3.79408 2.84072 -3.41042 2.07374 -2.69864L4.65566 0.0835114Z" fill="url(#paint0_linear_6688_16415)" mask="url(#path-1-inside-1_6688_16415)"/>
<defs>
<linearGradient id="paint0_linear_6688_16415" x1="0.00310612" y1="4.51053" x2="5.15625" y2="4.51053" gradientUnits="userSpaceOnUse">
<stop stop-color="#72B736"/>
<stop offset="1" stop-color="#39A8E0"/>
</linearGradient>
</defs>
</svg>
