<svg width="24" height="24" viewBox="0 0 24 24" fill="none" xmlns="http://www.w3.org/2000/svg">
<path d="M11.8066 2.95301C14.6711 2.95301 15.0617 2.95301 16.2335 2.95301C17.2751 2.95301 17.7959 3.21341 18.1865 3.34361C18.7073 3.60401 19.0979 3.73421 19.4885 4.12481C19.8791 4.51541 20.1395 4.90602 20.2697 5.42682C20.3999 5.81742 20.5301 6.33822 20.6603 7.37983C20.6603 8.55163 20.6603 8.81203 20.6603 11.8066C20.6603 14.8013 20.6603 15.0617 20.6603 16.2335C20.6603 17.2751 20.3999 17.7959 20.2697 18.1865C20.0093 18.7073 19.8791 19.0979 19.4885 19.4885C19.0979 19.8791 18.7073 20.1395 18.1865 20.2697C17.7959 20.3999 17.2751 20.5301 16.2335 20.6603C15.0617 20.6603 14.8013 20.6603 11.8066 20.6603C8.81203 20.6603 8.55163 20.6603 7.37983 20.6603C6.33822 20.6603 5.81742 20.3999 5.42682 20.2697C4.90602 20.0093 4.51541 19.8791 4.12481 19.4885C3.73421 19.0979 3.47381 18.7073 3.34361 18.1865C3.21341 17.7959 3.08321 17.2751 2.95301 16.2335C2.95301 15.0617 2.95301 14.8013 2.95301 11.8066C2.95301 8.81203 2.95301 8.55163 2.95301 7.37983C2.95301 6.33822 3.21341 5.81742 3.34361 5.42682C3.60401 4.90602 3.73421 4.51541 4.12481 4.12481C4.51541 3.73421 4.90602 3.47381 5.42682 3.34361C5.81742 3.21341 6.33822 3.08321 7.37983 2.95301C8.55163 2.95301 8.94223 2.95301 11.8066 2.95301ZM11.8066 1C8.81203 1 8.55163 1 7.37983 1C6.20802 1 5.42682 1.2604 4.77582 1.5208C4.12481 1.7812 3.47381 2.17181 2.82281 2.82281C2.17181 3.47381 1.9114 3.99461 1.5208 4.77582C1.2604 5.42682 1.1302 6.20802 1 7.37983C1 8.55163 1 8.94223 1 11.8066C1 14.8013 1 15.0617 1 16.2335C1 17.4053 1.2604 18.1865 1.5208 18.8375C1.7812 19.4885 2.17181 20.1395 2.82281 20.7905C3.47381 21.4415 3.99461 21.7019 4.77582 22.0925C5.42682 22.3529 6.20802 22.4831 7.37983 22.6133C8.55163 22.6133 8.94223 22.6133 11.8066 22.6133C14.6711 22.6133 15.0617 22.6133 16.2335 22.6133C17.4053 22.6133 18.1865 22.3529 18.8375 22.0925C19.4885 21.8321 20.1395 21.4415 20.7905 20.7905C21.4415 20.1395 21.7019 19.6187 22.0925 18.8375C22.3529 18.1865 22.4831 17.4053 22.6133 16.2335C22.6133 15.0617 22.6133 14.6711 22.6133 11.8066C22.6133 8.94223 22.6133 8.55163 22.6133 7.37983C22.6133 6.20802 22.3529 5.42682 22.0925 4.77582C21.8321 4.12481 21.4415 3.47381 20.7905 2.82281C20.1395 2.17181 19.6187 1.9114 18.8375 1.5208C18.1865 1.2604 17.4053 1.1302 16.2335 1C15.0617 1 14.8013 1 11.8066 1Z" fill="#0089CF"/>
<path d="M11.8066 6.20802C8.68183 6.20802 6.20802 8.68183 6.20802 11.8066C6.20802 14.9315 8.68183 17.4053 11.8066 17.4053C14.9315 17.4053 17.4053 14.9315 17.4053 11.8066C17.4053 8.68183 14.9315 6.20802 11.8066 6.20802ZM11.8066 15.4523C9.85363 15.4523 8.16103 13.8899 8.16103 11.8066C8.16103 9.85363 9.72343 8.16103 11.8066 8.16103C13.7596 8.16103 15.4523 9.72343 15.4523 11.8066C15.4523 13.7596 13.7596 15.4523 11.8066 15.4523Z" fill="#0089CF"/>
<path d="M17.5355 7.37983C18.2545 7.37983 18.8375 6.7969 18.8375 6.07782C18.8375 5.35874 18.2545 4.77582 17.5355 4.77582C16.8164 4.77582 16.2335 5.35874 16.2335 6.07782C16.2335 6.7969 16.8164 7.37983 17.5355 7.37983Z" fill="#0089CF"/>
</svg>
