<svg width="24" height="24" viewBox="0 0 24 24" fill="none" xmlns="http://www.w3.org/2000/svg">
<path d="M4.41034 3C2.9529 3 2 3.95703 2 5.2149C2 6.445 2.92451 7.42932 4.35441 7.42932H4.38207C5.86802 7.42932 6.79277 6.445 6.79277 5.2149C6.76499 3.95703 5.86802 3 4.41034 3Z" fill="#0089CF"/>
<path d="M2.25 9.17969H6.5107V21.9982H2.25V9.17969Z" fill="#0089CF"/>
<path d="M16.9756 8.87891C14.6771 8.87891 13.1358 11.0387 13.1358 11.0387V9.17976H8.875V21.9983H13.1356V14.8399C13.1356 14.4567 13.1634 14.0741 13.2759 13.8C13.5839 13.0348 14.2849 12.242 15.462 12.242C17.0037 12.242 17.6203 13.4175 17.6203 15.1408V21.9983H21.8807V14.6484C21.8807 10.7111 19.7786 8.87891 16.9756 8.87891Z" fill="#0089CF"/>
</svg>
