<svg width="24" height="24" viewBox="0 0 24 24" fill="none" xmlns="http://www.w3.org/2000/svg">
<g clip-path="url(#clip0_6600_16122)">
<path d="M12.25 4.38281C12.2748 4.38281 19.296 4.38327 21.0537 4.86426C22.0174 5.1238 22.7777 5.88383 23.0371 6.84766C23.5191 8.60823 23.5 12.2783 23.5 12.2783C23.5 12.2923 23.4995 15.9331 23.0371 17.6904C22.7775 18.654 22.0175 19.4135 21.0537 19.6729C19.293 20.1363 12.25 20.1367 12.25 20.1367C12.2186 20.1367 5.22141 20.1361 3.44629 19.6553C2.48251 19.3957 1.72248 18.6355 1.46289 17.6719C1.00027 15.9323 1 12.2708 1 12.2598C1 12.2598 0.999572 8.60823 1.46289 6.84766C1.72229 5.88405 2.50123 5.1061 3.44629 4.84668C5.20704 4.38319 12.25 4.38281 12.25 4.38281ZM10.0078 15.6328L15.8643 12.2598L10.0078 8.88672V15.6328Z" fill="#0089CF"/>
</g>
<defs>
<clipPath id="clip0_6600_16122">
<rect width="22.5003" height="22.5003" fill="white" transform="translate(1 1)"/>
</clipPath>
</defs>
</svg>
