<svg width="52" height="52" viewBox="0 0 52 52" fill="none" xmlns="http://www.w3.org/2000/svg">
<path d="M44.1559 35.6667C43.2282 35.021 41.8328 34.9716 40.4228 35.535L31.6101 39.0653C31.6127 38.9699 31.6104 38.8728 31.603 38.7742C31.5538 38.1071 31.1413 36.5529 28.3802 36.527C26.0971 36.5057 23.6897 36.45 21.5577 36.0349C21.2221 35.9696 20.8991 35.8977 20.5867 35.8282C18.732 35.4154 16.9738 35.0242 13.135 36.1166C13.083 35.3179 12.4184 34.6837 11.6068 34.6837H8.5332C7.68779 34.6837 7 35.3715 7 36.217V46.2063C7 47.0517 7.68779 47.7395 8.5332 47.7395H11.6068C12.3414 47.7395 12.9563 47.2201 13.1052 46.5295C14.3889 46.6191 15.0937 46.7653 15.5266 46.8737C18.6289 47.6496 21.2083 48 23.5028 48C29.1766 48 33.1077 45.8571 38.8866 42.7068C41.1644 41.465 44.091 39.6963 45.0985 38.3223C45.1739 38.2195 45.216 38.0962 45.2194 37.9688C45.2449 36.9794 44.8672 36.1619 44.1559 35.6667ZM11.6069 46.4893H8.53329C8.37987 46.4893 8.2503 46.3597 8.2503 46.2063V36.217C8.2503 36.0635 8.37987 35.9339 8.53329 35.9339H11.6069C11.7604 35.9339 11.89 36.0635 11.89 36.217V36.9537V36.9599V46.2063C11.89 46.3597 11.7604 46.4893 11.6069 46.4893ZM38.2882 41.6092C30.1932 46.022 26.1302 48.2374 15.83 45.6608C15.3447 45.5394 14.5552 45.3751 13.1402 45.2788V37.4175C16.9108 36.2917 18.4939 36.6432 20.3152 37.0485C20.6356 37.1199 20.967 37.1936 21.3188 37.2622C23.5546 37.6975 26.0275 37.7553 28.3686 37.7774C29.6351 37.7892 30.3039 38.1556 30.3564 38.8663C30.382 39.2134 30.2988 39.5069 30.1022 39.7633C30.1023 39.7631 30.1022 39.7634 30.1022 39.7633C29.0419 41.1452 25.0802 41.3626 21.7264 41.1044C21.382 41.0781 21.0815 41.3354 21.0551 41.6797C21.0287 42.0238 21.2862 42.3244 21.6304 42.3509C22.3667 42.4076 23.2479 42.4532 24.1781 42.4532C26.7578 42.4532 29.7119 42.1025 30.9778 40.6656L40.8873 36.6959C41.8748 36.3011 42.8772 36.2998 43.4416 36.6929C43.7632 36.9168 43.9393 37.2681 43.9666 37.7391C43.1848 38.6589 41.1395 40.0547 38.2882 41.6092ZM24.3678 10.9176C22.1485 10.9176 20.1123 12.1307 19.0536 14.0836C18.9662 14.2453 18.8114 14.3259 18.6284 14.3056L14.9458 13.8922C14.5847 13.8512 14.2418 14.0464 14.0913 14.3772C13.9412 14.7076 14.0202 15.0942 14.2875 15.339L16.713 17.5628L16.1548 20.9021C16.0952 21.2581 16.2695 21.6107 16.5883 21.7789C16.712 21.8444 16.8462 21.8764 16.9795 21.8764C17.1898 21.8764 17.3977 21.7968 17.5573 21.6441L20.2539 19.0636C20.3829 18.9403 20.5448 18.9091 20.7103 18.9753C22.58 19.7245 24.6921 19.4908 26.3604 18.3502C28.0303 17.2089 29.0158 15.3229 28.9968 13.3054C28.9953 13.1516 28.9372 13.0038 28.8336 12.8902C27.6909 11.6366 26.0632 10.9176 24.3678 10.9176ZM25.6548 17.3182C24.3315 18.2227 22.6568 18.4085 21.1752 17.8149C20.5557 17.5668 19.8713 17.6991 19.3895 18.1605L17.5934 19.8793L18.002 17.4345C18.0369 17.2258 17.9638 17.0136 17.8079 16.8707L16.069 15.2764L18.4889 15.5481C19.1836 15.6267 19.8201 15.2931 20.1528 14.6794C20.9925 13.1302 22.6077 12.1678 24.3678 12.1678C25.5898 12.1678 26.7667 12.64 27.6517 13.4724C27.3661 14.0296 26.8435 14.4328 26.2247 14.5636C25.887 14.6351 25.6711 14.9668 25.7425 15.3046C25.8047 15.5987 26.0643 15.8004 26.3535 15.8004C26.3963 15.8004 26.4398 15.796 26.4834 15.7869C26.7417 15.7322 26.9891 15.6473 27.2225 15.5367C26.863 16.2407 26.3303 16.8566 25.6548 17.3182ZM25.1986 13.7385C25.1986 14.0837 24.9187 14.3636 24.5735 14.3636C24.2282 14.3636 23.946 14.0837 23.946 13.7385C23.946 13.3933 24.2232 13.1134 24.5686 13.1134H24.5736C24.9188 13.1134 25.1986 13.3933 25.1986 13.7385ZM11.1057 24.9178L11.5076 25.1157C10.0827 21.7994 9.83297 18.118 10.818 14.5962C11.9424 10.5764 14.5524 7.2132 18.1672 5.12616C21.3462 3.29068 25.088 2.61172 28.7038 3.21397C32.2702 3.80817 35.5518 5.61303 37.9441 8.29606C38.1739 8.5537 38.1512 8.94885 37.8935 9.17862C37.6362 9.40821 37.2408 9.38589 37.011 9.12808C32.4276 3.98776 24.7656 2.76023 18.7922 6.20893C12.3703 9.9166 9.79841 17.9542 12.669 24.6473L12.7499 24.283C12.8247 23.946 13.1586 23.7333 13.4956 23.8084C13.8327 23.8832 14.0452 24.2171 13.9703 24.5541L13.5086 26.6328C13.467 26.82 13.3418 26.9778 13.1688 27.0608C13.0833 27.1019 12.9908 27.1223 12.8984 27.1223C12.8038 27.1223 12.7093 27.1009 12.6223 27.058L10.5534 26.0395C10.2436 25.8869 10.1161 25.5123 10.2687 25.2025C10.4211 24.8927 10.7962 24.7653 11.1057 24.9178ZM38.2374 13.192L38.6991 11.1133C38.7407 10.9261 38.8659 10.7683 39.0389 10.6853C39.212 10.6023 39.4134 10.6034 39.5854 10.688L41.6543 11.7065C41.9641 11.8591 42.0916 12.2337 41.939 12.5435C41.7865 12.8533 41.4115 12.9805 41.1021 12.8282L40.7004 12.6303C42.1209 15.9364 42.3737 19.6055 41.398 23.12C40.2782 27.1531 37.6653 30.5269 34.0405 32.6198C31.6177 34.0185 28.8668 34.7459 26.095 34.7459C25.236 34.7459 24.3755 34.6762 23.5215 34.5349C19.9613 33.9458 16.6821 32.1497 14.2882 29.4775C14.0579 29.2203 14.0796 28.8251 14.3367 28.5947C14.5939 28.3645 14.9891 28.3861 15.2194 28.6432C19.8037 33.7605 27.456 34.9776 33.4154 31.537C39.8474 27.8234 42.4124 19.7949 39.5387 13.0984L39.4577 13.4629C39.3828 13.7998 39.0485 14.0127 38.712 13.9375C38.375 13.8627 38.1625 13.529 38.2374 13.192ZM32.6135 27.102C31.992 27.102 31.3931 27.2761 30.8811 27.6056C29.4178 28.5473 27.5268 28.5472 26.0634 27.6056C25.0272 26.9388 23.6348 26.9387 22.5989 27.6056C21.8672 28.0764 21.0286 28.3119 20.1899 28.3119C19.3512 28.3119 18.5128 28.0764 17.7811 27.6057C17.1946 27.2281 16.4807 27.0533 15.7717 27.1137C15.4285 27.1435 15.1252 26.8877 15.0961 26.5437C15.0669 26.1997 15.322 25.8972 15.6661 25.868C16.648 25.7849 17.6403 26.0283 18.4577 26.5545C19.494 27.2212 20.8862 27.221 21.9223 26.5545C23.3857 25.6129 25.2766 25.6127 26.74 26.5545C27.7761 27.2214 29.1683 27.2212 30.2046 26.5545C30.9187 26.0949 31.7517 25.8519 32.6136 25.8519H32.6162C32.9615 25.8522 33.2412 26.1323 33.241 26.4774C33.2407 26.8225 32.9609 27.1021 32.6159 27.1021C32.614 27.1021 32.6141 27.102 32.6135 27.102ZM31.0685 29.4189C31.2553 29.7092 31.1714 30.0959 30.881 30.2829C30.1495 30.7536 29.3107 30.989 28.4722 30.989C27.6334 30.989 26.7951 30.7536 26.0633 30.2828C25.027 29.616 23.6346 29.616 22.5987 30.2828C22.3084 30.4699 21.9216 30.3857 21.7348 30.0954C21.5479 29.8051 21.6318 29.4183 21.9221 29.2315C23.3853 28.2897 25.2764 28.2898 26.7398 29.2315C27.7759 29.8984 29.1682 29.8984 30.2044 29.2315C30.4948 29.0448 30.8817 29.1286 31.0685 29.4189ZM30.2045 23.877C31.6679 22.9353 33.5588 22.9353 35.0222 23.877C35.8396 24.403 36.8832 24.5253 37.8134 24.2037C38.1399 24.0909 38.4957 24.2643 38.6083 24.5904C38.7211 24.9167 38.5478 25.2726 38.2216 25.3853C36.9319 25.8309 35.483 25.6599 34.3456 24.9283C33.3094 24.2614 31.917 24.2614 30.881 24.9283C30.1495 25.399 29.3107 25.6345 28.4722 25.6345C27.6334 25.6345 26.7951 25.3991 26.0633 24.9283C25.027 24.2612 23.6346 24.2614 22.5987 24.9283C21.1352 25.87 19.2443 25.8698 17.781 24.9283C17.4907 24.7414 17.4068 24.3546 17.5936 24.0643C17.7804 23.7741 18.1673 23.6902 18.4575 23.8769C19.4937 24.5438 20.8858 24.5438 21.9221 23.8769C23.3855 22.9352 25.2764 22.9352 26.7398 23.8769C27.7759 24.5438 29.1682 24.5439 30.2045 23.877ZM32.345 14.9222C31.8714 14.9222 31.486 14.5368 31.486 14.0631C31.486 13.7179 31.2062 13.438 30.8609 13.438C30.5157 13.438 30.2358 13.7179 30.2358 14.0631C30.2358 15.2261 31.1821 16.1724 32.345 16.1724C33.508 16.1724 34.4543 15.2261 34.4543 14.0631V12.0395C34.786 11.9053 35.077 11.6639 35.2694 11.3309C35.7278 10.5367 35.4547 9.51769 34.6607 9.05923C33.8664 8.60085 32.8476 8.87393 32.3891 9.6679C31.9306 10.462 32.2038 11.4811 32.9977 11.9395C33.0651 11.9784 33.134 12.0118 33.2041 12.0403V14.0632C33.2041 14.5369 32.8188 14.9222 32.345 14.9222ZM33.4718 10.293C33.5269 10.1975 33.6159 10.1292 33.7224 10.1007C33.7579 10.0913 33.794 10.0865 33.8299 10.0865C33.9015 10.0865 33.972 10.1053 34.0356 10.142C34.131 10.1971 34.1994 10.286 34.2278 10.3926C34.2563 10.4991 34.2417 10.6103 34.1866 10.7058C34.1315 10.8012 34.0425 10.8695 33.936 10.898C33.8297 10.9266 33.7183 10.9119 33.6228 10.8568C33.5274 10.8017 33.4591 10.7127 33.4306 10.6062C33.4021 10.4996 33.4167 10.3885 33.4718 10.293Z" fill="#0089CF"/>
</svg>
