<svg width="52" height="52" viewBox="0 0 52 52" fill="none" xmlns="http://www.w3.org/2000/svg">
<path d="M48.1127 33.4617C47.6839 32.7317 45.927 30.5622 41.3241 33.2953L33.3305 38.0426C33.0009 38.2382 32.6668 38.3856 32.3213 38.4861C32.4334 38.2697 32.5242 38.0328 32.5914 37.7772C33.012 36.1762 32.0802 34.5052 30.47 33.973C30.4359 33.9617 30.401 33.9527 30.3657 33.9462C28.0756 33.5251 25.8118 32.6906 23.993 32.0202C23.3593 31.7866 22.7607 31.566 22.251 31.3975C20.1719 30.7098 18.3002 31.5563 16.7437 32.4752L10.873 35.9408L10.3559 35.0091C10.0968 34.5424 9.67382 34.2061 9.16482 34.0623C8.65612 33.9185 8.1235 33.9848 7.6658 34.2489L5.42309 35.5431C4.47591 36.0897 4.14152 37.3201 4.67752 38.2858L11.2714 50.1652C11.5304 50.6318 11.9534 50.9681 12.4624 51.1119C12.6384 51.1617 12.8172 51.1863 12.9947 51.1863C13.3306 51.1863 13.662 51.0982 13.9614 50.9255L16.2043 49.6312C17.1515 49.0845 17.486 47.8542 16.9499 46.8885L16.3128 45.7407L17.5619 45.0055L27.7651 47.793C28.3377 47.9495 28.9073 48.0273 29.4677 48.0272C30.6011 48.0272 31.6961 47.709 32.6969 47.0807L47.2035 37.973C48.5643 37.1187 48.9977 34.9684 48.1127 33.4617ZM15.4192 48.2169L13.1763 49.5112C13.0587 49.5792 12.9452 49.5621 12.8879 49.546C12.8307 49.5299 12.7249 49.4848 12.6583 49.3649L6.06448 37.4855C5.96298 37.3027 6.02882 37.0608 6.20802 36.9574L8.45082 35.6632C8.51626 35.6254 8.58051 35.6139 8.6344 35.6139C8.67733 35.6139 8.71379 35.6212 8.73919 35.6284C8.79637 35.6446 8.90215 35.6896 8.96879 35.8095L15.5627 47.6888C15.6642 47.8717 15.5984 48.1135 15.4192 48.2169ZM29.0478 40.015L30.042 40.1798C31.5495 40.4256 32.8875 40.1858 34.1324 39.4468L42.1262 34.6995C44.3803 33.3608 46.1071 33.2101 46.7453 34.2965C47.1823 35.0405 46.9918 36.1975 46.3676 36.5892L31.8611 45.6969C30.732 46.4056 29.4928 46.5829 28.1775 46.2233L17.6553 43.3487C17.4512 43.2931 17.2338 43.3222 17.0507 43.4298L15.5277 44.3263L11.658 37.355L17.5422 33.8813C18.8578 33.1047 20.2792 32.4533 21.7592 32.943C22.2438 33.1033 22.8032 33.3095 23.451 33.5482C25.3112 34.234 27.6225 35.086 30.0244 35.5345C30.8119 35.8183 31.2523 36.5933 31.0517 37.3564C30.7875 38.3616 29.9605 38.4861 29.3012 38.4094C28.1291 38.1633 27.0136 37.8388 25.8334 37.4951C25.2717 37.3316 24.6908 37.1624 24.0935 36.9992C23.6685 36.8833 23.2315 37.1404 23.1175 37.5738C23.0035 38.0072 23.2559 38.4527 23.681 38.5689C24.2657 38.7286 24.8401 38.8959 25.3957 39.0576C26.6176 39.4134 27.7717 39.7494 29.016 40.0088M9.05854 37.8798C9.12249 38.3259 8.81967 38.7405 8.38199 38.8057C7.94441 38.8709 7.5378 38.5622 7.47385 38.1159C7.4099 37.6697 7.71272 37.2552 8.1504 37.1899C8.58798 37.1247 8.99459 37.4336 9.05854 37.8798ZM20.8122 13.5026C21.1809 14.2357 21.366 14.6036 21.4189 14.9095C21.4718 15.2153 21.4213 15.6255 21.3209 16.4429C21.2955 16.6485 21.2674 16.8776 21.2372 17.1349C21.0712 18.5504 21.8233 19.8785 23.1085 20.4399C23.3422 20.5419 23.5508 20.6315 23.7381 20.712C23.7721 20.7267 23.8046 20.7407 23.8372 20.7547L20.8754 27.2409C20.7501 27.5153 20.7848 27.8379 20.9653 28.0782C21.1459 28.3184 21.4424 28.4365 21.7349 28.3842L24.9905 27.8043L26.6508 30.7177C26.7939 30.9686 27.0569 31.1219 27.3397 31.1219C27.3518 31.1219 27.364 31.1216 27.376 31.1211C27.6725 31.1074 27.937 30.9267 28.0623 30.6524L31.0025 24.2134L30.9444 24.1859C31.4478 24.0306 31.7449 23.9525 31.9884 23.9525C32.293 23.9525 32.6805 24.0744 33.4525 24.3173C33.5335 24.3428 33.6192 24.3697 33.7083 24.3976L35.8302 29.4205C35.9476 29.6985 36.2068 29.8869 36.5028 29.9093C36.5226 29.9109 36.5425 29.9116 36.5622 29.9116C36.8363 29.9116 37.0931 29.7675 37.2391 29.5275L38.9817 26.6644L42.2192 27.3405C42.5101 27.4013 42.8099 27.2921 42.9971 27.0574C43.1845 26.8226 43.2283 26.5011 43.111 26.2231L40.6993 20.5137C40.7541 20.4899 40.8105 20.4653 40.8684 20.4401C42.1537 19.8788 42.9057 18.5506 42.7398 17.1351C42.7096 16.8778 42.6815 16.6487 42.6562 16.4432C42.5556 15.6258 42.5052 15.2156 42.5581 14.9097C42.611 14.6039 42.796 14.2359 43.1646 13.5029C43.2573 13.3185 43.3606 13.1131 43.4754 12.8819C44.1062 11.6096 43.8449 10.0993 42.8255 9.12376C42.6401 8.94633 42.4743 8.78942 42.3253 8.64845C41.733 8.08813 41.4357 7.80701 41.2834 7.53797C41.1311 7.26903 41.0408 6.86593 40.8612 6.06287C40.816 5.86076 40.7657 5.6357 40.7076 5.38332C40.3888 3.99527 39.2365 3.0095 37.8405 2.93038C37.5867 2.91596 37.3606 2.90459 37.1576 2.89423C36.3507 2.8533 35.9457 2.83268 35.6594 2.72645C35.3731 2.62021 35.0499 2.37057 34.406 1.87312C34.244 1.74799 34.0636 1.60865 33.8601 1.45326C32.7408 0.598914 31.2367 0.598914 30.1174 1.45326C29.9138 1.60865 29.7335 1.74799 29.5714 1.87312C28.9274 2.37057 28.6043 2.62021 28.318 2.72645C28.0317 2.83268 27.6268 2.8533 26.8198 2.89423C26.6168 2.90459 26.3907 2.91596 26.137 2.93038C24.7409 3.0096 23.5887 3.99537 23.2698 5.38332C23.2118 5.6357 23.1615 5.86066 23.1162 6.06277C22.9365 6.86593 22.8464 7.26893 22.694 7.53797C22.5417 7.8069 22.2443 8.08813 21.6522 8.64835C21.5031 8.78932 21.3372 8.94633 21.1518 9.12366C20.1323 10.0993 19.8711 11.6095 20.5019 12.8818C20.6162 13.1129 20.7195 13.3183 20.8122 13.5026ZM27.2619 28.5552L26.0894 26.4981C25.9218 26.2039 25.5924 26.0475 25.2633 26.1059L22.9646 26.5154L25.2368 21.5394C25.4249 21.753 25.6347 22.0841 25.9811 22.631C26.0913 22.8051 26.2142 22.999 26.3533 23.2161C26.9445 24.1377 27.9224 24.6604 28.9538 24.6604C28.983 24.6604 29.0125 24.658 29.0418 24.6571L27.2619 28.5552ZM38.7573 24.9587C38.4304 24.8904 38.0963 25.0371 37.9204 25.3262L36.69 27.3478L35.5355 24.6149C36.3711 24.4719 37.1314 23.9832 37.6234 23.2161C37.7626 22.9991 37.8853 22.8053 37.9956 22.6312C38.4338 21.9391 38.6538 21.5918 38.8872 21.3921C38.9782 21.3142 39.0912 21.2421 39.2388 21.1643L41.0432 25.436L38.7573 24.9587ZM22.2421 10.3084C22.425 10.1334 22.5887 9.97851 22.7358 9.83948C24.1503 8.50159 24.2406 8.34194 24.6698 6.42403C24.7144 6.22466 24.764 6.00275 24.8213 5.75372C24.9799 5.0635 25.531 4.59205 26.2252 4.55264C26.4756 4.53842 26.6986 4.52715 26.8989 4.51689C28.8259 4.41909 28.9958 4.35602 30.5336 3.16804C30.6934 3.04454 30.8715 2.90702 31.0723 2.75377C31.3506 2.5413 31.6696 2.43516 31.9886 2.43516C32.3076 2.43516 32.6265 2.5413 32.9049 2.75377C33.1057 2.90692 33.2837 3.04444 33.4435 3.16794C34.9814 4.35591 35.1512 4.41888 37.0783 4.51679C37.2786 4.52694 37.5015 4.53822 37.7519 4.55254C38.4462 4.59194 38.9972 5.0634 39.1558 5.75362C39.213 6.00265 39.2627 6.22466 39.3073 6.42403C39.7364 8.34183 39.8268 8.50149 41.2413 9.83937C41.3884 9.97841 41.552 10.1333 41.7349 10.3083C42.2419 10.7935 42.3668 11.5158 42.053 12.1485C41.9399 12.3767 41.838 12.5793 41.7466 12.7612C40.8662 14.5118 40.8348 14.6932 41.0749 16.6452C41.0998 16.848 41.1276 17.0739 41.1574 17.3278C41.2399 18.0317 40.8802 18.6669 40.2411 18.946C40.0106 19.0466 39.8048 19.1351 39.6199 19.2145C37.842 19.9785 37.7035 20.0969 36.6568 21.7495C36.548 21.9212 36.4269 22.1125 36.2896 22.3265C35.9091 22.9197 35.2333 23.1706 34.5675 22.9656C34.3274 22.8916 34.1141 22.8245 33.9225 22.7642C32.0791 22.1843 31.8983 22.1842 30.0544 22.7642C29.8629 22.8245 29.6495 22.8916 29.4094 22.9656C28.744 23.1707 28.0678 22.9198 27.6873 22.3265C27.55 22.1125 27.4288 21.9211 27.32 21.7494C26.2734 20.0969 26.135 19.9784 24.3569 19.2145C24.1722 19.1351 23.9665 19.0467 23.7359 18.946C23.0967 18.6669 22.737 18.0317 22.8196 17.3277C22.8494 17.0738 22.8771 16.8478 22.9021 16.645C23.1422 14.693 23.1108 14.5117 22.2304 12.761C22.1389 12.5791 22.037 12.3766 21.9239 12.1484C21.6102 11.5159 21.7351 10.7936 22.2421 10.3084ZM31.9883 20.1859C36.0173 20.1859 39.2952 16.8438 39.2952 12.7358C39.2952 8.62783 36.0173 5.28582 31.9883 5.28582C27.9593 5.28582 24.6816 8.62794 24.6816 12.7358C24.6816 16.8438 27.9594 20.1859 31.9883 20.1859ZM31.9883 6.91072C35.1385 6.91072 37.7014 9.52382 37.7014 12.7357C37.7014 15.9476 35.1386 18.5608 31.9883 18.5608C28.8381 18.5608 26.2753 15.9477 26.2753 12.7357C26.2753 9.52372 28.8382 6.91072 31.9883 6.91072ZM29.9598 15.6149L27.909 13.5239C27.5977 13.2066 27.5978 12.6922 27.909 12.3749C28.2203 12.0575 28.7249 12.0576 29.0359 12.3749L30.5499 13.9186L34.9687 9.82972C35.2946 9.52808 35.7986 9.55307 36.0944 9.88538C36.3902 10.2177 36.3657 10.7316 36.0398 11.0331L31.0588 15.6421C30.9065 15.783 30.7147 15.853 30.5234 15.853C30.319 15.8529 30.115 15.7732 29.9598 15.6149Z" fill="#0089CF"/>
</svg>
