<svg width="52" height="52" viewBox="0 0 52 52" fill="none" xmlns="http://www.w3.org/2000/svg">
<path d="M11.9844 25.9941C12.1195 25.9917 12.252 26.0313 12.3629 26.1071C12.4738 26.183 12.5574 26.2912 12.6019 26.4164C12.8583 27.1988 13.1818 27.9585 13.5688 28.6875C13.6287 28.8062 13.6484 28.9405 13.625 29.071C13.6016 29.2014 13.5364 29.3211 13.4388 29.4127C13.0215 29.8247 12.7873 30.3818 12.7873 30.9626C12.7873 31.5433 13.0215 32.1005 13.4388 32.5125L15.5838 34.6162C16.0039 35.0255 16.5719 35.2552 17.1641 35.2552C17.7562 35.2552 18.3243 35.0255 18.7444 34.6162C18.838 34.5236 18.9591 34.4621 19.0903 34.4407C19.2216 34.4192 19.3564 34.4388 19.4756 34.4967C20.22 34.8798 20.9976 35.1972 21.7994 35.445C21.9257 35.4882 22.0351 35.569 22.1123 35.6762C22.1895 35.7833 22.2307 35.9114 22.23 36.0427C22.23 36.3332 22.2885 36.6209 22.4021 36.8892C22.5157 37.1575 22.6822 37.4012 22.8921 37.6063C23.1019 37.8114 23.351 37.9738 23.625 38.0843C23.899 38.1947 24.1925 38.251 24.4887 38.25H27.5113C28.1053 38.2479 28.6745 38.0155 29.0946 37.6035C29.5147 37.1915 29.7516 36.6333 29.7537 36.0506C29.7531 35.9194 29.7942 35.7913 29.8714 35.6841C29.9486 35.577 30.058 35.4961 30.1844 35.453C30.9827 35.2029 31.7574 34.8856 32.5 34.5047C32.618 34.4474 32.7515 34.4282 32.8813 34.4496C33.0111 34.4711 33.1307 34.5322 33.2231 34.6242C33.6432 35.0335 34.2113 35.2631 34.8034 35.2631C35.3956 35.2631 35.9636 35.0335 36.3837 34.6242L38.5287 32.5205C38.946 32.1084 39.1802 31.5513 39.1802 30.9705C39.1802 30.3898 38.946 29.8326 38.5287 29.4206C38.4368 29.3235 38.378 29.2007 38.3606 29.0693C38.3431 28.9379 38.3678 28.8045 38.4312 28.6875C38.8266 27.9476 39.153 27.1741 39.4062 26.3766C39.4515 26.2558 39.5352 26.1526 39.645 26.0823C39.7547 26.0119 39.8847 25.9782 40.0156 25.9861C40.6076 25.984 41.1746 25.7524 41.5932 25.3419C42.0118 24.9314 42.2479 24.3752 42.25 23.7947V20.8303C42.25 20.2484 42.0149 19.6902 41.5961 19.2779C41.1773 18.8657 40.609 18.633 40.0156 18.6309C39.8805 18.6333 39.748 18.5937 39.6371 18.5179C39.5262 18.442 39.4426 18.3338 39.3981 18.2086C39.1417 17.4262 38.8182 16.6665 38.4312 15.9375C38.3713 15.8188 38.3516 15.6845 38.375 15.554C38.3984 15.4236 38.4636 15.3039 38.5612 15.2123C38.9785 14.8003 39.2127 14.2432 39.2127 13.6624C39.2127 13.0817 38.9785 12.5245 38.5612 12.1125L36.4162 10.0088C35.9961 9.5995 35.4281 9.36982 34.8359 9.36982C34.2438 9.36982 33.6757 9.5995 33.2556 10.0088C33.1603 10.1041 33.0369 10.1677 32.9028 10.1906C32.7687 10.2134 32.6306 10.1944 32.5081 10.1362C31.7638 9.75314 30.9861 9.4358 30.1844 9.18797C30.058 9.14479 29.9486 9.06397 29.8714 8.95681C29.7942 8.84966 29.7531 8.72152 29.7537 8.59031C29.7548 8.30044 29.6977 8.0132 29.5855 7.74499C29.4734 7.47678 29.3085 7.23286 29.1003 7.02715C28.8921 6.82144 28.6446 6.65797 28.3719 6.54607C28.0993 6.43417 27.8068 6.37604 27.5113 6.375H24.4887C24.1925 6.37604 23.8994 6.43443 23.6262 6.54683C23.353 6.65922 23.1051 6.8234 22.8968 7.02996C22.6885 7.23652 22.5237 7.48138 22.4121 7.75051C22.3005 8.01964 22.2441 8.30774 22.2462 8.59828C22.2498 8.72184 22.2131 8.84329 22.1415 8.94502C22.0699 9.04675 21.9672 9.12347 21.8481 9.16406C21.0371 9.41133 20.2511 9.73144 19.5 10.1203C19.3775 10.1785 19.2394 10.1975 19.1053 10.1746C18.9712 10.1518 18.8478 10.0882 18.7525 9.99281C18.3324 9.58356 17.7643 9.35388 17.1722 9.35388C16.5801 9.35388 16.012 9.58356 15.5919 9.99281L13.4469 12.0966C13.0296 12.5086 12.7954 13.0658 12.7954 13.6465C12.7954 14.2272 13.0296 14.7844 13.4469 15.1964C13.5441 15.2899 13.6089 15.4109 13.6323 15.5424C13.6556 15.674 13.6362 15.8094 13.5769 15.9295C13.1877 16.6602 12.8642 17.4228 12.61 18.2086C12.5655 18.3338 12.4819 18.442 12.371 18.5179C12.2601 18.5937 12.1277 18.6333 11.9925 18.6309C11.3978 18.6309 10.8274 18.8627 10.4068 19.2751C9.98626 19.6876 9.75 20.247 9.75 20.8303V23.7947C9.75 24.3766 9.98514 24.9348 10.4039 25.3471C10.8227 25.7593 11.391 25.992 11.9844 25.9941ZM11.375 20.8303C11.375 20.6711 11.4389 20.5182 11.553 20.4049C11.667 20.2915 11.822 20.2268 11.9844 20.2247C12.4662 20.2299 12.937 20.0832 13.3275 19.8064C13.718 19.5295 14.0077 19.1371 14.1538 18.6867C14.3604 17.9915 14.6324 17.3165 14.9663 16.6706C15.1996 16.2586 15.2924 15.7842 15.231 15.3167C15.1696 14.8493 14.9572 14.4134 14.625 14.0728C14.5123 13.9584 14.4493 13.8056 14.4493 13.6465C14.4493 13.4874 14.5123 13.3346 14.625 13.2202L16.7294 11.1562C16.845 11.0438 17.0012 10.9808 17.1641 10.9808C17.3269 10.9808 17.4831 11.0438 17.5987 11.1562C17.9374 11.4936 18.3777 11.7153 18.8547 11.7885C19.3316 11.8616 19.8199 11.7825 20.2475 11.5627C20.9128 11.2188 21.6091 10.936 22.3275 10.718C22.7829 10.5769 23.1795 10.2948 23.4578 9.91414C23.7361 9.53345 23.8811 9.07458 23.8712 8.60625C23.8712 8.44563 23.9363 8.29159 24.0521 8.17801C24.1679 8.06443 24.325 8.00062 24.4887 8.00062H27.5113C27.675 8.00062 27.8321 8.06443 27.9479 8.17801C28.0637 8.29159 28.1287 8.44563 28.1287 8.60625C28.1252 9.07746 28.2755 9.53741 28.5577 9.91881C28.8398 10.3002 29.239 10.5831 29.6969 10.7259C30.4072 10.9414 31.0954 11.2215 31.7525 11.5627C32.1794 11.785 32.6683 11.8656 33.1459 11.7924C33.6235 11.7191 34.064 11.4959 34.4013 11.1562C34.5179 11.0457 34.6737 10.984 34.8359 10.984C34.9981 10.984 35.154 11.0457 35.2706 11.1562L37.4156 13.26C37.5302 13.3734 37.5945 13.5266 37.5945 13.6863C37.5945 13.846 37.5302 13.9992 37.4156 14.1127C37.0727 14.4455 36.8475 14.8773 36.773 15.3447C36.6984 15.8122 36.7784 16.2908 37.0013 16.7105C37.3351 17.3564 37.6071 18.0313 37.8138 18.7266C37.9598 19.1769 38.2495 19.5694 38.64 19.8462C39.0305 20.1231 39.5013 20.2697 39.9831 20.2645C40.1455 20.2666 40.3005 20.3314 40.4145 20.4447C40.5286 20.5581 40.5925 20.7109 40.5925 20.8702V23.8345C40.5915 23.9158 40.574 23.996 40.541 24.0706C40.5081 24.1452 40.4604 24.2126 40.4007 24.269C40.3409 24.3253 40.2704 24.3695 40.1932 24.3988C40.1159 24.4282 40.0335 24.4423 39.9506 24.4402C39.4769 24.4344 39.014 24.5785 38.6305 24.8513C38.247 25.1241 37.9634 25.5108 37.8219 25.9542C37.5996 26.6588 37.3113 27.3417 36.9606 27.9942C36.7375 28.4144 36.6581 28.8938 36.7342 29.3616C36.8103 29.8294 37.0378 30.2608 37.3831 30.592C37.4958 30.7064 37.5588 30.8593 37.5588 31.0184C37.5588 31.1774 37.4958 31.3303 37.3831 31.4447L35.2381 33.5484C35.1228 33.6584 34.9683 33.72 34.8075 33.72C34.6467 33.72 34.4922 33.6584 34.3769 33.5484C34.0375 33.2121 33.5973 32.9913 33.1206 32.9181C32.644 32.845 32.156 32.9235 31.7281 33.142C31.0695 33.4695 30.3814 33.7363 29.6725 33.9389C29.2147 34.0818 28.8155 34.3646 28.5333 34.746C28.2511 35.1274 28.1008 35.5874 28.1044 36.0586C28.1044 36.2192 28.0393 36.3733 27.9235 36.4868C27.8077 36.6004 27.6506 36.6642 27.4869 36.6642H24.4887C24.4077 36.6642 24.3274 36.6486 24.2524 36.6181C24.1775 36.5877 24.1095 36.5431 24.0521 36.4868C23.9948 36.4306 23.9493 36.3638 23.9183 36.2904C23.8872 36.2169 23.8712 36.1381 23.8712 36.0586C23.8748 35.5874 23.7245 35.1274 23.4423 34.746C23.1602 34.3646 22.761 34.0818 22.3031 33.9389C21.5942 33.7363 20.9061 33.4695 20.2475 33.142C19.8203 32.9209 19.3316 32.8411 18.8544 32.9143C18.3771 32.9875 17.9367 33.2099 17.5987 33.5484C17.4835 33.6584 17.329 33.72 17.1681 33.72C17.0073 33.72 16.8528 33.6584 16.7375 33.5484L14.625 31.4048C14.5104 31.2914 14.4461 31.1382 14.4461 30.9785C14.4461 30.8188 14.5104 30.6656 14.625 30.5522C14.9679 30.2193 15.1931 29.7876 15.2677 29.3201C15.3422 28.8526 15.2622 28.374 15.0394 27.9544C14.7055 27.3085 14.4335 26.6335 14.2269 25.9383C14.0808 25.4879 13.7912 25.0955 13.4007 24.8186C13.0101 24.5417 12.5393 24.3951 12.0575 24.4003C11.8951 24.3982 11.7402 24.3335 11.6261 24.2201C11.5121 24.1068 11.4481 23.9539 11.4481 23.7947L11.375 20.8303Z" fill="#0089CF"/>
<path d="M26 31.875C27.9284 31.875 29.8134 31.3142 31.4168 30.2634C33.0202 29.2127 34.2699 27.7192 35.0078 25.9719C35.7458 24.2246 35.9389 22.3019 35.5627 20.447C35.1865 18.592 34.2579 16.8881 32.8943 15.5508C31.5307 14.2135 29.7934 13.3027 27.9021 12.9337C26.0108 12.5648 24.0504 12.7541 22.2688 13.4779C20.4873 14.2017 18.9645 15.4273 17.8932 16.9999C16.8218 18.5724 16.25 20.4212 16.25 22.3125C16.25 24.8486 17.2772 27.2809 19.1057 29.0742C20.9342 30.8675 23.4141 31.875 26 31.875ZM26 14.3438C27.607 14.3438 29.1779 14.8111 30.514 15.6867C31.8502 16.5623 32.8916 17.8069 33.5065 19.263C34.1215 20.7191 34.2824 22.3213 33.9689 23.8671C33.6554 25.4129 32.8815 26.8328 31.7452 27.9473C30.6089 29.0617 29.1612 29.8207 27.5851 30.1281C26.009 30.4356 24.3753 30.2778 22.8907 29.6747C21.406 29.0715 20.1371 28.0502 19.2443 26.7397C18.3515 25.4292 17.875 23.8886 17.875 22.3125C17.875 20.1991 18.731 18.1722 20.2548 16.6777C21.7785 15.1833 23.8451 14.3438 26 14.3438Z" fill="#0089CF"/>
<path d="M21.3844 39.1033C19.8221 38.5896 18.3604 37.819 17.0619 36.8242L16.0625 38.0833C17.3509 39.0671 18.7835 39.8543 20.3119 40.4181V44.6256C20.3119 46.105 20.9111 47.5239 21.9777 48.57C23.0443 49.6161 24.491 50.2038 25.9994 50.2038C27.5078 50.2038 28.9544 49.6161 30.021 48.57C31.0877 47.5239 31.6869 46.105 31.6869 44.6256V40.4181C33.2181 39.855 34.6535 39.0678 35.9444 38.0833L34.9369 36.8242C33.6359 37.8197 32.1713 38.5905 30.6062 39.1033C30.449 39.1572 30.3124 39.2572 30.2151 39.3897C30.1177 39.5223 30.0642 39.681 30.0619 39.8444V42.235H21.9369V39.8444C21.9339 39.68 21.8793 39.5206 21.7804 39.388C21.6815 39.2553 21.5431 39.1559 21.3844 39.1033ZM25.9994 48.61C25.3687 48.61 24.7467 48.466 24.1826 48.1894C23.6185 47.9127 23.1278 47.5111 22.7494 47.0163H29.2494C28.871 47.5111 28.3803 47.9127 27.8162 48.1894C27.2521 48.466 26.6301 48.61 25.9994 48.61ZM30.0619 43.8288V44.6256C30.0598 44.8931 30.0326 45.1599 29.9806 45.4225H22.0181C21.9662 45.1599 21.939 44.8931 21.9369 44.6256V43.8288H30.0619Z" fill="#0089CF"/>
<path d="M45.5 21.5156H47.9375V23.1094H45.5V21.5156Z" fill="#0089CF"/>
<path d="M4.0625 21.5156H6.5V23.1094H4.0625V21.5156Z" fill="#0089CF"/>
<path d="M25.1875 0.796875H26.8125V3.1875H25.1875V0.796875Z" fill="#0089CF"/>
<path d="M39.2031 36.3984L40.3522 35.2715L42.0757 36.9619L40.9267 38.0889L39.2031 36.3984Z" fill="#0089CF"/>
<path d="M9.91406 7.66406L11.0631 6.53711L12.7867 8.22754L11.6376 9.35449L9.91406 7.66406Z" fill="#0089CF"/>
<path d="M39.2031 8.23438L40.9267 6.54395L42.0757 7.6709L40.3522 9.36133L39.2031 8.23438Z" fill="#0089CF"/>
<path d="M9.90625 36.957L11.6298 35.2666L12.7789 36.3936L11.0553 38.084L9.90625 36.957Z" fill="#0089CF"/>
</svg>
