<svg width="52" height="52" viewBox="0 0 52 52" fill="none" xmlns="http://www.w3.org/2000/svg">
<g clip-path="url(#clip0_6591_16167)">
<path d="M46.5031 22.5093L41.5411 21.2083C41.2489 20.2366 40.8586 19.2928 40.3781 18.3935L42.9648 13.9707C43.1154 13.7131 43.0731 13.3866 42.8623 13.1754L38.8223 9.13426C38.6115 8.92344 38.2853 8.88177 38.0277 9.03139L33.6034 11.6146C32.7025 11.1359 31.759 10.7473 30.7905 10.4558L29.4894 5.4938C29.4138 5.20513 29.153 5.00391 28.8548 5.00391H23.1377C22.8394 5.00391 22.5786 5.20513 22.503 5.4938L21.202 10.4558C20.2344 10.7477 19.2926 11.1375 18.3929 11.6187L13.9654 9.03172C13.7078 8.88111 13.3806 8.92344 13.1705 9.13426L9.12995 13.1754C8.9188 13.3863 8.87688 13.713 9.02741 13.9707L11.6141 18.3935C11.1339 19.2918 10.744 20.2356 10.4511 21.2079L5.48956 22.5093C5.20122 22.5849 5 22.8457 5 23.144V28.8617C5 29.1603 5.20155 29.4211 5.49014 29.4967L10.4511 30.7926C10.744 31.7653 11.1339 32.7091 11.6141 33.6068L9.02741 38.0296C8.8768 38.2869 8.9188 38.6137 9.12962 38.8245L13.1702 42.8712C13.3804 43.082 13.7069 43.1239 13.9654 42.974C13.9654 42.974 17.3275 41.0091 18.393 40.3867C19.2926 40.8682 20.2345 41.2584 21.2024 41.55L22.5031 46.5068C22.5787 46.7951 22.8395 46.9964 23.1378 46.9964H28.8548C29.1531 46.9964 29.4139 46.7951 29.4895 46.5068L30.7902 41.55C31.7587 41.2584 32.7025 40.8699 33.6035 40.3912L38.0278 42.9744C38.2854 43.1243 38.6109 43.082 38.823 42.8712L42.863 38.8245C43.0732 38.6133 43.1155 38.2869 42.9649 38.0296L40.3782 33.6068C40.8587 32.7082 41.249 31.7643 41.5411 30.7926L46.5025 29.4967C46.7915 29.4211 46.9926 29.1603 46.9926 28.8617V23.144C46.9926 22.8457 46.7914 22.5849 46.5031 22.5093ZM45.6804 28.3549L40.8478 29.6175C40.621 29.6769 40.4428 29.8527 40.3807 30.0789C40.0751 31.197 39.6285 32.2786 39.0531 33.2932C38.9377 33.4966 38.9396 33.7462 39.0576 33.9481L41.5763 38.2555L38.2521 41.5855L33.945 39.0708C33.7437 38.9533 33.4952 38.9513 33.2927 39.0657C32.2733 39.6388 31.1913 40.0845 30.077 40.3898C29.8509 40.4517 29.6752 40.6294 29.6157 40.856L28.3486 45.684H23.6439L22.3768 40.856C22.3173 40.6295 22.1417 40.4517 21.9155 40.3898C20.8032 40.0848 19.7235 39.6382 18.7098 39.0634C18.3808 38.8738 18.3782 38.8753 15.6778 40.4535L13.7408 41.5855L10.4156 38.2555L12.935 33.9481C13.0529 33.7462 13.0549 33.4966 12.9396 33.2932C12.3648 32.2799 11.9182 31.1986 11.6113 30.0789C11.5495 29.8527 11.3714 29.6769 11.1446 29.6175L6.31234 28.3549V23.6502L11.1452 22.3828C11.3717 22.3232 11.5495 22.1476 11.6114 21.9215C11.918 20.8021 12.3649 19.7208 12.9396 18.7071C13.055 18.5037 13.0531 18.2542 12.9351 18.0523L10.416 13.7452L13.7406 10.4199L18.0526 12.9397C18.2544 13.0576 18.5033 13.0586 18.7071 12.9442C19.7236 12.3675 20.8033 11.9209 21.9157 11.616C22.1418 11.5541 22.3177 11.3763 22.377 11.1495L23.6441 6.31632H28.3488L29.6159 11.1495C29.6752 11.3763 29.851 11.5542 30.0772 11.616C31.1914 11.9213 32.2733 12.3669 33.2928 12.9401C33.4959 13.0538 33.7446 13.0522 33.9451 12.935L38.2523 10.4201L41.5765 13.7453L39.0577 18.0525C38.9399 18.2542 38.9379 18.5039 39.0532 18.7073C39.6286 19.7223 40.0752 20.8039 40.3809 21.9216C40.4431 22.1475 40.6205 22.3234 40.8473 22.383L45.6805 23.6503V28.3549H45.6804Z" fill="#0089CF"/>
<path d="M26.0005 15.3906C20.1502 15.3906 15.3906 20.1502 15.3906 26.0002C15.3906 31.8503 20.1502 36.6098 26.0005 36.6098C31.8506 36.6098 36.6101 31.8503 36.6101 26.0002C36.6101 20.1502 31.8506 15.3906 26.0005 15.3906ZM26.0005 35.2976C20.8739 35.2976 16.7029 31.1269 16.7029 26.0002C16.7029 20.8735 20.8738 16.7029 26.0005 16.7029C31.1273 16.7029 35.2979 20.8736 35.2979 26.0002C35.2979 31.1268 31.1272 35.2976 26.0005 35.2976Z" fill="#0089CF"/>
<mask id="path-3-inside-1_6591_16167" fill="white">
<path d="M24.2852 29.3673C21.7477 29.3673 19.4609 27.0709 19.4609 25.9903C19.4609 24.8807 21.6898 22.6133 24.2852 22.6133C26.8228 22.6133 29.1095 24.9096 29.1095 25.9903C29.1095 27.0999 26.8807 29.3673 24.2852 29.3673ZM24.2852 23.5781C22.1143 23.5781 20.4258 25.4982 20.4258 25.9903C20.4547 26.4052 22.0757 28.4024 24.2852 28.4024C26.4562 28.4024 28.1447 26.4824 28.1447 25.9903C28.1157 25.5754 26.4948 23.5781 24.2852 23.5781Z"/>
</mask>
<path d="M24.2852 29.3673C21.7477 29.3673 19.4609 27.0709 19.4609 25.9903C19.4609 24.8807 21.6898 22.6133 24.2852 22.6133C26.8228 22.6133 29.1095 24.9096 29.1095 25.9903C29.1095 27.0999 26.8807 29.3673 24.2852 29.3673ZM24.2852 23.5781C22.1143 23.5781 20.4258 25.4982 20.4258 25.9903C20.4547 26.4052 22.0757 28.4024 24.2852 28.4024C26.4562 28.4024 28.1447 26.4824 28.1447 25.9903C28.1157 25.5754 26.4948 23.5781 24.2852 23.5781Z" fill="#0089CF"/>
<path d="M20.4258 25.9903H17.8008V26.0817L17.8072 26.173L20.4258 25.9903ZM28.1447 25.9903H30.7697V25.8988L30.7633 25.8076L28.1447 25.9903ZM24.2852 29.3673V26.7423C23.7813 26.7423 23.1355 26.4923 22.5586 26.0321C22.2849 25.8137 22.105 25.6082 22.0167 25.4805C21.9733 25.4178 21.9763 25.4087 21.9963 25.4582C22.0108 25.4939 22.0859 25.6841 22.0859 25.9903H19.4609H16.8359C16.8359 27.0578 17.3377 27.9447 17.699 28.4671C18.1188 29.074 18.6692 29.6451 19.2844 30.136C20.4852 31.0941 22.2516 31.9923 24.2852 31.9923V29.3673ZM19.4609 25.9903H22.0859C22.0859 26.2729 22.0197 26.449 22.0053 26.4857C21.9865 26.5336 21.9834 26.5253 22.0236 26.466C22.1057 26.3445 22.276 26.1464 22.5399 25.9352C23.09 25.495 23.7352 25.2383 24.2852 25.2383V22.6133V19.9883C22.2398 19.9883 20.4728 20.8653 19.2596 21.8362C18.6419 22.3305 18.0928 22.9073 17.6759 23.5231C17.3088 24.0655 16.8359 24.9435 16.8359 25.9903H19.4609ZM24.2852 22.6133V25.2383C24.7892 25.2383 25.435 25.4882 26.0119 25.9485C26.2855 26.1668 26.4654 26.3724 26.5537 26.5C26.5971 26.5628 26.5942 26.5718 26.5741 26.5224C26.5596 26.4867 26.4845 26.2964 26.4845 25.9903H29.1095H31.7345C31.7345 24.9227 31.2328 24.0358 30.8714 23.5134C30.4517 22.9066 29.9013 22.3354 29.2861 21.8446C28.0852 20.8865 26.3189 19.9883 24.2852 19.9883V22.6133ZM29.1095 25.9903H26.4845C26.4845 25.7077 26.5508 25.5316 26.5652 25.4949C26.584 25.447 26.5871 25.4552 26.5469 25.5146C26.4647 25.636 26.2944 25.8342 26.0305 26.0454C25.4805 26.4856 24.8353 26.7423 24.2852 26.7423V29.3673V31.9923C26.3306 31.9923 28.0976 31.1153 29.3108 30.1444C29.9286 29.6501 30.4777 29.0733 30.8945 28.4575C31.2617 27.9151 31.7345 27.0371 31.7345 25.9903H29.1095ZM24.2852 23.5781V20.9531C22.4326 20.9531 20.9136 21.7594 19.9258 22.5307C19.4202 22.9256 18.9821 23.3655 18.645 23.8026C18.4782 24.0188 18.3048 24.2748 18.1605 24.5599C18.0541 24.7702 17.8008 25.3026 17.8008 25.9903H20.4258H23.0508C23.0508 26.312 22.9862 26.5523 22.9498 26.6681C22.9094 26.797 22.867 26.8868 22.8447 26.9308C22.8012 27.0167 22.7767 27.042 22.8021 27.009C22.8494 26.9476 22.9691 26.8153 23.157 26.6686C23.5562 26.3569 23.9669 26.2031 24.2852 26.2031V23.5781ZM20.4258 25.9903L17.8072 26.173C17.8523 26.8198 18.1202 27.3147 18.2045 27.4693C18.3396 27.7173 18.4987 27.9481 18.6564 28.1514C18.9751 28.5621 19.394 28.9962 19.8923 29.3971C20.8643 30.1792 22.3863 31.0274 24.2852 31.0274V28.4024V25.7774C23.9746 25.7774 23.5814 25.6271 23.1833 25.3067C22.9965 25.1565 22.8667 25.0135 22.8042 24.933C22.7714 24.8907 22.7818 24.8974 22.8142 24.9568C22.8304 24.9865 22.8679 25.0583 22.9082 25.1658C22.9403 25.2518 23.0218 25.4839 23.0444 25.8076L20.4258 25.9903ZM24.2852 28.4024V31.0274C26.1378 31.0274 27.6569 30.2211 28.6446 29.4498C29.1503 29.055 29.5884 28.615 29.9254 28.178C30.0922 27.9618 30.2657 27.7057 30.41 27.4207C30.5164 27.2104 30.7697 26.678 30.7697 25.9903H28.1447H25.5197C25.5197 25.6686 25.5843 25.4283 25.6206 25.3124C25.6611 25.1835 25.7035 25.0938 25.7258 25.0498C25.7693 24.9639 25.7938 24.9386 25.7684 24.9716C25.721 25.0329 25.6013 25.1653 25.4135 25.3119C25.0142 25.6237 24.6035 25.7774 24.2852 25.7774V28.4024ZM28.1447 25.9903L30.7633 25.8076C30.7182 25.1608 30.4503 24.6659 30.366 24.5112C30.2308 24.2633 30.0718 24.0325 29.914 23.8291C29.5954 23.4185 29.1765 22.9843 28.6782 22.5834C27.7062 21.8014 26.1841 20.9531 24.2852 20.9531V23.5781V26.2031C24.5958 26.2031 24.989 26.3535 25.3871 26.6738C25.5739 26.8241 25.7037 26.967 25.7662 27.0476C25.799 27.0898 25.7886 27.0831 25.7563 27.0238C25.7401 26.9941 25.7025 26.9223 25.6623 26.8148C25.6301 26.7288 25.5486 26.4967 25.526 26.173L28.1447 25.9903Z" fill="#0089CF" mask="url(#path-3-inside-1_6591_16167)"/>
<mask id="path-5-inside-2_6591_16167" fill="white">
<path d="M30.5528 27.918C29.9353 27.918 28.1406 27.1558 28.1406 25.9883C28.1406 24.8208 29.9353 24.0586 30.5528 24.0586C30.8229 24.0586 31.0352 24.2709 31.0352 24.541V27.4356C31.0352 27.7058 30.8229 27.918 30.5528 27.918ZM30.0703 25.1585C29.6265 25.3515 29.1055 25.7085 29.1055 25.9883C29.1055 26.2681 29.6265 26.6251 30.0703 26.8181V25.1585Z"/>
</mask>
<path d="M30.5528 27.918C29.9353 27.918 28.1406 27.1558 28.1406 25.9883C28.1406 24.8208 29.9353 24.0586 30.5528 24.0586C30.8229 24.0586 31.0352 24.2709 31.0352 24.541V27.4356C31.0352 27.7058 30.8229 27.918 30.5528 27.918ZM30.0703 25.1585C29.6265 25.3515 29.1055 25.7085 29.1055 25.9883C29.1055 26.2681 29.6265 26.6251 30.0703 26.8181V25.1585Z" fill="#0089CF"/>
<path d="M30.0703 25.1585H32.6953V21.1549L29.0237 22.7512L30.0703 25.1585ZM30.0703 26.8181L29.0237 29.2254L32.6953 30.8218V26.8181H30.0703ZM30.5528 27.918V25.293C30.7201 25.293 30.8186 25.3156 30.8206 25.316C30.8365 25.3194 30.8238 25.3176 30.7862 25.3043C30.7059 25.2761 30.6086 25.2302 30.53 25.1799C30.4421 25.1237 30.4624 25.1168 30.5257 25.2007C30.5996 25.2986 30.7656 25.5733 30.7656 25.9883H28.1406H25.5156C25.5156 27.9698 26.9742 29.1374 27.7003 29.602C28.1475 29.8882 28.6146 30.1058 29.0445 30.257C29.4235 30.3903 29.9724 30.543 30.5528 30.543V27.918ZM28.1406 25.9883H30.7656C30.7656 26.4033 30.5996 26.678 30.5257 26.7759C30.4624 26.8598 30.4421 26.8529 30.53 26.7967C30.6086 26.7464 30.7059 26.7005 30.7862 26.6723C30.8238 26.6591 30.8365 26.6572 30.8206 26.6606C30.8186 26.6611 30.7201 26.6836 30.5528 26.6836V24.0586V21.4336C29.9724 21.4336 29.4235 21.5863 29.0445 21.7196C28.6146 21.8708 28.1475 22.0884 27.7003 22.3746C26.9742 22.8392 25.5156 24.0068 25.5156 25.9883H28.1406ZM30.5528 24.0586V26.6836C29.3732 26.6836 28.4102 25.7206 28.4102 24.541H31.0352H33.6602C33.6602 22.8211 32.2727 21.4336 30.5528 21.4336V24.0586ZM31.0352 24.541H28.4102V27.4356H31.0352H33.6602V24.541H31.0352ZM31.0352 27.4356H28.4102C28.4102 26.256 29.3732 25.293 30.5528 25.293V27.918V30.543C32.2727 30.543 33.6602 29.1555 33.6602 27.4356H31.0352ZM30.0703 25.1585L29.0237 22.7512C28.6355 22.92 28.1849 23.169 27.7833 23.4898C27.5846 23.6484 27.318 23.8878 27.0793 24.2123C26.8647 24.504 26.4805 25.1243 26.4805 25.9883H29.1055H31.7305C31.7305 26.7124 31.4113 27.1832 31.3084 27.3232C31.1812 27.4961 31.0726 27.5816 31.0597 27.5919C31.0295 27.616 31.0613 27.5901 31.117 27.5658L30.0703 25.1585ZM29.1055 25.9883H26.4805C26.4805 26.8523 26.8647 27.4726 27.0793 27.7643C27.318 28.0889 27.5846 28.3282 27.7833 28.4868C28.1849 28.8076 28.6355 29.0566 29.0237 29.2254L30.0703 26.8181L31.117 24.4108C31.0613 24.3866 31.0295 24.3606 31.0597 24.3847C31.0726 24.395 31.1812 24.4805 31.3084 24.6534C31.4113 24.7934 31.7305 25.2642 31.7305 25.9883H29.1055ZM30.0703 26.8181H32.6953V25.1585H30.0703H27.4453V26.8181H30.0703Z" fill="#0089CF" mask="url(#path-5-inside-2_6591_16167)"/>
<mask id="path-7-inside-3_6591_16167" fill="white">
<path d="M21.875 24.832H23.2258V25.7969H21.875V24.832Z"/>
</mask>
<path d="M21.875 24.832H23.2258V25.7969H21.875V24.832Z" fill="#0089CF"/>
<path d="M21.875 24.832V22.207H19.25V24.832H21.875ZM23.2258 24.832H25.8508V22.207H23.2258V24.832ZM23.2258 25.7969V28.4219H25.8508V25.7969H23.2258ZM21.875 25.7969H19.25V28.4219H21.875V25.7969ZM21.875 24.832V27.457H23.2258V24.832V22.207H21.875V24.832ZM23.2258 24.832H20.6008V25.7969H23.2258H25.8508V24.832H23.2258ZM23.2258 25.7969V23.1719H21.875V25.7969V28.4219H23.2258V25.7969ZM21.875 25.7969H24.5V24.832H21.875H19.25V25.7969H21.875Z" fill="#0089CF" mask="url(#path-7-inside-3_6591_16167)"/>
<mask id="path-9-inside-4_6591_16167" fill="white">
<path d="M23.6033 29.1842L23.1016 28.3641C23.1112 28.3545 24.6357 27.3896 24.6357 25.9906C24.6357 24.5722 23.1209 23.6267 23.1016 23.617L23.6033 22.7969C23.6805 22.8451 25.6005 24.0415 25.6005 26.0002C25.6005 27.9589 23.6901 29.136 23.6033 29.1842Z"/>
</mask>
<path d="M23.6033 29.1842L23.1016 28.3641C23.1112 28.3545 24.6357 27.3896 24.6357 25.9906C24.6357 24.5722 23.1209 23.6267 23.1016 23.617L23.6033 22.7969C23.6805 22.8451 25.6005 24.0415 25.6005 26.0002C25.6005 27.9589 23.6901 29.136 23.6033 29.1842Z" fill="#0089CF"/>
<path d="M23.6033 29.1842L21.3641 30.5541L22.6777 32.7014L24.8781 31.4789L23.6033 29.1842ZM23.1016 28.3641L21.2454 26.508L19.7833 27.9701L20.8623 29.734L23.1016 28.3641ZM23.1016 23.617L20.8623 22.2471L19.3702 24.6862L21.9276 25.9649L23.1016 23.617ZM23.6033 22.7969L24.9945 20.5709L22.7471 19.1662L21.3641 21.427L23.6033 22.7969ZM23.6033 29.1842L25.8425 27.8144L25.3408 26.9942L23.1016 28.3641L20.8623 29.734L21.3641 30.5541L23.6033 29.1842ZM23.1016 28.3641L24.9577 30.2203C24.8492 30.3288 24.7542 30.4037 24.7389 30.4159C24.7052 30.4428 24.6779 30.4631 24.6645 30.4731C24.6369 30.4935 24.6151 30.5088 24.6085 30.5134C24.5991 30.52 24.5919 30.5249 24.5888 30.5271C24.5852 30.5295 24.5825 30.5313 24.5817 30.5319C24.5805 30.5327 24.5796 30.5333 24.5832 30.5309C24.5857 30.5292 24.5898 30.5264 24.5946 30.5232C24.6151 30.5093 24.6453 30.4886 24.6828 30.4622C24.7572 30.4097 24.8556 30.3379 24.9699 30.2478C25.1943 30.071 25.4974 29.8104 25.8077 29.4716C26.3756 28.8518 27.2607 27.6483 27.2607 25.9906H24.6357H22.0107C22.0107 25.8539 22.0492 25.7769 22.0475 25.7803C22.0422 25.7909 22.012 25.843 21.9367 25.9251C21.8648 26.0036 21.785 26.0734 21.7208 26.124C21.6908 26.1476 21.6685 26.1637 21.6577 26.1713C21.6526 26.1749 21.6491 26.1773 21.6462 26.1793C21.6451 26.18 21.644 26.1807 21.642 26.1821C21.6411 26.1828 21.6363 26.186 21.632 26.1889C21.6299 26.1903 21.6152 26.2003 21.5978 26.2125C21.5903 26.2177 21.5677 26.2335 21.5396 26.2544C21.526 26.2645 21.4985 26.285 21.4646 26.312C21.4492 26.3243 21.354 26.3993 21.2454 26.508L23.1016 28.3641ZM24.6357 25.9906H27.2607C27.2607 24.3334 26.3893 23.1314 25.809 22.4997C25.4957 22.1587 25.1885 21.8967 24.9574 21.7176C24.84 21.6266 24.7364 21.5525 24.6534 21.4959C24.612 21.4676 24.5739 21.4424 24.5399 21.4206C24.5233 21.4099 24.5047 21.3981 24.485 21.386C24.4757 21.3802 24.4613 21.3715 24.444 21.3612C24.4357 21.3563 24.4213 21.3478 24.4034 21.3375C24.3981 21.3345 24.3447 21.3037 24.2755 21.2691L23.1016 23.617L21.9276 25.9649C21.9123 25.9571 21.8852 25.9432 21.8735 25.937C21.8644 25.9322 21.8477 25.9232 21.8403 25.9191C21.8235 25.9099 21.8099 25.9022 21.8012 25.8973C21.7839 25.8874 21.7703 25.8794 21.7631 25.8751C21.7478 25.866 21.7362 25.8589 21.7304 25.8553C21.7175 25.8474 21.7085 25.8416 21.704 25.8388C21.6943 25.8325 21.6908 25.83 21.6926 25.8313C21.6962 25.8338 21.7141 25.8462 21.7414 25.8673C21.7687 25.8885 21.8023 25.916 21.8385 25.9486C21.8749 25.9814 21.9103 26.0161 21.9427 26.0513C21.9753 26.0868 22.0005 26.1181 22.0188 26.1438C22.0372 26.1696 22.0444 26.1837 22.0449 26.1848C22.0453 26.1855 22.0367 26.1683 22.0279 26.134C22.0187 26.0983 22.0107 26.049 22.0107 25.9906H24.6357ZM23.1016 23.617L25.3408 24.9869L25.8425 24.1667L23.6033 22.7969L21.3641 21.427L20.8623 22.2471L23.1016 23.617ZM23.6033 22.7969L22.212 25.0229C22.2141 25.0242 22.2121 25.0229 22.2103 25.0218C22.2087 25.0207 22.208 25.0203 22.2083 25.0205C22.209 25.021 22.2147 25.0246 22.2245 25.0314C22.2446 25.0452 22.2813 25.0713 22.3289 25.1085C22.4277 25.186 22.5529 25.2958 22.6703 25.4277C22.9306 25.72 22.9755 25.911 22.9755 26.0002H25.6005H28.2255C28.2255 24.1307 27.3104 22.7442 26.5914 21.9366C25.8612 21.1165 25.1221 20.6506 24.9945 20.5709L23.6033 22.7969ZM25.6005 26.0002H22.9755C22.9755 26.0905 22.9318 26.2753 22.6795 26.5569C22.565 26.6847 22.4429 26.7906 22.3476 26.8642C22.3016 26.8997 22.2675 26.9234 22.2514 26.9342C22.2177 26.9568 22.2472 26.9348 22.3285 26.8896L23.6033 29.1842L24.8781 31.4789C25.1247 31.3419 25.8699 30.8635 26.5895 30.0604C27.3141 29.2517 28.2255 27.8686 28.2255 26.0002H25.6005Z" fill="#0089CF" mask="url(#path-9-inside-4_6591_16167)"/>
<mask id="path-11-inside-5_6591_16167" fill="white">
<path d="M26.8594 21.9453L27.4547 22.7047L26.1107 23.7584L25.5153 22.999L26.8594 21.9453Z"/>
</mask>
<path d="M26.8594 21.9453L27.4547 22.7047L26.1107 23.7584L25.5153 22.999L26.8594 21.9453Z" fill="#0089CF"/>
<path d="M26.8594 21.9453L28.9253 20.3257L27.3056 18.2598L25.2398 19.8794L26.8594 21.9453ZM27.4547 22.7047L29.0743 24.7705L31.1402 23.1509L29.5206 21.085L27.4547 22.7047ZM26.1107 23.7584L24.0448 25.378L25.6644 27.4439L27.7303 25.8242L26.1107 23.7584ZM25.5153 22.999L23.8957 20.9331L21.8298 22.5528L23.4495 24.6186L25.5153 22.999ZM26.8594 21.9453L24.7935 23.5649L25.3888 24.3243L27.4547 22.7047L29.5206 21.085L28.9253 20.3257L26.8594 21.9453ZM27.4547 22.7047L25.8351 20.6388L24.491 21.6925L26.1107 23.7584L27.7303 25.8242L29.0743 24.7705L27.4547 22.7047ZM26.1107 23.7584L28.1765 22.1387L27.5812 21.3794L25.5153 22.999L23.4495 24.6186L24.0448 25.378L26.1107 23.7584ZM25.5153 22.999L27.135 25.0649L28.479 24.0112L26.8594 21.9453L25.2398 19.8794L23.8957 20.9331L25.5153 22.999Z" fill="#0089CF" mask="url(#path-11-inside-5_6591_16167)"/>
<mask id="path-13-inside-6_6591_16167" fill="white">
<path d="M26.0938 28.25L27.4429 29.2986L26.8505 30.0608L25.5013 29.0122L26.0938 28.25Z"/>
</mask>
<path d="M26.0938 28.25L27.4429 29.2986L26.8505 30.0608L25.5013 29.0122L26.0938 28.25Z" fill="#0089CF"/>
<path d="M26.0938 28.25L27.7046 26.1774L25.632 24.5665L24.0211 26.6391L26.0938 28.25ZM27.4429 29.2986L29.5155 30.9095L31.1264 28.8368L29.0538 27.226L27.4429 29.2986ZM26.8505 30.0608L25.2396 32.1334L27.3122 33.7443L28.9231 31.6717L26.8505 30.0608ZM25.5013 29.0122L23.4287 27.4014L21.8178 29.474L23.8905 31.0849L25.5013 29.0122ZM26.0938 28.25L24.4829 30.3226L25.832 31.3712L27.4429 29.2986L29.0538 27.226L27.7046 26.1774L26.0938 28.25ZM27.4429 29.2986L25.3703 27.6877L24.7779 28.45L26.8505 30.0608L28.9231 31.6717L29.5155 30.9095L27.4429 29.2986ZM26.8505 30.0608L28.4614 27.9882L27.1122 26.9396L25.5013 29.0122L23.8905 31.0849L25.2396 32.1334L26.8505 30.0608ZM25.5013 29.0122L27.5739 30.6231L28.1664 29.8609L26.0938 28.25L24.0211 26.6391L23.4287 27.4014L25.5013 29.0122Z" fill="#0089CF" mask="url(#path-13-inside-6_6591_16167)"/>
</g>
<defs>
<clipPath id="clip0_6591_16167">
<rect width="42" height="42" fill="white" transform="translate(5 5)"/>
</clipPath>
</defs>
</svg>
