<svg width="36" height="36" viewBox="0 0 36 36" fill="none" xmlns="http://www.w3.org/2000/svg">
<g clip-path="url(#clip0_6697_15831)">
<path d="M14.6803 17.6697C14.439 18.0876 14.3749 18.5745 14.4999 19.0406L14.9083 20.5646C15.0331 21.0307 15.332 21.4203 15.75 21.6617C16.0284 21.8224 16.3373 21.9044 16.6504 21.9044C16.8073 21.9044 16.9653 21.8838 17.1209 21.8422C17.587 21.7173 17.9766 21.4183 18.2179 21.0004C18.4592 20.5825 18.5233 20.0957 18.3984 19.6295L17.9899 18.1055C17.865 17.6394 17.5661 17.2498 17.1482 17.0084C16.7304 16.7671 16.2436 16.7031 15.7773 16.828C15.3111 16.9528 14.9215 17.2518 14.6803 17.6697ZM15.5937 18.1971C15.6941 18.0231 15.8562 17.8987 16.0503 17.8468C16.1152 17.8294 16.1804 17.821 16.2447 17.821C16.5766 17.821 16.8812 18.0429 16.9712 18.3785L17.3796 19.9025C17.4316 20.0965 17.4048 20.2991 17.3045 20.4731C17.204 20.647 17.042 20.7714 16.8479 20.8234C16.4469 20.9308 16.0343 20.6921 15.9269 20.2918L15.5186 18.7677C15.4665 18.5736 15.4933 18.371 15.5937 18.1971Z" fill="#0089CF"/>
<path d="M29.8552 16.8279C29.3892 16.7032 28.9023 16.7671 28.4844 17.0084C28.0665 17.2496 27.7676 17.6392 27.6427 18.1053L27.2342 19.6294C27.1093 20.0955 27.1734 20.5824 27.4146 21.0003C27.6559 21.4182 28.0455 21.7171 28.5116 21.842C28.6673 21.8837 28.8252 21.9043 28.9822 21.9043C29.2952 21.9043 29.6042 21.8223 29.8825 21.6615C30.3005 21.4202 30.5994 21.0306 30.7243 20.5645L31.1327 19.0405C31.2576 18.5744 31.1935 18.0875 30.9523 17.6696C30.711 17.2517 30.3213 16.9528 29.8552 16.8279ZM30.114 18.7675L29.7056 20.2916C29.5983 20.692 29.1851 20.9307 28.7847 20.8232C28.5906 20.7712 28.4285 20.6468 28.3281 20.4729C28.2277 20.2989 28.2009 20.0964 28.253 19.9024L28.6614 18.3783C28.7513 18.0428 29.0559 17.8209 29.3879 17.8209C29.4521 17.8209 29.5174 17.8292 29.5823 17.8467C29.7764 17.8986 29.9384 18.0231 30.0389 18.1969C30.1392 18.3709 30.166 18.5735 30.114 18.7675Z" fill="#0089CF"/>
<path d="M18.5156 15.3105V16.8883C18.5156 17.8844 19.326 18.6949 20.3222 18.6949C21.3184 18.6949 22.1288 17.8845 22.1288 16.8883V15.3105C22.1288 14.3143 21.3184 13.5039 20.3222 13.5039C19.326 13.5039 18.5156 14.3144 18.5156 15.3105ZM21.0741 15.3105V16.8883C21.0741 17.3029 20.7367 17.6402 20.3222 17.6402C19.9076 17.6402 19.5703 17.303 19.5703 16.8883V15.3105C19.5703 14.896 19.9076 14.5586 20.3222 14.5586C20.7368 14.5586 21.0741 14.896 21.0741 15.3105Z" fill="#0089CF"/>
<path d="M23.5 15.3105V16.8883C23.5 17.8844 24.3104 18.6949 25.3066 18.6949C26.3027 18.6949 27.1131 17.8845 27.1131 16.8883V15.3105C27.1131 14.3143 26.3027 13.5039 25.3066 13.5039C24.3105 13.5039 23.5 14.3144 23.5 15.3105ZM26.0585 15.3105V16.8883C26.0585 17.3029 25.7212 17.6402 25.3067 17.6402C24.892 17.6402 24.5548 17.303 24.5548 16.8883V15.3105C24.5548 14.896 24.8921 14.5586 25.3067 14.5586C25.7212 14.5586 26.0585 14.896 26.0585 15.3105Z" fill="#0089CF"/>
<path d="M10.8584 29.3041L10.7382 29.4243L10.618 29.3041C10.2808 28.9669 9.83248 28.7812 9.35562 28.7812C8.87876 28.7812 8.43045 28.9669 8.09323 29.3042C7.75601 29.6414 7.57031 30.0897 7.57031 30.5666C7.57031 31.0435 7.75601 31.4918 8.09323 31.829L10.1262 33.862C10.295 34.0307 10.5166 34.1151 10.7382 34.115C10.9599 34.115 11.1816 34.0306 11.3503 33.862L13.3833 31.829C13.7205 31.4918 13.9062 31.0435 13.9062 30.5666C13.9062 30.0898 13.7205 29.6414 13.3832 29.3042C12.6872 28.6081 11.5545 28.6081 10.8584 29.3041ZM12.6375 31.0832L10.7382 32.9824L8.83903 31.0832C8.55412 30.7983 8.55412 30.3348 8.83903 30.0499C8.97698 29.9119 9.16043 29.8359 9.35562 29.8359C9.5508 29.8359 9.73432 29.9119 9.87227 30.0499L10.3654 30.543C10.5714 30.7489 10.9052 30.7489 11.1112 30.543L11.6042 30.05C11.8891 29.7652 12.3525 29.7651 12.6375 30.05C12.9223 30.3347 12.9223 30.7983 12.6375 31.0832Z" fill="#0089CF"/>
<path d="M27.3125 32.5195C27.3125 32.8108 27.5485 33.0469 27.8398 33.0469H31.2222C31.5135 33.0469 31.7496 32.8108 31.7496 32.5195C31.7496 32.2283 31.5135 31.9922 31.2222 31.9922H27.8398C27.5486 31.9922 27.3125 32.2283 27.3125 32.5195Z" fill="#0089CF"/>
<path d="M33.2771 36C33.9474 36 34.5733 35.7349 35.0398 35.2536C35.5063 34.7723 35.7515 34.1383 35.7305 33.4685L35.0333 11.2233C35.0235 10.911 34.9513 10.609 34.8187 10.3259L32.8255 6.06867C32.7496 5.90653 32.7095 5.72611 32.7095 5.54695V1.6837C32.7095 0.755297 31.9542 0 31.0258 0H14.6047C13.6763 0 12.921 0.755297 12.921 1.6837V5.54695C12.921 5.72611 12.8809 5.90653 12.8049 6.06867L10.8116 10.3259C10.679 10.609 10.6069 10.9109 10.5971 11.2232L10.4711 15.2465C10.4619 15.5376 10.6905 15.781 10.9816 15.7901C10.9873 15.7903 10.9929 15.7904 10.9984 15.7904C11.282 15.7904 11.5163 15.565 11.5252 15.2795L11.6513 11.2563C11.6565 11.0881 11.6954 10.9255 11.7668 10.7731L13.7601 6.51593C13.9011 6.21471 13.9756 5.87967 13.9756 5.54695V1.6837C13.9756 1.33685 14.2579 1.05469 14.6047 1.05469H31.0258C31.3726 1.05469 31.6548 1.33685 31.6548 1.6837V5.54695C31.6548 5.87967 31.7294 6.21478 31.8704 6.51593L33.8636 10.7731C33.935 10.9256 33.9739 11.0881 33.9792 11.2563L34.6764 33.5016C34.6884 33.8837 34.5485 34.2452 34.2825 34.5196C34.0165 34.7941 33.6594 34.9453 33.2771 34.9453H21.3893C21.4789 34.692 21.5039 34.4173 21.4563 34.1455L20.5908 29.1942C21.1983 29.193 21.7952 29.0444 22.3288 28.7595C22.6334 28.5968 22.9972 28.5969 23.3017 28.7595C23.897 29.0775 24.571 29.2261 25.2511 29.1889C27.167 29.0848 28.7045 27.4994 28.7515 25.5796C28.7899 24.0107 27.8312 22.581 26.3658 22.0222C26.2672 21.9845 26.1859 21.9096 26.137 21.8111C25.506 20.5399 24.2331 19.7503 22.8152 19.7503C21.3973 19.7503 20.1244 20.5399 19.4933 21.8111C19.4445 21.9096 19.3632 21.9845 19.2646 22.0222C18.2683 22.4021 17.496 23.188 17.1233 24.1596C16.5739 23.8395 15.9362 23.6552 15.2558 23.6552C14.5604 23.6552 13.8951 23.8436 13.3113 24.2031C12.7559 23.8897 12.1323 23.7255 11.4872 23.7255C11.4114 23.7255 11.3358 23.7285 11.2603 23.7331L11.4533 17.5778C11.4624 17.2868 11.2338 17.0433 10.9427 17.0343C10.9371 17.034 10.9315 17.034 10.9259 17.034C10.6423 17.034 10.4081 17.2593 10.3991 17.5448L10.2136 23.465C9.48282 23.0368 8.64702 22.8067 7.78984 22.8067C7.64457 22.8067 7.49762 22.8133 7.3532 22.8263C7.06309 22.8525 6.8492 23.1089 6.87535 23.3989C6.90151 23.689 7.15878 23.9027 7.44791 23.8767C7.56097 23.8665 7.676 23.8613 7.78977 23.8613C8.69138 23.8613 9.56298 24.1874 10.2439 24.7795C10.3794 24.8972 10.5654 24.938 10.7377 24.8877C10.982 24.8163 11.2341 24.7802 11.4871 24.7802C12.039 24.7802 12.5689 24.9479 13.0197 25.265C13.2078 25.3974 13.4596 25.3927 13.6425 25.2534C14.1098 24.8978 14.6677 24.7099 15.2558 24.7099C16.564 24.7099 17.6545 25.6567 17.88 26.9008H4.11418C4.28729 25.989 4.79248 25.1719 5.55052 24.6047C5.78375 24.4303 5.83135 24.0998 5.65698 23.8666C5.48253 23.6334 5.15206 23.5858 4.91884 23.7602C3.89298 24.5276 3.22747 25.6526 3.04416 26.9008H2.61962C1.84927 26.9008 1.19396 27.4515 1.06128 28.2104L0.0238204 34.1455C-0.0568984 34.6069 0.0696641 35.0771 0.371023 35.4357C0.672313 35.7943 1.1138 35.9999 1.58216 35.9999H33.2771V36ZM19.6404 23.0077C19.9876 22.8753 20.2709 22.6169 20.4381 22.2801C20.8898 21.3702 21.8007 20.805 22.8153 20.805C23.8299 20.805 24.7407 21.3702 25.1925 22.2801C25.3597 22.6169 25.643 22.8753 25.9901 23.0077C27.0387 23.4075 27.7247 24.4308 27.6971 25.5538C27.6635 26.9272 26.564 28.0614 25.1939 28.1358C24.7065 28.1623 24.2239 28.0563 23.7985 27.8292C23.1829 27.5003 22.4476 27.5003 21.8319 27.8292C21.4066 28.0563 20.9239 28.1623 20.4365 28.1358C20.425 28.1352 20.4137 28.1355 20.4023 28.1356C20.247 27.4442 19.6538 26.9429 18.947 26.9047C18.848 26.127 18.509 25.4232 18.0055 24.8713C18.2068 24.0244 18.8162 23.322 19.6404 23.0077ZM1.17849 34.7572C1.07661 34.6359 1.03548 34.4832 1.06276 34.3271L2.10029 28.392C2.14452 28.139 2.36298 27.9554 2.61976 27.9554H18.8605C19.1172 27.9554 19.3358 28.139 19.38 28.392L20.4175 34.3271C20.4448 34.4831 20.4037 34.6359 20.3018 34.7572C20.1999 34.8785 20.0566 34.9453 19.8981 34.9453H1.58216C1.42374 34.9453 1.28038 34.8785 1.17849 34.7572Z" fill="#0089CF"/>
<path d="M29.6778 2.92969H26.457C26.1657 2.92969 25.9297 3.1658 25.9297 3.45703C25.9297 3.74827 26.1657 3.98438 26.457 3.98438H29.6778C29.9691 3.98438 30.2051 3.74827 30.2051 3.45703C30.2051 3.1658 29.9691 2.92969 29.6778 2.92969Z" fill="#0089CF"/>
<path d="M24.1545 2.92969H15.9492C15.6579 2.92969 15.4219 3.1658 15.4219 3.45703C15.4219 3.74827 15.6579 3.98438 15.9492 3.98438H24.1545C24.4458 3.98438 24.6818 3.74827 24.6818 3.45703C24.6818 3.1658 24.4457 2.92969 24.1545 2.92969Z" fill="#0089CF"/>
</g>
<defs>
<clipPath id="clip0_6697_15831">
<rect width="36" height="36" fill="white"/>
</clipPath>
</defs>
</svg>
