<svg width="36" height="36" viewBox="0 0 36 36" fill="none" xmlns="http://www.w3.org/2000/svg">
<path d="M35.4375 20.6811C35.1391 20.6811 34.853 20.5556 34.642 20.3322C34.431 20.1087 34.3125 19.8057 34.3125 19.4897V12.3409C34.3125 11.3929 33.9569 10.4838 33.324 9.81346C32.6911 9.14314 31.8326 8.76655 30.9375 8.76655H13.6491L10.0929 6.61418C10.4819 6.01678 10.6894 5.30782 10.6875 4.58215C10.684 4.42664 10.6232 4.27876 10.518 4.17012C10.4129 4.06147 10.2719 4.00067 10.125 4.00072H7.32544C7.06657 3.99547 6.8079 4.01903 6.55369 4.07101C5.60034 4.26946 4.74375 4.81799 4.13494 5.61991L3.0285 7.08064L1.39725 7.77526C0.985022 7.94949 0.631565 8.25058 0.382503 8.63966C0.133441 9.02874 0.000207805 9.48795 0 9.95801L0 11.3461C0.000185584 11.9303 0.205289 12.4937 0.575515 12.9268C0.945741 13.36 1.45469 13.6321 2.00363 13.6903L5.76844 14.087L7.875 20.7776V28.823L6.3 31.0468C6.23732 31.1353 6.19915 31.2406 6.18977 31.3508C6.18039 31.461 6.20017 31.5717 6.24688 31.6707C6.2936 31.7696 6.36541 31.8529 6.45428 31.911C6.54314 31.9692 6.64554 32 6.75 32H10.6875C10.8208 32 10.9498 31.9499 11.0515 31.8586C11.1532 31.7673 11.221 31.6407 11.2427 31.5014L12.2884 24.8512H19.2116L19.4186 26.1618C19.5001 26.6925 19.7301 27.1851 20.0789 27.5758C20.4277 27.9664 20.8792 28.2372 21.375 28.3529V29.0213C21.375 29.1793 21.4343 29.3309 21.5398 29.4426C21.6452 29.5543 21.7883 29.6171 21.9375 29.6171C22.0867 29.6171 22.2298 29.5543 22.3352 29.4426C22.4407 29.3309 22.5 29.1793 22.5 29.0213V28.4256H23.625V29.0213C23.625 29.1793 23.6843 29.3309 23.7898 29.4426C23.8952 29.5543 24.0383 29.6171 24.1875 29.6171C24.3367 29.6171 24.4798 29.5543 24.5852 29.4426C24.6907 29.3309 24.75 29.1793 24.75 29.0213V28.366C25.2425 28.26 25.6946 28.0027 26.0499 27.6261C26.4051 27.2496 26.6477 26.7705 26.7474 26.2488L26.8987 25.447H28.2488L29.205 29.5051L28.2178 31.0724C28.1609 31.1623 28.1282 31.2669 28.1232 31.3749C28.1181 31.483 28.141 31.5905 28.1893 31.6858C28.2375 31.7812 28.3094 31.8608 28.3972 31.9161C28.485 31.9715 28.5853 32.0005 28.6875 32H31.5C31.6332 32.0001 31.7622 31.95 31.8639 31.8588C31.9655 31.7676 32.0333 31.6412 32.0552 31.502L33.201 24.2204L32.0625 20.002V13.5324C32.0621 12.8553 31.9252 12.1862 31.6608 11.5698C31.3965 10.9533 31.0108 10.4038 30.5297 9.95801H30.9375C31.5342 9.95801 32.1065 10.2091 32.5285 10.656C32.9504 11.1028 33.1875 11.7089 33.1875 12.3409V19.4897C33.1875 20.1217 33.4246 20.7278 33.8465 21.1747C34.2685 21.6215 34.8408 21.8726 35.4375 21.8726C35.5867 21.8726 35.7298 21.8098 35.8352 21.6981C35.9407 21.5864 36 21.4349 36 21.2769C36 21.1189 35.9407 20.9673 35.8352 20.8556C35.7298 20.7439 35.5867 20.6811 35.4375 20.6811ZM30.9375 13.5324V20.1694L32.0496 24.2895L31.0236 30.8085H29.7388L30.2805 29.9483C30.3242 29.879 30.3537 29.8008 30.367 29.7187C30.3804 29.6366 30.3774 29.5525 30.3581 29.4717L29.2331 24.7059C29.2025 24.5772 29.1323 24.463 29.0334 24.3814C28.9346 24.2998 28.8128 24.2555 28.6875 24.2555H26.4375C25.917 24.2514 25.4126 24.0639 25.0037 23.7226C24.5949 23.3813 24.305 22.9057 24.1796 22.3706L23.6171 18.7962C23.607 18.7172 23.582 18.6412 23.5436 18.5726C23.5053 18.504 23.4543 18.4442 23.3937 18.3969C23.3331 18.3495 23.2641 18.3155 23.1909 18.2969C23.1177 18.2783 23.0417 18.2755 22.9674 18.2886C22.8932 18.3017 22.8221 18.3304 22.7585 18.3731C22.6949 18.4158 22.6401 18.4716 22.5972 18.5372C22.5544 18.6027 22.5244 18.6767 22.509 18.7548C22.4937 18.8329 22.4933 18.9134 22.5079 18.9916L23.0738 22.5875C23.2197 23.2778 23.5519 23.9084 24.0299 24.4025C24.5079 24.8966 25.1112 25.233 25.7664 25.3707L25.6444 26.0177C25.5742 26.3689 25.39 26.683 25.1239 26.9052C24.8577 27.1275 24.5263 27.2439 24.1875 27.2342H21.942C21.6035 27.2335 21.2761 27.1059 21.0179 26.8741C20.7597 26.6423 20.5873 26.3212 20.5312 25.9676L20.3366 24.7392C20.7982 24.5927 21.203 24.2928 21.4912 23.8838C21.7795 23.4749 21.936 22.9786 21.9375 22.4683C21.9375 22.3103 21.8782 22.1588 21.7727 22.0471C21.6673 21.9354 21.5242 21.8726 21.375 21.8726C21.2258 21.8726 21.0827 21.9354 20.9773 22.0471C20.8718 22.1588 20.8125 22.3103 20.8125 22.4683C20.8125 22.7843 20.694 23.0874 20.483 23.3108C20.272 23.5343 19.9859 23.6598 19.6875 23.6598H12.4987L12.8138 21.9917C12.8406 21.8378 12.8093 21.6789 12.7264 21.5493C12.6435 21.4197 12.5158 21.3298 12.3709 21.2991C12.226 21.2685 12.0755 21.2994 11.9519 21.3853C11.8284 21.4712 11.7417 21.6052 11.7107 21.7582L11.2607 24.1602L10.2111 30.8085H7.875L8.8875 29.3788C8.96053 29.2757 9 29.1502 9 29.0213V20.6811C9.00018 20.6163 8.99029 20.5519 8.97075 20.4905L6.96769 14.1281H8.4375C8.69215 14.1281 8.94286 14.1948 9.16723 14.3223C9.39161 14.4499 9.58267 14.6343 9.72337 14.8591L10.2195 15.6496C10.2737 15.7362 10.3484 15.8062 10.4361 15.8528L11.9323 16.6451C12.0654 16.7157 12.1773 16.8241 12.2556 16.9583C12.3338 17.0924 12.3752 17.247 12.3752 17.4046C12.3752 17.5623 12.3338 17.7168 12.2556 17.851C12.1773 17.9851 12.0654 18.0936 11.9323 18.1642L10.4361 18.9565C10.3699 18.9914 10.3109 19.0399 10.2625 19.0989C10.214 19.158 10.177 19.2267 10.1536 19.3009C10.1302 19.3752 10.1209 19.4536 10.1261 19.5317C10.1313 19.6097 10.151 19.686 10.1841 19.756C10.2549 19.8931 10.3721 19.9968 10.512 20.0463C10.652 20.0958 10.8045 20.0874 10.9389 20.0229L12.357 19.2716C12.6264 19.138 12.8644 18.9427 13.0538 18.6998C13.2432 18.4568 13.3793 18.1724 13.4522 17.8669C13.5504 17.42 13.5034 16.9511 13.3189 16.536C13.1343 16.1209 12.823 15.7838 12.4352 15.5793L11.0734 14.8579L10.656 14.1925C10.4131 13.8051 10.0833 13.4877 9.69616 13.2685C9.30898 13.0493 8.87651 12.9353 8.4375 12.9367H6.21563L2.11781 12.5048C1.84622 12.4761 1.59432 12.3418 1.4109 12.1277C1.22749 11.9137 1.12561 11.6351 1.125 11.3461V9.95801C1.1249 9.726 1.19044 9.49928 1.31316 9.30708C1.43588 9.11489 1.61015 8.96605 1.8135 8.87974L3.7215 8.06955L5.01525 6.36159C5.44404 5.79816 6.04256 5.40782 6.71063 5.25592C6.91873 5.20893 7.13126 5.18754 7.344 5.19218H9.49106C9.41075 5.5176 9.26708 5.82165 9.06928 6.0848C8.87147 6.34795 8.62389 6.56439 8.34244 6.72022C7.99431 6.87831 7.62179 6.96755 7.24331 6.98353C7.10065 7.00149 6.96987 7.07658 6.87782 7.1934C6.78577 7.31023 6.73941 7.45993 6.74826 7.6118C6.75711 7.76367 6.8205 7.90619 6.92541 8.01014C7.03033 8.11409 7.16883 8.17158 7.3125 8.17082C8.01811 8.16692 8.70476 7.92854 9.27562 7.48931C9.279 7.48931 9.28012 7.49467 9.2835 7.49646L12.9375 9.7078V12.3409C12.9375 12.9729 13.1746 13.579 13.5965 14.0259C14.0185 14.4728 14.5908 14.7238 15.1875 14.7238H17.1562L17.8031 15.6359C18.1271 16.0908 18.546 16.4602 19.027 16.7153C19.5081 16.9705 20.0383 17.1044 20.5763 17.1068H23.625C24.2373 17.106 24.8387 16.9346 25.3687 16.6099C25.4988 16.5325 25.5946 16.4035 25.6349 16.2514C25.6752 16.0992 25.6567 15.9363 25.5836 15.7985C25.5105 15.6608 25.3887 15.5594 25.2451 15.5167C25.1014 15.474 24.9476 15.4936 24.8175 15.571C24.5111 15.7752 24.1608 15.8937 23.7994 15.9153H20.5763C20.2127 15.9135 19.8545 15.8227 19.5296 15.65C19.2046 15.4773 18.9218 15.2274 18.7031 14.9198L17.8875 13.7707C17.8351 13.6967 17.7672 13.6366 17.6891 13.5953C17.611 13.5539 17.5248 13.5324 17.4375 13.5324H15.1875C14.8891 13.5324 14.603 13.4069 14.392 13.1834C14.181 12.96 14.0625 12.6569 14.0625 12.3409V9.95801H26.9685C26.8994 11.3134 26.5875 12.6424 26.0494 13.8743C26.0163 13.9454 25.997 14.0226 25.9925 14.1017C25.988 14.1807 25.9984 14.2599 26.0231 14.3346C26.0478 14.4093 26.0864 14.4781 26.1364 14.5368C26.1865 14.5956 26.2472 14.6432 26.3149 14.6768C26.3825 14.7105 26.4558 14.7295 26.5305 14.7328C26.6052 14.7361 26.6798 14.7236 26.7499 14.696C26.8199 14.6685 26.8841 14.6264 26.9387 14.5722C26.9932 14.5181 27.037 14.453 27.0675 14.3807C27.6737 13.0069 28.0267 11.5232 28.1076 10.0092C28.897 10.1461 29.6149 10.5754 30.1332 11.2207C30.6515 11.8659 30.9365 12.6852 30.9375 13.5324Z" fill="#0089CF"/>
</svg>
