<svg width="36" height="36" viewBox="0 0 36 36" fill="none" xmlns="http://www.w3.org/2000/svg">
<path d="M26.6613 13.9375C26.1719 13.9375 25.8047 14.328 25.8047 14.7869C25.8047 15.245 26.1712 15.6363 26.6613 15.6363C27.1303 15.6363 27.5106 15.256 27.5106 14.7869C27.5106 14.3178 27.1304 13.9375 26.6613 13.9375Z" fill="#0089CF"/>
<path d="M32.9896 20.0924C31.999 13.6383 28.5765 8.72273 22.1663 7.48144C21.7231 6.61672 20.9006 5.34724 19.5507 4.38042C17.1534 2.66342 14.2743 2.6936 11.4574 3.67628C10.6116 3.9713 10.723 5.14735 11.556 5.3153C13.5597 5.76592 14.4011 6.76932 14.8876 7.64345C13.1752 8.02533 12.1316 8.49402 10.934 9.28547C4.92527 13.2519 3.20788 18.6305 4.31536 23.1453C4.31547 23.1457 4.31564 23.1461 4.31575 23.1466C5.61389 28.4332 11.0413 31.7434 11.2717 31.8817C11.4011 31.9594 11.5496 32.0029 11.716 32.0029C11.954 32.0029 13.4483 31.9526 14.4856 30.7308C15.4024 29.651 15.6633 28.0436 15.2609 25.9534C15.159 25.4233 14.5868 25.1167 14.084 25.3368C14.07 25.3429 12.6605 25.9504 10.9417 25.8859C8.87675 25.8081 7.2533 24.8138 6.11027 22.9288C6.40517 22.4161 7.02329 21.4661 7.94878 20.6584C9.63644 19.1855 11.5596 18.8486 13.6649 19.657C13.8439 19.728 16.6627 20.8332 20.3481 21.5674C24.1317 22.3212 28.6353 22.6591 32.2003 21.1326C32.4964 21.0057 32.7071 20.9318 32.8665 20.6819C32.9784 20.5066 33.022 20.2975 32.9896 20.0924ZM13.726 27.2442C13.8052 28.2945 13.6285 29.1048 13.2026 29.6171C12.7955 30.1069 12.2334 30.2477 11.9325 30.2881C11.3561 29.9066 9.72058 28.7504 8.27522 27.032C10.003 27.7429 11.9367 27.7293 13.726 27.2442ZM22.7809 20.252C22.0522 18.8884 20.878 16.1359 21.5975 13.5986C22.0079 12.1512 23.0047 10.9492 24.5628 10.0211C28.436 11.8206 30.4066 15.4746 31.1992 19.7059C28.6359 20.6886 25.4906 20.6215 22.7809 20.252ZM20.0199 7.2161C18.737 7.14294 17.5708 7.22051 16.6401 7.33807C16.2839 6.59526 15.7155 5.55505 14.499 4.72657C17.3493 4.49129 19.0575 5.89514 20.0199 7.2161ZM14.2879 18.0767C11.2948 16.8794 8.15404 17.5916 5.72125 20.5225C5.74543 17.9839 6.7708 14.0691 11.8703 10.703C12.4764 10.3023 12.9845 10.0296 13.5173 9.81877C14.7896 9.31548 16.3785 9.03655 17.7374 8.93439C19.3669 8.8148 21.032 8.91554 22.5886 9.31809C19.2114 11.9836 19.0262 15.959 20.7316 19.9075C17.1464 19.1964 14.3433 18.0986 14.2879 18.0767Z" fill="#0089CF"/>
</svg>
