<svg width="86" height="86" viewBox="0 0 86 86" fill="none" xmlns="http://www.w3.org/2000/svg">
<g clip-path="url(#clip0_6711_17359)">
<path d="M46.2764 15.7341C50.6303 15.7341 54.1723 12.2049 54.1723 7.86714C54.1723 3.52942 50.6302 0 46.2764 0C41.9227 0 38.3807 3.52925 38.3807 7.86714C38.3807 12.205 41.9229 15.7341 46.2764 15.7341ZM46.2764 2.38889C49.3082 2.38889 51.7747 4.84638 51.7747 7.86714C51.7747 10.8879 49.3082 13.3452 46.2764 13.3452C43.2446 13.3452 40.7783 10.8877 40.7783 7.86714C40.7783 4.84655 43.2448 2.38889 46.2764 2.38889ZM20.3138 59.7979C21.4397 59.7979 22.5364 59.2161 23.1387 58.1769L28.0312 49.7335C28.2778 49.5608 28.5056 49.3554 28.7065 49.1165L30.7707 46.6599C31.2661 46.0702 31.465 45.3284 31.3305 44.5706C31.1959 43.8132 30.7536 43.1842 30.0853 42.7999L25.3834 40.0952L25.6946 39.5582C26.0239 38.99 26.1109 38.3264 25.9396 37.6892C25.8484 37.3495 25.6879 37.0413 25.4731 36.7765C25.7237 36.4782 25.9492 36.1458 26.1462 35.7788L31.7061 25.4195L34.4748 25.3933L31.7595 38.791C31.2983 41.0671 31.9743 43.8463 34.0107 45.2702L34.8737 53.8929C34.9992 55.1471 34.7404 56.1684 34.0588 57.1072L27.1778 66.5856C25.2548 69.2342 26.1352 71.854 27.767 73.167C28.5609 73.8059 29.5929 74.1897 30.6808 74.1897C31.953 74.1897 33.3017 73.6648 34.4348 72.4098L42.3986 63.5891C44.4237 61.3461 45.4499 58.6168 45.4487 55.4769L45.4462 49.266L53.6844 51.9861L54.3972 62.1962C54.5783 64.7897 56.6985 66.1372 58.7127 66.137H58.7505C60.7919 66.12 62.9315 64.7262 63.0707 62.0955L63.6653 50.8667C63.9578 45.3388 60.7531 43.9492 57.3603 42.4781C56.9768 42.3117 56.5824 42.1409 56.1805 41.959C56.1519 41.9461 56.1228 41.9341 56.0931 41.9235L48.0859 39.0316L49.6362 31.6334L51.6416 34.0032C53.4138 36.097 55.8013 37.2031 58.5483 37.2029H58.5747L66.3594 37.1823C68.3345 37.1772 69.9944 35.6356 70.1382 33.6728L70.1678 33.2691C70.3153 31.2575 68.836 29.4841 66.7999 29.2317L59.643 28.3444C58.7218 28.2304 58.0136 27.7997 57.5386 27.0645L54.1608 21.8381C52.1931 18.7931 49.3913 16.874 45.8335 16.1339L41.1051 15.15C39.6187 14.8408 38.2843 14.7881 36.7786 14.9792L29.7455 15.8708C26.6135 16.2679 24.1503 18.1018 22.9878 20.9026L18.3556 32.0636C18.2983 32.2018 18.246 32.34 18.1991 32.4779C17.1248 32.1535 15.926 32.5922 15.341 33.6018L15.0298 34.1388L10.3281 31.4341C9.65947 31.0495 8.89138 30.9824 8.16644 31.2449C7.44047 31.5075 6.89467 32.0503 6.63008 32.7727L5.52683 35.7819C5.41962 36.0745 5.3554 36.3736 5.32851 36.6724L0.435659 45.1165C0.00203225 45.8649 -0.11254 46.7387 0.112837 47.5772C0.338213 48.4157 0.876136 49.1153 1.62728 49.5474L18.6923 59.364C19.2037 59.6582 19.7627 59.7979 20.3147 59.7979H20.3138ZM43.0506 55.4778C43.0516 58.0447 42.2551 60.1752 40.6156 61.9911L32.6518 70.8118C31.4903 72.0982 30.118 71.9883 29.273 71.3083C28.526 70.7072 28.0376 69.4762 29.1199 67.9854L36.0009 58.5069C37.0177 57.1063 37.4409 55.474 37.259 53.6556L36.525 46.3203L43.0477 48.4741L43.0506 55.4778ZM55.5222 28.3575C56.388 29.697 57.7105 30.5121 59.3467 30.7149L66.5034 31.602C67.2715 31.6972 67.8305 32.353 67.7762 33.0947L67.7466 33.4984C67.6926 34.2346 67.0936 34.7912 66.3527 34.793L58.568 34.8137H58.5474C56.5014 34.8137 54.7943 34.0228 53.4741 32.4627L50.258 28.6626L51.5829 22.3389C51.7779 22.5923 51.9661 22.8551 52.1444 23.1311L55.5222 28.3575ZM25.2031 21.8152C26.0273 19.829 27.7933 18.5259 30.0478 18.2401L37.0809 17.3485C38.3275 17.1908 39.3843 17.2323 40.6146 17.4881L45.3431 18.4719C46.9365 18.8035 48.3428 19.4265 49.5543 20.3298L47.7915 28.7435C47.7915 28.7435 47.7915 28.7435 47.7915 28.7437L45.526 39.557C45.404 40.1389 45.7301 40.7216 46.291 40.9241L55.2315 44.1531C55.6304 44.3331 56.0219 44.5029 56.4031 44.6682C59.674 46.0864 61.4754 46.8675 61.2706 50.7404L60.676 61.9693C60.6072 63.2705 59.5847 63.7406 58.7302 63.7478C58.7237 63.7478 58.7172 63.7478 58.7106 63.7478C57.8747 63.7478 56.8775 63.2992 56.7888 62.03L56.0202 51.021C55.9864 50.5376 55.6629 50.1224 55.2014 49.97L36.0665 43.6521C34.3966 43.1008 33.76 40.9876 34.1094 39.2633L37.1175 24.4208C37.1891 24.0678 37.097 23.7012 36.8666 23.4236C36.6387 23.1489 36.2998 22.9899 35.9425 22.9899C35.9387 22.9899 35.9348 22.9899 35.9312 22.9899L30.9726 23.037C30.5343 23.0411 30.1334 23.283 29.9269 23.6681L24.0318 34.6519C23.8678 34.9577 23.677 35.2169 23.4632 35.429L20.3588 33.6433C20.4068 33.4273 20.4762 33.2046 20.5709 32.9765L25.2032 21.8152H25.2031ZM17.4168 34.7961C17.4355 34.7639 17.4874 34.7499 17.5195 34.7685L23.5907 38.2609C23.6068 38.2701 23.6176 38.2856 23.6234 38.3068C23.629 38.3281 23.6271 38.347 23.6179 38.3631L23.3067 38.9002L17.1058 35.3331L17.417 34.7961H17.4168ZM7.77837 36.6014L8.88179 33.5918C8.90388 33.5312 8.92306 33.5123 8.9842 33.4901C9.04534 33.4679 9.0724 33.4703 9.12874 33.5027L28.8865 44.8682C28.9427 44.9005 28.9582 44.9226 28.9694 44.9863C28.9807 45.0503 28.9737 45.0764 28.932 45.1262L26.868 47.5827C26.5038 48.0159 25.8292 48.1123 25.2986 47.8072L20.1554 44.8486C20.2595 44.5303 20.2703 44.1884 20.1811 43.8568C20.0598 43.4053 19.7697 43.0282 19.3642 42.795L15.6917 40.6825C15.2862 40.4491 14.8132 40.3873 14.3602 40.5083C14.0274 40.5972 13.7356 40.7774 13.5111 41.0265L8.36784 38.0679C7.83711 37.7626 7.58365 37.1323 7.77837 36.6014ZM17.6086 44.5437L17.418 44.8726L14.8592 43.4006L15.0497 43.0718L17.6086 44.5437ZM2.42791 46.9588C2.36814 46.7368 2.39777 46.5066 2.51131 46.3108L6.41806 39.5686C6.63916 39.7838 6.88954 39.9759 7.16886 40.1365L12.3121 43.0951C12.2078 43.4134 12.1972 43.7553 12.2864 44.087C12.4078 44.5385 12.6978 44.9155 13.1033 45.1487L16.7759 47.2615C17.0457 47.4168 17.3454 47.4962 17.6494 47.4962C17.8021 47.4962 17.9557 47.476 18.1073 47.4358C18.4402 47.3468 18.7321 47.1667 18.9568 46.9175L24.1 49.8762C24.3793 50.0369 24.6715 50.157 24.969 50.2401L21.0624 56.9821C20.826 57.3901 20.3006 57.5309 19.8905 57.2949L2.8254 47.4782C2.62897 47.3651 2.48768 47.1807 2.42808 46.9587L2.42791 46.9588ZM86 60.3005C86 60.9601 85.4633 61.4949 84.8012 61.4949H67.8851V68.4689C67.8851 69.1286 67.3484 69.6634 66.6863 69.6634H49.7703V76.6372C49.7703 77.2969 49.2335 77.8317 48.5715 77.8317H31.6554V84.8056C31.6554 85.4652 31.1187 86 30.4566 86H12.3415C11.6795 86 11.1427 85.4652 11.1427 84.8056C11.1427 84.1459 11.6795 83.6111 12.3415 83.6111H29.2576V76.6372C29.2576 75.9776 29.7943 75.4428 30.4564 75.4428H47.3725V68.4689C47.3725 67.8093 47.9092 67.2745 48.5713 67.2745H65.4873V60.3005C65.4873 59.6408 66.0241 59.106 66.6862 59.106H84.801C85.4631 59.106 85.9998 59.6408 85.9998 60.3005H86Z" fill="#0089CF"/>
</g>
<defs>
<clipPath id="clip0_6711_17359">
<rect width="86" height="86" fill="white"/>
</clipPath>
</defs>
</svg>
