<svg width="75" height="86" viewBox="0 0 75 86" fill="none" xmlns="http://www.w3.org/2000/svg">
<path d="M53.8505 19.2755C51.206 16.8911 48.0826 15.0993 44.6895 14.0199C41.2964 12.9405 37.7118 12.5985 34.1757 13.0168C28.8386 13.6264 23.8362 15.9267 19.8996 19.5818C15.9629 23.2368 13.2982 28.0549 12.2948 33.3322C11.2914 38.6095 12.0019 44.0694 14.3225 48.9142C16.6431 53.7589 20.4522 57.7346 25.1932 60.2603V75.1078C25.194 75.8938 25.5066 76.6473 26.0623 77.203C26.618 77.7588 27.3716 78.0714 28.1575 78.0721H31.1218V81.0364C31.1226 81.8224 31.4351 82.5759 31.9909 83.1316C32.5466 83.6874 33.3001 83.9999 34.0861 84.0007H40.0147C40.8006 83.9999 41.5541 83.6874 42.1099 83.1316C42.6656 82.5759 42.9782 81.8224 42.9789 81.0364V78.0721H45.9432C46.7292 78.0714 47.4827 77.7588 48.0384 77.203C48.5942 76.6473 48.9067 75.8938 48.9075 75.1078V60.2611C52.4848 58.3558 55.5491 55.615 57.84 52.2715C60.1308 48.9281 61.5805 45.081 62.0658 41.0571C62.5511 37.0333 62.0576 32.9518 60.6273 29.1596C59.197 25.3674 56.8722 21.9766 53.8505 19.2755ZM45.9432 66.215V69.1793H28.1575V66.215H45.9432ZM40.0169 81.0364H34.0861V78.0721H40.0154L40.0169 81.0364ZM41.4968 75.1078H28.1575V72.1436H45.9432V75.1078H41.4968ZM46.7755 58.022C46.5258 58.1436 46.3154 58.3329 46.1683 58.5684C46.0211 58.8038 45.9431 59.0759 45.9432 59.3535V63.2507H38.5325V56.4537L42.5447 52.4414C42.8147 52.1619 42.9641 51.7875 42.9607 51.3989C42.9573 51.0103 42.8014 50.6385 42.5266 50.3637C42.2518 50.0889 41.8801 49.933 41.4915 49.9297C41.1029 49.9263 40.7285 50.0757 40.4489 50.3457L37.0504 53.7441L33.6518 50.3457C33.3723 50.0757 32.9979 49.9263 32.6093 49.9297C32.2207 49.933 31.8489 50.0889 31.5741 50.3637C31.2993 50.6385 31.1434 51.0103 31.1401 51.3989C31.1367 51.7875 31.2861 52.1619 31.5561 52.4414L35.5682 56.4537V63.2507H28.1575V59.3535C28.1576 59.0759 28.0796 58.8038 27.9324 58.5684C27.7853 58.3329 27.5749 58.1436 27.3253 58.022C22.9987 55.9207 19.4708 52.4721 17.2718 48.1943C15.0729 43.9165 14.3215 39.0406 15.1307 34.2993C15.9398 29.558 18.2658 25.2073 21.7591 21.901C25.2524 18.5947 29.7244 16.5113 34.503 15.9639C35.3589 15.8683 36.2195 15.8202 37.0808 15.8199C42.5442 15.8036 47.8179 17.8228 51.8733 21.4839C54.5918 23.9136 56.6703 26.9752 57.9253 30.3985C59.1803 33.8217 59.5733 37.5013 59.0695 41.1124C58.5656 44.7235 57.1805 48.155 55.0364 51.104C52.8923 54.0529 50.0552 56.4292 46.7755 58.022Z" fill="#0089CF"/>
<path d="M37.0525 9.89286C37.4455 9.89286 37.8225 9.73671 38.1005 9.45875C38.3784 9.1808 38.5346 8.80381 38.5346 8.41072V2.48214C38.5346 2.08905 38.3784 1.71207 38.1005 1.43411C37.8225 1.15615 37.4455 1 37.0525 1C36.6594 1 36.2824 1.15615 36.0044 1.43411C35.7265 1.71207 35.5703 2.08905 35.5703 2.48214V8.41072C35.5703 8.80381 35.7265 9.1808 36.0044 9.45875C36.2824 9.73671 36.6594 9.89286 37.0525 9.89286Z" fill="#0089CF"/>
<path d="M15.0433 18.1391C15.18 18.2806 15.3436 18.3935 15.5244 18.4712C15.7052 18.5489 15.8997 18.5898 16.0965 18.5915C16.2933 18.5932 16.4885 18.5557 16.6706 18.4812C16.8528 18.4066 17.0183 18.2966 17.1574 18.1574C17.2966 18.0183 17.4066 17.8528 17.4812 17.6706C17.5557 17.4885 17.5932 17.2933 17.5915 17.0965C17.5898 16.8997 17.5489 16.7052 17.4712 16.5244C17.3935 16.3436 17.2806 16.18 17.1391 16.0433L12.9467 11.8509C12.8099 11.7094 12.6464 11.5964 12.4656 11.5188C12.2847 11.4411 12.0903 11.4002 11.8935 11.3985C11.6967 11.3968 11.5015 11.4343 11.3193 11.5088C11.1372 11.5833 10.9717 11.6934 10.8325 11.8325C10.6934 11.9717 10.5833 12.1372 10.5088 12.3193C10.4343 12.5015 10.3968 12.6967 10.3985 12.8935C10.4002 13.0903 10.4411 13.2847 10.5188 13.4656C10.5964 13.6464 10.7094 13.8099 10.8509 13.9467L15.0433 18.1391Z" fill="#0089CF"/>
<path d="M7.41072 36.5703H1.48214C1.08905 36.5703 0.712066 36.7265 0.43411 37.0044C0.156154 37.2824 0 37.6594 0 38.0525C0 38.4455 0.156154 38.8225 0.43411 39.1005C0.712066 39.3784 1.08905 39.5346 1.48214 39.5346H7.41072C7.80381 39.5346 8.1808 39.3784 8.45875 39.1005C8.73671 38.8225 8.89286 38.4455 8.89286 38.0525C8.89286 37.6594 8.73671 37.2824 8.45875 37.0044C8.1808 36.7265 7.80381 36.5703 7.41072 36.5703Z" fill="#0089CF"/>
<path d="M15.0433 57.9668L10.8509 62.1592C10.7094 62.2959 10.5964 62.4595 10.5188 62.6403C10.4411 62.8212 10.4002 63.0156 10.3985 63.2124C10.3968 63.4092 10.4343 63.6044 10.5088 63.7866C10.5833 63.9687 10.6934 64.1342 10.8325 64.2733C10.9717 64.4125 11.1372 64.5226 11.3193 64.5971C11.5015 64.6716 11.6967 64.7091 11.8935 64.7074C12.0903 64.7057 12.2847 64.6648 12.4656 64.5871C12.6464 64.5095 12.8099 64.3965 12.9467 64.255L17.1391 60.0626C17.409 59.783 17.5584 59.4087 17.5551 59.02C17.5517 58.6314 17.3958 58.2597 17.121 57.9849C16.8462 57.7101 16.4745 57.5542 16.0859 57.5508C15.6972 57.5475 15.3228 57.6969 15.0433 57.9668Z" fill="#0089CF"/>
<path d="M61.1605 11.8509L56.9681 16.0433C56.8265 16.18 56.7136 16.3436 56.636 16.5244C56.5583 16.7052 56.5174 16.8997 56.5157 17.0965C56.514 17.2933 56.5515 17.4885 56.626 17.6706C56.7005 17.8528 56.8106 18.0183 56.9497 18.1574C57.0889 18.2966 57.2544 18.4066 57.4365 18.4812C57.6187 18.5557 57.8138 18.5932 58.0106 18.5915C58.2074 18.5898 58.4019 18.5489 58.5828 18.4712C58.7636 18.3935 58.9271 18.2806 59.0639 18.1391L63.2563 13.9467C63.3978 13.8099 63.5107 13.6464 63.5884 13.4656C63.6661 13.2847 63.707 13.0903 63.7087 12.8935C63.7104 12.6967 63.6729 12.5015 63.5984 12.3193C63.5238 12.1372 63.4138 11.9717 63.2746 11.8325C63.1355 11.6934 62.97 11.5833 62.7878 11.5088C62.6057 11.4343 62.4105 11.3968 62.2137 11.3985C62.0169 11.4002 61.8224 11.4411 61.6416 11.5188C61.4608 11.5964 61.2972 11.7094 61.1605 11.8509Z" fill="#0089CF"/>
<path d="M59.0665 57.9668C58.787 57.6969 58.4126 57.5475 58.024 57.5508C57.6353 57.5542 57.2636 57.7101 56.9888 57.9849C56.714 58.2597 56.5581 58.6314 56.5547 59.02C56.5514 59.4087 56.7008 59.783 56.9707 60.0626L61.1631 64.255C61.4427 64.525 61.8171 64.6744 62.2057 64.671C62.5943 64.6676 62.966 64.5117 63.2408 64.2369C63.5156 63.9621 63.6715 63.5904 63.6749 63.2018C63.6783 62.8132 63.5289 62.4388 63.2589 62.1592L59.0665 57.9668Z" fill="#0089CF"/>
<path d="M72.6295 36.5703H66.7009C66.3078 36.5703 65.9308 36.7265 65.6529 37.0044C65.3749 37.2824 65.2188 37.6594 65.2188 38.0525C65.2188 38.4455 65.3749 38.8225 65.6529 39.1005C65.9308 39.3784 66.3078 39.5346 66.7009 39.5346H72.6295C73.0226 39.5346 73.3995 39.3784 73.6775 39.1005C73.9555 38.8225 74.1116 38.4455 74.1116 38.0525C74.1116 37.6594 73.9555 37.2824 73.6775 37.0044C73.3995 36.7265 73.0226 36.5703 72.6295 36.5703Z" fill="#0089CF"/>
</svg>
