<svg width="88" height="86" viewBox="0 0 88 86" fill="none" xmlns="http://www.w3.org/2000/svg">
<path d="M20.3954 19.8286C32.2944 19.0645 38.4077 23.1036 43.3201 26.3785C45.5034 27.7977 47.4684 29.1077 49.6517 29.8718C50.7434 30.1993 51.835 30.4177 52.9267 30.4177C55.2192 30.4177 57.6208 29.6535 59.6949 28.1252C60.3499 27.6885 60.4591 26.8152 60.0224 26.1602C59.5858 25.5052 58.7125 25.3961 58.0575 25.8327C55.6558 27.5794 52.9267 28.016 50.4159 27.2519C48.5601 26.706 46.8134 25.5052 44.7393 24.1952C40.1543 21.1386 34.0411 17.0995 23.0154 17.0995C26.727 12.7329 36.4427 3.78131 53.8 5.0913C59.3674 5.52796 63.5157 10.7679 63.1882 16.8812C63.1882 17.2087 63.1882 17.5362 63.0791 17.9728C62.9699 18.8461 62.6424 19.8286 62.3149 20.7019C56.5291 15.5712 48.7784 12.7329 39.1718 12.2962C38.4077 12.2962 37.7527 12.842 37.7527 13.6062C37.7527 14.3704 38.2985 15.0253 39.0627 15.0253C54.0183 15.5712 63.6249 22.1211 68.5373 34.7843C68.7557 35.3301 69.3015 35.6576 69.8473 35.6576C70.0657 35.6576 70.1748 35.6576 70.3932 35.5484C71.1573 35.2209 71.4848 34.4568 71.1573 33.6926C69.4107 29.326 67.2274 25.6144 64.3891 22.5578C65.044 21.1386 65.5899 19.7195 65.8082 18.1911C65.9174 17.7545 65.9174 17.2087 65.9174 16.8812C66.354 9.34875 61.0049 2.68966 54.0183 2.14383C29.7836 0.288018 19.4129 16.9903 18.9762 17.7545C18.7579 18.1911 18.7579 18.737 18.9762 19.1736C19.4129 19.6103 19.8496 19.9378 20.3954 19.8286Z" fill="#0089CF"/>
<path d="M32.299 84.9989C32.8448 84.9989 33.2815 84.6714 33.609 84.2348C33.8273 83.7981 33.8273 83.2523 33.4998 82.8156C26.8407 72.8816 27.2774 65.5675 27.714 59.6725C27.8232 57.1617 28.0415 54.6509 27.4957 52.4676C26.7315 48.9743 24.4391 46.136 20.9458 44.6077C20.1816 44.2802 19.4175 44.6077 19.09 45.2627C18.7625 45.9177 19.09 46.791 19.745 47.1185C22.3649 48.3193 24.2207 50.3935 24.7666 53.0135C25.2032 54.8693 25.0941 57.0526 24.8757 59.4542C24.5482 64.9125 24.1116 72.2266 29.5698 81.8331C24.0024 80.8506 11.3392 77.0298 3.8068 61.2009C1.40516 56.1792 3.91597 49.9568 9.26507 47.2277C9.59257 47.0094 9.92006 46.9002 10.2476 46.791C11.1209 46.4635 11.9942 46.2452 12.9767 46.136C11.4484 53.7776 12.8675 61.8558 17.3433 70.3707C17.5616 70.8074 18.1075 71.1349 18.5441 71.1349C18.7625 71.1349 18.9808 71.1349 19.1991 71.0257C19.8541 70.6982 20.1816 69.8249 19.745 69.1699C12.7584 55.9609 13.5225 44.3894 22.1466 33.6912C22.5833 33.0362 22.5833 32.1629 21.9283 31.7262C21.2733 31.2895 20.3999 31.2895 19.9633 31.9445C17.0158 35.547 14.9417 39.3678 13.7409 43.4069C12.2125 43.5161 10.6842 43.8436 9.15591 44.3894C8.71925 44.6077 8.28258 44.7169 7.95509 44.9352C1.18683 48.3193 -1.8698 56.1792 1.18683 62.62C11.7759 84.3439 31.4256 84.9989 32.299 84.9989Z" fill="#0089CF"/>
<path d="M58.164 60.4398C55.5441 62.8414 54.2341 66.2256 54.6708 70.0464C54.7799 70.8105 55.4349 71.3563 56.1991 71.3563C56.9632 71.2472 57.5091 70.5922 57.5091 69.828C57.1816 66.8806 58.164 64.2606 60.129 62.514C61.5482 61.204 63.404 60.3306 65.6965 59.1298C70.6089 56.7282 77.1588 53.3441 82.6171 43.8467C84.5821 49.1958 87.4204 62.1865 77.5955 76.4871C74.4297 81.0721 67.8798 82.0546 62.749 78.6704C62.4215 78.4521 62.2032 78.2338 61.8757 78.0154C61.1115 77.4696 60.4565 76.7055 59.9107 76.0505C67.3339 73.6488 73.5564 68.2997 78.6871 60.2215C79.1238 59.5665 78.9055 58.6932 78.2505 58.2565C77.5955 57.8198 76.7222 58.0382 76.2855 58.6932C68.3164 71.3564 57.8365 76.4871 44.4092 74.413C43.645 74.3038 42.8809 74.8496 42.7717 75.6138C42.6626 76.378 43.2084 77.1421 43.9725 77.2513C46.0467 77.5788 48.0117 77.6879 49.9766 77.6879C52.3783 77.6879 54.7799 77.4696 56.9632 76.9238C57.8365 78.2338 58.819 79.3254 60.0199 80.3079C60.3474 80.6354 60.784 80.8537 61.1115 81.1812C63.6223 82.8187 66.3514 83.5829 69.0806 83.5829C73.338 83.5829 77.3772 81.7271 79.7788 78.1246C93.5336 58.0382 84.2546 40.6809 83.8179 40.0259C83.5996 39.5892 83.0538 39.2617 82.5079 39.2617C81.9621 39.2617 81.5254 39.5892 81.3071 40.0259C76.1763 50.7241 69.6264 53.9991 64.3865 56.619C62.094 57.8198 59.9107 58.9115 58.164 60.4398Z" fill="#0089CF"/>
</svg>
