<svg width="67" height="86" viewBox="0 0 67 86" fill="none" xmlns="http://www.w3.org/2000/svg">
<path d="M24.4526 48.4197C24.1716 48.4197 23.8922 48.3324 23.6561 48.1609C23.2389 47.8578 23.0299 47.3442 23.1171 46.8358L24.6781 37.7342L18.0654 31.2883C17.6961 30.9284 17.5632 30.39 17.7226 29.8995C17.882 29.409 18.3059 29.0516 18.8163 28.9774L27.9549 27.6495L32.0418 19.3685C32.27 18.9061 32.741 18.6133 33.2567 18.6133C33.7724 18.6133 34.2434 18.9061 34.4716 19.3685L38.5585 27.6495L47.6971 28.9774C48.2075 29.0516 48.6315 29.409 48.7908 29.8995C48.9502 30.39 48.8173 30.9284 48.448 31.2883L41.8353 37.7342L43.3963 46.8358C43.4836 47.3441 43.2746 47.8578 42.8574 48.1609C42.4402 48.464 41.8871 48.504 41.4306 48.2641L33.2567 43.9668L25.0829 48.2641C24.8847 48.3682 24.6682 48.4197 24.4526 48.4197ZM33.2567 41.0813C33.4733 41.0813 33.6898 41.1332 33.8871 41.237L40.2616 44.5882L39.0442 37.4902C38.9688 37.0507 39.1145 36.6023 39.4339 36.291L44.5908 31.2642L37.464 30.2287C37.0226 30.1646 36.6413 29.8874 36.4439 29.4875L33.2567 23.0294L30.0695 29.4874C29.8722 29.8873 29.4907 30.1645 29.0494 30.2285L21.9226 31.2641L27.0796 36.2909C27.3989 36.6022 27.5446 37.0506 27.4693 37.4901L26.2518 44.5881L32.6262 41.2368C32.8236 41.1332 33.0401 41.0813 33.2567 41.0813Z" fill="#0089CF"/>
<path d="M47.5692 84.9991C47.0408 84.9991 46.5605 84.6919 46.339 84.212L37.4688 64.9925C37.1552 64.3132 37.4518 63.5082 38.1312 63.1946C38.8106 62.8811 39.6155 63.1776 39.9291 63.857L47.5648 80.4018L51.5418 71.7246C51.8202 71.117 52.5002 70.8031 53.1429 70.9856L62.3262 73.589L53.3813 54.2081C53.0677 53.5287 53.3643 52.7238 54.0436 52.4102C54.7231 52.0966 55.528 52.3932 55.8415 53.0726L66.0208 75.1282C66.2425 75.6086 66.1643 76.1741 65.8205 76.5763C65.4768 76.9785 64.9303 77.1437 64.4212 76.9994L53.5211 73.9093L48.8007 84.2088C48.5803 84.6898 48.1 84.9985 47.5709 84.9992C47.5704 84.9991 47.5698 84.9991 47.5692 84.9991Z" fill="#0089CF"/>
<path d="M18.9437 84.9992C18.9431 84.9992 18.9425 84.9992 18.9419 84.9992C18.4128 84.9985 17.9325 84.6898 17.7121 84.2088L12.9917 73.9093L2.09155 76.9994C1.58252 77.1438 1.03603 76.9785 0.692215 76.5763C0.348395 76.1741 0.270193 75.6086 0.491895 75.1282L10.6712 53.0725C10.9848 52.3932 11.7898 52.0966 12.4691 52.4102C13.1485 52.7237 13.4451 53.5287 13.1315 54.2081L4.18663 73.5889L13.3699 70.9855C14.0127 70.8033 14.6927 71.117 14.9711 71.7245L18.948 80.4018L26.5838 63.857C26.8973 63.1777 27.7023 62.8811 28.3817 63.1946C29.0611 63.5082 29.3576 64.3131 29.0441 64.9925L20.1738 84.212C19.9524 84.6919 19.4721 84.9992 18.9437 84.9992Z" fill="#0089CF"/>
<path d="M39.8947 66.0319C38.487 66.0319 37.1399 65.2098 35.9298 64.4711C34.9608 63.8798 33.9588 63.2682 33.2582 63.2682C32.5577 63.2682 31.5557 63.8797 30.5867 64.4711C29.3766 65.2097 28.0293 66.0318 26.6218 66.0319C26.3691 66.0319 26.1147 66.0054 25.8585 65.9472C24.1174 65.5515 23.0685 63.9256 22.1431 62.491C21.5741 61.609 20.9292 60.6094 20.3468 60.3284C19.7397 60.0356 18.5886 60.1491 17.4753 60.2587C15.7947 60.4242 13.8899 60.6119 12.5201 59.5182C11.144 58.4193 10.9046 56.5149 10.6934 54.8347C10.5544 53.7294 10.4108 52.5864 9.99554 52.0664C9.58544 51.5528 8.50799 51.1616 7.46598 50.7834C5.86845 50.2034 4.0578 49.5461 3.28808 47.9507C2.53082 46.381 3.13649 44.5725 3.67078 42.9769C4.02805 41.9101 4.39741 40.807 4.24554 40.1386C4.10522 39.5215 3.28119 38.6774 2.55417 37.9326C1.35696 36.7063 0 35.3163 0 33.516C0 31.7156 1.35696 30.3256 2.55417 29.0993C3.28124 28.3546 4.10527 27.5105 4.24554 26.8933C4.39747 26.225 4.02805 25.1219 3.67078 24.0551C3.13643 22.4595 2.53082 20.6509 3.28813 19.0813C4.0578 17.4859 5.86845 16.8285 7.46603 16.2486C8.50804 15.8703 9.58549 15.4792 9.99565 14.9656C10.4108 14.4456 10.5546 13.3027 10.6935 12.1973C10.9047 10.5171 11.1441 8.61267 12.5202 7.51379C13.89 6.42004 15.7948 6.60773 17.4753 6.77326C18.5886 6.88302 19.7398 6.99644 20.3468 6.70354C20.9293 6.42255 21.5742 5.42292 22.1431 4.54098C23.0684 3.10648 24.1173 1.48051 25.8585 1.08479C27.5413 0.702147 29.1593 1.68964 30.5867 2.56081C31.5557 3.15225 32.5577 3.76371 33.2582 3.76371C33.9587 3.76371 34.9607 3.15219 35.9297 2.56081C37.3571 1.68964 38.9747 0.701983 40.6579 1.08479C42.399 1.48051 43.4479 3.10648 44.3733 4.54104C44.9423 5.42298 45.5872 6.42261 46.1696 6.70359C46.7766 6.99644 47.9278 6.88302 49.0411 6.77332C50.7216 6.60773 52.6264 6.41998 53.9963 7.51384C55.3724 8.61267 55.6118 10.5171 55.823 12.1974C55.9619 13.3027 56.1056 14.4456 56.5208 14.9656C56.9309 15.4792 58.0084 15.8703 59.0504 16.2486C60.6479 16.8285 62.4586 17.4859 63.2283 19.0813C63.9855 20.6509 63.3799 22.4594 62.8456 24.055C62.4884 25.1218 62.1189 26.2249 62.2709 26.8933C62.4111 27.5104 63.2352 28.3545 63.9622 29.0993C65.1594 30.3256 66.5164 31.7155 66.5164 33.5159C66.5164 35.3163 65.1594 36.7062 63.9622 37.9326C63.2352 38.6773 62.4111 39.5214 62.2709 40.1386C62.1189 40.807 62.4884 41.9101 62.8456 42.9768C63.3799 44.5725 63.9855 46.381 63.2283 47.9507C62.4585 49.5461 60.6479 50.2034 59.0504 50.7833C58.0084 51.1616 56.9309 51.5528 56.5208 52.0664C56.1055 52.5864 55.9619 53.7293 55.823 54.8347C55.6117 56.5149 55.3723 58.4193 53.9962 59.5181C52.6264 60.612 50.7216 60.4242 49.0411 60.2587C47.9278 60.1489 46.7766 60.0354 46.1696 60.3284C45.5871 60.6094 44.9422 61.609 44.3733 62.4909C43.4479 63.9255 42.399 65.5514 40.6579 65.9472C40.4019 66.0054 40.1473 66.0319 39.8947 66.0319ZM33.2582 60.5585C34.7204 60.5585 36.0528 61.3717 37.3414 62.1582C38.3285 62.7607 39.4471 63.4433 40.0574 63.3049C40.7209 63.1541 41.4516 62.0214 42.0962 61.0221C42.8961 59.7822 43.7232 58.5001 44.9921 57.8879C46.2848 57.2644 47.8211 57.4157 49.3068 57.5621C50.4736 57.677 51.7962 57.8074 52.3054 57.4007C52.8211 56.9889 52.9876 55.6649 53.1344 54.4967C53.3201 53.0193 53.5121 51.4916 54.4034 50.3756C55.2894 49.2659 56.7313 48.7425 58.1258 48.2362C59.2374 47.8328 60.4973 47.3753 60.7877 46.7732C61.0661 46.1963 60.6464 44.943 60.2761 43.8372C59.8003 42.4163 59.3082 40.9471 59.6285 39.5379C59.9382 38.1755 60.9982 37.0897 62.0232 36.0396C62.8592 35.1834 63.8066 34.2129 63.8066 33.5159C63.8066 32.8189 62.8592 31.8483 62.0232 30.9921C60.9982 29.9421 59.9382 28.8563 59.6285 27.4938C59.3082 26.0847 59.8003 24.6154 60.2761 23.1945C60.6464 22.0888 61.066 20.8355 60.7877 20.2586C60.4973 19.6564 59.2374 19.1991 58.1258 18.7955C56.7313 18.2893 55.2894 17.7659 54.4033 16.6563C53.5122 15.5402 53.3201 14.0126 53.1345 12.5352C52.9876 11.367 52.8212 10.0429 52.3055 9.63112C51.7963 9.22452 50.4737 9.35484 49.3067 9.46979C47.8211 9.61619 46.2848 9.76762 44.9922 9.14391C43.7233 8.53174 42.8962 7.24965 42.0963 6.00972C41.4517 5.01042 40.721 3.87773 40.0573 3.7269C39.4474 3.58849 38.3285 4.27115 37.3414 4.87359C36.0528 5.66005 34.7204 6.47325 33.2582 6.47325C31.7962 6.47325 30.4637 5.66005 29.1751 4.87359C28.1879 4.27104 27.0688 3.58849 26.4591 3.72685C25.7954 3.87773 25.0648 5.01036 24.4201 6.00966C23.6202 7.24959 22.7931 8.53168 21.5242 9.14391C20.2316 9.76751 18.6954 9.61613 17.2097 9.46974C16.0428 9.35478 14.7203 9.22446 14.211 9.63112C13.6953 10.0429 13.5288 11.3669 13.382 12.5351C13.1963 14.0125 13.0043 15.5401 12.1131 16.6562C11.227 17.7658 9.7851 18.2892 8.39063 18.7955C7.279 19.199 6.01911 19.6564 5.72867 20.2585C5.45031 20.8355 5.86998 22.0888 6.24027 23.1945C6.7161 24.6154 7.20812 26.0847 6.88782 27.4938C6.57813 28.8563 5.51817 29.9421 4.49311 30.9921C3.65716 31.8484 2.70971 32.8188 2.70971 33.5159C2.70971 34.2129 3.65716 35.1834 4.49311 36.0397C5.51817 37.0897 6.57813 38.1755 6.88782 39.5379C7.20812 40.9471 6.7161 42.4164 6.24027 43.8372C5.86998 44.943 5.45025 46.1962 5.72867 46.7732C6.01917 47.3754 7.27905 47.8327 8.39063 48.2362C9.78505 48.7424 11.227 49.2659 12.113 50.3755C13.0042 51.4916 13.1962 53.0193 13.3819 54.4966C13.5288 55.6648 13.6952 56.9888 14.211 57.4006C14.7203 57.8074 16.0428 57.677 17.2097 57.562C18.6954 57.4157 20.2317 57.2644 21.5242 57.8879C22.7931 58.5001 23.6202 59.7822 24.4202 61.0221C25.0648 62.0214 25.7955 63.1541 26.4591 63.305C27.0693 63.4438 28.188 62.7607 29.1751 62.1582C30.4637 61.3718 31.7961 60.5585 33.2582 60.5585Z" fill="#0089CF"/>
<path d="M33.262 57.903C29.9704 57.903 26.7765 57.258 23.769 55.986C20.8649 54.7576 18.257 52.9994 16.0178 50.7602C13.7785 48.521 12.0203 45.9131 10.792 43.0089C9.51998 40.0015 8.875 36.8076 8.875 33.516C8.875 30.2243 9.51998 27.0304 10.792 24.023C12.0203 21.1188 13.7785 18.511 16.0178 16.2717C18.257 14.0325 20.8649 12.2743 23.769 11.0459C26.7765 9.77389 29.9704 9.12891 33.262 9.12891C36.5536 9.12891 39.7476 9.77389 42.755 11.0459C45.6591 12.2743 48.267 14.0325 50.5062 16.2717C52.7455 18.511 54.5037 21.1189 55.732 24.023C57.004 27.0304 57.649 30.2243 57.649 33.516C57.649 36.8076 57.004 40.0015 55.732 43.0089C54.5037 45.9131 52.7455 48.521 50.5062 50.7602C48.267 52.9995 45.6591 54.7577 42.755 55.986C39.7476 57.258 36.5536 57.903 33.262 57.903ZM33.262 11.8386C21.309 11.8386 11.5846 21.563 11.5846 33.5159C11.5846 45.4688 21.309 55.1933 33.262 55.1933C45.215 55.1933 54.9394 45.4689 54.9394 33.516C54.9394 21.5631 45.215 11.8386 33.262 11.8386Z" fill="#0089CF"/>
</svg>
